<svg width="178" height="84" viewBox="0 0 178 84" fill="none" xmlns="http://www.w3.org/2000/svg">
<path fill-rule="evenodd" clip-rule="evenodd" d="M94.3575 4.78998C94.2104 5.46731 94.3943 5.17702 93.659 5.30604C94.0266 4.72547 93.7693 5.01576 94.3575 4.78998ZM167.607 14.1634C167.313 13.3893 165.588 13.0692 165.22 13.037C164.301 13.0047 164.816 13.3273 163.348 13.2305C162.834 13.1983 161.476 12.779 161.991 13.5531C162.358 13.8433 162.028 13.7143 162.653 13.8111C163.167 13.9078 162.91 13.7143 163.645 14.0046C164.123 14.1981 164.528 14.5529 165.076 14.8109C165.701 14.6497 165.922 14.3916 166.213 14.2949C167.059 14.0369 166.654 14.7464 167.607 14.1659V14.1634ZM166.287 70.5999C165.882 70.1161 166.176 70.3741 165.404 69.987C165.514 68.6994 165.809 69.1162 166.36 68.3123C166.213 67.6673 165.919 67.2827 165.186 67.1537C164.819 67.6052 165.003 67.7987 164.635 68.2801C164.451 68.5381 163.973 68.7639 163.606 69.1509C163.863 70.4063 164.084 71.8255 165.625 71.8255L166.287 70.6023V70.5999ZM162.469 70.3096C162.064 69.729 162.469 70.0838 161.66 69.6967C160.486 70.0515 160.631 70.4386 160.413 71.565C160.817 71.9843 161.001 72.3068 161.77 72.3391L162.469 70.3096ZM159.678 27.5313C158.685 25.9533 157.438 27.4023 157.511 28.4344C157.769 28.5634 156.96 28.7247 158.21 28.6279C159.019 28.5634 159.457 28.1764 159.678 27.5338V27.5313ZM156.629 12.1016C155.894 11.6178 154.83 11.6823 155.014 12.7467C155.566 12.8112 155.235 12.8757 155.897 12.7145C157.033 12.4242 156.448 12.6499 156.632 12.1016H156.629ZM146.129 11.7468C145.173 11.7791 144.661 12.0049 144.808 12.7442C144.845 12.7442 144.918 13.3893 145.654 12.7442C145.948 12.4862 146.021 12.1637 146.132 11.7468H146.129ZM163.275 6.85173C163.238 6.85173 163.459 6.43244 162.539 6.5937C161.731 6.72272 162.319 6.5292 161.988 7.04526C163.017 7.52906 162.613 7.20652 163.272 6.85173H163.275ZM159.016 12.5209C159.236 13.295 158.722 12.9402 159.678 13.2628C159.751 12.3274 160.156 12.7467 159.016 12.5209ZM85.7294 2.79273C86.2073 3.82237 85.8765 3.34105 85.5456 4.20941C85.1412 5.33581 86.0603 5.2713 84.6633 5.75511C84.4427 5.07778 84.7736 4.94877 84.7 3.98364C84.6633 3.08054 84.4795 2.85724 85.7294 2.79273ZM47.2155 5.30604C47.5464 5.27379 47.6199 5.53181 47.767 5.69308C47.6567 6.14463 46.9949 6.01562 46.5934 5.91886C46.8507 5.37055 46.4095 5.37055 47.2183 5.30604H47.2155ZM40.4963 5.75759C42.3684 5.62858 44.5346 5.20928 44.5346 6.69295C44.2037 7.01548 42.6993 6.82196 42.0375 6.75745C40.1287 6.66069 40.5331 5.95111 40.4963 5.76007V5.75759ZM139.74 12.2654C140.145 11.6848 139.263 11.7816 140.513 11.9428C140.513 12.4589 140.623 12.2331 140.182 12.3944C139.41 12.6847 139.998 12.3944 139.74 12.2654ZM62.5232 7.97813C62.3394 8.65546 62.0453 8.75222 61.5674 9.10453C60.7218 9.04002 60.3203 8.81424 59.732 8.49171C59.8423 7.84663 59.732 7.74987 60.3938 7.52658C61.6041 7.07503 62.1188 7.39756 62.5232 7.97813ZM137.645 12.9377C137.755 11.9081 137.535 12.9378 138.013 12.4539C138.307 12.8732 138.454 11.8411 138.307 13.1635C138.196 14.1609 138.417 13.1635 137.902 13.5828C137.792 13.4216 137.571 13.8731 137.645 12.9377ZM77.6499 9.62059C77.7235 8.91101 77.7602 8.94326 78.3485 9.07227C78.569 9.71735 78.5323 9.71735 77.6499 9.62059ZM119.874 12.3274C119.286 12.6499 119.396 12.4887 119.065 12.2629C119.433 11.7468 119.58 11.3598 119.874 12.3274ZM76.1455 9.81411C75.5205 10.2657 75.9617 9.97538 75.0793 10.2657C73.6116 10.7172 74.3073 10.4592 74.0132 10.2979C73.7926 9.45932 75.4074 8.49419 76.1427 9.81411H76.1455ZM67.7747 10.1044C68.3997 10.3947 68.6571 10.2334 68.0688 10.8462C67.3336 10.5882 67.4806 10.6204 67.7747 10.1044ZM65.8659 11.5533C64.8365 11.6178 64.5452 11.134 64.2879 10.5882L64.6555 10.1689C65.7923 10.2334 65.9026 10.5559 65.8659 11.5533ZM13.068 7.62582C12.8842 8.52892 12.6268 8.30315 11.6738 8.3354C10.9018 8.36765 10.537 8.62568 9.83845 8.20639C9.98551 7.4323 9.94874 7.49681 11.0488 7.52906C11.7841 7.56131 12.4062 7.49681 13.068 7.62582ZM46.5538 10.2359C46.9949 9.59081 46.7744 9.97786 47.7641 9.78434L48.095 10.2681C47.9112 10.4617 47.2495 10.6229 46.5538 10.2359ZM75.3395 12.2331C76.4057 12.3299 76.7705 13.2007 75.9645 13.5208C75.1925 13.8433 74.7541 13.0047 75.3395 12.2331ZM69.4659 12.1041C69.6864 13.166 68.4365 13.2628 67.4099 13.295C67.6305 12.4887 68.2555 11.7171 69.4659 12.1041ZM148.038 19.6093C147.633 20.2221 146.496 20.4479 146.349 19.2868C147.121 18.7062 147.597 18.7707 148.038 19.6093ZM11.9679 11.3623C12.5929 11.0397 12.7032 11.1043 13.2518 11.6203C13.1783 11.9751 13.068 11.9428 12.5533 11.9106C12.1857 11.8783 12.1121 11.5558 11.9651 11.3623H11.9679ZM143.999 17.4185C144.514 18.2249 144.073 18.1926 143.374 18.6417C142.566 19.1577 143.154 19.1577 142.308 19.7681L141.83 19.4455C142.198 18.5424 143.261 17.8031 143.997 17.416L143.999 17.4185ZM153.767 19.1255C153.51 20.5422 152.885 20.0286 151.748 20.3486C150.755 20.6067 150.939 21.026 149.508 21.2195L148.773 20.4454L149.361 19.5101C150.461 19.7036 149.766 19.9294 150.939 19.9939C151.858 20.0584 151.233 18.4482 153.767 19.123V19.1255ZM129.829 10.3649C129.424 10.7197 128.983 11.3623 127.295 10.881C126.559 10.6552 127.037 10.5584 127.074 9.91583C127.111 9.39977 126.78 9.43203 126.817 8.91845C126.927 7.53402 128.579 7.53402 129.571 8.20887C129.976 8.8862 129.829 9.36752 129.829 10.3674V10.3649ZM150.317 26.5686C150.28 26.8267 150.427 26.6654 150.096 26.6332C149.471 26.5686 150.133 27.3105 149.986 26.5686C149.876 25.9236 150.317 26.4719 150.317 26.5686ZM15.1607 29.7543C15.3077 29.7543 14.9033 29.335 15.5283 29.7866C16.1165 30.2381 15.4915 30.1091 15.4915 30.1091C15.0504 30.1091 15.1607 30.1091 15.1607 29.7543ZM136.361 39.16C136.288 38.2569 136.324 39.0955 136.545 38.7407L136.802 38.7084C137.427 38.8697 137.685 39.4503 137.611 40.0283C136.986 40.0283 136.802 39.9961 136.545 39.5768C136.508 39.5445 136.398 39.222 136.361 39.1575V39.16ZM134.746 40.6734C134.71 40.8669 134.783 40.7379 134.563 40.7379H134.526C134.305 40.6412 134.857 40.2864 134.746 40.6734ZM153.801 43.8938C153.764 44.3454 153.911 44.3454 153.544 44.6679C152.882 45.2162 153.029 44.7002 153.029 44.7002C152.919 44.3776 152.441 43.9261 153.801 43.8938ZM143.705 47.3077C143.816 48.1141 143.852 47.7593 143.485 48.2431C142.639 47.9206 143.117 48.4366 142.86 47.598C143.301 47.2432 142.896 47.34 143.705 47.3077ZM150.241 46.2781C151.378 46.5684 151.708 47.5013 151.307 48.6301C150.902 49.821 151.27 50.6274 149.766 50.8209C149.949 48.4366 149.177 49.0817 148.957 48.4366C148.81 47.9528 149.435 46.7619 150.241 46.2781ZM151.708 52.4634C152.333 52.4634 152.591 52.5601 152.664 53.2375C152.444 53.3987 152.003 53.431 151.745 53.1729C151.157 52.6246 151.708 52.4956 151.708 52.4634ZM143.08 55.2347C142.566 55.7185 142.749 55.6217 141.907 55.8153C141.392 54.9122 141.282 54.4631 142.311 53.8503C142.973 54.1406 143.267 54.4308 143.083 55.2347H143.08ZM146.42 57.5222C145.942 58.006 146.163 57.49 146.126 57.4577C146.089 57.2642 145.575 57.2642 146.494 57.1674C146.457 57.361 146.751 57.1674 146.42 57.5222ZM142.786 59.326L142.345 59.2292L142.455 59.1324C143.521 58.8744 142.529 59.0357 142.786 59.326ZM132.029 60.1C131.735 59.584 131.661 60.0033 132.029 59.3905C132.212 59.4227 132.69 58.9712 132.58 59.7775C132.543 60.0355 132.286 60.0355 132.029 60.1ZM156.556 72.2125C155.455 72.3738 155.489 71.5352 154.169 72.2125C152.738 73.0189 152.444 73.1777 151.157 72.2448C152.076 70.5056 153.728 70.9571 154.242 70.8604C154.61 69.8307 153.875 69.8952 153.544 68.9921C154.389 68.6373 153.838 68.9921 154.644 69.0889C155.122 69.1534 155.379 68.8954 155.854 68.8309C155.891 68.8309 157.065 68.8631 157.138 68.8954C157.616 68.9921 157.616 69.1211 157.69 69.6049C156.844 70.121 156.844 69.6049 155.928 70.2823C156.001 71.4087 157.395 71.2474 156.553 72.215L156.556 72.2125ZM135.518 71.4707C135.482 71.7932 135.371 71.761 135.335 71.503C135.298 71.2127 135.518 71.4384 135.518 71.4707ZM133.609 71.5352C133.279 71.761 133.72 71.6642 133.168 71.6965C132.139 71.7287 133.315 71.8255 132.911 71.503C133.646 71.0191 133.499 71.4707 133.609 71.5352ZM128.762 71.4062C128.762 70.2798 129.02 69.6992 129.862 69.4089C130.598 69.8282 130.083 69.409 130.524 70.1508C131.407 71.5997 131.955 70.9894 131.918 72.3093L130.046 72.3738C130.01 72.2125 129.973 71.89 129.936 71.6965C129.752 71.0191 129.862 71.503 129.752 71.2127C129.348 71.2127 129.421 71.3417 128.76 71.4062H128.762ZM150.02 75.2072C145.21 75.9813 149.836 72.0513 150.02 75.2072V75.2072ZM146.825 74.2098C146.825 75.3039 145.979 75.4329 144.695 75.2717C144.879 74.2743 145.614 73.984 146.825 74.2098ZM136.324 74.9194C136.876 74.5968 136.986 74.5001 137.571 75.0161C137.535 75.1774 136.763 75.9192 136.324 74.9194ZM135.258 75.7902C134.67 75.5322 134.56 75.4999 134.302 75.0484C134.964 74.6936 135.402 74.9839 135.258 75.7902ZM119.065 75.6289C114.917 75.8547 116.201 74.6316 116.862 74.6613C117.892 74.7258 117.745 75.1129 118.661 74.4356C119.176 74.0808 119.212 73.8227 120.018 73.8227C120.607 74.7879 120.018 75.4007 119.062 75.6265L119.065 75.6289ZM139.407 78.2713C140.032 77.8197 140.801 78.4003 140.436 79.3009C139.517 79.3977 138.895 78.6881 139.407 78.2713ZM83.4162 76.8223C83.4162 76.7578 82.8647 76.9191 83.5264 76.3708C83.8573 76.0805 83.6735 76.274 84.1147 76.274C84.2617 76.6933 84.4088 76.532 84.0044 76.8546C83.4897 77.3061 83.4162 76.8223 83.4162 76.8223ZM50.9597 75.6637C50.5921 74.8573 50.4083 74.634 51.5479 74.2793C52.3567 74.8276 52.5406 75.6637 50.9597 75.6637ZM82.169 78.6906C81.5073 78.2713 81.8749 78.4325 81.6543 77.5319C81.5073 76.9191 81.3602 77.1771 81.6911 76.7256C82.4999 77.0804 82.8647 77.7875 82.169 78.6906ZM89.878 80.8168C89.731 80.8491 90.1721 81.2684 89.3633 80.7523C88.4075 80.1072 89.0692 78.3035 89.878 79.1421C90.2457 79.4969 90.0986 80.4298 89.878 80.8168ZM67.2601 78.5938C67.4806 77.852 67.0762 78.239 67.8483 78.0132C68.1424 78.7873 67.885 78.5615 67.2601 78.5938ZM65.5718 79.5589L64.91 79.6234C65.1674 79.1074 64.9468 79.3332 65.4247 79.1074L65.5718 79.5589ZM94.7251 82.169C95.4236 82.5238 95.2766 82.427 95.7178 82.9431C98.2148 83.1689 98.803 82.4593 100.638 82.5238C101.484 82.5238 101.849 82.427 102.51 82.298C103.246 82.169 103.941 82.2658 104.787 82.3303C106.328 82.2012 106.549 80.2685 109.083 80.3008L113.121 80.9136L113.672 79.7872C115.397 79.8517 115.25 80.6258 116.464 80.4323C117.199 80.3355 117.236 80.1097 117.821 80.0775C118.667 80.0775 118.189 80.529 119.105 79.8517C118.517 78.6285 117.6 78.048 119.877 77.1126L120.977 77.5319C121.749 76.9836 123.548 76.2765 123.584 75.7604C122.996 74.2147 122.006 75.5024 122.153 73.8599C123.254 73.2149 123.511 74.1502 124.651 74.0212L125.643 74.0857C125.827 74.7631 125.128 74.9243 125.018 75.4702C124.834 76.5643 125.055 75.8572 125.202 76.1152C125.79 76.1152 125.68 75.7282 126.339 75.4702C127.184 75.1476 127.148 75.4379 127.954 74.9864C127.99 74.2768 128.358 73.4729 127.99 72.8278C127.586 72.1505 127.329 72.5376 127.365 71.5079C128.248 71.7014 127.807 71.4434 128.211 72.0885C128.579 72.6368 128.284 72.4755 128.873 72.8948C129.939 73.6044 129.571 73.4109 130.157 74.2793L131.076 73.7309C132.396 74.4728 131.958 74.0212 133.352 74.118C133.536 75.7604 132.286 75.6637 131.149 76.4378C130.708 76.7281 130.267 77.1796 129.718 77.3409C128.799 77.6634 128.618 77.3409 128.14 78.244C128.324 78.9858 128.508 79.2116 129.534 79.3381C130.012 78.6285 129.645 78.693 130.527 78.435L130.895 79.6904L135.411 80.3032C136.146 80.3355 136.183 80.1742 137.026 80.1742C137.687 80.4645 138.236 81.0128 139.045 81.1418C139.854 81.2709 141.064 80.9806 141.983 81.0451C143.193 81.1096 142.902 81.4644 144.149 81.1418C144.407 80.0154 143.304 80.1122 142.645 79.6929C142.829 78.8866 143.196 79.0156 143.745 78.4052C143.671 77.2466 143.083 77.8569 143.598 76.8918C144.223 76.8918 146.132 76.7305 146.205 76.7628C147.563 77.0531 145.985 78.115 146.757 79.1471C147.857 78.8245 148.739 77.9884 149.732 79.8889C150.136 80.663 149.732 80.405 150.504 80.792C151.129 80.3405 151.788 78.956 151.714 78.1819C150.758 77.9562 149.254 78.1497 148.629 77.2788L148.886 77.0853C150.427 76.3757 152.41 76.2145 153.255 74.7333C153.623 74.056 153.88 73.8947 154.466 73.4456C155.017 73.6714 155.458 73.9939 155.713 74.4107C156.154 75.0558 155.713 75.0558 155.86 75.7629C157.254 75.4081 156.117 74.9243 156.96 74.4753C158.244 74.2172 159.898 74.9913 159.861 73.4779L158.173 73.2521C158.21 72.607 158.394 72.478 158.651 72.0612C157.916 70.193 158.761 70.9348 158.835 70.0639C158.945 68.615 158.467 67.8732 160.56 67.4539C161.001 66.4888 160.78 66.4242 161.881 65.9727C163.017 65.4889 162.542 65.4889 163.238 64.556C163.826 64.6205 163.9 64.7173 164.375 64.7495C165.331 64.7818 165.147 64.556 165.331 64.2335C164.853 63.6207 165.404 63.9754 163.9 63.5884C163.128 63.3626 163.128 63.3304 162.175 63.2336C161.038 61.4944 159.825 61.4621 157.916 61.9459C157.144 61.2364 156.997 61.2041 155.75 61.0106L154.208 61.0428C152.594 61.3976 151.16 60.8171 149.545 60.7203L147.71 60.5268C146.938 60.3978 146.389 60.7848 145.874 60.9461L144.808 60.43C144.771 58.7231 146.901 59.1746 147.71 57.949C148.041 57.4007 148.188 57.2394 148.482 56.7903C148.114 55.6639 147.599 56.1452 147.71 55.1479C148.261 55.0189 148.81 55.2446 149.177 55.5027C150.023 56.0832 149.288 56.8548 149.655 58.6908C151.086 58.594 150.354 58.1747 150.939 57.4676C153.951 59.2714 152.848 59.6584 155.272 58.6586C156.191 58.3038 156.154 58.5618 156.629 57.6612C155.931 56.7581 155.455 56.6638 156.519 56.2445C156.997 56.051 156.923 56.2445 157.291 55.7284C157.622 55.3091 157.732 54.6988 158.063 54.1827C160.339 54.1182 159.42 55.4704 159.236 56.5348C159.935 57.1798 160.373 57.4056 161.292 56.9863C161.035 55.6019 160.961 56.5348 161.182 54.9568C160.631 54.3763 160.52 54.473 160.336 53.7014C161.219 52.7661 161.51 53.4756 162.834 53.1531C163.569 52.6693 163.569 51.2849 162.87 50.9946C160.925 50.1882 161.66 51.7687 161.55 52.2823C161.072 52.508 159.347 52.8628 158.795 52.7015C157.107 52.2177 157.839 51.7984 157.986 50.672C156.556 50.7366 157.582 50.9946 156.188 51.0913C156.629 49.9004 157.033 50.0617 156.261 48.9973C155.088 47.3226 156.151 47.6452 155.563 46.5485C154.754 46.8711 155.342 46.2583 154.717 47.7394C154.423 48.3523 154.166 48.5135 153.47 48.7368C152.588 48.3498 152.956 48.382 152.37 47.866C152.444 46.6751 152.223 46.5138 153.4 46.1913C154.5 45.9332 153.914 45.7397 154.83 45.4494C155.713 45.1914 157.548 45.6752 157.475 46.8984C157.438 47.2854 157.291 47.4789 157.144 47.928C159.935 47.7022 159.641 47.7022 158.795 45.3502C159.347 44.8019 160.778 44.5116 162.356 43.6755C163.422 44.4818 163.275 46.3178 162.172 47.0572C161.437 47.5732 161.437 47.0572 161.106 47.7667C161.694 48.057 162.206 47.7345 162.868 47.8635C163.382 47.9603 163.309 48.0893 164.041 48.186C164.556 47.8312 164.409 48.057 164.813 47.4765C163.894 46.9926 163.603 47.1862 163.857 46.3823C164.188 45.9953 165.325 46.4146 165.803 46.5436C167.454 47.0274 165.251 48.6053 166.759 48.4441C167.641 48.3473 167.347 47.6377 167.896 46.9951C169.51 46.9629 168.631 47.7692 168.484 48.4763C168.631 49.0891 170.54 49.5705 171.238 49.764C173.772 50.3768 172.779 49.3124 174.725 49.4414C176.377 49.5382 175.935 50.6324 177.663 50.2155C178.8 49.0569 176.744 48.7343 176.122 48.0893C175.571 47.5087 176.269 47.5732 175.203 46.7048C174.174 45.834 175.166 45.9953 174.21 45.4172C173.402 44.9334 173.365 45.0301 172.853 44.3875C172.485 43.9037 172.412 43.4522 171.679 43.2612C170.944 43.0354 169.991 43.0354 169.256 43.0031C167.898 42.9386 167.09 42.1 165.987 42.6806C166.097 43.678 168.153 43.3257 168.043 44.5166C167.969 45.3229 167.344 44.9681 166.465 45.1294C163.747 45.6454 164.887 44.3553 163.637 43.1321C163.196 42.6806 161.838 41.8445 160.956 41.9412C160.698 43.0031 161.213 43.1321 160.625 43.7772C159.451 43.3579 161.36 42.167 158.312 42.2315L158.165 41.3607C156.403 41.2317 156.66 40.5866 155.484 40.5221C154.016 40.4576 155.043 41.1994 152.398 40.5866C151.773 41.0059 152.031 41.1026 151.298 41.1994L150.931 39.7505C149.537 39.7182 147.26 41.2962 146.304 41.0059C145.495 40.4576 145.716 40.1673 145.094 39.5569C143.406 39.2667 142.928 39.6214 142.523 38.0112C142.45 37.721 142.156 37.0759 142.192 36.8203C142.339 36.143 143.185 35.0166 141.714 35.7262C141.42 35.8552 140.832 36.3713 140.247 36.1455C139.254 35.3392 139.879 35.5004 139.254 34.5353L137.897 34.6643C137.897 33.8257 138.669 33.1186 139.511 32.8606C140.431 32.5703 139.842 33.0219 140.722 32.8283C141.2 32.6993 141.678 32.3768 142.19 32.3445C143.035 32.28 143.951 32.6026 144.907 32.8606C146.632 33.3121 146.669 32.8283 147.919 32.9896C148.985 33.7637 147.956 34.0192 149.423 34.4385C149.828 33.2799 149.46 33.0541 150.49 32.0865C151.773 30.8633 151.626 32.0542 151.115 33.0516L151.666 33.6322C153.465 33.5677 153.244 32.6646 154.751 32.2155C155.67 32.6348 155.925 33.1509 156.66 33.7612C157.981 33.729 158.422 33.4387 158.753 32.4735C159.378 30.7988 160.147 31.6672 160.184 30.444C158.826 30.2505 159.596 30.7021 158.532 30.7666C157.65 30.7988 157.687 30.3473 156.77 30.186C156.182 30.7666 156.476 30.7988 155.778 31.1511L154.163 29.7345L153.281 27.576C153.465 26.7051 153.759 26.5786 154.237 25.9657L153.795 25.5142C151.74 25.3529 152.144 24.7724 150.345 24.5491C148.731 24.3555 148.436 23.9685 146.491 24.0008C145.207 23.7105 145.608 22.2293 146.601 21.9067C148.179 21.3907 148.4 21.6165 149.576 22.4551C151.081 22.1648 150.422 22.1325 152.367 22.1648C153.541 22.197 154.092 21.6487 154.828 21.1351C156.112 20.232 156.075 20.232 156.185 19.2347C156.259 18.3316 157.984 18.0438 156.847 16.5923C154.717 16.2698 154.313 17.1084 153.139 15.3047C151.966 15.1757 151.708 15.0144 150.863 14.8854C149.944 15.3692 149.395 15.9795 148.255 16.173C147.373 15.786 147.814 15.915 147.226 15.4635C146.969 15.2699 146.27 14.9474 145.905 14.8184C144.107 14.1411 143.776 14.2701 142.894 14.2056C141.022 14.1088 141.828 12.5631 142.379 11.789C143.004 10.9182 143.589 11.0472 144.655 10.6626C145.28 10.4046 144.729 10.4369 145.575 10.3078C147.41 9.9853 147.961 9.14919 149.392 10.3723C149.025 11.6923 147.63 11.6923 146.822 12.6599L146.417 13.4662C146.417 13.5307 146.454 13.5952 146.454 13.6275C146.491 14.0145 147.373 13.9823 147.738 14.1758C148.253 14.4338 147.922 14.5306 148.804 14.8209C149.172 14.5628 149.392 14.208 149.686 14.0145C150.238 13.5952 150.238 13.8855 150.86 13.434C150.97 12.7889 150.713 12.9824 150.676 12.1463L151.154 11.856C152.328 12.0818 151.338 12.3076 152.879 12.2431C153.979 10.2136 151.301 11.3722 151.228 9.31294C152.475 8.95815 152.695 8.9904 152.806 7.83175C150.75 6.60859 151.338 7.18668 149.867 5.64098C149.022 5.60873 147.959 5.44746 147.186 5.64098C146.966 6.18929 147.444 8.21879 145.241 8.18654C144.873 6.96338 144.359 5.93126 144.285 4.57909L142.928 3.96627C142.928 3.93402 142.854 3.93402 142.817 3.90176C141.898 4.41782 142.229 4.61134 142.156 5.54422C139.364 5.77 140.357 4.73788 139.254 6.73512C136.941 6.21907 139.254 4.06055 138.08 3.3212C137.566 2.99866 136.944 2.99866 136.355 2.74063C134.594 1.9988 134.3 2.4826 132.501 2.16007C131.839 2.03105 131.254 2.03105 130.592 1.93429C128.904 1.67626 129.198 1.28922 128.426 0.936909C127.764 0.614372 123.91 0.06606 123.138 0.195075C121.743 0.453104 122.218 -0.030701 121.229 0.00155265C120.677 0.0338063 119.798 -0.030701 119.283 0.195075C118.658 0.485358 118.548 1.09818 117.374 1.03367C116.382 0.969162 115.429 0.614372 115.208 1.93677C116.639 2.03353 117.889 2.25931 119.099 2.32382C120.641 2.38832 120.788 1.74325 122.185 1.45297C124.424 1.00142 123.505 2.09804 125.343 1.80776C126.042 1.711 127.399 1.32395 127.62 2.35607C127.767 3.06565 127.473 2.90438 127.289 3.0979C126.701 3.42044 121.232 3.25917 119.945 3.25917C118.624 3.22692 117.632 3.54945 116.531 3.67847C115.796 3.77523 115.833 3.32368 115.174 3.80748C114.402 4.3558 115.211 4.4203 114.108 4.80487C113.373 4.32106 113.74 4.06303 112.861 3.80748C110.07 2.96889 110.878 4.19453 109.3 4.51707C108.345 4.71059 107.869 5.03312 107.097 4.80735C106.73 4.06551 107.502 3.00362 105.005 3.9365C104.159 4.22678 104.122 3.87199 103.39 4.29129C102.655 4.67833 103.243 4.80735 101.959 4.93636C100.712 4.38805 101.371 4.3558 100.675 3.55194C100.124 3.2294 97.406 3.58419 97.0412 3.90673C96.4898 4.35828 96.6001 4.84208 95.6838 4.68081L96.0882 3.45766L95.4632 2.81258C94.6544 2.84484 92.672 2.9416 92.1602 3.71569C91.6823 4.48977 92.3808 4.10273 91.5352 4.61879C90.7264 4.94132 89.8102 3.81245 88.0116 4.32851C87.2395 4.52203 87.4234 4.78006 86.7645 4.23174C87.6468 3.55442 87.7203 4.10273 89.5556 2.68605C89.4453 -0.211818 90.3644 0.559789 86.5071 0.65655C85.6248 0.65655 85.0762 0.946833 84.1203 1.04359C83.0542 1.1081 82.285 0.946833 82.285 1.5274C82.5055 2.36599 83.1305 1.68867 84.0468 2.07571C84.01 2.97881 83.4953 3.04084 82.5055 3.29887C81.5129 3.5569 81.1481 3.87943 80.2658 3.94394C77.6584 4.10521 76.8892 5.23161 75.8231 5.1671C74.3186 5.07034 73.5466 4.48977 71.7113 5.1671C68.9936 6.16448 68.8465 6.7773 67.9303 6.74505L65.8744 6.42251C65.0288 6.358 64.7008 5.93871 63.8552 5.90645C62.461 5.80969 62.8993 6.22899 61.5787 6.19674C59.3022 6.19674 57.136 5.93871 54.9698 6.16448C53.9036 6.2935 54.5286 6.22899 53.7594 6.16448C52.8771 6.13223 52.7668 6.64829 51.8505 6.42251C51.4829 6.32575 49.9784 6.19674 49.6843 5.8742C49.0226 4.58653 51.0417 5.06786 51.777 4.7478C51.4094 3.78267 49.574 4.264 47.7387 3.94146C45.7563 3.61892 43.0754 1.91196 40.7621 2.29901L40.7989 3.71569L37.7504 2.75056C36.721 2.36351 35.3636 2.39577 34.4445 2.04098C33.7092 1.75069 33.3783 1.42816 32.6459 1.07585C31.9474 1.17261 31.9474 1.30162 31.2517 1.26937C30.5164 1.23712 30.2591 1.04359 29.6737 0.882326C28.6076 1.26937 29.0855 1.33388 28.2428 1.78543C26.2236 1.59191 27.9487 0.691285 24.7927 1.49515C18.5514 3.07309 13.9616 0.401002 13.2999 2.20473L17.8529 2.81754C18.8455 2.88205 19.9823 2.65628 21.303 2.72078C22.5501 2.81755 23.9471 2.94656 25.1942 2.97881C26.9193 3.01107 30.9944 2.55952 31.9135 3.72065C31.3252 4.04318 30.1516 4.04318 29.3796 4.20445C27.5443 4.55924 28.3135 3.91417 26.9193 3.81741C22.6972 3.59163 24.9001 3.81741 22.3295 3.94642C21.631 3.97868 20.5677 3.88192 19.8324 3.81741C17.9971 3.72065 16.5633 3.78515 14.6912 3.65614C13.5883 4.55924 13.2603 4.39797 12.1941 4.97606C12.4882 6.0702 13.5516 5.39536 15.0221 5.23409L23.1355 5.20184C24.5297 5.23409 25.8164 4.94381 26.5856 5.84691C26.218 7.36035 25.4488 6.621 24.0885 6.36297C22.6943 6.10494 22.2164 6.87903 21.187 7.1048C20.562 6.81452 20.7091 6.6855 20.0134 6.52423C16.8546 5.75015 16.9649 7.04029 15.0193 6.91128C13.331 6.81452 10.2824 5.62361 8.70444 6.2017C7.93241 6.49198 8.37357 7.00804 8.22652 7.74739C5.83972 8.77703 7.38096 9.71239 4.48231 9.90591C3.05136 10.0027 1.94846 10.0349 0.738096 10.68C0.0395913 11.067 0.223408 10.7768 0.260172 11.6154C1.72788 11.8734 3.7838 11.0025 4.5926 11.1638C6.28089 11.4541 9.43971 11.1961 9.73382 12.2902C8.70444 12.9353 7.05292 12.6772 5.80579 12.9353L5.32786 14.4165C4.66612 14.61 3.34547 14.7712 2.53667 14.9003C1.72788 15.0293 0.664569 15.1905 0.0395914 15.6743C0.407225 16.3194 0.333699 16.1259 1.21319 16.2549C3.34264 16.5775 1.83817 17.6393 2.75443 18.1877C3.23235 18.4779 3.48969 18.0909 4.36919 18.6392C4.33243 19.2198 4.36919 19.1875 3.8545 19.4133C2.35003 20.1551 0.73244 19.8003 0 20.5397C1.35742 20.701 6.5354 20.0236 7.41772 20.3139C7.08685 21.8919 5.50885 20.959 3.85733 22.0531C3.04853 22.5692 3.45293 22.7305 2.05875 22.795C1.47054 22.795 0.774859 22.7305 0.664569 23.3433C0.591042 23.9238 0.664569 23.9238 1.28955 23.9884C2.02481 24.0529 3.19842 23.8271 3.38223 24.7302C3.27194 25.2785 3.08813 25.4398 3.0146 25.7598C2.90431 26.3404 3.08813 26.2759 3.16165 26.9185C2.35286 27.8216 2.09551 27.37 1.69394 28.0449C2.97784 28.6899 3.78663 28.9157 5.2911 29.0423C7.49408 32.3272 9.84411 29.0423 11.7897 30.2332C11.4221 31.295 10.7971 30.6847 9.55 31.0072L7.2735 31.9426C5.65874 32.3619 2.35286 31.6846 2.75725 33.3915C4.11467 33.9398 6.75881 33.2303 7.75142 33.5205C8.63374 33.8108 8.00877 34.0366 9.40295 33.8431C10.6501 33.6818 10.2485 33.3593 10.8707 34.0044C10.5765 34.4882 11.2383 34.2301 10.2089 34.5204C8.99855 34.8752 8.41033 34.7139 7.3442 35.488C6.86627 35.8106 6.42511 36.1331 5.7662 36.2299C4.70006 36.3911 4.29849 36.2621 4.15144 37.2272C5.03376 38.5794 5.47209 36.8079 6.79557 38.9665C7.89565 40.7057 6.57499 41.1572 7.08968 42.4449C7.16321 42.5739 6.64852 42.6384 7.82495 42.8642C8.41316 42.9932 8.41316 42.7997 8.99855 43.09C9.25589 43.219 10.0647 43.8963 10.2089 44.2486C10.503 44.8614 9.98833 45.2782 10.0986 46.0201C10.2089 46.8264 10.9074 46.7297 11.6399 46.9554L11.9707 48.1463C13.4017 48.2108 16.9281 47.34 17.0384 48.4366C16.4502 50.1436 14.5046 48.8237 13.7693 50.4661C14.1369 51.4337 14.0634 50.7564 14.5781 51.4337C15.3501 52.4311 13.4045 53.8503 15.6782 55.267C16.9621 56.041 16.1929 56.3611 16.7782 57.4255C18.9077 57.9738 20.6327 56.1701 21.7357 58.7454C21.993 59.326 21.8092 59.326 22.2503 59.8395C22.8386 60.6136 23.1327 61.0304 22.1768 61.7723C22.2503 63.2212 21.993 62.7697 21.9195 63.447C22.1033 63.5115 21.8459 63.4792 22.4342 63.6405C22.4709 63.6728 22.9856 63.7695 22.9856 63.7695C23.39 63.834 23.8679 63.8663 24.196 63.963C24.7474 64.1243 25.1518 64.5759 26.0313 64.8661C26.6563 65.0597 27.5725 65.479 28.0505 65.5757C29.2608 65.8338 29.4079 65.4145 30.1799 66.1563C29.8491 67.5085 27.4623 67.0594 29.702 69.7315C30.8388 71.1159 33.2992 70.1185 34.5859 71.2772C37.1932 73.6292 34.7329 72.8229 34.4388 74.4008C36.2374 75.7207 38.5874 75.6562 40.8639 76.3013C42.8831 76.8496 41.3419 77.718 44.9022 77.1721C45.564 77.0754 46.2229 76.7851 46.9582 76.6884C50.4083 76.2046 48.8303 76.5271 51.4376 77.2044C52.0626 76.8496 51.842 76.8496 52.5745 76.7206C53.42 78.1695 52.3539 78.2986 52.3907 79.1049C52.9054 80.2313 52.9421 79.9112 54.2628 80.2958C55.2922 80.6506 55.657 80.8764 56.5393 81.3254C57.8599 81.0997 59.5143 80.7449 60.9452 80.8094C63.0012 81.3899 59.5143 82.5808 67.113 80.9706C67.8483 81.3899 68.6542 82.3551 69.8307 82.0003L71.3719 81.6132C71.8498 81.5487 72.472 81.1939 72.5087 80.7101C72.5823 79.7748 71.5897 79.6805 70.9675 79.2289C71.4087 77.3285 72.619 79.5837 74.2705 77.4575C74.7485 76.8447 75.1529 76.4278 75.9588 76.2343C76.6206 76.7181 76.2897 76.6214 76.8779 77.1052C77.8705 77.0729 77.9073 76.9116 78.7133 76.7181C79.228 76.6214 79.3382 76.7181 79.8501 76.5891C80.4383 76.3956 80.0707 76.3956 80.8427 76.2021C80.6589 77.2317 80.8427 76.9762 80.2913 77.6833C79.2619 79.0354 80.953 78.8096 77.6104 80.5513C77.206 80.3256 77.2427 80.2611 76.581 80.1966C76.4339 81.323 76.4707 81.581 77.1692 82.1616C78.3796 82.0325 77.6471 81.7422 78.8207 82.1938C82.2341 83.546 80.9134 81.2907 81.8325 80.3578C82.531 80.3901 83.337 80.7126 83.7414 81.0351C83.1899 81.5512 82.859 81.3899 82.1634 81.8415C82.4207 82.9356 82.531 82.6156 83.4473 83.1614C84.2561 83.613 84.6209 83.7742 85.7973 84C87.3753 82.6801 89.5047 83.3549 89.9827 83.3549C92.6636 83.3549 93.1782 82.5486 94.7195 82.1963L94.7251 82.169ZM19.1255 61.0652C19.3093 60.0678 19.8975 59.7775 19.199 59.0679C17.8783 58.7131 17.9886 60.3556 17.4372 61.1942C17.9886 62.065 18.393 62.4496 19.346 62.5464C19.8607 61.9013 19.8607 61.7078 19.1255 61.0652Z" fill="white"/>
</svg>
