<svg width="94" height="55" viewBox="0 0 94 55" fill="none" xmlns="http://www.w3.org/2000/svg">
<path fill-rule="evenodd" clip-rule="evenodd" d="M49.682 3.48532C49.6051 3.92307 49.7012 3.73546 49.3168 3.81884C49.509 3.44363 49.3745 3.63124 49.682 3.48532ZM87.9794 9.54319C87.8257 9.04291 86.9238 8.83606 86.7316 8.81522C86.251 8.79437 86.5201 9.00282 85.7527 8.94029C85.4837 8.91944 84.7739 8.64846 85.043 9.14874C85.2353 9.33634 85.0623 9.25296 85.389 9.3155C85.6581 9.37803 85.5236 9.25296 85.908 9.44057C86.1579 9.56563 86.3693 9.79493 86.6561 9.96169C86.9829 9.85746 87.0982 9.6907 87.2505 9.62817C87.6926 9.46141 87.4812 9.92 87.9794 9.54479V9.54319ZM87.289 46.017C87.0775 45.7044 87.2313 45.8711 86.8277 45.621C86.8853 44.7888 87.0391 45.0582 87.3274 44.5386C87.2505 44.1217 87.0967 43.8732 86.7138 43.7898C86.5216 44.0817 86.6177 44.2067 86.4255 44.5178C86.3294 44.6846 86.0795 44.8305 85.8873 45.0806C86.0218 45.892 86.1372 46.8091 86.943 46.8091L87.289 46.0186V46.017ZM85.2929 45.8294C85.0815 45.4542 85.2929 45.6835 84.87 45.4334C84.2564 45.6627 84.3319 45.9128 84.218 46.6408C84.4294 46.9118 84.5256 47.1202 84.9277 47.1411L85.2929 45.8294ZM83.8336 18.1826C83.3146 17.1628 82.6626 18.0992 82.701 18.7663C82.8356 18.8497 82.4127 18.9539 83.0662 18.8913C83.4891 18.8497 83.7183 18.5995 83.8336 18.1842V18.1826ZM82.2397 8.21071C81.8553 7.89804 81.2993 7.93973 81.3955 8.62761C81.6838 8.6693 81.5108 8.71099 81.8568 8.60677C82.4511 8.41916 82.1451 8.56508 82.2412 8.21071H82.2397ZM76.7498 7.98142C76.2501 8.00226 75.9825 8.14818 76.0594 8.62601C76.0786 8.62601 76.117 9.04291 76.5014 8.62601C76.6552 8.45925 76.6937 8.2508 76.7513 7.98142H76.7498ZM85.7143 4.8178C85.6951 4.8178 85.8104 4.54681 85.3299 4.65104C84.907 4.73442 85.2146 4.60935 85.0416 4.94287C85.5798 5.25554 85.3683 5.04709 85.7128 4.8178H85.7143ZM83.4876 8.4817C83.6029 8.98198 83.3338 8.75268 83.8336 8.96113C83.872 8.35663 84.0835 8.62761 83.4876 8.4817ZM45.1709 2.19454C45.4208 2.85998 45.2478 2.54891 45.0748 3.11012C44.8634 3.83809 45.3439 3.7964 44.6135 4.10907C44.4982 3.67133 44.6712 3.58795 44.6327 2.9642C44.6135 2.38054 44.5174 2.23623 45.1709 2.19454ZM25.0345 3.81884C25.2075 3.798 25.246 3.96476 25.3229 4.06898C25.2652 4.36081 24.9192 4.27743 24.7093 4.2149C24.8438 3.86053 24.6131 3.86053 25.036 3.81884H25.0345ZM21.5215 4.11067C22.5003 4.02729 23.6329 3.75631 23.6329 4.71518C23.4599 4.92363 22.6733 4.79856 22.3273 4.75687C21.3293 4.69433 21.5407 4.23574 21.5215 4.11228V4.11067ZM73.4098 8.31654C73.6212 7.94133 73.1599 8.00387 73.8134 8.10809C73.8134 8.44161 73.8711 8.2957 73.6404 8.39992C73.2368 8.58753 73.5443 8.39992 73.4098 8.31654ZM33.0379 5.54577C32.9418 5.98351 32.7881 6.04605 32.5382 6.27374C32.0961 6.23205 31.8861 6.08613 31.5786 5.87768C31.6363 5.46078 31.5786 5.39825 31.9246 5.25394C32.5574 4.96211 32.8265 5.17056 33.0379 5.54577ZM72.3142 8.75108C72.3718 8.08564 72.2565 8.75108 72.5064 8.4384C72.6602 8.70939 72.7371 8.04235 72.6602 8.89699C72.6025 9.54158 72.7178 8.89699 72.4487 9.16798C72.3911 9.06375 72.2757 9.35558 72.3142 8.75108ZM40.9467 6.60726C40.9852 6.14867 41.0044 6.16951 41.3119 6.25289C41.4272 6.66979 41.408 6.66979 40.9467 6.60726ZM63.023 8.35663C62.7154 8.56508 62.7731 8.46085 62.6001 8.31494C62.7923 7.98142 62.8692 7.73128 63.023 8.35663ZM40.1601 6.73233C39.8334 7.02415 40.064 6.83655 39.6027 7.02415C38.8353 7.31598 39.1991 7.14922 39.0453 7.045C38.93 6.50303 39.7742 5.87929 40.1586 6.73233H40.1601ZM35.7836 6.91993C36.1104 7.10753 36.2449 7.00331 35.9374 7.39936C35.553 7.2326 35.6298 7.25345 35.7836 6.91993ZM34.7856 7.85635C34.2474 7.89804 34.0951 7.58536 33.9606 7.2326L34.1528 6.96162C34.7471 7.00331 34.8048 7.21176 34.7856 7.85635ZM7.18102 5.31808C7.08492 5.90173 6.95037 5.75582 6.4521 5.77666C6.04845 5.79751 5.85772 5.96427 5.49252 5.69328C5.5694 5.19301 5.55018 5.2347 6.12534 5.25554C6.50976 5.27639 6.83504 5.2347 7.18102 5.31808ZM24.6886 7.00491C24.9192 6.58801 24.8039 6.83815 25.3214 6.71308L25.4944 7.02576C25.3983 7.15083 25.0523 7.25505 24.6886 7.00491ZM39.7387 8.2957C40.2962 8.35823 40.4869 8.92105 40.0655 9.12789C39.6618 9.33634 39.4327 8.79437 39.7387 8.2957ZM36.6678 8.21232C36.7831 8.8986 36.1296 8.96113 35.5929 8.98198C35.7082 8.46085 36.035 7.96218 36.6678 8.21232ZM77.7479 13.0628C77.5364 13.4588 76.9421 13.6047 76.8652 12.8543C77.2688 12.4791 77.5172 12.5208 77.7479 13.0628ZM6.60587 7.73288C6.93263 7.52443 6.99029 7.56612 7.27713 7.89964C7.23868 8.12894 7.18102 8.10809 6.91193 8.08725C6.71971 8.0664 6.68127 7.85795 6.60439 7.73288H6.60587ZM75.6365 11.6469C75.9056 12.168 75.6749 12.1472 75.3097 12.4374C74.8869 12.7709 75.1944 12.7709 74.7523 13.1654L74.5024 12.9569C74.6947 12.3733 75.2506 11.8955 75.635 11.6453L75.6365 11.6469ZM80.7434 12.7501C80.6089 13.6657 80.2821 13.3338 79.6877 13.5406C79.1688 13.7074 79.2649 13.9783 78.5167 14.1034L78.1323 13.6031L78.4398 12.9986C79.015 13.1237 78.6513 13.2696 79.2649 13.3113C79.7454 13.353 79.4186 12.3124 80.7434 12.7485V12.7501ZM68.2275 7.08829C68.016 7.31759 67.7854 7.73288 66.9027 7.42181C66.5183 7.2759 66.7681 7.21336 66.7874 6.79807C66.8066 6.46455 66.6336 6.48539 66.6528 6.15348C66.7105 5.25875 67.574 5.25875 68.0929 5.69489C68.3044 6.13263 68.2275 6.4437 68.2275 7.0899V7.08829ZM78.9396 17.5605C78.9204 17.7272 78.9972 17.623 78.8243 17.6022C78.4975 17.5605 78.8435 18.0399 78.7666 17.5605C78.7089 17.1436 78.9396 17.4979 78.9396 17.5605ZM8.27515 19.6193C8.35203 19.6193 8.1406 19.3483 8.46736 19.6402C8.7749 19.932 8.44814 19.8486 8.44814 19.8486C8.21749 19.8486 8.27515 19.8486 8.27515 19.6193ZM71.6429 25.698C71.6045 25.1144 71.6237 25.6563 71.739 25.427L71.8736 25.4062C72.2003 25.5104 72.3349 25.8856 72.2964 26.2592C71.9697 26.2592 71.8736 26.2384 71.739 25.9674C71.7198 25.9466 71.6621 25.7381 71.6429 25.6964V25.698ZM70.7987 26.6761C70.7794 26.8012 70.8179 26.7178 70.7026 26.7178H70.6833C70.568 26.6553 70.8563 26.426 70.7987 26.6761ZM80.7612 28.7574C80.7419 29.0492 80.8188 29.0492 80.6266 29.2577C80.2806 29.6121 80.3575 29.2785 80.3575 29.2785C80.2999 29.0701 80.05 28.7783 80.7612 28.7574ZM75.4827 30.9638C75.5404 31.4849 75.5596 31.2556 75.3674 31.5683C74.9253 31.3598 75.1752 31.6933 75.0406 31.1514C75.2713 30.9221 75.0599 30.9846 75.4827 30.9638ZM78.8997 30.2983C79.494 30.4859 79.667 31.0888 79.4571 31.8184C79.2456 32.5881 79.4379 33.1092 78.6513 33.2343C78.7474 31.6933 78.3437 32.1102 78.2284 31.6933C78.1515 31.3807 78.4783 30.611 78.8997 30.2983ZM79.667 34.2958C79.9938 34.2958 80.1283 34.3583 80.1668 34.796C80.0514 34.9003 79.8208 34.9211 79.6862 34.7543C79.3787 34.4 79.667 34.3166 79.667 34.2958ZM75.156 36.0868C74.8869 36.3995 74.983 36.337 74.5424 36.462C74.2733 35.8784 74.2156 35.5881 74.7538 35.1921C75.0998 35.3797 75.2535 35.5673 75.1574 36.0868H75.156ZM76.9021 37.5652C76.6523 37.8779 76.7676 37.5444 76.7484 37.5235C76.7291 37.3984 76.4601 37.3984 76.9406 37.3359C76.9214 37.461 77.0751 37.3359 76.9021 37.5652ZM75.0022 38.7309L74.7715 38.6684L74.8292 38.6059C75.3866 38.4391 74.8677 38.5433 75.0022 38.7309ZM69.3778 39.2312C69.224 38.8977 69.1856 39.1687 69.3778 38.7726C69.4739 38.7935 69.7238 38.5016 69.6661 39.0227C69.6469 39.1895 69.5123 39.1895 69.3778 39.2312ZM82.2013 47.0593C81.6261 47.1635 81.6439 46.6215 80.9534 47.0593C80.2052 47.5804 80.0515 47.683 79.3787 47.0801C79.8592 45.9561 80.7227 46.2479 80.9918 46.1854C81.184 45.52 80.7996 45.5616 80.6266 44.978C81.0687 44.7487 80.7804 44.978 81.2018 45.0405C81.4516 45.0822 81.5862 44.9155 81.8346 44.8738C81.8538 44.8738 82.4674 44.8946 82.5058 44.9155C82.7557 44.978 82.7557 45.0614 82.7942 45.374C82.3521 45.7076 82.3521 45.374 81.873 45.8118C81.9115 46.5398 82.6404 46.4355 82.1998 47.0609L82.2013 47.0593ZM71.2023 46.5798C71.1831 46.7883 71.1254 46.7674 71.1062 46.6007C71.087 46.4131 71.2023 46.559 71.2023 46.5798ZM70.2043 46.6215C70.0313 46.7674 70.262 46.7049 69.9736 46.7258C69.4354 46.7466 70.0505 46.8091 69.8391 46.6007C70.2235 46.288 70.1466 46.5798 70.2043 46.6215ZM67.6701 46.5382C67.6701 45.8102 67.8046 45.435 68.2452 45.2474C68.6296 45.5184 68.3605 45.2474 68.5912 45.7268C69.0525 46.6632 69.3393 46.2688 69.3201 47.1218L68.3413 47.1635C68.3221 47.0593 68.3029 46.8508 68.2837 46.7258C68.1876 46.288 68.2452 46.6007 68.1875 46.4131C67.9761 46.4131 68.0146 46.4965 67.6686 46.5382H67.6701ZM78.7843 48.9947C76.2693 49.4949 78.6882 46.9551 78.7843 48.9947V48.9947ZM77.1136 48.3501C77.1136 49.0572 76.6715 49.1406 76.0002 49.0363C76.0963 48.3918 76.4808 48.2041 77.1136 48.3501ZM71.6237 48.8087C71.912 48.6002 71.9697 48.5377 72.2757 48.8712C72.2565 48.9754 71.8529 49.4548 71.6237 48.8087ZM71.0663 49.3715C70.7588 49.2047 70.7011 49.1839 70.5665 48.892C70.9125 48.6627 71.1417 48.8503 71.0663 49.3715ZM62.6001 49.2672C60.4311 49.4132 61.1023 48.6227 61.4483 48.6419C61.9865 48.6836 61.9096 48.9337 62.3887 48.496C62.6578 48.2667 62.677 48.0999 63.0984 48.0999C63.4059 48.7237 63.0984 49.1197 62.5986 49.2656L62.6001 49.2672ZM73.2353 50.9749C73.5621 50.6831 73.9642 51.0583 73.7735 51.6404C73.293 51.7029 72.9677 51.2443 73.2353 50.9749ZM43.9615 50.0385C43.9615 49.9968 43.6732 50.101 44.0191 49.7467C44.1921 49.5591 44.096 49.6841 44.3267 49.6841C44.4036 49.9551 44.4804 49.8509 44.269 50.0593C43.9999 50.3512 43.9615 50.0385 43.9615 50.0385ZM26.9921 49.2897C26.7999 48.7686 26.7038 48.6243 27.2997 48.395C27.7225 48.7493 27.8187 49.2897 26.9921 49.2897ZM43.3094 51.2459C42.9635 50.9749 43.1557 51.0791 43.0403 50.4971C42.9635 50.101 42.8866 50.2678 43.0596 49.976C43.4824 50.2053 43.6732 50.6622 43.3094 51.2459ZM47.34 52.6201C47.2631 52.6409 47.4937 52.9119 47.0709 52.5784C46.5711 52.1615 46.9171 50.9958 47.34 51.5377C47.5322 51.767 47.4553 52.3699 47.34 52.6201ZM35.5145 51.1834C35.6298 50.7039 35.4184 50.9541 35.8221 50.8082C35.9758 51.3084 35.8413 51.1625 35.5145 51.1834ZM34.6318 51.8071L34.2858 51.8488C34.4204 51.5153 34.3051 51.6612 34.5549 51.5153L34.6318 51.8071ZM49.8742 53.494C50.2394 53.7233 50.1625 53.6607 50.3932 53.9942C51.6987 54.1401 52.0063 53.6816 52.9659 53.7232C53.4079 53.7232 53.5987 53.6607 53.9447 53.5773C54.3291 53.494 54.6928 53.5565 55.1349 53.5982C55.9407 53.5148 56.056 52.2657 57.3808 52.2866L59.4922 52.6826L59.7805 51.9546C60.6824 51.9963 60.6055 52.4966 61.2398 52.3715C61.6243 52.309 61.6435 52.1631 61.9495 52.1422C62.3916 52.1422 62.1418 52.4341 62.6208 51.9963C62.3133 51.2058 61.8342 50.8306 63.0244 50.2261L63.5996 50.4971C64.0032 50.1427 64.9436 49.6857 64.9628 49.3522C64.6553 48.3533 64.1378 49.1855 64.2147 48.124C64.7898 47.7071 64.9244 48.3116 65.5202 48.2282L66.0392 48.2699C66.1353 48.7076 65.7701 48.8119 65.7125 49.1646C65.6163 49.8717 65.7317 49.4148 65.8086 49.5815C66.1161 49.5815 66.0584 49.3314 66.4029 49.1646C66.845 48.9562 66.8258 49.1438 67.2472 48.8519C67.2664 48.3934 67.4586 47.8738 67.2664 47.4569C67.055 47.0192 66.9204 47.2693 66.9397 46.6039C67.401 46.729 67.1703 46.5622 67.3817 46.9791C67.574 47.3335 67.4202 47.2292 67.7277 47.5002C68.2851 47.9588 68.0929 47.8337 68.399 48.395L68.8795 48.0406C69.57 48.52 69.3408 48.2282 70.0697 48.2907C70.1659 49.3522 69.5123 49.2897 68.918 49.79C68.6873 49.9776 68.4566 50.2694 68.1698 50.3736C67.6893 50.5821 67.5947 50.3736 67.3448 50.9573C67.4409 51.4367 67.537 51.5826 68.0737 51.6644C68.3236 51.2058 68.1314 51.2475 68.5927 51.0807L68.7849 51.8921L71.1461 52.2882C71.5306 52.309 71.5498 52.2048 71.9904 52.2048C72.3364 52.3924 72.6232 52.7467 73.0461 52.8301C73.4689 52.9135 74.1018 52.7259 74.5823 52.7676C75.2151 52.8093 75.0628 53.0386 75.7149 52.8301C75.8494 52.1022 75.2728 52.1647 74.9283 51.8937C75.0244 51.3726 75.2166 51.456 75.5034 51.0615C75.465 50.3127 75.1574 50.7071 75.4265 50.0834C75.7533 50.0834 76.7513 49.9792 76.7898 50C77.4995 50.1876 76.6744 50.8739 77.0781 51.5409C77.6532 51.3325 78.1145 50.7921 78.6335 52.0204C78.8449 52.5207 78.6335 52.3539 79.0372 52.604C79.3639 52.3122 79.7084 51.4175 79.67 50.9172C79.1702 50.7713 78.3836 50.8964 78.0569 50.3335L78.1914 50.2085C78.9972 49.7499 80.0337 49.6457 80.4758 48.6884C80.668 48.2506 80.8026 48.1464 81.1086 47.8562C81.3969 48.0021 81.6276 48.2106 81.7607 48.4799C81.9913 48.8968 81.7607 48.8968 81.8375 49.3538C82.5665 49.1245 81.9721 48.8119 82.4127 48.5216C83.084 48.3549 83.9489 48.8552 83.9297 47.877L83.047 47.7311C83.0662 47.3142 83.1623 47.2308 83.2969 46.9615C82.9125 45.7541 83.3545 46.2335 83.393 45.6707C83.4506 44.7343 83.2008 44.2548 84.2949 43.9838C84.5256 43.3601 84.4102 43.3184 84.9854 43.0266C85.5798 42.7139 85.3314 42.7139 85.6951 42.111C86.0026 42.1527 86.0411 42.2152 86.2895 42.2361C86.7892 42.2569 86.6931 42.111 86.7892 41.9026C86.5393 41.5065 86.8277 41.7358 86.0411 41.4857C85.6374 41.3397 85.6374 41.3189 85.1391 41.2564C84.5448 40.1323 83.9105 40.1115 82.9124 40.4242C82.5088 39.9656 82.4319 39.9447 81.7799 39.8197L80.9741 39.8405C80.1298 40.0698 79.3802 39.6946 78.5359 39.6321L77.5764 39.507C77.1727 39.4236 76.8859 39.6738 76.6168 39.778L76.0594 39.4445C76.0401 38.3413 77.1535 38.6331 77.5764 37.841C77.7494 37.4866 77.8262 37.3824 77.98 37.0922C77.7878 36.3642 77.5187 36.6753 77.5764 36.0307C77.8647 35.9473 78.1515 36.0932 78.3437 36.26C78.7858 36.6352 78.4014 37.1339 78.5936 38.3204C79.3418 38.2579 78.9588 37.9869 79.2649 37.5299C80.8395 38.6956 80.2629 38.9458 81.53 38.2996C82.0105 38.0703 81.9913 38.2371 82.2397 37.655C81.8745 37.0713 81.6261 37.0104 82.182 36.7394C82.4319 36.6144 82.3935 36.7394 82.5857 36.4059C82.7587 36.1349 82.8163 35.7405 82.9893 35.407C84.1796 35.3653 83.699 36.2391 83.6029 36.927C83.9681 37.3439 84.1973 37.4898 84.6778 37.2189C84.5433 36.3241 84.5048 36.927 84.6202 35.9072C84.3319 35.532 84.2742 35.5946 84.1781 35.0959C84.6394 34.4914 84.7917 34.95 85.4837 34.7415C85.8681 34.4288 85.8681 33.5341 85.5029 33.3465C84.4856 32.8254 84.8701 33.8468 84.8124 34.1787C84.5625 34.3246 83.6606 34.5539 83.3723 34.4497C82.4896 34.137 82.8725 33.866 82.9494 33.1381C82.2013 33.1797 82.738 33.3465 82.0091 33.409C82.2397 32.6394 82.4511 32.7436 82.0475 32.0557C81.4339 30.9734 81.9898 31.1818 81.6823 30.4731C81.2594 30.6816 81.567 30.2855 81.2402 31.2428C81.0864 31.6388 80.9519 31.7431 80.5882 31.8874C80.1269 31.6372 80.3191 31.6581 80.013 31.3246C80.0515 30.5549 79.9361 30.4507 80.5512 30.2422C81.1264 30.0755 80.8203 29.9504 81.2993 29.7628C81.7607 29.596 82.7202 29.9087 82.6818 30.6992C82.6626 30.9493 82.5857 31.0744 82.5088 31.3646C83.9681 31.2187 83.8144 31.2187 83.3723 29.6986C83.6606 29.3443 84.4087 29.1567 85.2338 28.6163C85.7912 29.1374 85.7143 30.324 85.1377 30.8018C84.7532 31.1353 84.7533 30.8018 84.5803 31.2604C84.8878 31.448 85.1554 31.2396 85.5014 31.3229C85.7705 31.3855 85.732 31.4689 86.115 31.5314C86.3841 31.3021 86.3072 31.448 86.5186 31.0728C86.0381 30.7601 85.8858 30.8852 86.0189 30.3657C86.1919 30.1155 86.7863 30.3865 87.0361 30.4699C87.8996 30.7826 86.7478 31.8024 87.5359 31.6982C87.9972 31.6356 87.8434 31.177 88.1303 30.7617C88.9745 30.7409 88.5147 31.262 88.4378 31.719C88.5147 32.1151 89.5127 32.4261 89.8779 32.5512C91.2027 32.9472 90.6837 32.2594 91.701 32.3427C92.5644 32.4053 92.3338 33.1124 93.2372 32.843C93.8316 32.0942 92.7566 31.8858 92.4314 31.4689C92.143 31.0937 92.5082 31.1353 91.9508 30.5741C91.4126 30.0113 91.9316 30.1155 91.4319 29.7419C91.009 29.4293 90.9898 29.4918 90.7222 29.0765C90.5299 28.7638 90.4915 28.472 90.1086 28.3485C89.7241 28.2026 89.2259 28.2026 88.8414 28.1818C88.1317 28.1401 87.7089 27.5981 87.1322 27.9733C87.1899 28.6179 88.2648 28.3902 88.2071 29.1599C88.1687 29.681 87.8419 29.4517 87.3821 29.5559C85.9612 29.8895 86.5571 29.0557 85.9036 28.2652C85.6729 27.9733 84.9632 27.433 84.5019 27.4955C84.3673 28.1818 84.6364 28.2652 84.3289 28.6821C83.7153 28.4111 84.7133 27.6414 83.1194 27.6831L83.0426 27.1203C82.1214 27.0369 82.256 26.62 81.6409 26.5783C80.8735 26.5366 81.4102 27.0161 80.0278 26.62C79.701 26.891 79.8356 26.9535 79.4526 27.0161L79.2604 26.0796C78.5315 26.0588 77.3413 27.0786 76.8415 26.891C76.4186 26.5366 76.534 26.349 76.2087 25.9546C75.326 25.767 75.0761 25.9963 74.8647 24.9556C74.8262 24.768 74.6725 24.3511 74.6917 24.186C74.7686 23.7482 75.2107 23.0202 74.4418 23.4788C74.2881 23.5622 73.9805 23.8957 73.6745 23.7498C73.1555 23.2287 73.4822 23.3329 73.1555 22.7092L72.4458 22.7926C72.4458 22.2506 72.8494 21.7936 73.29 21.6268C73.7706 21.4392 73.463 21.7311 73.9229 21.606C74.1727 21.5226 74.4226 21.3142 74.6902 21.2933C75.1323 21.2516 75.6114 21.4601 76.1111 21.6268C77.013 21.9187 77.0322 21.606 77.6858 21.7102C78.2432 22.2105 77.705 22.3757 78.4724 22.6466C78.6838 21.8978 78.4916 21.7519 79.0298 21.1266C79.701 20.3361 79.6241 21.1057 79.3565 21.7503L79.6449 22.1255C80.5852 22.0838 80.4699 21.5002 81.2579 21.2099C81.7385 21.4809 81.8715 21.8144 82.256 22.2089C82.9465 22.188 83.1771 22.0004 83.3501 21.3767C83.6769 20.2944 84.079 20.8556 84.0983 20.0651C83.3885 19.94 83.7907 20.2318 83.2348 20.2735C82.7735 20.2944 82.7927 20.0025 82.3136 19.8983C82.0061 20.2735 82.1599 20.2944 81.7947 20.5221L80.9504 19.6065L80.4891 18.2115C80.5852 17.6487 80.739 17.5669 80.9888 17.1708L80.7582 16.879C79.6833 16.7748 79.8947 16.3996 78.9544 16.2553C78.1101 16.1302 77.9563 15.88 76.9391 15.9009C76.2678 15.7133 76.4778 14.756 76.9968 14.5476C77.8218 14.2141 77.9371 14.36 78.5522 14.9019C79.3388 14.7143 78.9943 14.6935 80.0115 14.7143C80.6251 14.7352 80.9134 14.3808 81.2979 14.0489C81.9691 13.4652 81.9499 13.4652 82.0076 12.8207C82.046 12.237 82.9479 12.051 82.3536 11.113C81.2402 10.9045 81.0288 11.4465 80.4152 10.2808C79.8016 10.1974 79.667 10.0932 79.2249 10.0098C78.7444 10.3225 78.4576 10.7169 77.8617 10.842C77.4004 10.5918 77.6311 10.6752 77.3235 10.3834C77.189 10.2583 76.8238 10.0499 76.633 9.9665C75.6927 9.52876 75.5197 9.61213 75.0584 9.57045C74.0796 9.50791 74.501 8.50896 74.7893 8.00868C75.116 7.44586 75.4221 7.52924 75.9795 7.28071C76.3063 7.11395 76.018 7.13479 76.4601 7.05141C77.4196 6.84296 77.708 6.3026 78.4561 7.0931C78.2639 7.94614 77.535 7.94614 77.1121 8.57149L76.9007 9.09261C76.9007 9.1343 76.9199 9.17599 76.9199 9.19684C76.9391 9.44698 77.4004 9.42613 77.5911 9.5512C77.8602 9.71796 77.6872 9.7805 78.1486 9.9681C78.3408 9.80134 78.4561 9.57205 78.6099 9.44698C78.8982 9.17599 78.8982 9.3636 79.2235 9.07177C79.2811 8.65487 79.1466 8.77994 79.1274 8.23958L79.3772 8.05197C79.9908 8.19789 79.4733 8.3438 80.2791 8.30211C80.8543 6.99048 79.4541 7.7393 79.4157 6.40843C80.0677 6.17913 80.183 6.19998 80.2407 5.45116C79.1658 4.66066 79.4733 5.03426 78.7045 4.03531C78.2624 4.01447 77.7065 3.91024 77.3028 4.03531C77.1875 4.38967 77.4374 5.7013 76.2856 5.68046C76.0934 4.88995 75.8243 4.22291 75.7858 3.34903L75.0761 2.95298C75.0761 2.93213 75.0377 2.93213 75.0185 2.91129C74.5379 3.24481 74.7109 3.36988 74.6725 3.97278C73.2132 4.11869 73.7321 3.45165 73.1555 4.74244C71.946 4.40892 73.1555 3.01391 72.5419 2.53608C72.2728 2.32763 71.9475 2.32763 71.64 2.16087C70.7188 1.68143 70.5651 1.99411 69.6247 1.78566C69.2787 1.70228 68.9727 1.70228 68.6267 1.63975C67.744 1.47299 67.8978 1.22285 67.4941 0.995155C67.1481 0.786706 65.1329 0.432342 64.7292 0.515722C64.0003 0.682481 64.2487 0.369807 63.7312 0.390652C63.4429 0.411497 62.983 0.369807 62.714 0.515722C62.3872 0.703326 62.3295 1.09938 61.7159 1.05769C61.197 1.016 60.6987 0.786706 60.5834 1.64135C61.3315 1.70388 61.985 1.8498 62.6178 1.89149C63.4237 1.93318 63.5005 1.51628 64.2309 1.32867C65.402 1.03685 64.9214 1.74557 65.8825 1.55797C66.2477 1.49543 66.9574 1.24529 67.0727 1.91233C67.1496 2.37092 66.9958 2.2667 66.8997 2.39177C66.5922 2.60022 63.7327 2.49599 63.0599 2.49599C62.3694 2.47515 61.8505 2.6836 61.2753 2.76698C60.8909 2.82951 60.9101 2.53768 60.5656 2.85036C60.162 3.20472 60.5848 3.24641 60.0082 3.49495C59.6238 3.18227 59.816 3.01551 59.3562 2.85036C57.8968 2.30839 58.3197 3.10049 57.4947 3.30894C56.9949 3.43401 56.7465 3.64246 56.3429 3.49655C56.1507 3.01712 56.5543 2.33084 55.2487 2.93374C54.8067 3.12134 54.7874 2.89205 54.4045 3.16303C54.0201 3.41317 54.3276 3.49655 53.6563 3.57993C53.0043 3.22556 53.3488 3.20472 52.9851 2.6852C52.6968 2.47675 51.2759 2.70604 51.0851 2.91449C50.7968 3.20632 50.8545 3.519 50.3754 3.41477L50.5869 2.62427L50.2601 2.20737C49.8372 2.22821 48.8008 2.29075 48.5332 2.79103C48.2833 3.29131 48.6485 3.04117 48.2064 3.37469C47.7835 3.58314 47.3045 2.85356 46.3641 3.18708C45.9605 3.31215 46.0566 3.47891 45.7121 3.12455C46.1734 2.6868 46.2118 3.04117 47.1714 2.12559C47.1138 0.252754 47.5943 0.75143 45.5775 0.813965C45.1162 0.813965 44.8294 1.00157 44.3296 1.0641C43.7722 1.10579 43.3701 1.00157 43.3701 1.37678C43.4854 1.91875 43.8121 1.481 44.2912 1.73114C44.272 2.3148 44.0029 2.35489 43.4854 2.52165C42.9664 2.68841 42.7757 2.89686 42.3144 2.93855C40.9511 3.04277 40.549 3.77074 39.9916 3.72905C39.205 3.66652 38.8013 3.29131 37.8418 3.72905C36.4209 4.37364 36.344 4.76969 35.8649 4.74885L34.79 4.5404C34.3479 4.49871 34.1764 4.22773 33.7343 4.20688C33.0054 4.14435 33.2346 4.41533 32.5441 4.39448C31.3539 4.39448 30.2213 4.22773 29.0887 4.37364C28.5313 4.45702 28.8581 4.41533 28.4559 4.37364C27.9946 4.35279 27.9369 4.68631 27.4579 4.5404C27.2657 4.47786 26.4791 4.39448 26.3253 4.18604C25.9793 3.35384 27.035 3.66491 27.4194 3.45807C27.2272 2.83432 26.2677 3.14539 25.3081 2.93694C24.2716 2.72849 22.8699 1.62531 21.6605 1.87545L21.6797 2.79103L20.0858 2.16728C19.5476 1.91714 18.8379 1.93799 18.3574 1.70869C17.973 1.52109 17.8 1.31264 17.417 1.08495C17.0518 1.14748 17.0518 1.23086 16.6881 1.21002C16.3037 1.18917 16.1691 1.0641 15.8631 0.959879C15.3057 1.21002 15.5555 1.25171 15.1149 1.54354C14.0592 1.41847 14.9612 0.836413 13.3111 1.35593C10.0479 2.37573 7.64824 0.648809 7.30226 1.81452L9.68273 2.21058C10.2017 2.25227 10.7961 2.10635 11.4866 2.14804C12.1386 2.21058 12.869 2.29396 13.5211 2.3148C14.423 2.33565 16.5536 2.04382 17.0341 2.79423C16.7266 3.00268 16.113 3.00268 15.7093 3.10691C14.7497 3.3362 15.1519 2.9193 14.423 2.85677C12.2155 2.71085 13.3673 2.85677 12.0233 2.94015C11.6581 2.96099 11.1021 2.89846 10.7177 2.85677C9.75814 2.79423 9.00851 2.83592 8.02971 2.75254C7.45307 3.3362 7.28156 3.23198 6.72415 3.60558C6.87792 4.31271 7.43385 3.87657 8.2027 3.77234L12.4447 3.7515C13.1736 3.77234 13.8463 3.58474 14.2485 4.1684C14.0563 5.14651 13.6541 4.66868 12.9429 4.50192C12.214 4.33516 11.9641 4.83544 11.4259 4.98135C11.0992 4.79375 11.1761 4.71037 10.8123 4.60614C9.1608 4.10586 9.21847 4.93966 8.20122 4.85628C7.31853 4.79375 5.72465 4.02409 4.89962 4.39769C4.49597 4.5853 4.72662 4.91882 4.64974 5.39665C3.40184 6.06208 4.20765 6.66658 2.69214 6.79165C1.94399 6.85419 1.36736 6.87503 0.734535 7.29193C0.369333 7.54207 0.465438 7.35447 0.48466 7.89644C1.25203 8.0632 2.32694 7.50038 2.7498 7.60461C3.6325 7.79221 5.28404 7.62545 5.43781 8.33258C4.89962 8.74948 4.03614 8.58272 3.3841 8.74947L3.13422 9.70674C2.78824 9.83181 2.09776 9.93603 1.67489 10.0194C1.25203 10.1028 0.696093 10.207 0.369333 10.5197C0.561544 10.9366 0.523102 10.8115 0.982932 10.8949C2.09628 11.1034 1.30969 11.7896 1.78874 12.144C2.03862 12.3316 2.17317 12.0815 2.633 12.4358C2.61377 12.811 2.633 12.7902 2.3639 12.9361C1.57731 13.4155 0.731578 13.1862 0.348633 13.6641C1.05834 13.7683 3.76557 13.3306 4.22687 13.5182C4.05388 14.538 3.22885 13.9351 2.36538 14.6422C1.94251 14.9757 2.15394 15.0799 1.42502 15.1216C1.11748 15.1216 0.753756 15.0799 0.696092 15.476C0.65765 15.8512 0.696092 15.8512 1.02285 15.8929C1.40728 15.9346 2.02088 15.7887 2.11698 16.3723C2.05932 16.7267 1.96321 16.8309 1.92477 17.0377C1.86711 17.413 1.96321 17.3713 2.00165 17.7866C1.57879 18.3702 1.44424 18.0784 1.23429 18.5145C1.90555 18.9314 2.32841 19.0773 3.115 19.1591C4.2668 21.2821 5.49547 19.1591 6.51272 19.9288C6.3205 20.6151 5.99374 20.2206 5.3417 20.4291L4.15147 21.0336C3.30722 21.3045 1.57879 20.8668 1.79022 21.97C2.49993 22.3243 3.88237 21.8658 4.40134 22.0534C4.86265 22.241 4.53589 22.3869 5.26482 22.2618C5.91686 22.1576 5.70691 21.9491 6.03219 22.366C5.87842 22.6787 6.2244 22.5119 5.68621 22.6996C5.05339 22.9288 4.74585 22.8246 4.18843 23.3249C3.93856 23.5334 3.7079 23.7418 3.3634 23.8043C2.80599 23.9086 2.59603 23.8252 2.51915 24.4489C2.98046 25.3228 3.20963 24.1779 3.90159 25.573C4.47675 26.697 3.78627 26.9888 4.05536 27.821C4.0938 27.9044 3.82471 27.9461 4.43979 28.092C4.74732 28.1754 4.74732 28.0503 5.05338 28.2379C5.18793 28.3213 5.6108 28.759 5.68621 28.9867C5.83997 29.3828 5.57088 29.6521 5.62854 30.1316C5.68621 30.6527 6.05141 30.5902 6.43435 30.7361L6.60734 31.5057C7.35549 31.5474 9.19924 30.9846 9.25691 31.6933C8.94937 32.7965 7.93213 31.9435 7.5477 33.005C7.73991 33.6303 7.70147 33.1926 7.97057 33.6303C8.37421 34.2749 7.35697 35.1921 8.54572 36.1077C9.21699 36.6079 8.81482 36.8148 9.12088 37.5027C10.2342 37.857 11.1361 36.6913 11.7128 38.3557C11.8473 38.7309 11.7512 38.7309 11.9819 39.0628C12.2894 39.5631 12.4432 39.8325 11.9434 40.3119C11.9819 41.2483 11.8473 40.9565 11.8089 41.3943C11.905 41.436 11.7704 41.4151 12.078 41.5193C12.0972 41.5402 12.3663 41.6027 12.3663 41.6027C12.5777 41.6444 12.8276 41.6652 12.9991 41.7278C13.2874 41.832 13.4989 42.1238 13.9587 42.3114C14.2855 42.4365 14.7645 42.7075 15.0144 42.77C15.6472 42.9368 15.7241 42.6658 16.1277 43.1452C15.9547 44.0191 14.7069 43.7289 15.8779 45.4558C16.4722 46.3506 17.7586 45.706 18.4313 46.4548C19.7945 47.9748 18.5082 47.4537 18.3544 48.4735C19.2948 49.3266 20.5235 49.2849 21.7137 49.7018C22.7694 50.0561 21.9636 50.6174 23.8251 50.2646C24.1711 50.2021 24.5156 50.0145 24.9 49.9519C26.7038 49.6392 25.8788 49.8477 27.242 50.2854C27.5688 50.0561 27.4534 50.0561 27.8364 49.9728C28.2785 50.9092 27.7211 50.9926 27.7403 51.5137C28.0094 52.2417 28.0286 52.0348 28.7191 52.2833C29.2573 52.5126 29.448 52.6586 29.9093 52.9488C30.5998 52.8029 31.4648 52.5736 32.2129 52.6153C33.2878 52.9905 31.4648 53.7601 35.4376 52.7195C35.8221 52.9905 36.2434 53.6142 36.8585 53.3849L37.6643 53.1348C37.9142 53.0931 38.2395 52.8638 38.2587 52.5511C38.2971 51.9466 37.7782 51.8857 37.4529 51.5939C37.6835 50.3656 38.3164 51.8232 39.1798 50.449C39.4297 50.0529 39.6411 49.7836 40.0625 49.6585C40.4085 49.9712 40.2355 49.9086 40.5431 50.2213C41.062 50.2005 41.0813 50.0962 41.5026 49.9712C41.7717 49.9086 41.8294 49.9712 42.097 49.8878C42.4046 49.7627 42.2124 49.7627 42.616 49.6376C42.5199 50.3031 42.616 50.1379 42.3277 50.5949C41.7895 51.4688 42.6737 51.3229 40.926 52.4485C40.7146 52.3026 40.7338 52.2609 40.3878 52.2192C40.3109 52.9472 40.3302 53.1139 40.6954 53.4891C41.3282 53.4058 40.9452 53.2182 41.5588 53.51C43.3434 54.3839 42.653 52.9263 43.1335 52.3234C43.4987 52.3443 43.9201 52.5527 44.1315 52.7612C43.8432 53.0947 43.6702 52.9905 43.3065 53.2823C43.441 53.9894 43.4987 53.7826 43.9777 54.1353C44.4006 54.4272 44.5913 54.5314 45.2064 54.6773C46.0314 53.8243 47.1448 54.2604 47.3947 54.2604C48.7963 54.2604 49.0654 53.7393 49.8713 53.5116L49.8742 53.494ZM10.3481 39.8549C10.4442 39.2104 10.7517 39.0227 10.3865 38.5642C9.69604 38.3349 9.7537 39.3964 9.46538 39.9383C9.7537 40.5011 9.96513 40.7497 10.4634 40.8122C10.7325 40.3953 10.7325 40.2702 10.3481 39.8549Z" fill="black"/>
</svg>
