<svg width="251" height="80" viewBox="0 0 251 80" fill="none" xmlns="http://www.w3.org/2000/svg">
<path fill-rule="evenodd" clip-rule="evenodd" d="M31.6642 8.34893C31.7861 7.90381 31.7373 7.978 32.054 7.79253L32.2489 8.20056C32.0784 8.94243 32.2733 8.49731 31.8835 8.68278L31.6642 8.34893ZM227.669 29.5779C227.986 29.0215 227.888 29.5779 227.913 29.5779C227.986 30.1343 227.913 29.9489 227.645 29.9118C227.645 29.7634 227.377 30.1714 227.669 29.5779ZM16.4569 21.2775C15.921 20.9808 15.5574 20.4985 14.9727 20.3873C14.2906 20.2018 13.9027 20.276 13.8053 19.2402C14.3412 18.6096 14.2925 19.0918 14.9971 19.4257C15.7504 19.166 15.5087 19.0176 16.3838 19.0547C16.9198 19.0547 17.2346 18.9435 17.7462 18.9064C19.0599 18.7209 19.5715 19.0547 20.1543 20.0534C21.3705 20.1647 22.7085 20.1647 23.7804 20.4244C24.7774 20.684 26.359 19.9421 26.627 21.3517C26.2616 21.9452 26.4321 21.6855 25.8493 21.8339C22.2232 22.9439 24.7062 21.9452 21.616 22.2049C20.7165 22.279 20.5947 21.9452 19.9856 21.7968C19.0618 21.5743 18.2578 22.279 16.4569 21.2775ZM211.075 35.0221C210.978 36.1692 210.054 36.3918 209.956 35.1705C210.297 34.7625 210.59 34.6883 211.075 35.0221ZM200.856 44.7293C201.075 44.4325 201.197 44.0987 201.538 44.7664C201.49 45.026 201.173 45.397 200.856 44.7293ZM26.7244 51.7685C27.0655 51.2492 27.1142 51.3976 27.3335 52.0653C26.8463 52.0653 27.0899 52.2878 26.7244 51.7685ZM109.326 65.068C109.569 65.7357 109.252 65.6244 109.252 65.6244C109.252 65.6244 109.131 66.255 108.426 65.5132C108.523 64.2548 109.204 64.7342 109.326 65.068ZM66.1885 77.1092C65.9205 78.7014 64.0953 80.5532 66.8463 79.7029L71.2014 79.1836C72.7587 79.2949 76.1656 78.145 77.2356 78.961C77.6254 78.553 77.4061 78.5901 77.9177 78.553C78.0152 79.0723 77.9177 79.4804 78.2101 79.7001C78.6729 80.0339 78.405 79.4033 79.0852 79.6259C79.4019 79.7372 79.4506 80.0339 79.8873 79.9968C80.7868 79.9597 81.7856 79.6259 82.5389 79.2178C83.2679 78.8098 83.8282 79.2549 84.5347 78.9953L90.1061 77.8111C90.7395 77.6628 91.3466 77.774 91.5415 76.9209C91.0056 76.8838 90.6907 76.9951 90.2766 76.5871C90.4471 75.9565 90.033 76.4758 90.6177 76.0306C91.7851 75.1033 92.3211 75.5113 93.1962 75.2888C94.7292 74.9178 96.4326 75.4 97.8437 74.3243C98.5971 73.7308 99.669 74.8436 100.447 73.397C100.91 72.5809 100.252 71.9903 99.5959 71.9532C99.0843 71.9161 96.6519 72.7322 97.7219 70.8432C97.9899 70.361 98.136 69.7304 98.3553 69.4736C98.6233 69.1398 98.9156 69.2511 99.3766 68.8059C101.056 67.1025 101.445 69.1398 103.074 68.6205C103.512 68.4721 103.925 68.3608 104.241 68.1753C104.631 67.8786 104.826 67.4335 105.336 67.6189C106.918 68.1382 108.45 67.2851 109.74 66.6174C110.178 66.3948 110.251 66.7287 110.688 66.8771C111.078 66.5803 111.2 66.2465 111.563 66.1723C112.196 66.061 112.026 66.5432 112.633 66.2094C113.096 65.9126 113.023 65.5788 113.533 65.7272C114.359 65.9868 113.728 65.8013 114.432 65.8755C115.09 65.9126 114.627 66.3207 115.356 66.1723C115.575 66.1352 115.843 65.8755 116.062 65.7643C116.647 65.5417 116.598 66.3577 117.474 66.2836L117.766 65.2078C117.133 65.0966 115.041 64.9482 114.603 64.6514C114.627 63.4673 114.798 63.4302 115.624 63.3189C117.571 63.0593 116.938 62.6141 118.446 63.9124C119.443 63.4673 120.613 62.6912 121.707 63.5044V64.1721C120.734 65.1365 119.226 63.356 118.982 65.3191C119.445 65.6901 122.389 64.9853 123.215 65.0224C123.557 65.0595 123.532 65.2078 123.873 65.2449C124.724 65.282 125.82 64.7256 126.769 64.7998C127.451 64.8369 127.498 64.6885 128.082 65.2078C128.643 65.7272 130.005 65.3191 131.392 65.7272C131.708 65.8384 131.952 65.2449 132.51 65.3562C132.949 65.4304 132.925 65.8384 133.459 65.8755C134.797 65.9497 134.577 65.5046 135.406 65.4304C136.135 65.3191 135.649 65.5046 136.088 65.6159C136.429 65.6901 136.429 65.5046 136.746 65.6159C137.864 65.9126 138.327 65.6159 138.79 65.7272C141.832 66.3577 144.508 65.8755 147.403 66.469C148.156 66.6174 148.96 66.3207 149.713 66.4319C151.831 66.7658 150.371 66.5432 151.758 66.4319L157.524 66.6545C158.206 66.7287 158.326 67.5447 159.106 66.6916C160.03 65.653 161.004 65.5074 162.245 64.9139L165.676 64.8027C166.334 64.9139 166.261 64.5059 166.77 64.1721C167.306 64.3204 167.597 64.7656 168.084 64.1721C168.498 63.6528 168.328 63.3931 169.081 63.1705C169.907 62.9109 171.052 63.0964 172.001 63.0593C172.439 63.0593 172.9 62.8738 173.485 62.8367C174.021 62.7625 174.433 62.8367 175.018 62.7996C175.917 62.7625 175.554 62.3174 175.99 61.8352C176.697 61.0933 176.817 62.8367 178.325 61.5384C178.959 61.0191 179.032 61.39 179.542 60.9449C179.858 60.6853 179.566 60.7595 180.053 60.4998C181.172 59.9434 180.613 59.4612 181.537 59.3157C184.067 58.8705 184.213 59.2786 185.917 59.0931C186.185 59.056 186.865 58.8705 187.157 58.9076C187.279 58.9076 187.547 59.2044 187.815 59.2044C188.473 59.2044 189.299 58.7222 189.908 58.7593C190.396 58.7963 191.441 59.3898 191.466 58.648C191.149 58.3512 190.42 58.1658 189.519 58.0916C188.497 58.0545 187.986 57.6093 187.062 57.6093C185.066 57.6835 185.821 57.3868 183.923 56.9788C183.216 56.8304 182.219 56.8304 181.588 56.4594C181.515 54.1625 185.31 55.8288 186.089 55.2011C185.846 54.0883 183.121 55.6462 182.829 53.9428C183.511 53.0525 186.526 53.3864 187.598 53.6089C188.595 53.8315 188.619 53.4977 189.253 53.5347C189.74 53.5718 189.715 53.9057 190.323 53.8315C190.664 53.8315 190.664 53.646 191.149 53.646C191.975 53.7202 192.414 54.4992 193.096 53.6089C192.901 52.9042 193.193 53.238 192.658 52.9783L189.689 52.1623C189.007 52.051 188.96 52.1623 188.936 51.272C189.52 50.7898 190.03 51.3462 190.883 51.0124C192.294 50.4931 194.168 51.4204 194.653 50.3447C194.483 49.269 194.361 49.4915 193.705 49.6399C192.927 49.8254 192.927 49.2319 192.367 49.1948C191.321 49.1206 190.639 50.2334 190.105 48.7868C190.641 47.5284 192.318 48.4158 193.171 48.2674C193.707 48.1562 193.973 47.3772 194.533 47.303C195.045 47.2288 195.167 48.0078 195.823 48.3045C196.456 47.9707 196.771 47.1575 197.77 47.1917L202.563 47.3401C204.169 47.4514 203.56 46.7837 204.364 46.1189C204.827 45.7479 204.973 46.0818 205.459 45.8221C206.724 45.0431 204.486 43.4881 208.549 43.8219C209.302 43.8961 209.351 44.0445 209.521 43.1913C209.253 42.9688 209.351 43.0429 208.985 42.9688L208.45 42.7091C208.815 42.1527 209.885 42.3382 210.494 41.893C210.348 41.3737 210.64 41.5221 210.153 41.4108C209.958 41.4108 210.08 41.5592 209.714 41.5221L207.501 40.4093C206.285 39.4078 207.282 39.6303 205.53 39.519L204.265 39.1852C203.899 39.0739 203.558 39.111 203.195 39.0739C202.927 38.9997 202.561 38.8143 202.271 38.6659C201.808 38.4433 202.027 38.6288 201.735 38.1466C202.222 36.4431 202.756 37.2192 203.658 37.2192C203.974 37.1821 204.121 37.0338 204.509 36.9967L205.166 37.5902C205.727 37.4047 205.895 36.8854 206.602 37.2934C207.089 37.5531 207.428 37.8127 207.891 38.1095C208.864 37.5902 208.598 36.9253 209.984 36.9967C211.322 37.0709 211.542 36.1435 212.319 36.2177C213.584 36.2919 213.121 36.2919 214.071 35.4758C215.117 34.5856 215.336 36.5145 215.385 33.9949C216.504 33.4014 215.751 32.6253 217.891 33.2902C218.378 33.4385 218.573 32.6967 219.253 32.7338C220.713 32.845 220.25 33.1789 221.734 33.0305C222.609 32.9192 225.287 33.7724 225.724 32.1773C225.505 31.5468 225.431 31.5838 224.922 31.5468L219.982 31.0645C219.47 31.0274 219.107 31.1387 218.766 31.1387C218.425 31.1016 218.132 30.9533 217.671 30.9162C216.918 30.842 216.187 31.2129 215.7 30.471C215.968 30.063 216.163 30.0259 216.746 30.063C219.154 30.2485 219.836 30.5081 222.341 30.4339C223.655 30.3969 224.944 30.6936 226.307 30.6936C226.916 30.6936 227.352 30.6194 228.083 30.6565L229.592 30.7678C229.811 30.7678 231.003 30.7307 230.345 30.1372C229.955 29.7663 228.642 30.6565 229.372 29.0986C229.981 29.1357 229.884 29.3582 230.296 29.3953L232.631 29.284C233.265 29.3582 232.972 29.7663 233.799 29.5066C234.893 29.1728 237.327 29.3953 238.519 29.4695C239.226 29.5066 239.08 29.6179 239.419 29.0615C239.273 28.7647 239.321 28.7276 239.053 28.5051L238.542 28.0229C238.834 27.7632 240.489 27.8003 240.901 27.8745L242.946 28.0229C243.482 28.0229 243.723 28.3196 244.162 28.3938C245.256 28.6534 246.448 28.5422 247.569 28.6534C248.346 28.6905 251 29.9118 251 28.4309C250.415 28.097 250.367 28.3567 249.833 27.8745C248.568 26.6532 248.641 27.0213 247.91 26.91C247.569 26.8359 247.325 26.4278 246.815 26.3907C246.377 26.3536 246.45 26.5391 246.013 26.4278C245.867 26.3536 245.77 26.2424 245.453 26.1682C244.868 26.0198 244.675 26.1682 244.091 25.8714C243.362 25.5376 243.677 26.0198 243.069 25.9085C242.631 25.8714 242.243 25.6118 241.78 25.5747C241.244 25.5376 241.366 26.2053 240.613 25.5747C238.86 24.0938 239.567 24.9812 238.229 25.6489C237.717 25.2408 237.815 25.0183 237.354 24.7215C236.552 24.1651 236.552 24.7215 235.918 24.5731L232.511 24.2022C231.878 24.2022 230.564 23.7571 229.933 23.6829C228.327 23.5345 228.838 23.8684 227.913 22.4987L227.086 22.5358C226.77 22.0536 226.672 21.7569 226.284 21.423C224.727 21.9052 225.553 21.1634 224.24 20.6441C221.32 19.5341 220.591 20.5328 220.079 20.2731C219.543 20.0506 219.568 19.6054 218.814 19.4942C216.455 19.2345 217.671 18.5297 216.553 17.6423C215.726 17.5681 212.782 17.1601 212.197 16.6779C212.441 14.9744 214.752 15.5679 215.629 15.197C216.189 15.0115 216.238 15.2712 216.747 15.3083C217.454 15.3454 217.769 15.605 218.28 14.789C218.037 12.4549 215.775 13.1968 214.947 12.8629C213.95 12.4549 209.982 12.1582 208.766 12.084C206.673 11.9727 206.115 11.305 205.505 11.2679L203.997 11.305C202.367 11.1937 202.123 9.78703 201.029 9.71284C200.541 9.67575 200.129 9.89831 199.666 9.74993C198.888 9.56446 198.547 9.82412 197.792 9.23062L195.603 7.86101C195.214 7.49007 195.384 7.3046 194.801 6.93367L186.53 6.30307C186.237 6.34017 186.237 6.52564 185.801 6.48854L180.739 6.00632C179.718 5.93214 177.673 6.22889 176.993 5.41283C177.139 4.08031 177.334 4.9677 177.31 3.96902L175.048 3.74646C174.731 3.74646 174.658 3.85774 174.366 3.82065C173.927 3.78356 173.708 3.44971 173.271 3.30134C172.881 3.22715 172.347 3.15296 171.958 2.96749C171.519 2.74493 171.519 2.48528 170.985 2.26271C170.425 2.70784 170.595 2.89331 169.964 3.15296C168.991 1.74626 169.452 2.67075 168.577 2.29981C167.992 2.04015 168.26 1.89178 167.312 1.81759C164.977 1.66922 165.901 1.40956 163.225 1.55793C162.567 1.55793 161.862 1.187 161.278 1.40956C160.912 1.52084 160.669 1.7434 160.208 1.59503C159.454 1.29828 159.211 0.299603 158.285 0.778967C157.264 1.26119 157.069 1.07572 156.023 1.1499C154.149 1.33537 153.493 0.408031 152.689 2.11434C151.571 1.96597 150.669 0.485071 149.892 0.596352C149.624 2.15143 149.721 1.85468 148.553 1.81759C147.459 1.81759 147.944 2.11434 146.923 1.26119C146.314 1.37247 146.412 1.52084 145.658 1.44665L145.025 0.556405C144.101 0.927342 144.635 1.11281 144.052 1.70346C143.37 1.85183 142.665 1.10996 141.863 1.07286C141.401 1.03577 140.769 1.14705 140.087 1.10996L138.481 1.25833C136.219 1.07286 135.464 1.74055 135.293 1.74055L132.325 1.4438C131.572 1.59218 130.743 1.88892 129.941 1.85183C129.188 1.81474 128.822 1.77764 128.14 1.88892C127.556 2.00021 126.948 1.81474 126.388 1.77764L123.103 1.88892C122.738 1.88892 122.567 1.55508 122.179 1.59218C122.13 1.59218 121.328 1.81474 121.255 1.85183C120.088 2.22277 117.193 0.185468 115.928 2.0373C115.465 1.88892 115.416 1.70346 115.052 1.74055C114.565 1.77764 115.101 2.07439 114.299 1.70346L111.55 0.0370937C111.282 0.0370937 110.358 0.222562 109.944 0.296749C108.874 0.482218 109.191 0.853155 108.582 1.03862C108.241 1.11281 107.341 1.03862 106.951 1.11281C101.014 1.92887 102.499 0.333843 101.38 0C100.698 0.0370937 100.99 0.148375 100.553 0.556405C99.6296 1.44665 97.6095 1.11281 96.5638 1.07572C95.8104 1.00153 95.2014 1.63212 94.836 1.52084C91.6483 0.482218 93.2543 1.37247 91.356 1.52084C89.75 1.59503 90.747 1.81759 88.7531 1.44665C88.68 1.40956 87.5368 1.26119 87.5368 1.22409L86.7104 1.33537C85.7622 1.48375 83.2061 1.11281 82.2091 1.03862L79.996 1.22409C79.2426 1.22409 79.1452 0.927342 78.5605 1.48375C77.9514 2.07725 78.0245 1.70631 77.3443 2.11434C76.9301 2.374 76.8814 2.74493 76.396 3.15296C75.4235 2.96749 73.2328 3.22715 72.3333 3.59809C71.8948 3.78356 71.9191 3.70937 71.4581 3.85774C71.044 3.96902 70.9952 4.19159 70.6073 4.19159C69.1475 4.22868 70.583 3.22715 66.8125 4.00612C65.0604 4.33996 62.6279 3.89484 60.9245 4.22868C60.1712 4.37706 60.6809 4.15449 60.0737 4.08031C59.5134 4.00612 59.8301 4.30287 59.1986 4.19159C57.3733 3.78356 55.5012 4.00612 53.6516 3.89484C53.0913 3.85774 52.4354 3.5239 51.8751 3.44971C50.6101 3.26424 49.199 3.33843 47.9585 2.85621C47.6418 2.74493 42.0704 1.92887 41.8755 2.22562C41.1691 3.33558 43.7495 3.19006 43.9444 3.26424C44.4316 3.33843 44.8683 3.78356 45.3068 3.78356L47.4487 3.82065C47.6436 3.85774 47.936 4.08031 48.1777 4.08031C51.0974 4.41415 49.5888 4.52543 51.0243 5.19312C51.6577 5.48987 52.07 5.19312 52.0456 6.30307C51.6071 6.7111 51.3635 6.48854 50.8538 6.45145C49.2478 6.37726 49.0772 6.08051 48.5188 6.04342C48.0559 6.00632 47.059 6.1176 46.6204 6.08051H46.4743C46.3525 6.08051 45.2581 5.78376 45.0632 5.70957C44.1149 5.26445 44.5272 5.78376 43.8957 5.70957C43.2623 5.63539 44.0662 5.37573 42.5333 5.30154C42.0704 5.26445 41.4876 4.9677 41.1709 4.93061L36.8889 4.74514C36.4991 4.55967 36.7184 4.48548 36.1112 4.44839C34.9681 4.3742 34.9193 4.55967 34.5783 5.11608C33.6788 6.55988 31.7073 5.89504 30.4668 5.78376C29.9308 5.74667 29.7603 5.41283 29.2749 5.44992C27.7664 5.67248 26.5502 5.11608 26.0629 6.26598C26.3065 7.56141 27.3279 6.85948 28.01 7.37594L28.0831 8.11781C27.474 8.56293 27.013 8.00653 26.4284 8.08072C25.9655 8.11781 25.795 8.52584 24.9198 8.56293L21.9027 8.52584C21.1719 8.48875 21.0276 8.93387 20.3942 8.89678C17.9861 8.7484 17.5719 9.67575 16.4045 9.56446C15.4806 9.52737 15.0421 9.89831 14.3843 9.71284C13.824 9.56446 14.092 9.56446 13.4848 9.71284C12.366 9.9725 10.9549 9.08225 9.93175 10.0096L9.95611 11.0111C10.5164 11.7159 10.7825 10.974 11.7083 10.8627C12.4391 10.7886 13.0463 10.566 13.6553 10.7886C14.1669 10.974 14.2644 11.1966 14.5792 11.3079C14.9934 11.4191 15.1395 11.1966 15.4787 11.2708C17.8624 11.7901 18.3253 10.974 19.4928 11.3821C19.8826 11.5304 20.0044 11.8272 20.3679 12.0126L22.0957 13.0142C22.4855 13.348 22.4124 13.2367 22.8022 13.6448C23.5331 14.3866 23.9697 13.9044 24.5787 14.4979C24.262 15.645 23.1189 14.9801 22.4124 14.8318L19.6633 14.6834C15.8685 14.906 17.0847 14.4979 16.2564 14.4237C15.9641 14.4237 15.8179 14.6463 15.5274 14.6463C14.894 14.7205 14.0676 14.3866 13.4098 14.1641C12.5347 13.8302 12.8252 13.9786 12.0231 14.0528C10.1735 14.2012 10.3927 12.4977 9.88115 12.3123C9.07909 12.3864 9.49136 12.9799 8.49441 13.2025C7.35128 13.4251 7.74107 13.2396 6.98585 13.9815C7.05894 16.3155 6.42554 15.3511 6.40117 16.4268C6.37681 17.2058 6.59607 17.0203 6.7666 17.9077C6.40117 19.2402 5.81837 18.835 5.11188 19.6111C4.67337 20.1305 4.91699 20.3159 4.40539 20.6498C4.06433 20.8352 3.77199 20.7611 3.45716 20.9836C3.04301 21.3175 2.24095 22.279 1.65627 22.3903C0.998502 22.5387 0.0502697 22.2049 0.00154633 23.7228V23.9083C-0.0228154 24.576 0.245163 24.8356 0.48878 25.1295L1.87552 25.0554C2.58201 24.0167 3.5546 24.2022 4.3323 23.3148C4.91699 22.6471 4.91699 22.8326 5.76777 22.6842C6.23064 22.61 6.98398 22.3133 7.27632 22.3133C7.5443 22.3504 8.07838 22.61 8.49253 22.6471L11.0468 22.4987C12.872 22.202 12.8477 22.8697 13.5279 22.8326C14.1613 22.8326 16.6912 22.1278 17.081 23.389C16.2058 24.4276 14.2344 22.9439 14.1857 25.4263C14.7704 25.723 16.4232 25.9085 17.154 25.9456C17.8362 26.0198 17.9561 26.1682 18.5895 26.1311C20.0006 25.9456 25.0866 26.3907 25.8887 26.8359C25.5476 27.8003 25.3283 27.0955 23.966 27.2068C23.5031 27.2439 23.1639 27.3923 22.7254 27.4294C21.8015 27.4664 20.7296 27.4664 20.8514 28.9473C21.2656 29.0586 21.2168 28.9102 21.7265 28.799C22.4087 29.3554 22.2625 29.6892 23.1864 29.615C25.6919 29.3925 25.8624 29.5779 28.1505 29.6892L29.6347 29.9118C30.4855 30.0602 31.46 29.6521 32.1646 30.3198C32.9179 31.0246 34.0386 30.8762 34.8163 30.802C35.935 30.7278 38.1257 31.2472 39.1958 31.4697C44.0381 32.5454 43.8676 31.5068 45.3274 31.6923C46.0095 31.7665 46.6167 32.6196 47.3476 32.6567C49.0266 32.768 48.8561 31.2129 50.2672 33.9521C51.1911 34.0263 51.8245 33.0619 52.8214 33.3215L53.065 33.8779C52.5535 35.3218 52.1655 34.5456 51.1667 34.9166C50.5577 35.102 49.9261 35.7326 49.2197 35.5101C48.2227 35.1391 48.1009 35.5843 47.1264 35.5101C46.5905 35.4359 46.5417 35.2133 46.1538 35.1391C45.5691 34.9908 45.691 35.3988 45.23 35.3617C44.5235 35.3246 42.9193 33.7695 42.1398 33.8066C41.2403 33.8066 41.4333 34.1776 40.4363 33.9921C39.7298 33.8808 39.4881 34.5114 38.806 34.4743C38.0526 34.4001 38.3187 33.955 37.6628 34.0292C36.9095 34.1034 35.133 33.4357 33.9168 33.3615C32.9929 33.2873 31.9941 33.2502 31.1676 33.2502C30.4855 33.2502 30.4612 33.2502 29.8296 33.4728C29.2693 33.6211 29.4642 33.2131 28.857 33.176C28.6865 33.176 28.5891 33.3615 28.0793 33.2131L25.72 32.8051C24.8205 32.768 23.5068 33.4357 22.7029 33.3244C21.0238 33.0647 20.9994 31.9919 20.4166 31.6951C19.9538 31.658 18.8837 32.3628 18.7376 32.6225C18.299 33.3643 18.7376 34.4001 19.5153 34.4372C20.0512 34.4743 20.5122 34.2888 21.0238 34.4743C21.2187 34.5485 21.438 34.7711 21.6085 34.8452C22.8734 35.2533 25.6225 34.4372 27.7158 34.9936C28.0325 35.0678 28.2274 34.9194 28.5422 34.9194C28.7858 34.9565 28.9076 35.0678 29.2243 35.1049C30.0751 35.142 30.6842 34.8081 32.1683 35.0678C34.5277 35.4387 34.6495 35.1791 36.9133 36.0322C37.4005 36.2177 37.8371 36.0322 38.2756 36.1064C39.7842 36.4403 40.8299 35.55 41.0004 37.0709C40.6106 37.4789 39.5893 37.8127 39.1264 37.7385C38.3 37.6644 38.7854 36.7741 37.5448 37.0709C37.0575 37.2192 35.9875 37.3305 35.5003 37.2192C34.4302 36.9596 34.5033 37.4789 33.5289 37.4047C32.6293 37.3676 32.8467 36.5145 31.0964 36.6257C29.4417 36.737 29.2712 37.847 29.2468 39.7758C29.6122 39.9613 30.0245 39.9984 30.3656 40.4064C30.9015 41.0741 30.6579 40.9999 31.5331 41.037C31.4113 41.9273 31.6305 41.1854 31.2651 41.7047C31.0215 42.0386 31.0946 41.7789 30.924 42.3353C31.6774 43.2997 32.2377 43.003 33.3077 43.4824C33.6001 44.4839 32.991 45.0374 33.8924 45.8906C34.0386 46.039 35.6446 46.6696 35.742 46.6696C36.4241 46.7067 36.9095 45.8906 37.2262 47.0405C36.3511 48.781 32.3839 45.4112 31.1433 47.3002C30.3169 47.1518 30.0732 46.855 29.1475 46.855L25.6188 47.5969C24.9854 47.8566 24.6949 47.8566 24.5 48.6726C24.768 49.3403 25.229 49.3403 25.4483 49.8939C26.8106 53.6346 24.4513 52.265 23.355 52.0053C22.8434 51.857 22.3824 52.3392 21.9196 52.5247C20.7034 53.0069 20.1187 53.044 19.5359 54.599C19.6333 55.0442 19.7308 56.1912 19.9744 56.5251C20.8495 57.5637 21.9702 56.896 22.285 56.9331C22.3337 56.9331 22.9184 57.3782 23.355 57.4895C23.7935 57.6008 23.9884 57.4895 24.352 57.8604C24.1084 59.601 22.9409 58.3798 22.21 58.8991C22.4293 59.5668 22.1126 59.4184 22.9165 59.4926C23.6474 59.5297 23.623 59.27 24.4494 59.6409C25.9336 60.3086 27.0524 60.0119 27.0524 61.3444C26.6382 61.7524 24.4738 61.9008 23.9378 61.9008C23.2314 61.9379 23.0871 62.1976 22.478 62.4201L20.9207 62.6056C20.5066 62.9023 20.6284 62.6427 20.4091 63.4216C20.1655 65.3106 21.8202 65.1622 22.5979 65.1251C25.3958 65.088 23.3288 65.2735 24.7886 65.8299C25.6881 66.1637 26.0292 64.8654 26.8088 66.1266C26.6139 68.4236 25.2271 67.7559 23.9622 68.201L23.9135 69.0542C24.0109 69.6848 24.7399 70.0186 25.1541 69.9444C26.2485 69.759 28.7783 68.5006 29.631 68.5748C30.2157 68.6119 30.2887 68.8716 30.701 68.9087C30.9446 68.9457 31.2613 68.7974 31.6736 68.8345C32.5731 68.9828 32.1852 69.5392 33.5963 69.428C34.4715 70.6492 33.5232 70.8718 34.1566 71.6507C34.91 72.5781 36.4185 72.6523 37.3443 73.0945C38.1463 73.4655 38.731 73.7622 39.3644 73.5026C40.3614 73.0945 40.2396 74.1332 41.2384 74.2074C43.0149 74.3186 42.2841 73.6509 43.3073 71.9846C43.7214 72.0217 44.1337 72.17 44.4504 72.17C44.7914 72.1329 44.8645 71.9846 45.2768 71.9475C47.37 71.8362 46.9315 72.0217 48.5375 72.3184C49.1709 72.4668 49.5345 72.17 50.1922 72.0959C51.3354 72.0217 54.3525 71.4282 55.132 71.6878C55.5706 72.0588 55.5706 72.17 55.9828 72.6152C58.4153 75.1347 58.9268 73.9106 61.3593 74.0961C62.4049 74.2073 62.2344 74.7637 62.7947 75.4657C63.0627 75.7995 63.2332 75.8366 63.5481 76.2076C64.4719 77.2833 64.8861 77.0236 66.1997 77.0978L66.1885 77.1092Z" fill="white"/>
</svg>
