<svg width="677" height="77" viewBox="0 0 677 77" fill="none" xmlns="http://www.w3.org/2000/svg">
<path fill-rule="evenodd" clip-rule="evenodd" d="M617.295 59.434C607.695 58.8845 602.78 59.2142 592.7 59.0823C587.664 57.919 580.827 59.1482 566.192 58.4229C560.076 58.1152 566.913 58.0492 557.554 57.0398C552.398 56.4903 552.879 56.2942 551.677 55.1512C547.483 54.6017 549.395 55.0194 546.402 54.2957C544.48 53.8341 543.039 54.01 541.126 53.5281C541.847 53.1764 543.889 52.8704 546.042 52.7165C548.924 52.5407 551.677 52.6286 553.96 52.7165C563.319 53.0682 562.238 52.0588 567.994 51.883C578.434 51.5753 598.225 51.9929 601.939 51.2456C604.101 50.806 603.26 50.5659 606.614 50.3241C613.571 49.8186 620.409 50.0603 624.012 49.9724C637.085 49.6867 634.692 49.2927 638.286 49.2268C641.77 49.1389 642.481 49.3367 646.805 49.0509C650.399 48.8311 649.688 48.5894 652.801 48.3493C654.483 48.2174 657.717 48.1295 659.879 48.0416C666.355 44.354 662.281 45.4513 662.882 44.2661C663.242 43.6946 664.083 43.8704 664.683 43.1688C663.602 42.9709 659.888 42.2033 659.287 42.1374C657.125 41.9396 657.846 42.2033 655.453 42.0715C654.252 41.9835 653.772 41.8297 651.85 41.6538C647.775 41.6319 641.529 42.1154 638.776 41.9176C637.695 41.6099 638.176 42.2473 637.935 41.5659C637.815 41.2142 638.056 41.5219 639.137 40.8203L636.614 40.2048C633.131 40.1609 628.336 40.2928 624.742 40.4027C622.58 40.4686 615.502 40.7104 613.59 40.7104C608.555 40.0307 609.987 40.0307 601.958 40.2488C597.763 40.3587 593.559 40.2928 588.644 40.4246C585.401 40.5126 580.005 40.2268 577.012 39.9631C571.856 39.5015 571.256 39.6334 565.499 39.4355C563.938 39.1278 563.578 39.0399 561.665 38.7981C559.143 38.4684 559.383 38.6003 559.023 37.9866L579.774 37.7228C604.249 37.8547 602.087 37.2173 605.441 37.0431C607.483 36.9332 609.044 36.9772 611.077 36.9991C615.512 37.0211 617.554 36.9112 620.917 36.9332C625.472 36.9552 634.471 35.9678 636.753 35.6161L636.392 34.255C641.428 33.3555 650.307 34.277 653.31 33.5753C650.067 33.3116 641.317 33.5094 638.314 33.1138C633.879 32.5423 639.515 32.3461 629.676 31.7087C628.474 31.6428 616.001 31.1592 614.56 31.1812C609.885 31.2252 607.122 32.1466 603.528 31.1153C605.21 30.6317 606.411 30.5658 609.885 30.4778C612.647 30.4119 615.881 30.2361 618.163 30.2141C620.566 30.1921 620.686 30.28 622.959 30.2581L636.032 29.9943C645.031 29.8624 645.151 29.0728 649.346 28.7211C651.988 28.5013 660.378 28.853 662.059 27.426C660.378 27.2722 660.258 27.3381 658.456 27.2062C655.813 27.0304 656.774 26.9864 655.333 26.8765C652.69 26.6567 649.337 26.7446 646.574 26.7886C645.854 26.7666 640.097 25.4935 621.499 26.043C603.861 26.5925 605.182 25.0995 601.228 24.4401C601.468 23.2109 602.909 23.3428 608.545 23.0351C609.987 22.9691 612.5 22.7713 613.941 22.7274C625.453 22.3317 617.655 22.2658 624.501 22.1119C626.904 22.046 627.024 22.068 629.657 21.9141C642.731 21.1465 637.575 20.7948 638.896 20.1354C642.731 19.2359 647.775 19.6958 653.291 18.7963C657.125 18.1369 655.573 18.3787 661.209 18.2029C675.003 17.7852 661.69 17.2374 673.442 15.2829C679.799 14.2296 675.724 14.2296 675.604 13.5042C675.604 13.2844 676.084 13.2185 675.844 12.9327C675.844 12.8888 672.962 11.8135 672.721 11.7475C670.559 11.198 669.478 11.3739 666.365 11.4398C659.528 11.5497 663.722 10.2985 658.687 9.52923L643.932 9.68309C642.01 9.22151 641.65 9.17755 640.338 8.62974C634.702 8.38796 633.14 8.69568 631.459 7.66431C633.26 7.02689 634.942 7.04887 637.695 6.69888C644.052 5.93127 633.861 6.21532 652.691 5.31583C657.005 5.11801 658.807 5.38177 658.927 4.50426C652.45 3.82457 642.01 5.24989 638.776 3.51685C637.695 1.97994 650.889 2.1338 650.889 1.45411C650.048 1.34421 652.09 1.32223 648.246 1.25629L628.816 1.56401C622.46 1.76183 611.419 1.91569 606.143 1.41015C604.942 0.180966 606.623 -0.0388344 598.465 0.00512558C591.028 0.466705 581.908 0.312846 573.99 0.554625C554.68 1.17007 546.882 0.422745 531.286 0.312845C519.774 0.224926 506.331 0.0490855 495.299 0.202946C484.859 0.334825 472.506 0.664525 462.435 0.708485C448.281 0.774425 430.172 1.32393 412.294 1.47609C406.177 1.52005 401.853 1.71787 395.857 1.67391C389.861 1.62995 384.945 1.84975 378.58 1.82777C373.904 1.82777 367.548 1.95965 362.263 2.02559C351.471 2.17945 340.19 2.37727 329.159 2.53113C310.449 2.75093 293.412 2.24539 275.183 2.35529C270.388 2.37727 263.911 2.04757 259.827 1.84975C254.792 1.62995 204.17 1.93767 189.775 1.34421C185.22 1.14639 187.733 1.03649 181.857 1.08045L165.901 1.01451C160.985 1.01451 161.826 1.19035 158.343 1.30025C149.464 1.62995 135.429 0.926594 124.878 1.08045C118.522 1.16837 105.808 1.03649 99.812 1.19035L83.3753 1.47609C78.0996 1.60797 65.1462 1.21233 61.5429 1.73985C61.5429 3.47458 60.582 3.10092 51.8231 3.54052C50.3818 3.60646 49.0606 3.71636 47.1481 3.84824C44.1453 4.06804 44.7458 3.91418 43.9051 4.48566C46.9078 4.90328 51.2226 4.6615 50.1416 5.51703C49.541 5.97861 45.9469 6.46048 43.9051 6.63632L29.27 8.28313V9.33648C34.1853 10.3239 36.4674 9.92994 43.785 9.90796C44.9861 9.90796 59.501 10.3915 59.8613 10.4135C61.663 10.6333 61.5429 10.3256 62.1434 10.941C62.3836 11.2048 62.0233 11.4466 61.3026 11.6004C58.42 12.2581 43.6648 12.4779 39.5903 12.6098C35.3957 12.7417 35.5158 12.6318 31.9125 12.9835C28.7896 13.2692 28.1983 13.2252 24.4749 13.2692C15.4758 13.3791 18.7188 12.5236 11.1611 12.7856C9.23928 13.4434 9.4795 13.3791 10.6806 14.0808C16.797 14.4984 18.7188 13.7511 19.9199 15.5517C20.04 15.7496 20.4003 18.142 20.4003 18.164C19.6797 18.5596 17.5177 18.9316 16.3258 19.2393C14.8845 19.6569 7.9273 20.5344 4.21311 21.9175C5.174 22.3791 7.69632 22.9049 9.60885 23.5203C11.6507 24.1578 12.4915 24.6616 18.0074 24.7275C27.4869 24.8374 35.4049 24.8155 42.4822 24.0479C48.8388 23.3885 46.6769 23.85 53.3938 24.0039C56.7569 24.0918 56.7569 23.9819 59.8705 24.2457C72.1034 25.277 70.7821 24.7952 84.2253 25.277C84.4655 25.277 86.6275 25.4089 86.7476 25.4309C88.9096 25.6507 87.8286 25.5628 88.5493 25.7386C88.3091 25.7606 88.0688 25.8046 87.9487 25.8046C87.7085 25.8265 87.4683 25.8485 87.2281 25.8705C84.2253 26.0244 82.9133 25.9364 81.472 26.5942C80.7513 26.9239 81.2318 26.9678 79.9105 27.3398C78.9497 27.6255 78.8295 27.5156 77.7486 27.9332C78.7094 28.7668 79.6703 28.4388 79.0698 29.4482L71.1517 30.8972L58.9189 30.8752L57.2374 31.2708C59.7597 32.1703 59.2792 32.9396 53.1628 33.1374C49.5687 33.2473 49.7997 33.2913 47.5269 33.6869C46.9263 34.5205 49.2084 35.8596 51.0101 36.453C54.3732 37.6163 59.6488 37.2646 59.889 38.3636C56.5259 38.6054 54.8536 38.4515 52.6916 38.9571C51.6106 39.2648 50.5296 39.9225 49.0975 40.0983C44.7828 40.45 38.4169 39.9005 33.862 40.3841C31.7 40.8017 35.6636 41.4154 36.7446 41.943C38.5463 42.9084 38.7865 42.6007 42.1404 43.282C40.3387 45.1047 45.7344 45.6085 37.8256 46.1361C33.3908 46.4218 33.5109 46.2679 31.9494 47.1454C29.6673 48.3307 32.1897 48.1329 37.4653 49.6038C40.4681 50.4594 38.5463 50.7011 43.5817 51.4704C46.104 51.8441 45.2632 51.998 47.7763 52.2161C50.4188 52.4359 51.4905 52.238 53.4123 52.6776L57.3667 53.4672C61.6814 54.1266 56.1656 54.0607 65.1646 54.8503C64.3239 55.6179 65.1646 55.0921 62.5222 55.4877L53.1628 57.4422C55.565 58.1219 59.6396 58.0357 63.6032 58.2098C65.0445 58.8253 65.0445 58.9335 67.1973 59.483C67.5576 60.9759 65.9962 60.7561 74.9952 60.888C78.1181 60.932 82.3128 61.5035 84.5949 61.8534C95.9869 63.6761 89.7504 63.786 92.3928 64.2898C93.8341 64.5756 93.9542 64.3997 95.5157 64.4877C100.911 64.7734 95.7559 65.2333 94.4347 65.8048C96.1162 66.4625 95.6358 65.8487 96.957 66.5724C95.3956 66.9021 93.1227 67.0779 93.8341 67.5158C95.2755 68.4373 103.434 67.2521 106.067 67.8675C106.187 67.8895 106.427 67.9115 106.547 67.9334C106.668 67.9554 106.788 67.9994 106.908 68.0434C106.908 68.0653 107.028 68.1093 107.148 68.1313C108.229 68.461 106.547 68.0873 107.989 68.417C108.95 68.6368 109.67 68.6368 110.991 68.7907C114.706 69.1643 114.475 68.9885 119.27 69.1423C123.344 69.91 120.111 70.0858 122.984 70.6573C126.347 71.337 125.266 70.6133 128.74 71.8425L133.295 71.9524C137.49 72.72 135.097 73.0058 143.135 72.8519L174.207 73.3355C180.083 73.3794 183.446 73.1157 187.04 73.7091C186.439 74.9163 183.326 74.4547 179.602 74.3246C178.041 74.2586 175.768 74.2806 173.966 74.2586C170.844 74.1927 166.529 73.9289 164.247 73.9289C161.244 73.9289 147.69 74.0828 145.657 74.2806C144.937 74.8521 145.657 74.8521 147.339 75.268C152.134 75.3779 155.857 75.224 159.932 75.224L244.019 76.0356C258.293 76.1455 247.502 74.6306 260.696 74.4547C267.773 74.3668 275.811 74.191 283.729 74.147C287.443 74.1031 289.245 73.6635 293.088 73.5755C296.572 73.4876 301.247 73.6854 304.36 73.6854C306.162 73.7074 307.363 73.5316 309.996 73.5536L325.472 74.0371C330.147 74.9586 337.225 74.5207 345.022 74.7608C359.177 75.2224 349.457 76.8895 379.808 76.9334C382.811 76.9334 387.847 77.1093 390.72 76.8895C393.242 76.6916 393.002 76.2098 396.236 75.946C399.599 75.6822 403.553 75.99 406.436 75.7702C407.877 75.6603 411.231 75.0026 412.552 74.8047C415.675 74.3432 417.468 74.6289 421.672 74.4091C425.626 74.1893 424.674 73.9475 426.707 73.3997C431.382 72.1266 437.388 72.3903 439.18 71.4672C440.862 70.5677 446.497 70.15 449.62 69.3605C451.422 68.9428 451.662 68.2851 453.815 67.9994C455.256 67.8235 456.337 67.8675 457.89 67.7136C458.61 67.6257 458.971 67.5598 459.451 67.4719C459.811 67.4059 460.292 67.362 461.253 67.318C474.927 66.7465 488.601 66.7246 502.755 67.1202C516.55 67.4939 512.715 67.0323 521.345 66.7905C526.861 66.6366 531.905 67.274 540.535 67.4279C547.732 67.5378 555.17 67.6477 561.767 67.4499C564.169 67.362 569.325 67.1422 571.607 67.1641C573.528 67.1861 581.807 67.1861 582.047 67.1861C585.65 67.34 596.922 67.8878 597.883 66.6366C594.169 66.0432 547.021 66.6806 531.665 66.219C521.105 65.9113 509.112 66.5267 492.204 65.7355C493.165 65.186 494.006 65.3178 496.519 65.0558C497.24 64.1563 495.318 63.9585 501.074 63.9145C513.187 63.8046 527.822 63.4529 539.703 63.4529C542.226 63.4529 546.18 63.7606 548.342 63.7167C550.024 63.6727 554.218 63.321 555.78 63.1672C559.263 62.8155 560.815 63.0793 565.019 62.9694C571.976 62.7935 570.175 62.2457 580.495 62.2457L589.854 62.0918C593.337 62.0479 595.971 62.2237 600.295 62.0918C604.369 61.96 605.09 61.894 607.852 61.5863C614.209 60.8187 629.805 61.5863 630.165 60.0934C626.802 59.7197 622.007 59.4999 617.332 59.4356L617.295 59.434ZM59.501 58.9724C57.6993 58.6207 54.4656 58.6207 51.4628 58.7306C52.0634 58.9724 50.5019 59.3241 55.5373 59.2581C57.5792 59.2361 58.2999 59.1482 59.4917 58.9724H59.501ZM26.5075 5.63031C31.4228 5.45447 37.8995 5.01487 40.4219 4.48904C38.8604 4.26924 39.461 4.24726 36.8278 4.44508C35.987 4.51102 34.1853 4.73082 33.1136 4.84072C28.3184 5.28032 27.4776 4.59894 26.5167 5.63031H26.5075ZM0 11.9961C0.840775 13.0714 4.07452 12.5236 6.23652 12.2818C9.23928 11.9741 11.1518 12.2378 12.8334 11.6224C9.95071 10.1954 3.8343 11.6004 3.71419 11.6224C2.51308 11.7763 1.79242 11.7323 0 11.9961Z" fill="black"/>
</svg>
