<svg width="305" height="77" viewBox="0 0 305 77" fill="none" xmlns="http://www.w3.org/2000/svg">
<path fill-rule="evenodd" clip-rule="evenodd" d="M155.915 71.6169C155.969 70.9779 156.186 70.8434 157.269 70.7088C158.514 70.608 159.052 70.7089 159.052 71.3815C158.294 71.9532 156.998 72.2559 155.915 71.6169ZM166.463 71.4487C166.138 71.2469 166.246 71.2469 166.029 70.9106L166.896 71.0115L166.463 71.4487ZM162.947 71.3142C161.81 71.2806 161.11 70.5071 160.839 69.8371C161.922 70.0052 162.838 70.5433 162.947 71.3142ZM177.281 68.7272C177.985 68.3573 179.01 68.3573 179.822 68.4582C179.335 69.4671 178.094 69.3326 177.281 68.7272ZM155.053 68.1892C155.323 68.4246 155.323 68.1555 155.378 68.5927C155.432 68.9627 155.161 68.8618 155.053 68.9963C153.753 68.6936 154.186 68.1219 155.053 68.1892ZM170.466 68.0546C170.304 68.6936 169.979 68.8281 168.95 68.9963C168.516 68.6936 168.462 68.6936 168.191 68.29C168.95 67.6847 169.437 67.5502 170.462 68.0546H170.466ZM129.85 66.5439C130.229 65.9721 131.849 65.9385 131.524 66.7793C131.145 67.6537 130.116 66.8465 129.85 66.5439ZM123.63 64.4614C124.226 63.4525 124.822 63.856 126.442 63.587C128.333 63.2843 128.55 63.3179 129.254 64.226C128.821 64.8986 128.712 64.8986 127.525 65.134C126.442 65.3694 126.496 65.5039 125.417 65.7057L123.634 64.464L123.63 64.4614ZM136.178 63.7551C136.502 63.0153 137.586 62.8135 138.34 62.9816C137.961 63.5197 137.365 64.0888 136.178 63.7551ZM123.143 60.1282C123.793 59.153 124.388 59.5565 126.117 59.4556C127.363 59.3547 127.579 58.9512 129.037 59.0184C129.958 59.0857 131.362 59.3884 132.337 59.1193C133.149 58.8839 133.149 58.4467 134.336 58.113C135.149 58.0794 135.853 59.1529 138.285 60.1619C139.531 60.6663 139.044 60.1619 139.693 60.9354C137.261 62.0762 139.964 60.2964 134.449 61.1708C133.095 61.4062 133.312 61.4062 131.691 61.5071C129.204 61.7089 130.716 62.9842 126.338 60.969C124.284 60.0273 124.014 61.0699 123.147 60.1282H123.143ZM156.298 53.948C156.461 53.04 156.352 52.8072 157.598 52.7399C158.031 53.4798 157.435 53.8135 156.298 53.948ZM117.086 51.8655C119.464 51.5965 118.44 51.1256 120.168 51.6301C119.789 52.4709 120.06 52.1682 118.652 52.3027C117.244 52.4372 115.732 53.1098 115.786 52.0337L117.086 51.8655ZM241.805 72.1187C243.375 72.0851 242.834 71.8161 244.563 72.2196C246.67 72.7241 246.995 72.825 249.107 72.5896C249.324 72.5559 250.678 72.9595 251.486 73.0268C252.84 73.1613 252.515 73.0268 253.702 72.6568C254.569 72.7241 255.485 72.9259 256.514 72.9931C259.814 73.2622 259.705 73.4976 261.867 73.7666L270.357 74.4392C271.386 74.5401 272.248 74.6074 273.223 74.6746C274.631 74.7755 274.631 74.9437 275.656 75.0782C276.739 75.1791 277.818 75.0446 278.901 75.1118C283.608 75.3809 283.121 74.9101 286.637 74.8764C288.528 74.8428 289.557 76.3199 294.643 72.7603C293.56 71.1486 294.319 72.3904 294.373 70.8796L292.59 70.5097C292.536 69.6689 292.644 69.8371 293.185 69.2007C292.969 68.5617 292.644 68.3599 292.861 67.7571C293.619 65.8764 297.46 67.1182 299.243 66.28C298.863 64.7356 293.89 64.8365 293.781 63.4913C293.727 62.6169 295.081 63.0541 295.943 63.0541C296.806 63.0541 297.189 62.7514 298.051 62.7514C299.188 62.7178 298.809 63.155 300.376 62.6169C301.784 62.1124 302.05 61.3079 303.079 60.5008C305.783 58.4855 301.725 59.4272 301.35 58.1156C301.242 57.5102 301.892 57.712 301.242 57.0084C300.701 56.3694 300.646 56.9747 300.592 55.8675C301.513 55.0604 302.054 55.4303 302.808 54.3567C303.025 53.0477 299.997 53.115 303.188 51.7025C306.595 50.2254 304.541 49.9227 302.375 48.7457C297.884 46.3269 303.946 43.7089 300.646 42.7672C297.726 41.9265 299.997 41.5927 300.051 40.7856C299.672 40.0794 299.022 40.0457 299.13 39.3085C299.238 38.3332 301.021 37.8649 298.534 37.1587C295.398 36.2843 298.047 35.3789 298.047 34.2018C297.993 33.2938 297.397 33.6301 298.264 32.6574C299.022 31.783 298.318 31.8167 298.805 31.113C299.455 30.0394 301.4 30.6422 302.754 29.804C302.267 28.0242 296.751 29.2659 294.319 28.896C293.073 28.6942 292.802 27.856 292.319 27.1498C289.724 23.4893 291.561 24.7646 293.348 23.0521C293.077 22.4131 292.861 22.6149 292.915 21.8776C293.023 20.1987 293.944 20.535 294.86 19.5261C295.51 18.7526 294.806 18.618 294.806 18.0153C294.806 17.2081 295.564 17.5781 295.348 16.3363C295.239 15.5965 295.348 15.5292 295.293 14.7583C294.156 14.153 294.319 14.3884 293.24 14.0184C291.94 13.5812 292.752 13.3458 292.157 12.6086C291.398 11.6333 289.29 12.9112 287.612 11.2996C287.233 9.28432 288.586 8.77986 291.507 8.64534C293.452 8.54445 297.185 8.64534 296.914 6.83189C295.023 6.42833 292.748 6.63011 290.803 6.79826C290.424 6.83189 284.475 6.49559 282.259 6.63011C279.988 6.76463 276.256 6.96641 273.769 7.00004C267.712 7.10093 268.953 6.52922 265.658 6.22654C264.629 6.12565 263.334 6.19291 262.413 6.02476C260.738 5.72209 261.438 5.68846 259.493 5.6212C254.194 5.35216 257.547 4.71318 249.974 4.61229C248.783 4.57866 247.974 4.34325 246.62 4.34325C245.05 4.37688 245.754 4.71318 243.971 4.24235C243.321 4.0742 242.563 3.77153 241.917 3.63701C241.105 3.43523 240.455 3.43523 239.43 3.50249C237.86 3.60338 238.51 3.4016 236.889 3.33433L229.37 2.79625C228.991 2.79625 227.479 2.59447 226.829 2.59447C224.504 2.6281 223.313 2.79625 220.88 2.6281C219.743 2.52721 219.097 2.59447 218.014 2.56084C214.498 2.49358 212.174 2.02275 208.604 2.39268C208.441 2.42632 207.358 2.12364 206.767 2.12364C205.575 2.15727 205.575 2.52721 204.334 2.56084C203.521 2.59447 202.172 2.32542 201.576 2.35905L197.627 2.66173C196.327 2.69536 195.248 2.29179 194.003 2.29179C193.028 2.29179 193.028 2.42632 192.22 2.42632C188.92 2.35905 182.105 1.8546 179.672 1.95549C178.752 1.98912 178.752 2.25816 176.319 2.25816C174.049 2.25816 171.666 2.56084 169.395 2.45995C168.366 2.39268 167.179 2.1909 165.988 2.22453L163.393 2.35905C163.013 2.32542 162.093 2.09001 161.772 2.12364C158.906 2.39268 147.438 2.69536 144.734 2.29179C142.897 2.05638 140.568 2.22453 138.677 2.25816C136.136 2.29179 133.27 1.65282 130.725 1.5183C129.858 1.48467 129.154 1.58556 128.346 1.48467C126.509 1.28288 124.938 1.0811 123.372 0.475755C121.643 -0.196852 113.095 -0.129591 110.716 0.509385C107.363 1.38377 107.255 0.845689 105.038 1.01384C104.497 1.04747 103.63 1.28288 103.039 1.28288H79.294C75.8864 1.45104 58.0943 1.8546 57.2279 2.12364C55.7115 2.89714 56.8488 3.73531 55.1741 4.17251C52.6872 4.81148 49.1171 4.23977 46.5218 4.77785C43.9807 5.28231 46.3594 5.9187 42.0853 5.81781C42.6268 6.72583 43.385 6.82672 44.5181 7.42948C44.7347 9.57923 40.948 9.27656 41.0563 10.9891C42.2477 11.4263 42.4644 11.09 43.1642 12.0291C42.3519 13.4053 41.1105 12.9035 39.2692 12.8698C37.5404 12.8362 34.5619 13.5424 34.1328 13.5088C30.7252 13.2734 17.6364 13.6433 16.07 15.2886C15.2036 16.1966 17.2615 17.2366 13.8539 17.6065C10.3379 17.9765 7.95929 17.6738 6.11801 19.5209C4.11844 21.637 4.33506 20.1935 4.33506 22.7106C4.33506 22.9796 3.57689 24.5913 2.28134 25.1294C-0.530556 24.4568 -0.801332 24.9276 1.79394 26.071C2.98535 26.5755 2.33549 26.8109 3.95598 27.3464C7.25527 28.4536 6.76787 28.8572 8.23006 29.7988C9.04239 30.3369 10.013 30.1015 10.5004 31.0069C11.3127 32.6186 10.3921 33.8629 13.4748 34.2303C14.3954 34.3648 15.3119 34.6675 16.1242 35.0038C16.1784 35.1383 16.7199 37.2544 16.7199 37.2544C16.7741 37.8934 15.7993 38.6307 14.8286 38.7652C13.5289 38.6979 13.5831 38.3953 12.3958 38.597C10.9336 38.8661 10.7212 38.6979 9.36732 38.8661C8.17591 39.0006 7.95929 39.4378 7.36775 39.7068C6.50127 40.1777 6.01387 39.875 5.04325 39.9759C4.44754 42.2602 3.31445 41.4867 5.90973 43.4346C5.74726 44.4099 4.07262 44.8782 5.85557 45.7862C7.2636 46.4924 8.34254 46.257 8.77578 47.4315C7.58437 48.1041 7.4219 47.8014 6.77621 48.7068C7.31776 49.5476 7.53438 49.2113 7.96762 50.184C8.50917 51.3585 8.3467 50.7893 9.53811 51.2912C11.4294 52.0983 8.88825 52.4993 10.7837 54.1472C12.3 55.4226 10.892 55.9943 13.6497 56.7341C15.3244 57.1713 16.0825 57.875 17.3281 58.514C17.5447 59.9911 17.5989 60.7983 18.5737 62.04C18.7903 62.3763 20.1942 63.0153 21.4397 64.2234C22.6311 65.4651 24.4682 66.5749 25.0098 68.0857L27.8217 72.217C29.1756 73.0578 29.6588 73.0914 30.9585 74.2323C31.6084 74.7704 31.9875 74.7367 33.0122 75.0394C34.0953 75.3421 33.9329 75.5775 34.7952 75.7793C36.9572 76.351 37.1197 75.3421 39.34 76.8529L49.5087 76.8865C52.1581 76.8865 51.8873 77.0883 55.8907 76.9538C56.9738 76.8865 57.8361 76.6511 58.6484 76.6511C60.1106 76.5838 63.3016 76.8529 64.7054 76.8192L91.4247 75.9448C93.2076 75.9112 95.4821 76.2139 96.9402 75.743C97.9691 75.4067 97.6983 75.3059 99.1022 75.0368C101.535 74.5324 106.242 75.3731 107.917 74.0279C109.433 74.1624 112.945 74.4987 114.624 74.1288C115.436 73.927 115.057 73.6916 116.194 73.6916C118.302 73.6916 119.115 74.1624 120.577 74.1624C122.414 74.1624 121.606 73.9943 122.793 73.7589C123.876 73.5571 124.147 73.7925 124.901 73.7925C126.201 73.8261 126.9 73.019 129.175 73.4226C131.283 73.7925 130.312 73.8934 132.637 73.1871C134.961 72.4809 135.124 72.8508 136.802 72.5145C139.398 71.9092 138.21 72.5145 140.318 72.9517L141.618 72.3464C143.455 72.75 145.405 73.5545 147.242 71.9092L146.809 70.8692C148.325 70.9701 147.35 71.7773 149.35 72.38C150 72.111 149.783 72.2119 150.27 71.8756C150 71.5393 148.162 70.1294 150.758 70.3984C151.733 70.4993 153.245 71.3401 153.57 71.6402C152.866 72.6491 152.378 71.9765 152.595 72.8819C154.111 72.8483 153.624 72.4447 155.19 72.1757C160.006 73.8546 157.136 73.6864 160.976 72.5456C163.138 73.1509 161.301 73.5209 163.788 73.5209C165.409 73.5209 164.98 74.328 166.817 74.2944C167.413 74.2944 167.846 73.9244 168.6 73.8908C170.008 73.7899 169.304 74.1598 170.653 74.0253C171.466 73.9581 171.682 73.689 172.545 73.6554C173.465 73.6218 173.303 73.7899 174.219 73.7226C174.544 72.781 173.353 73.05 173.949 72.111C174.219 71.6738 177.952 70.1294 178.06 70.0957C179.197 69.894 179.522 70.2639 180.656 70.3984C181.739 69.9612 181.847 69.4904 182.763 69.2239C185.792 70.9365 183.522 70.9701 192.228 70.8692C194.282 70.8356 193.69 70.7011 195.04 70.4657C196.015 70.2975 197.039 70.4657 197.906 70.2975C198.231 70.2303 200.393 69.1903 203.421 69.6922C202.988 71.0684 202.23 69.7931 202.284 71.0348C203.905 71.3711 205.529 70.5303 208.287 70.6985C209.858 70.7658 210.07 70.4631 211.37 70.564C214.561 70.7994 211.749 71.472 218.51 70.5976L228.516 71.203C233.707 71.5729 234.411 71.4384 239.064 71.6065C240.472 71.6402 239.659 72.111 241.822 72.111L241.805 72.1187Z" fill="white"/>
</svg>
