<svg width="184" height="51" viewBox="0 0 184 51" fill="none" xmlns="http://www.w3.org/2000/svg">
<path fill-rule="evenodd" clip-rule="evenodd" d="M167.773 39.3653C165.164 39.0014 163.828 39.2198 161.088 39.1324C159.72 38.362 157.862 39.1761 153.884 38.6957C152.222 38.4919 154.08 38.4482 151.536 37.7796C150.135 37.4157 150.265 37.2858 149.939 36.5287C148.799 36.1648 149.319 36.4414 148.505 35.9621C147.983 35.6564 147.591 35.7728 147.071 35.4537C147.267 35.2207 147.822 35.0181 148.407 34.9161C149.191 34.7997 149.939 34.8579 150.559 34.9161C153.103 35.1491 152.809 34.4805 154.374 34.3641C157.211 34.1602 162.59 34.4368 163.599 33.9419C164.187 33.6507 163.959 33.4917 164.87 33.3315C166.761 32.9967 168.619 33.1568 169.598 33.0986C173.152 32.9094 172.501 32.6484 173.478 32.6048C174.425 32.5465 174.618 32.6775 175.793 32.4883C176.77 32.3427 176.577 32.1826 177.423 32.0235C177.88 31.9362 178.759 31.878 179.347 31.8197C181.107 29.3773 180 30.1041 180.163 29.3191C180.261 28.9406 180.489 29.057 180.652 28.5923C180.359 28.4613 179.349 27.9529 179.186 27.9092C178.598 27.7782 178.794 27.9529 178.144 27.8655C177.817 27.8073 177.687 27.7054 177.164 27.5889C176.057 27.5743 174.36 27.8946 173.611 27.7636C173.317 27.5598 173.448 27.982 173.383 27.5307C173.35 27.2977 173.415 27.5016 173.709 27.0368L173.024 26.6292C172.077 26.6001 170.774 26.6874 169.797 26.7602C169.209 26.8039 167.286 26.964 166.766 26.964C165.397 26.5138 165.787 26.5138 163.604 26.6583C162.464 26.7311 161.322 26.6874 159.986 26.7748C159.105 26.833 157.638 26.6437 156.824 26.469C155.423 26.1633 155.26 26.2507 153.696 26.1196C153.271 25.9158 153.173 25.8576 152.653 25.6975C151.968 25.4791 152.033 25.5664 151.935 25.1599L157.575 24.9852C164.227 25.0726 163.64 24.6504 164.551 24.535C165.106 24.4623 165.53 24.4914 166.083 24.5059C167.288 24.5205 167.843 24.4477 168.757 24.4623C169.995 24.4768 172.441 23.8228 173.061 23.5899L172.963 22.6884C174.332 22.0926 176.745 22.703 177.561 22.2382C176.68 22.0635 174.302 22.1945 173.486 21.9325C172.28 21.554 173.812 21.4241 171.138 21.0019C170.811 20.9582 167.421 20.6379 167.03 20.6525C165.759 20.6816 165.008 21.2919 164.031 20.6088C164.488 20.2885 164.815 20.2449 165.759 20.1866C166.51 20.143 167.389 20.0265 168.009 20.0119C168.662 19.9974 168.694 20.0556 169.312 20.041L172.865 19.8663C175.311 19.779 175.344 19.256 176.484 19.0231C177.202 18.8775 179.482 19.1104 179.939 18.1653C179.482 18.0634 179.45 18.107 178.96 18.0197C178.242 17.9032 178.503 17.8741 178.111 17.8013C177.393 17.6557 176.481 17.714 175.731 17.7431C175.535 17.7285 173.97 16.8853 168.915 17.2492C164.122 17.6132 164.481 16.6244 163.406 16.1876C163.471 15.3735 163.863 15.4608 165.395 15.257C165.787 15.2133 166.47 15.0823 166.861 15.0532C169.99 14.7911 167.871 14.7475 169.732 14.6456C170.384 14.6019 170.417 14.6164 171.133 14.5145C174.686 14.0061 173.285 13.7732 173.644 13.3364C174.686 12.7407 176.057 13.0453 177.556 12.4495C178.598 12.0128 178.176 12.1729 179.708 12.0564C183.457 11.7798 179.839 11.417 183.033 10.1224C184.761 9.42478 183.653 9.42478 183.621 8.94436C183.621 8.79877 183.751 8.7551 183.686 8.56584C183.686 8.53673 182.902 7.82449 182.837 7.78082C182.249 7.41687 181.956 7.53333 181.109 7.57701C179.251 7.6498 180.391 6.8211 179.023 6.31157L175.012 6.41347C174.49 6.10775 174.392 6.07863 174.036 5.7158C172.504 5.55566 172.079 5.75947 171.622 5.07636C172.112 4.65417 172.569 4.66873 173.317 4.43692C175.045 3.9285 172.275 4.11664 177.393 3.52087C178.566 3.38985 179.055 3.56455 179.088 2.98334C177.328 2.53316 174.49 3.4772 173.611 2.32934C173.317 1.31139 176.903 1.4133 176.903 0.963115C176.675 0.890324 177.23 0.875766 176.185 0.832091L170.904 1.03591C169.177 1.16693 166.176 1.26884 164.742 0.933998C164.416 0.11986 164.873 -0.0257215 162.655 0.00339486C160.634 0.309117 158.155 0.207209 156.003 0.367349C150.755 0.774978 148.636 0.28 144.397 0.207209C141.268 0.148977 137.614 0.0325112 134.616 0.134418C131.779 0.221768 128.421 0.44014 125.684 0.469257C121.837 0.512931 116.915 0.876886 112.056 0.977673C110.394 1.00679 109.219 1.13781 107.589 1.1087C105.959 1.07958 104.623 1.22516 102.893 1.2106C101.622 1.2106 99.8948 1.29795 98.4585 1.34163C95.5255 1.44353 92.4594 1.57456 89.4611 1.67647C84.3761 1.82205 79.7456 1.48721 74.7912 1.56C73.4879 1.57456 71.7276 1.35619 70.6177 1.22516C69.2491 1.07958 55.4907 1.28339 51.5784 0.890324C50.3404 0.7593 51.0234 0.686509 49.4264 0.715626L45.0897 0.671951C43.7537 0.671951 43.9823 0.788417 43.0356 0.861207C40.6224 1.07958 36.808 0.613718 33.9403 0.715626C32.2126 0.773858 28.7573 0.686509 27.1276 0.788417L22.6603 0.977673C21.2265 1.06502 17.7059 0.802975 16.7266 1.15237C16.7266 2.30135 16.4654 2.05386 14.0849 2.34502C13.6931 2.3887 13.334 2.46149 12.8142 2.54884C11.9981 2.69442 12.1614 2.59251 11.9328 2.97102C12.749 3.24763 13.9216 3.08749 13.6278 3.65414C13.4646 3.95986 12.4878 4.27902 11.9328 4.39549L7.95523 5.48623V6.1839C9.29114 6.8379 9.91139 6.57697 11.9002 6.56241C12.2266 6.56241 16.1716 6.88269 16.2695 6.89725C16.7592 7.04283 16.7266 6.83902 16.8898 7.24665C16.9551 7.42135 16.8571 7.58149 16.6613 7.68339C15.8778 8.11902 11.8675 8.2646 10.7601 8.35195C9.6201 8.4393 9.65274 8.36651 8.67341 8.59944C7.82465 8.7887 7.66394 8.75958 6.65195 8.78869C4.20612 8.86149 5.08753 8.29484 3.03343 8.46841C2.51112 8.90404 2.57641 8.86149 2.90285 9.32623C4.56521 9.60283 5.08753 9.10785 5.41397 10.3005C5.44662 10.4315 5.54455 12.0161 5.54455 12.0307C5.34868 12.2927 4.76108 12.5391 4.43715 12.7429C4.04541 13.0195 2.15454 13.6007 1.14507 14.5168C1.40623 14.8225 2.09176 15.1708 2.61156 15.5784C3.16652 16.0006 3.39503 16.3343 4.89417 16.378C7.47058 16.4508 9.62261 16.4362 11.5461 15.9278C13.2738 15.4911 12.6862 15.7968 14.5118 15.8987C15.4258 15.9569 15.4258 15.8841 16.2721 16.0588C19.5968 16.7419 19.2377 16.4228 22.8914 16.7419C22.9567 16.7419 23.5443 16.8293 23.5769 16.8438C24.1645 16.9894 23.8707 16.9312 24.0666 17.0477C24.0013 17.0622 23.936 17.0913 23.9033 17.0913C23.8381 17.1059 23.7728 17.1205 23.7075 17.135C22.8914 17.2369 22.5348 17.1787 22.143 17.6143C21.9472 17.8327 22.0778 17.8618 21.7187 18.1082C21.4575 18.2974 21.4249 18.2246 21.1311 18.5012C21.3922 19.0533 21.6534 18.8361 21.4902 19.5046L19.3381 20.4644L16.0134 20.4498L15.5564 20.7118C16.2419 21.3076 16.1113 21.8171 14.449 21.9482C13.4722 22.021 13.5349 22.0501 12.9172 22.3121C12.754 22.8642 13.3742 23.7511 13.8639 24.1442C14.7779 24.9147 16.2118 24.6817 16.2771 25.4097C15.363 25.5698 14.9085 25.4679 14.3209 25.8027C14.0271 26.0065 13.7333 26.4422 13.3441 26.5586C12.1714 26.7916 10.4412 26.4276 9.20325 26.7479C8.61565 27.0245 9.69292 27.431 9.98672 27.7804C10.4764 28.4198 10.5417 28.216 11.4532 28.6673C10.9635 29.8745 12.43 30.2083 10.2805 30.5576C9.07518 30.7469 9.10783 30.645 8.68345 31.2262C8.0632 32.0112 8.74874 31.8802 10.1826 32.8545C10.9987 33.4211 10.4764 33.5813 11.8449 34.0908C12.5305 34.3383 12.302 34.4402 12.985 34.5847C13.7032 34.7302 13.9945 34.5992 14.5168 34.8904L15.5915 35.4134C16.7642 35.8501 15.2651 35.8064 17.7109 36.3294C17.4824 36.8378 17.7109 36.4895 16.9927 36.7516L14.449 38.0462C15.1019 38.4963 16.2093 38.4392 17.2865 38.5546C17.6783 38.9622 17.6783 39.0339 18.2634 39.3978C18.3613 40.3867 17.9369 40.2411 20.3828 40.3284C21.2315 40.3575 22.3716 40.7361 22.9918 40.9679C26.088 42.1751 24.393 42.2479 25.1112 42.5816C25.5029 42.7708 25.5356 42.6544 25.9599 42.7126C27.4264 42.9019 26.0252 43.2065 25.6661 43.585C26.1232 44.0206 25.9926 43.6141 26.3517 44.0934C25.9273 44.3118 25.3096 44.4282 25.5029 44.7183C25.8947 45.3286 28.112 44.5436 28.8277 44.9512C28.8603 44.9658 28.9256 44.9803 28.9582 44.9949C28.9909 45.0094 29.0235 45.0386 29.0562 45.0677C29.0562 45.0822 29.0888 45.1113 29.1215 45.1259C29.4153 45.3443 28.9582 45.0968 29.35 45.3152C29.6111 45.4607 29.807 45.4607 30.1661 45.5626C31.1755 45.8101 31.1128 45.6937 32.416 45.7956C33.5234 46.304 32.6446 46.4205 33.4255 46.799C34.3396 47.2492 34.0458 46.7699 34.9899 47.584L36.2279 47.6568C37.368 48.1652 36.7176 48.3545 38.9023 48.2526L47.3472 48.5728C48.9442 48.6019 49.8583 48.4273 50.8351 48.8203C50.6719 49.6199 49.8256 49.3142 48.8136 49.228C48.3893 49.1843 47.7715 49.1988 47.2819 49.1843C46.4331 49.1406 45.2604 48.9659 44.6402 48.9659C43.8241 48.9659 40.1402 49.0678 39.5878 49.1988C39.3919 49.5773 39.5878 49.5774 40.0448 49.8528C41.3481 49.9256 42.3601 49.8237 43.4675 49.8237L66.3212 50.3612C70.2008 50.434 67.2679 49.4306 70.8537 49.3142C72.7773 49.2559 74.9619 49.1395 77.114 49.1104C78.1234 49.0812 78.6131 48.7901 79.6577 48.7319C80.6044 48.6736 81.875 48.8046 82.7213 48.8046C83.211 48.8192 83.5374 48.7027 84.2531 48.7173L88.4592 49.0376C89.7298 49.6479 91.6533 49.3579 93.7727 49.5169C97.6198 49.8226 94.9781 50.9268 103.227 50.9559C104.043 50.9559 105.412 51.0724 106.193 50.9268C106.878 50.7958 106.813 50.4766 107.692 50.3019C108.606 50.1272 109.681 50.331 110.464 50.1854C110.856 50.1126 111.767 49.677 112.126 49.546C112.975 49.2403 113.462 49.4295 114.605 49.2839C115.68 49.1384 115.421 48.9782 115.974 48.6154C117.244 47.7721 118.876 47.9468 119.364 47.3354C119.821 46.7396 121.352 46.463 122.201 45.94C122.691 45.6634 122.756 45.2278 123.341 45.0386C123.733 44.9221 124.027 44.9512 124.449 44.8493C124.644 44.7911 124.742 44.7474 124.873 44.6892C124.971 44.6455 125.101 44.6164 125.363 44.5873C129.079 44.2087 132.796 44.1942 136.643 44.4562C140.392 44.7037 139.35 44.398 141.695 44.2379C143.194 44.1359 144.565 44.5581 146.911 44.66C148.867 44.7328 150.888 44.8056 152.681 44.6746C153.334 44.6164 154.735 44.4708 155.355 44.4853C155.878 44.4999 158.128 44.4999 158.193 44.4999C159.172 44.6018 162.236 44.9646 162.497 44.1359C161.488 43.7429 148.673 44.1651 144.5 43.8593C141.63 43.6555 138.37 44.0632 133.775 43.5391C134.036 43.1751 134.265 43.2625 134.948 43.0889C135.143 42.4931 134.621 42.3621 136.186 42.333C139.478 42.2602 143.455 42.0273 146.685 42.0273C147.37 42.0273 148.445 42.2311 149.032 42.202C149.489 42.1728 150.629 41.9399 151.054 41.838C152.001 41.6051 152.422 41.7798 153.565 41.707C155.456 41.5905 154.966 41.2277 157.771 41.2277L160.315 41.1258C161.262 41.0966 161.977 41.2131 163.152 41.1258C164.26 41.0384 164.456 40.9947 165.207 40.7909C166.934 40.2825 171.173 40.7909 171.271 39.8021C170.357 39.5546 169.054 39.409 167.783 39.3665L167.773 39.3653ZM16.1716 39.0596C15.6819 38.8267 14.803 38.8267 13.9869 38.8995C14.1502 39.0596 13.7258 39.2926 15.0943 39.2489C15.6493 39.2343 15.8452 39.1761 16.1691 39.0596H16.1716ZM7.2044 3.72917C8.54032 3.6127 10.3006 3.32154 10.9861 2.97326C10.5618 2.82768 10.725 2.81312 10.0093 2.94415C9.78081 2.98782 9.29114 3.1334 8.99985 3.20619C7.69658 3.49736 7.46807 3.04605 7.20691 3.72917H7.2044ZM0 7.94544C0.228512 8.65767 1.1074 8.29484 1.69501 8.1347C2.51112 7.93088 3.03092 8.10558 3.48794 7.69795C2.70448 6.75279 1.04211 7.68339 1.00947 7.69795C0.683024 7.79986 0.487157 7.77074 0 7.94544H0Z" fill="black"/>
</svg>
