<svg width="295" height="50" viewBox="0 0 295 50" fill="none" xmlns="http://www.w3.org/2000/svg">
<path fill-rule="evenodd" clip-rule="evenodd" d="M268.984 38.5935C264.801 38.2367 262.659 38.4507 258.267 38.3651C256.072 37.6098 253.093 38.4079 246.716 37.9369C244.051 37.7371 247.03 37.6943 242.952 37.0388C240.705 36.682 240.915 36.5547 240.391 35.8125C238.563 35.4557 239.397 35.7269 238.092 35.257C237.255 34.9572 236.627 35.0714 235.794 34.7585C236.108 34.5301 236.997 34.3314 237.935 34.2315C239.191 34.1173 240.391 34.1744 241.386 34.2315C245.464 34.4599 244.993 33.8044 247.501 33.6902C252.05 33.4904 260.674 33.7616 262.293 33.2763C263.235 32.9909 262.868 32.835 264.33 32.678C267.361 32.3497 270.34 32.5067 271.911 32.4496C277.607 32.2641 276.565 32.0083 278.131 31.9654C279.649 31.9084 279.959 32.0368 281.843 31.8513C283.409 31.7085 283.099 31.5515 284.456 31.3956C285.188 31.31 286.597 31.2529 287.539 31.1958C290.362 28.8013 288.586 29.5138 288.848 28.7442C289.005 28.3731 289.371 28.4873 289.633 28.0317C289.162 27.9032 287.543 27.4048 287.282 27.3619C286.34 27.2335 286.654 27.4048 285.611 27.3191C285.088 27.262 284.878 27.1621 284.041 27.0479C282.265 27.0337 279.544 27.3477 278.344 27.2192C277.873 27.0194 278.082 27.4333 277.978 26.9909C277.925 26.7625 278.03 26.9623 278.501 26.5067L277.402 26.107C275.884 26.0785 273.795 26.1641 272.229 26.2355C271.287 26.2783 268.203 26.4353 267.369 26.4353C265.175 25.994 265.799 25.994 262.301 26.1356C260.473 26.207 258.641 26.1641 256.499 26.2498C255.086 26.3069 252.735 26.1213 251.43 25.95C249.184 25.6503 248.922 25.736 246.414 25.6075C245.734 25.4077 245.577 25.3506 244.743 25.1936C243.644 24.9795 243.749 25.0651 243.592 24.6666L252.634 24.4953C263.299 24.581 262.357 24.167 263.818 24.054C264.708 23.9826 265.389 24.0111 266.274 24.0254C268.207 24.0397 269.096 23.9683 270.562 23.9826C272.547 23.9969 276.468 23.3557 277.462 23.1273L277.305 22.2435C279.5 21.6594 283.369 22.2578 284.677 21.8022C283.264 21.6309 279.451 21.7594 278.143 21.5024C276.21 21.1314 278.666 21.004 274.379 20.5901C273.855 20.5473 268.42 20.2333 267.792 20.2475C265.755 20.2761 264.551 20.8744 262.985 20.2047C263.718 19.8907 264.241 19.8479 265.755 19.7908C266.959 19.748 268.368 19.6338 269.362 19.6195C270.409 19.6053 270.461 19.6624 271.452 19.6481L277.148 19.4768C281.07 19.3912 281.122 18.8785 282.95 18.6501C284.101 18.5074 287.757 18.7357 288.49 17.8091C287.757 17.7092 287.705 17.752 286.919 17.6664C285.768 17.5522 286.187 17.5236 285.559 17.4523C284.407 17.3096 282.946 17.3666 281.742 17.3952C281.428 17.3809 278.92 16.5542 270.816 16.911C263.13 17.2678 263.706 16.2984 261.983 15.8702C262.087 15.072 262.715 15.1577 265.171 14.9578C265.799 14.915 266.894 14.7866 267.522 14.758C272.539 14.5011 269.141 14.4583 272.124 14.3584C273.171 14.3156 273.223 14.3298 274.37 14.2299C280.067 13.7315 277.821 13.5031 278.396 13.0749C280.067 12.4909 282.265 12.7895 284.669 12.2054C286.34 11.7772 285.663 11.9342 288.119 11.82C294.13 11.5489 288.329 11.1931 293.45 9.92397C296.219 9.23998 294.444 9.23997 294.392 8.76898C294.392 8.62625 294.601 8.58343 294.496 8.39789C294.496 8.36934 293.24 7.67107 293.136 7.62826C292.193 7.27144 291.722 7.38562 290.366 7.42844C287.386 7.4998 289.214 6.68735 287.02 6.18781L280.591 6.28772C279.753 5.98799 279.596 5.95945 279.025 5.60373C276.569 5.44673 275.888 5.64654 275.156 4.97682C275.941 4.56291 276.673 4.57719 277.873 4.34992C280.643 3.85147 276.202 4.03592 284.407 3.45184C286.287 3.32338 287.072 3.49466 287.125 2.92484C284.303 2.48349 279.753 3.40902 278.344 2.28367C277.873 1.28568 283.622 1.38559 283.622 0.94423C283.256 0.872867 284.146 0.858594 282.471 0.815776L274.004 1.01559C271.234 1.14405 266.423 1.24396 264.124 0.915685C263.601 0.11751 264.334 -0.0252171 260.779 0.0033283C257.538 0.303055 253.564 0.203146 250.114 0.360146C241.7 0.759783 238.302 0.27451 231.506 0.203146C226.49 0.146056 220.632 0.0318737 215.825 0.131783C211.275 0.217419 205.893 0.43151 201.504 0.460055C195.337 0.502874 187.446 0.859692 179.655 0.958503C176.99 0.987048 175.106 1.1155 172.493 1.08696C169.88 1.05841 167.738 1.20114 164.964 1.18687C162.927 1.18687 160.157 1.2725 157.855 1.31532C153.152 1.41523 148.237 1.54368 143.43 1.64359C135.277 1.78632 127.853 1.45805 119.91 1.52941C117.82 1.54368 114.998 1.32959 113.219 1.20114C111.024 1.05841 88.9661 1.25823 82.6936 0.872867C80.7088 0.744412 81.8039 0.673048 79.2434 0.701594L72.2905 0.658776C70.1487 0.658776 70.515 0.772957 68.9972 0.844321C65.1283 1.05841 59.0128 0.601685 54.4151 0.701594C51.6453 0.758685 46.1055 0.673048 43.4927 0.772957L36.3304 0.958503C34.0316 1.04414 28.3872 0.78723 26.817 1.12978C26.817 2.25622 26.3983 2.01359 22.5817 2.29904C21.9537 2.34186 21.3779 2.41322 20.5446 2.49886C19.2361 2.64159 19.4978 2.54168 19.1315 2.91277C20.4399 3.18395 22.32 3.02695 21.849 3.58249C21.5873 3.88222 20.0212 4.19512 19.1315 4.3093L12.7543 5.37866V6.06265C14.8961 6.70382 15.8905 6.44801 19.0791 6.43374C19.6025 6.43374 25.9273 6.74774 26.0843 6.76201C26.8694 6.90474 26.817 6.70492 27.0787 7.10456C27.1834 7.27583 27.0264 7.43283 26.7124 7.53274C25.4563 7.95982 19.0268 8.10255 17.2513 8.18819C15.4235 8.27382 15.4759 8.20246 13.9057 8.43082C12.545 8.61637 12.2873 8.58782 10.6648 8.61637C6.74352 8.68773 8.15663 8.13219 4.86338 8.30237C4.02598 8.72945 4.13065 8.68773 4.65403 9.14336C7.31923 9.41454 8.15663 8.92927 8.68001 10.0985C8.73235 10.227 8.88936 11.7805 8.88936 11.7948C8.57534 12.0517 7.63326 12.2932 7.11391 12.4931C6.48585 12.7642 3.45429 13.3341 1.83585 14.2321C2.25455 14.5319 3.35364 14.8733 4.18702 15.2729C5.07676 15.6869 5.44312 16.014 7.84663 16.0568C11.9773 16.1282 15.4276 16.1139 18.5115 15.6155C21.2813 15.1873 20.3392 15.487 23.2661 15.5869C24.7316 15.644 24.7316 15.5727 26.0883 15.7439C31.4187 16.4137 30.843 16.1008 36.7008 16.4137C36.8055 16.4137 37.7476 16.4993 37.7999 16.5136C38.742 16.6563 38.271 16.5992 38.585 16.7134C38.4803 16.7277 38.3756 16.7562 38.3233 16.7562C38.2186 16.7705 38.1139 16.7848 38.0093 16.799C36.7008 16.8989 36.1291 16.8418 35.5011 17.2689C35.1871 17.483 35.3964 17.5116 34.8207 17.7531C34.402 17.9387 34.3497 17.8673 33.8786 18.1385C34.2973 18.6797 34.716 18.4667 34.4543 19.1222L31.0041 20.0631L25.6737 20.0488L24.9409 20.3057C26.04 20.8898 25.8307 21.3894 23.1655 21.5178C21.5994 21.5892 21.7 21.6177 20.7096 21.8746C20.4479 22.4159 21.4424 23.2854 22.2274 23.6708C23.6929 24.4262 25.9917 24.1978 26.0964 24.9114C24.6309 25.0684 23.9022 24.9685 22.9602 25.2968C22.4891 25.4966 22.0181 25.9237 21.3941 26.0379C19.5139 26.2662 16.74 25.9094 14.7552 26.2234C13.8131 26.4946 15.5403 26.8931 16.0113 27.2357C16.7964 27.8626 16.9011 27.6628 18.3625 28.1052C17.5774 29.2888 19.9286 29.6159 16.4824 29.9585C14.5499 30.144 14.6022 30.0441 13.9218 30.6139C12.9274 31.3836 14.0265 31.2551 16.3253 32.2103C17.6338 32.7658 16.7964 32.9228 18.9905 33.4224C20.0896 33.665 19.7233 33.7649 20.8183 33.9065C21.9698 34.0493 22.4368 33.9208 23.2742 34.2063L24.9973 34.719C26.8774 35.1472 24.4739 35.1043 28.3952 35.6171C28.0289 36.1155 28.3952 35.7741 27.2438 36.031L23.1655 37.3001C24.2122 37.7415 25.9877 37.6855 27.7148 37.7986C28.3429 38.1982 28.3429 38.2685 29.2809 38.6253C29.438 39.5948 28.7576 39.452 32.6789 39.5377C34.0397 39.5662 35.8674 39.9373 36.8619 40.1646C41.8259 41.3481 39.1084 41.4195 40.2598 41.7467C40.8878 41.9322 40.9402 41.818 41.6206 41.8751C43.9717 42.0606 41.7252 42.3593 41.1495 42.7304C41.8823 43.1575 41.6729 42.7589 42.2486 43.2288C41.5682 43.4429 40.5778 43.5571 40.8878 43.8414C41.5159 44.4398 45.0708 43.6702 46.2182 44.0698C46.2706 44.0841 46.3753 44.0984 46.4276 44.1126C46.4799 44.1269 46.5323 44.1554 46.5846 44.184C46.5846 44.1983 46.6369 44.2268 46.6893 44.2411C47.1603 44.4552 46.4276 44.2125 47.0556 44.4266C47.4743 44.5694 47.7884 44.5694 48.3641 44.6693C49.9825 44.9119 49.8819 44.7977 51.9714 44.8976C53.7468 45.3961 52.3377 45.5103 53.5898 45.8814C55.0553 46.3227 54.5842 45.8528 56.098 46.651L58.0828 46.7223C59.9106 47.2208 58.8679 47.4063 62.3705 47.3064L75.9098 47.6204C78.4704 47.649 79.9358 47.4777 81.5019 47.8631C81.2402 48.647 79.8835 48.3472 78.261 48.2627C77.5806 48.2199 76.5902 48.2341 75.8052 48.2199C74.4444 48.1771 72.5643 48.0058 71.5698 48.0058C70.2614 48.0058 64.3553 48.1057 63.4696 48.2341C63.1555 48.6052 63.4696 48.6052 64.2023 48.8753C66.2918 48.9467 67.9142 48.8468 69.6897 48.8468L106.33 49.3738C112.55 49.4451 107.848 48.4614 113.597 48.3472C116.681 48.2901 120.184 48.176 123.634 48.1474C125.252 48.1189 126.037 47.8334 127.712 47.7763C129.23 47.7192 131.267 47.8477 132.624 47.8477C133.409 47.862 133.932 47.7478 135.08 47.7621L141.823 48.0761C143.86 48.6744 146.944 48.3901 150.342 48.546C156.51 48.8457 152.275 49.9282 165.5 49.9568C166.808 49.9568 169.003 50.0709 170.255 49.9282C171.354 49.7998 171.249 49.4869 172.658 49.3156C174.124 49.1443 175.847 49.3441 177.103 49.2014C177.731 49.13 179.192 48.703 179.768 48.5745C181.129 48.2748 181.91 48.4603 183.742 48.3176C185.465 48.1749 185.05 48.0179 185.936 47.6621C187.973 46.8354 190.59 47.0067 191.371 46.4072C192.104 45.8232 194.559 45.552 195.92 45.0393C196.705 44.7681 196.81 44.341 197.748 44.1554C198.376 44.0413 198.847 44.0698 199.524 43.9699C199.838 43.9128 199.995 43.87 200.204 43.8129C200.361 43.7701 200.57 43.7415 200.989 43.713C206.947 43.3419 212.906 43.3276 219.074 43.5845C225.084 43.8272 223.414 43.5274 227.174 43.3704C229.577 43.2705 231.776 43.6844 235.536 43.7844C238.672 43.8557 241.913 43.9271 244.788 43.7986C245.834 43.7415 248.081 43.5988 249.075 43.6131C249.913 43.6274 253.52 43.6274 253.625 43.6274C255.195 43.7273 260.106 44.083 260.525 43.2705C258.907 42.8852 238.362 43.2991 231.671 42.9994C227.069 42.7995 221.844 43.1992 214.476 42.6854C214.895 42.3285 215.261 42.4142 216.356 42.244C216.67 41.6599 215.833 41.5315 218.341 41.5029C223.619 41.4316 229.996 41.2032 235.174 41.2032C236.273 41.2032 237.996 41.403 238.938 41.3745C239.671 41.3459 241.498 41.1176 242.179 41.0176C243.697 40.7893 244.373 40.9606 246.205 40.8892C249.236 40.775 248.451 40.4193 252.948 40.4193L257.027 40.3194C258.544 40.2908 259.692 40.405 261.576 40.3194C263.351 40.2337 263.665 40.1909 264.869 39.9911C267.639 39.4927 274.435 39.9911 274.592 39.0217C273.126 38.779 271.037 38.6363 269 38.5946L268.984 38.5935ZM25.9273 38.2938C25.1422 38.0654 23.7331 38.0654 22.4247 38.1367C22.6864 38.2937 22.006 38.5221 24.2002 38.4793C25.0899 38.465 25.4039 38.4079 25.9233 38.2938H25.9273ZM11.5505 3.65605C13.6924 3.54187 16.5146 3.25641 17.6137 2.91496C16.9333 2.77224 17.195 2.75796 16.0476 2.88642C15.6812 2.92924 14.8961 3.07196 14.4291 3.14333C12.3396 3.42878 11.9733 2.98633 11.5546 3.65605H11.5505ZM0 7.78965C0.366364 8.48791 1.77546 8.13219 2.71754 7.97519C4.02598 7.77537 4.85936 7.94665 5.59208 7.54701C4.33598 6.62038 1.67078 7.53274 1.61844 7.54701C1.09507 7.64692 0.78104 7.61837 0 7.78965Z" fill="black"/>
</svg>
