<svg width="245" height="80" viewBox="0 0 245 80" fill="none" xmlns="http://www.w3.org/2000/svg">
<path fill-rule="evenodd" clip-rule="evenodd" d="M25.6642 71.6511C25.7861 72.0962 25.7373 72.022 26.054 72.2075L26.2489 71.7994C26.0784 71.0576 26.2733 71.5027 25.8835 71.3172L25.6642 71.6511ZM221.669 50.4221C221.986 50.9785 221.888 50.4221 221.913 50.4221C221.986 49.8657 221.913 50.0511 221.645 50.0882C221.645 50.2366 221.377 49.8286 221.669 50.4221ZM10.4569 58.7225C9.92097 59.0192 9.55742 59.5015 8.97274 59.6127C8.29061 59.7982 7.9027 59.724 7.80525 60.7598C8.34121 61.3904 8.29249 60.9082 8.9971 60.5743C9.75044 60.834 9.5087 60.9824 10.3838 60.9453C10.9198 60.9453 11.2346 61.0565 11.7462 61.0936C13.0599 61.2791 13.5715 60.9453 14.1543 59.9466C15.3705 59.8353 16.7085 59.8353 17.7804 59.5756C18.7774 59.316 20.359 60.0579 20.627 58.6483C20.2616 58.0548 20.4321 58.3145 19.8493 58.1661C16.2232 57.0561 18.7062 58.0548 15.616 57.7951C14.7165 57.721 14.5947 58.0548 13.9856 58.2032C13.0618 58.4257 12.2578 57.721 10.4569 58.7225ZM205.075 44.9779C204.978 43.8308 204.054 43.6082 203.956 44.8295C204.297 45.2375 204.59 45.3117 205.075 44.9779ZM194.856 35.2707C195.075 35.5675 195.197 35.9013 195.538 35.2336C195.49 34.974 195.173 34.603 194.856 35.2707ZM20.7244 28.2315C21.0655 28.7508 21.1142 28.6024 21.3335 27.9347C20.8463 27.9347 21.0899 27.7122 20.7244 28.2315ZM103.326 14.932C103.569 14.2643 103.252 14.3756 103.252 14.3756C103.252 14.3756 103.131 13.745 102.426 14.4868C102.523 15.7452 103.204 15.2658 103.326 14.932ZM60.1885 2.89079C59.9205 1.29861 58.0953 -0.553215 60.8463 0.297089L65.2014 0.816399C66.7587 0.705116 70.1656 1.85502 71.2356 1.03896C71.6254 1.44699 71.4061 1.4099 71.9177 1.44699C72.0152 0.927681 71.9177 0.519646 72.2101 0.299934C72.6729 -0.0339127 72.405 0.596687 73.0852 0.374123C73.4019 0.26284 73.4506 -0.033905 73.8873 0.00318909C74.7868 0.0402832 75.7856 0.374123 76.5389 0.78215C77.2679 1.19019 77.8282 0.745056 78.5347 1.00471L84.1061 2.18887C84.7395 2.33724 85.3466 2.22596 85.5415 3.07911C85.0056 3.1162 84.6907 3.00492 84.2766 3.41295C84.4471 4.04354 84.033 3.52424 84.6177 3.96936C85.7851 4.8967 86.3211 4.48867 87.1962 4.71124C88.7292 5.08217 90.4326 4.59995 91.8437 5.67567C92.5971 6.26917 93.669 5.15636 94.4467 6.60301C94.9095 7.41908 94.2518 8.00971 93.5959 8.04681C93.0843 8.0839 90.6519 7.26785 91.7219 9.15677C91.9899 9.63898 92.136 10.2696 92.3553 10.5264C92.6233 10.8602 92.9156 10.7489 93.3766 11.1941C95.0557 12.8975 95.4455 10.8602 97.074 11.3795C97.5125 11.5279 97.9248 11.6392 98.2415 11.8247C98.6313 12.1214 98.8261 12.5665 99.3359 12.3811C100.918 11.8618 102.45 12.7149 103.74 13.3826C104.178 13.6052 104.251 13.2713 104.688 13.1229C105.078 13.4197 105.2 13.7535 105.563 13.8277C106.196 13.939 106.026 13.4568 106.633 13.7906C107.096 14.0874 107.023 14.4212 107.533 14.2728C108.359 14.0132 107.728 14.1987 108.432 14.1245C109.09 14.0874 108.627 13.6793 109.356 13.8277C109.575 13.8648 109.843 14.1245 110.062 14.2357C110.647 14.4583 110.598 13.6423 111.474 13.7164L111.766 14.7922C111.133 14.9034 109.041 15.0518 108.603 15.3486C108.627 16.5327 108.798 16.5698 109.624 16.6811C111.571 16.9407 110.938 17.3859 112.446 16.0876C113.443 16.5327 114.613 17.3088 115.707 16.4956V15.8279C114.734 14.8635 113.226 16.644 112.982 14.6809C113.445 14.3099 116.389 15.0147 117.215 14.9776C117.557 14.9405 117.532 14.7922 117.873 14.7551C118.724 14.718 119.82 15.2744 120.769 15.2002C121.451 15.1631 121.498 15.3115 122.082 14.7922C122.643 14.2728 124.005 14.6809 125.392 14.2728C125.708 14.1616 125.952 14.7551 126.51 14.6438C126.949 14.5696 126.925 14.1616 127.459 14.1245C128.797 14.0503 128.577 14.4954 129.406 14.5696C130.135 14.6809 129.649 14.4954 130.088 14.3841C130.429 14.3099 130.429 14.4954 130.746 14.3841C131.864 14.0874 132.327 14.3841 132.79 14.2728C135.832 13.6423 138.508 14.1245 141.403 13.531C142.156 13.3826 142.96 13.6793 143.713 13.5681C145.831 13.2342 144.371 13.4568 145.758 13.5681L151.524 13.3455C152.206 13.2713 152.326 12.4553 153.106 13.3084C154.03 14.347 155.004 14.4926 156.245 15.0861L159.676 15.1973C160.334 15.0861 160.261 15.4941 160.77 15.8279C161.306 15.6796 161.597 15.2344 162.084 15.8279C162.498 16.3472 162.328 16.6069 163.081 16.8295C163.907 17.0891 165.052 16.9036 166.001 16.9407C166.439 16.9407 166.9 17.1262 167.485 17.1633C168.021 17.2375 168.433 17.1633 169.018 17.2004C169.917 17.2375 169.554 17.6826 169.99 18.1648C170.697 18.9067 170.817 17.1633 172.325 18.4616C172.959 18.9809 173.032 18.61 173.542 19.0551C173.858 19.3147 173.566 19.2405 174.053 19.5002C175.172 20.0566 174.613 20.5388 175.537 20.6843C178.067 21.1295 178.213 20.7214 179.917 20.9069C180.185 20.944 180.865 21.1295 181.157 21.0924C181.279 21.0924 181.547 20.7956 181.815 20.7956C182.473 20.7956 183.299 21.2778 183.908 21.2407C184.396 21.2037 185.441 20.6102 185.466 21.352C185.149 21.6488 184.42 21.8342 183.519 21.9084C182.497 21.9455 181.986 22.3907 181.062 22.3907C179.066 22.3165 179.821 22.6132 177.923 23.0212C177.216 23.1696 176.219 23.1696 175.588 23.5406C175.515 25.8375 179.31 24.1712 180.089 24.7989C179.846 25.9117 177.121 24.3538 176.829 26.0572C177.511 26.9475 180.526 26.6136 181.598 26.3911C182.595 26.1685 182.619 26.5023 183.253 26.4653C183.74 26.4282 183.715 26.0943 184.323 26.1685C184.664 26.1685 184.664 26.354 185.149 26.354C185.975 26.2798 186.414 25.5008 187.096 26.3911C186.901 27.0958 187.193 26.762 186.658 27.0217L183.689 27.8377C183.007 27.949 182.96 27.8377 182.936 28.728C183.52 29.2102 184.03 28.6538 184.883 28.9876C186.294 29.5069 188.168 28.5796 188.653 29.6553C188.483 30.731 188.361 30.5085 187.705 30.3601C186.927 30.1746 186.927 30.7681 186.367 30.8052C185.321 30.8794 184.639 29.7666 184.105 31.2132C184.641 32.4716 186.318 31.5842 187.171 31.7326C187.707 31.8438 187.973 32.6228 188.533 32.697C189.045 32.7712 189.167 31.9922 189.823 31.6955C190.456 32.0293 190.771 32.8425 191.77 32.8083L196.563 32.6599C198.169 32.5486 197.56 33.2163 198.364 33.8811C198.827 34.2521 198.973 33.9182 199.459 34.1779C200.724 34.9569 198.486 36.5119 202.549 36.1781C203.302 36.1039 203.351 35.9555 203.521 36.8087C203.253 37.0312 203.351 36.9571 202.985 37.0312L202.45 37.2909C202.815 37.8473 203.885 37.6618 204.494 38.107C204.348 38.6263 204.64 38.4779 204.153 38.5892C203.958 38.5892 204.08 38.4408 203.714 38.4779L201.501 39.5907C200.285 40.5922 201.282 40.3697 199.53 40.481L198.265 40.8148C197.899 40.9261 197.558 40.889 197.195 40.9261C196.927 41.0003 196.561 41.1857 196.271 41.3341C195.808 41.5567 196.027 41.3712 195.735 41.8534C196.222 43.5569 196.756 42.7808 197.658 42.7808C197.974 42.8179 198.121 42.9662 198.509 43.0033L199.166 42.4098C199.727 42.5953 199.895 43.1146 200.602 42.7066C201.089 42.4469 201.428 42.1873 201.891 41.8905C202.864 42.4098 202.598 43.0747 203.984 43.0033C205.322 42.9291 205.542 43.8565 206.319 43.7823C207.584 43.7081 207.121 43.7081 208.071 44.5242C209.117 45.4144 209.336 43.4855 209.385 46.0051C210.504 46.5986 209.751 47.3747 211.891 46.7098C212.378 46.5615 212.573 47.3033 213.253 47.2662C214.713 47.155 214.25 46.8211 215.734 46.9695C216.609 47.0808 219.287 46.2276 219.724 47.8227C219.505 48.4532 219.431 48.4162 218.922 48.4532L213.982 48.9355C213.47 48.9726 213.107 48.8613 212.766 48.8613C212.425 48.8984 212.132 49.0467 211.671 49.0838C210.918 49.158 210.187 48.7871 209.7 49.529C209.968 49.937 210.163 49.9741 210.746 49.937C213.154 49.7515 213.836 49.4919 216.341 49.5661C217.655 49.6031 218.944 49.3064 220.307 49.3064C220.916 49.3064 221.352 49.3806 222.083 49.3435L223.592 49.2322C223.811 49.2322 225.003 49.2693 224.345 49.8628C223.955 50.2337 222.642 49.3435 223.372 50.9014C223.981 50.8643 223.884 50.6418 224.296 50.6047L226.631 50.716C227.265 50.6418 226.972 50.2337 227.799 50.4934C228.893 50.8272 231.327 50.6047 232.519 50.5305C233.226 50.4934 233.08 50.3821 233.419 50.9385C233.273 51.2353 233.321 51.2724 233.053 51.4949L232.542 51.9771C232.834 52.2368 234.489 52.1997 234.901 52.1255L236.946 51.9771C237.482 51.9771 237.723 51.6804 238.162 51.6062C239.256 51.3466 240.448 51.4578 241.569 51.3466C242.346 51.3095 245 50.0882 245 51.5691C244.415 51.903 244.367 51.6433 243.833 52.1255C242.568 53.3468 242.641 52.9787 241.91 53.09C241.569 53.1641 241.325 53.5722 240.815 53.6093C240.377 53.6464 240.45 53.4609 240.013 53.5722C239.867 53.6464 239.77 53.7576 239.453 53.8318C238.868 53.9802 238.675 53.8318 238.091 54.1286C237.362 54.4624 237.677 53.9802 237.069 54.0915C236.631 54.1286 236.243 54.3882 235.78 54.4253C235.244 54.4624 235.366 53.7947 234.613 54.4253C232.86 55.9062 233.567 55.0188 232.229 54.3511C231.717 54.7592 231.815 54.9817 231.354 55.2785C230.552 55.8349 230.552 55.2785 229.918 55.4269L226.511 55.7978C225.878 55.7978 224.564 56.2429 223.933 56.3171C222.327 56.4655 222.838 56.1316 221.913 57.5013L221.086 57.4642C220.77 57.9464 220.672 58.2431 220.284 58.577C218.727 58.0948 219.553 58.8366 218.24 59.3559C215.32 60.4659 214.591 59.4672 214.079 59.7269C213.543 59.9494 213.568 60.3946 212.814 60.5058C210.455 60.7655 211.671 61.4703 210.553 62.3577C209.726 62.4319 206.782 62.8399 206.197 63.3221C206.441 65.0256 208.752 64.4321 209.629 64.803C210.189 64.9885 210.238 64.7288 210.747 64.6917C211.454 64.6546 211.769 64.395 212.28 65.211C212.037 67.5451 209.775 66.8032 208.947 67.1371C207.95 67.5451 203.982 67.8418 202.766 67.916C200.673 68.0273 200.115 68.695 199.505 68.7321L197.997 68.695C196.367 68.8063 196.123 70.213 195.029 70.2872C194.541 70.3243 194.129 70.1017 193.666 70.2501C192.888 70.4355 192.547 70.1759 191.792 70.7694L189.603 72.139C189.214 72.5099 189.384 72.6954 188.801 73.0663L180.53 73.6969C180.237 73.6598 180.237 73.4744 179.801 73.5115L174.739 73.9937C173.718 74.0679 171.673 73.7711 170.993 74.5872C171.139 75.9197 171.334 75.0323 171.31 76.031L169.048 76.2535C168.731 76.2535 168.658 76.1423 168.366 76.1794C167.927 76.2164 167.708 76.5503 167.271 76.6987C166.881 76.7728 166.347 76.847 165.958 77.0325C165.519 77.2551 165.519 77.5147 164.985 77.7373C164.425 77.2922 164.595 77.1067 163.964 76.847C162.991 78.2537 163.452 77.3293 162.577 77.7002C161.992 77.9598 162.26 78.1082 161.312 78.1824C158.977 78.3308 159.901 78.5904 157.225 78.4421C156.567 78.4421 155.862 78.813 155.278 78.5904C154.912 78.4792 154.669 78.2566 154.208 78.405C153.454 78.7017 153.211 79.7004 152.285 79.221C151.264 78.7388 151.069 78.9243 150.023 78.8501C148.149 78.6646 147.493 79.592 146.689 77.8857C145.571 78.034 144.669 79.5149 143.892 79.4036C143.624 77.8486 143.721 78.1453 142.553 78.1824C141.459 78.1824 141.944 77.8857 140.923 78.7388C140.314 78.6275 140.412 78.4792 139.658 78.5533L139.025 79.4436C138.101 79.0727 138.635 78.8872 138.052 78.2965C137.37 78.1482 136.665 78.89 135.863 78.9271C135.401 78.9642 134.769 78.8529 134.087 78.89L132.481 78.7417C130.219 78.9271 129.464 78.2595 129.293 78.2595L126.325 78.5562C125.572 78.4078 124.743 78.1111 123.941 78.1482C123.188 78.1853 122.822 78.2224 122.14 78.1111C121.556 77.9998 120.948 78.1853 120.388 78.2224L117.103 78.1111C116.738 78.1111 116.567 78.4449 116.179 78.4078C116.13 78.4078 115.328 78.1853 115.255 78.1482C114.088 77.7772 111.193 79.8145 109.928 77.9627C109.465 78.1111 109.416 78.2965 109.052 78.2595C108.565 78.2224 109.101 77.9256 108.299 78.2965L105.55 79.9629C105.282 79.9629 104.358 79.7774 103.944 79.7033C102.874 79.5178 103.191 79.1468 102.582 78.9614C102.241 78.8872 101.341 78.9614 100.951 78.8872C95.0145 78.0711 96.4987 79.6662 95.3799 80C94.6978 79.9629 94.9901 79.8516 94.5535 79.4436C93.6296 78.5533 91.6095 78.8872 90.5638 78.9243C89.8104 78.9985 89.2014 78.3679 88.836 78.4792C85.6483 79.5178 87.2543 78.6275 85.356 78.4792C83.75 78.405 84.747 78.1824 82.7531 78.5533C82.68 78.5904 81.5368 78.7388 81.5368 78.7759L80.7104 78.6646C79.7622 78.5163 77.2061 78.8872 76.2091 78.9614L73.996 78.7759C73.2426 78.7759 73.1452 79.0727 72.5605 78.5163C71.9514 77.9228 72.0245 78.2937 71.3443 77.8857C70.9301 77.626 70.8814 77.2551 70.396 76.847C69.4235 77.0325 67.2328 76.7728 66.3333 76.4019C65.8948 76.2164 65.9191 76.2906 65.4581 76.1423C65.044 76.031 64.9952 75.8084 64.6073 75.8084C63.1475 75.7713 64.583 76.7728 60.8125 75.9939C59.0604 75.66 56.6279 76.1052 54.9245 75.7713C54.1712 75.6229 54.6809 75.8455 54.0737 75.9197C53.5134 75.9939 53.8301 75.6971 53.1986 75.8084C51.3733 76.2164 49.5012 75.9939 47.6516 76.1052C47.0913 76.1423 46.4354 76.4761 45.8751 76.5503C44.6101 76.7358 43.199 76.6616 41.9585 77.1438C41.6418 77.2551 36.0704 78.0711 35.8755 77.7744C35.1691 76.6644 37.7495 76.8099 37.9444 76.7358C38.4316 76.6616 38.8683 76.2164 39.3068 76.2164L41.4487 76.1794C41.6436 76.1423 41.936 75.9197 42.1777 75.9197C45.0974 75.5859 43.5888 75.4746 45.0243 74.8069C45.6577 74.5101 46.07 74.8069 46.0456 73.6969C45.6071 73.2889 45.3635 73.5115 44.8538 73.5486C43.2478 73.6227 43.0772 73.9195 42.5188 73.9566C42.0559 73.9937 41.059 73.8824 40.6204 73.9195H40.4743C40.3525 73.9195 39.2581 74.2162 39.0632 74.2904C38.1149 74.7355 38.5272 74.2162 37.8957 74.2904C37.2623 74.3646 38.0662 74.6243 36.5333 74.6985C36.0704 74.7355 35.4876 75.0323 35.1709 75.0694L30.8889 75.2549C30.4991 75.4403 30.7184 75.5145 30.1112 75.5516C28.9681 75.6258 28.9193 75.4403 28.5783 74.8839C27.6788 73.4401 25.7073 74.105 24.4668 74.2162C23.9308 74.2533 23.7603 74.5872 23.2749 74.5501C21.7664 74.3275 20.5502 74.8839 20.0629 73.734C20.3065 72.4386 21.3279 73.1405 22.01 72.6241L22.0831 71.8822C21.474 71.4371 21.013 71.9935 20.4284 71.9193C19.9655 71.8822 19.795 71.4742 18.9198 71.4371L15.9027 71.4742C15.1719 71.5113 15.0276 71.0661 14.3942 71.1032C11.9861 71.2516 11.5719 70.3243 10.4045 70.4355C9.48059 70.4726 9.04208 70.1017 8.38431 70.2872C7.82399 70.4355 8.09197 70.4355 7.4848 70.2872C6.36604 70.0275 4.95494 70.9178 3.93175 69.9904L3.95611 68.9889C4.51643 68.2841 4.78253 69.026 5.70827 69.1373C6.43913 69.2114 7.04629 69.434 7.65533 69.2114C8.16693 69.026 8.26438 68.8034 8.5792 68.6921C8.99335 68.5809 9.13952 68.8034 9.47871 68.7292C11.8624 68.2099 12.3253 69.026 13.4928 68.6179C13.8826 68.4696 14.0044 68.1728 14.3679 67.9874L16.0957 66.9858C16.4855 66.652 16.4124 66.7633 16.8022 66.3552C17.5331 65.6134 17.9697 66.0956 18.5787 65.5021C18.262 64.355 17.1189 65.0199 16.4124 65.1682L13.6633 65.3166C9.8685 65.094 11.0847 65.5021 10.2564 65.5763C9.96407 65.5763 9.8179 65.3537 9.52744 65.3537C8.89403 65.2795 8.06761 65.6134 7.40984 65.8359C6.5347 66.1698 6.82516 66.0214 6.0231 65.9472C4.17349 65.7988 4.39274 67.5023 3.88115 67.6877C3.07909 67.6136 3.49136 67.0201 2.49441 66.7975C1.35128 66.5749 1.74107 66.7604 0.985855 66.0185C1.05894 63.6845 0.425536 64.6489 0.401175 63.5732C0.376813 62.7942 0.596067 62.9797 0.766599 62.0923C0.401174 60.7598 -0.181632 61.165 -0.888121 60.3889C-1.32663 59.8695 -1.08301 59.6841 -1.59461 59.3502C-1.93567 59.1648 -2.22801 59.2389 -2.54284 59.0164C-2.95699 58.6825 -3.75905 57.721 -4.34373 57.6097C-5.0015 57.4613 -5.94973 57.7951 -5.99845 56.2772V56.0917C-6.02282 55.424 -5.75484 55.1644 -5.51122 54.8705L-4.12448 54.9446C-3.41799 55.9833 -2.4454 55.7978 -1.6677 56.6852C-1.08301 57.3529 -1.08301 57.1674 -0.23223 57.3158C0.230642 57.39 0.983981 57.6867 1.27632 57.6867C1.5443 57.6496 2.07838 57.39 2.49253 57.3529L5.04676 57.5013C6.87201 57.798 6.84765 57.1303 7.5279 57.1674C8.16131 57.1674 10.6912 57.8722 11.081 56.611C10.2058 55.5724 8.23439 57.0561 8.18567 54.5737C8.77035 54.277 10.4232 54.0915 11.154 54.0544C11.8362 53.9802 11.9561 53.8318 12.5895 53.8689C14.0006 54.0544 19.0866 53.6093 19.8887 53.1641C19.5476 52.1997 19.3283 52.9045 17.966 52.7932C17.5031 52.7561 17.1639 52.6077 16.7254 52.5706C15.8015 52.5336 14.7296 52.5336 14.8514 51.0527C15.2656 50.9414 15.2168 51.0898 15.7265 51.201C16.4087 50.6446 16.2625 50.3108 17.1864 50.385C19.6919 50.6075 19.8624 50.4221 22.1505 50.3108L23.6347 50.0882C24.4855 49.9398 25.46 50.3479 26.1646 49.6802C26.9179 48.9754 28.0386 49.1238 28.8163 49.198C29.935 49.2722 32.1257 48.7528 33.1958 48.5303C38.0381 47.4546 37.8676 48.4932 39.3274 48.3077C40.0095 48.2335 40.6167 47.3804 41.3476 47.3433C43.0266 47.232 42.8561 48.7871 44.2672 46.0479C45.1911 45.9737 45.8245 46.9381 46.8214 46.6785L47.065 46.1221C46.5535 44.6782 46.1655 45.4544 45.1667 45.0834C44.5577 44.898 43.9261 44.2674 43.2197 44.4899C42.2227 44.8609 42.1009 44.4157 41.1264 44.4899C40.5905 44.5641 40.5417 44.7867 40.1538 44.8609C39.5691 45.0092 39.691 44.6012 39.23 44.6383C38.5235 44.6754 36.9193 46.2305 36.1398 46.1934C35.2403 46.1934 35.4333 45.8224 34.4363 46.0079C33.7298 46.1192 33.4881 45.4886 32.806 45.5257C32.0526 45.5999 32.3187 46.045 31.6628 45.9708C30.9095 45.8966 29.133 46.5643 27.9168 46.6385C26.9929 46.7127 25.9941 46.7498 25.1676 46.7498C24.4855 46.7498 24.4612 46.7498 23.8296 46.5272C23.2693 46.3789 23.4642 46.7869 22.857 46.824C22.6865 46.824 22.5891 46.6385 22.0793 46.7869L19.72 47.1949C18.8205 47.232 17.5068 46.5643 16.7029 46.6756C15.0238 46.9353 14.9994 48.0081 14.4166 48.3049C13.9538 48.342 12.8837 47.6372 12.7376 47.3775C12.299 46.6357 12.7376 45.5999 13.5153 45.5628C14.0512 45.5257 14.5122 45.7112 15.0238 45.5257C15.2187 45.4515 15.438 45.2289 15.6085 45.1548C16.8734 44.7467 19.6225 45.5628 21.7158 45.0064C22.0325 44.9322 22.2274 45.0806 22.5422 45.0806C22.7858 45.0435 22.9076 44.9322 23.2243 44.8951C24.0751 44.858 24.6842 45.1919 26.1683 44.9322C28.5277 44.5613 28.6495 44.8209 30.9133 43.9678C31.4005 43.7823 31.8371 43.9678 32.2756 43.8936C33.7842 43.5597 34.8299 44.45 35.0004 42.9291C34.6106 42.5211 33.5893 42.1873 33.1264 42.2615C32.3 42.3356 32.7854 43.2259 31.5448 42.9291C31.0575 42.7808 29.9875 42.6695 29.5003 42.7808C28.4302 43.0404 28.5033 42.5211 27.5289 42.5953C26.6293 42.6324 26.8467 43.4855 25.0964 43.3743C23.4417 43.263 23.2712 42.153 23.2468 40.2242C23.6122 40.0387 24.0245 40.0016 24.3656 39.5936C24.9015 38.9259 24.6579 39.0001 25.5331 38.963C25.4113 38.0727 25.6305 38.8146 25.2651 38.2953C25.0215 37.9614 25.0946 38.2211 24.924 37.6647C25.6774 36.7003 26.2377 36.997 27.3077 36.5176C27.6001 35.5161 26.991 34.9626 27.8924 34.1094C28.0386 33.961 29.6446 33.3304 29.742 33.3304C30.4241 33.2933 30.9095 34.1094 31.2262 32.9595C30.3511 31.219 26.3839 34.5888 25.1433 32.6998C24.3169 32.8482 24.0732 33.145 23.1475 33.145L19.6188 32.4031C18.9854 32.1434 18.6949 32.1434 18.5 31.3274C18.768 30.6597 19.229 30.6597 19.4483 30.1061C20.8106 26.3654 18.4513 27.735 17.355 27.9947C16.8434 28.143 16.3824 27.6608 15.9196 27.4753C14.7034 26.9931 14.1187 26.956 13.5359 25.401C13.6333 24.9558 13.7308 23.8088 13.9744 23.4749C14.8495 22.4363 15.9702 23.104 16.285 23.0669C16.3337 23.0669 16.9184 22.6218 17.355 22.5105C17.7935 22.3992 17.9884 22.5105 18.352 22.1396C18.1084 20.399 16.9409 21.6202 16.21 21.1009C16.4293 20.4332 16.1126 20.5816 16.9165 20.5074C17.6474 20.4703 17.623 20.73 18.4494 20.3591C19.9336 19.6914 21.0524 19.9881 21.0524 18.6556C20.6382 18.2476 18.4738 18.0992 17.9378 18.0992C17.2314 18.0621 17.0871 17.8024 16.478 17.5799L14.9207 17.3944C14.5066 17.0977 14.6284 17.3573 14.4091 16.5784C14.1655 14.6894 15.8202 14.8378 16.5979 14.8749C19.3958 14.912 17.3288 14.7265 18.7886 14.1701C19.6881 13.8363 20.0292 15.1346 20.8088 13.8734C20.6139 11.5764 19.2271 12.2441 17.9622 11.799L17.9135 10.9458C18.0109 10.3152 18.7399 9.98139 19.1541 10.0556C20.2485 10.241 22.7783 11.4994 23.631 11.4252C24.2157 11.3881 24.2887 11.1284 24.701 11.0913C24.9446 11.0543 25.2613 11.2026 25.6736 11.1655C26.5731 11.0172 26.1852 10.4608 27.5963 10.572C28.4715 9.3508 27.5232 9.12823 28.1566 8.34927C28.91 7.42193 30.4185 7.34773 31.3443 6.90546C32.1463 6.53452 32.731 6.23778 33.3644 6.49743C34.3614 6.90546 34.2396 5.86684 35.2384 5.79265C37.0149 5.68137 36.2841 6.34906 37.3073 8.01542C37.7214 7.97832 38.1337 7.82996 38.4504 7.82996C38.7914 7.86705 38.8645 8.01543 39.2768 8.05252C41.37 8.1638 40.9315 7.97833 42.5375 7.68158C43.1709 7.5332 43.5345 7.82996 44.1922 7.90414C45.3354 7.97833 48.3525 8.57183 49.132 8.31217C49.5706 7.94124 49.5706 7.82996 49.9828 7.38483C52.4153 4.86532 52.9268 6.08941 55.3593 5.90394C56.4049 5.79266 56.2344 5.23625 56.7947 4.53432C57.0627 4.20049 57.2332 4.16339 57.5481 3.79245C58.4719 2.71674 58.8861 2.97639 60.1997 2.90221L60.1885 2.89079Z" fill="white"/>
</svg>
