<svg width="148" height="77" viewBox="0 0 148 77" fill="none" xmlns="http://www.w3.org/2000/svg">
<path fill-rule="evenodd" clip-rule="evenodd" d="M134.948 59.434C132.849 58.8845 131.775 59.2142 129.571 59.0823C128.47 57.919 126.976 59.1482 123.776 58.4229C122.439 58.1152 123.934 58.0492 121.888 57.0398C120.761 56.4903 120.866 56.2942 120.603 55.1512C119.686 54.6017 120.104 55.0194 119.45 54.2957C119.03 53.8341 118.715 54.01 118.296 53.5281C118.454 53.1764 118.9 52.8704 119.371 52.7165C120.001 52.5407 120.603 52.6286 121.102 52.7165C123.148 53.0682 122.912 52.0588 124.17 51.883C126.452 51.5753 130.779 51.9929 131.591 51.2456C132.063 50.806 131.88 50.5659 132.613 50.3241C134.134 49.8186 135.628 50.0603 136.416 49.9724C139.274 49.6867 138.751 49.2927 139.537 49.2268C140.298 49.1389 140.454 49.3367 141.399 49.0509C142.185 48.8311 142.029 48.5894 142.71 48.3493C143.078 48.2174 143.784 48.1295 144.257 48.0416C145.673 44.354 144.782 45.4513 144.914 44.2661C144.992 43.6946 145.176 43.8704 145.307 43.1688C145.071 42.9709 144.259 42.2033 144.128 42.1374C143.655 41.9396 143.813 42.2033 143.29 42.0715C143.027 41.9835 142.922 41.8297 142.502 41.6538C141.611 41.6319 140.246 42.1154 139.644 41.9176C139.408 41.6099 139.513 42.2473 139.46 41.5659C139.434 41.2142 139.486 41.522 139.723 40.8203L139.171 40.2048C138.41 40.1609 137.361 40.2928 136.576 40.4027C136.103 40.4686 134.556 40.7104 134.138 40.7104C133.037 40.0307 133.35 40.0307 131.595 40.2488C130.678 40.3587 129.759 40.2928 128.684 40.4246C127.975 40.5126 126.796 40.2268 126.141 39.9631C125.014 39.5015 124.883 39.6334 123.625 39.4355C123.283 39.1278 123.205 39.0399 122.786 38.7981C122.235 38.4684 122.288 38.6003 122.209 37.9866L126.745 37.7228C132.096 37.8547 131.623 37.2173 132.356 37.0431C132.803 36.9332 133.144 36.9772 133.588 36.9991C134.558 37.0211 135.004 36.9112 135.74 36.9332C136.735 36.9552 138.703 35.9678 139.201 35.6161L139.123 34.255C140.224 33.3555 142.165 34.277 142.821 33.5753C142.112 33.3116 140.199 33.5094 139.543 33.1138C138.573 32.5423 139.805 32.3461 137.654 31.7087C137.392 31.6428 134.665 31.1592 134.35 31.1812C133.328 31.2252 132.724 32.1466 131.938 31.1153C132.306 30.6317 132.568 30.5658 133.328 30.4778C133.932 30.4119 134.639 30.2361 135.138 30.2141C135.663 30.1921 135.689 30.28 136.186 30.2581L139.044 29.9943C141.011 29.8624 141.038 29.0728 141.954 28.7211C142.532 28.5013 144.366 28.853 144.734 27.426C144.366 27.2722 144.34 27.3381 143.946 27.2062C143.368 27.0304 143.578 26.9864 143.263 26.8765C142.686 26.6567 141.952 26.7446 141.349 26.7886C141.191 26.7666 139.933 25.4935 135.867 26.043C132.011 26.5925 132.3 25.0995 131.435 24.4401C131.488 23.2109 131.803 23.3428 133.035 23.0351C133.35 22.9691 133.899 22.7713 134.215 22.7274C136.731 22.3317 135.027 22.2658 136.523 22.1119C137.048 22.046 137.075 22.068 137.65 21.9141C140.508 21.1465 139.381 20.7948 139.67 20.1354C140.508 19.2359 141.611 19.6958 142.817 18.7963C143.655 18.1369 143.316 18.3787 144.548 18.2029C147.564 17.7852 144.653 17.2374 147.222 15.2829C148.612 14.2296 147.721 14.2296 147.695 13.5042C147.695 13.2844 147.8 13.2185 147.747 12.9327C147.747 12.8888 147.117 11.8135 147.065 11.7475C146.592 11.198 146.356 11.3739 145.675 11.4398C144.18 11.5497 145.097 10.2985 143.997 9.52923L140.771 9.68309C140.351 9.22151 140.272 9.17755 139.985 8.62974C138.753 8.38796 138.412 8.69568 138.044 7.66431C138.438 7.02689 138.806 7.04887 139.408 6.69888C140.797 5.93127 138.569 6.21532 142.686 5.31583C143.629 5.11801 144.023 5.38177 144.049 4.50426C142.633 3.82457 140.351 5.24989 139.644 3.51685C139.408 1.97994 142.292 2.1338 142.292 1.45411C142.108 1.34421 142.554 1.32223 141.714 1.25629L137.466 1.56401C136.077 1.76183 133.663 1.91569 132.51 1.41015C132.247 0.180966 132.615 -0.0388344 130.831 0.00512558C129.205 0.466705 127.212 0.312846 125.481 0.554625C121.259 1.17007 119.555 0.422745 116.145 0.312845C113.629 0.224926 110.69 0.0490856 108.278 0.202946C105.996 0.334825 103.295 0.664525 101.094 0.708485C97.9993 0.774425 94.0405 1.32393 90.1321 1.47609C88.795 1.52005 87.8498 1.71787 86.5389 1.67391C85.2281 1.62995 84.1535 1.84975 82.7619 1.82777C81.7398 1.82777 80.3502 1.95965 79.1949 2.02559C76.8357 2.17945 74.3695 2.37727 71.9579 2.53113C67.8678 2.75093 64.1432 2.24539 60.1581 2.35529C59.1098 2.37727 57.694 2.04757 56.8012 1.84975C55.7004 1.62995 44.6338 1.93767 41.487 1.34421C40.4912 1.14639 41.0406 1.03649 39.756 1.08045L36.2678 1.01451C35.1932 1.01451 35.377 1.19035 34.6156 1.30025C32.6745 1.62995 29.6064 0.926595 27.2998 1.08045C25.9102 1.16837 23.1309 1.03649 21.82 1.19035L18.2268 1.47609C17.0735 1.60797 14.2417 1.21233 13.454 1.73985C13.454 3.47458 13.2439 3.10092 11.3291 3.54052C11.014 3.60646 10.7252 3.71636 10.3071 3.84824C9.65067 4.06804 9.78196 3.91418 9.59815 4.48566C10.2546 4.90328 11.1978 4.6615 10.9615 5.51703C10.8302 5.97861 10.0445 6.46048 9.59815 6.63632L6.39877 8.28313V9.33648C7.47331 10.3239 7.9722 9.92994 9.5719 9.90796C9.83447 9.90796 13.0076 10.3915 13.0864 10.4135C13.4802 10.6333 13.454 10.3256 13.5853 10.941C13.6378 11.2048 13.559 11.4466 13.4015 11.6004C12.7713 12.2581 9.54564 12.4779 8.6549 12.6098C7.7379 12.7417 7.76416 12.6318 6.97644 12.9835C6.29374 13.2692 6.16447 13.2252 5.35049 13.2692C3.38319 13.3791 4.09214 12.5236 2.43993 12.7856C2.01981 13.4434 2.07233 13.3791 2.3349 14.0808C3.67202 14.4984 4.09214 13.7511 4.35472 15.5517C4.38098 15.7496 4.45975 18.142 4.45975 18.164C4.3022 18.5596 3.82957 18.9316 3.56901 19.2393C3.25392 19.6569 1.733 20.5344 0.921035 21.9175C1.1311 22.3791 1.6825 22.9049 2.10061 23.5203C2.54698 24.1578 2.73079 24.6616 3.93662 24.7275C6.00894 24.8374 7.73992 24.8155 9.2871 24.0479C10.6767 23.3885 10.2041 23.85 11.6725 24.0039C12.4077 24.0918 12.4077 23.9819 13.0884 24.2457C15.7626 25.277 15.4738 24.7952 18.4126 25.277C18.4651 25.277 18.9378 25.4089 18.964 25.4309C19.4367 25.6507 19.2003 25.5628 19.3579 25.7386C19.3054 25.7606 19.2529 25.8046 19.2266 25.8046C19.1741 25.8265 19.1216 25.8485 19.0691 25.8705C18.4126 26.0244 18.1258 25.9364 17.8107 26.5942C17.6532 26.9239 17.7582 26.9678 17.4694 27.3398C17.2593 27.6255 17.233 27.5156 16.9967 27.9332C17.2068 28.7668 17.4169 28.4388 17.2856 29.4482L15.5546 30.8972L12.8804 30.8752L12.5127 31.2708C13.0642 32.1703 12.9591 32.9396 11.622 33.1374C10.8363 33.2473 10.8868 33.2913 10.3899 33.6869C10.2586 34.5205 10.7575 35.8596 11.1514 36.453C11.8866 37.6163 13.0399 37.2646 13.0924 38.3636C12.3572 38.6054 11.9916 38.4515 11.519 38.9571C11.2827 39.2648 11.0464 39.9225 10.7333 40.0983C9.79004 40.45 8.39838 39.9005 7.40262 40.3841C6.92998 40.8017 7.79648 41.4154 8.0328 41.943C8.42666 42.9084 8.47918 42.6007 9.21237 43.282C8.81851 45.1047 9.99808 45.6085 8.26912 46.1361C7.29961 46.4218 7.32586 46.2679 6.98452 47.1454C6.48562 48.3307 7.03703 48.1329 8.19034 49.6038C8.84678 50.4594 8.42666 50.7011 9.52746 51.4704C10.0789 51.8441 9.89507 51.998 10.4445 52.2161C11.0221 52.4359 11.2564 52.238 11.6765 52.6776L12.541 53.4672C13.4843 54.1266 12.2784 54.0607 14.2457 54.8503C14.0619 55.6179 14.2457 55.0921 13.6681 55.4877L11.622 57.4422C12.1472 58.1219 13.0379 58.0357 13.9044 58.2098C14.2195 58.8253 14.2195 58.9335 14.6901 59.483C14.7689 60.9759 14.4275 60.7561 16.3948 60.888C17.0775 60.932 17.9945 61.5035 18.4934 61.8534C20.9838 63.6761 19.6205 63.786 20.1981 64.2898C20.5132 64.5756 20.5395 64.3997 20.8808 64.4877C22.0604 64.7734 20.9333 65.2333 20.6445 65.8048C21.0121 66.4625 20.9071 65.8487 21.1959 66.5724C20.8546 66.9021 20.3577 67.0779 20.5132 67.5158C20.8283 68.4373 22.6118 67.2521 23.1875 67.8675C23.2137 67.8895 23.2662 67.9115 23.2925 67.9334C23.3187 67.9554 23.345 67.9994 23.3713 68.0434C23.3713 68.0653 23.3975 68.1093 23.4238 68.1313C23.6601 68.461 23.2925 68.0873 23.6076 68.417C23.8176 68.6368 23.9752 68.6368 24.264 68.7907C25.076 69.1643 25.0255 68.9885 26.0738 69.1423C26.9645 69.91 26.2576 70.0858 26.8857 70.6573C27.6209 71.337 27.3846 70.6133 28.1441 71.8425L29.1398 71.9524C30.0568 72.72 29.5337 73.0058 31.2909 72.8519L38.0836 73.3355C39.3682 73.3794 40.1034 73.1157 40.8891 73.7091C40.7578 74.9163 40.0771 74.4547 39.2632 74.3246C38.9218 74.2586 38.4249 74.2806 38.0311 74.2586C37.3484 74.1927 36.4051 73.9289 35.9062 73.9289C35.2498 73.9289 32.2867 74.0828 31.8424 74.2806C31.6848 74.8521 31.8424 74.8521 32.21 75.268C33.2582 75.3779 34.0722 75.224 34.963 75.224L53.3453 76.0356C56.4659 76.1455 54.1068 74.6306 56.9911 74.4547C58.5382 74.3668 60.2955 74.191 62.0264 74.147C62.8384 74.1031 63.2323 73.6635 64.0725 73.5755C64.834 73.4876 65.856 73.6854 66.5367 73.6854C66.9306 73.7074 67.1931 73.5316 67.7688 73.5536L71.152 74.0371C72.174 74.9586 73.7212 74.5207 75.4259 74.7608C78.5202 75.2224 76.3954 76.8895 83.0305 76.9334C83.6869 76.9334 84.7877 77.1093 85.4159 76.8895C85.9673 76.6916 85.9148 76.2098 86.6217 75.946C87.3569 75.6822 88.2214 75.99 88.8516 75.7702C89.1667 75.6603 89.8999 75.0026 90.1887 74.8047C90.8714 74.3432 91.2633 74.6289 92.1823 74.4091C93.0467 74.1893 92.8387 73.9475 93.2831 73.3997C94.3051 72.1266 95.618 72.3903 96.0098 71.4672C96.3774 70.5677 97.6095 70.15 98.2922 69.3605C98.6861 68.9428 98.7386 68.2851 99.2092 67.9994C99.5243 67.8235 99.7606 67.8675 100.1 67.7136C100.257 67.6257 100.336 67.5598 100.441 67.4719C100.52 67.4059 100.625 67.362 100.835 67.318C103.824 66.7465 106.814 66.7245 109.908 67.1202C112.924 67.4939 112.086 67.0323 113.972 66.7905C115.178 66.6366 116.281 67.274 118.167 67.4279C119.741 67.5378 121.367 67.6477 122.809 67.4499C123.334 67.362 124.461 67.1422 124.96 67.1641C125.38 67.1861 127.19 67.1861 127.242 67.1861C128.03 67.34 130.494 67.8878 130.704 66.6366C129.892 66.0432 119.585 66.6806 116.228 66.219C113.919 65.9113 111.298 66.5267 107.602 65.7355C107.812 65.186 107.995 65.3178 108.545 65.0558C108.702 64.1563 108.282 63.9585 109.541 63.9145C112.189 63.8046 115.388 63.4529 117.985 63.4529C118.537 63.4529 119.401 63.7606 119.874 63.7167C120.242 63.6727 121.159 63.321 121.5 63.1672C122.261 62.8155 122.601 63.0793 123.52 62.9694C125.041 62.7935 124.647 62.2457 126.903 62.2457L128.949 62.0918C129.71 62.0479 130.286 62.2237 131.231 62.0918C132.122 61.96 132.28 61.894 132.884 61.5863C134.273 60.8187 137.683 61.5863 137.761 60.0934C137.026 59.7197 135.978 59.4999 134.956 59.4356L134.948 59.434ZM13.0076 58.9724C12.6137 58.6207 11.9068 58.6207 11.2504 58.7306C11.3816 58.9724 11.0403 59.3241 12.1411 59.2581C12.5875 59.2361 12.745 59.1482 13.0056 58.9724H13.0076ZM5.79484 5.63031C6.86939 5.45447 8.28527 5.01487 8.83668 4.48904C8.49533 4.26924 8.62662 4.24726 8.05098 4.44508C7.86717 4.51102 7.47331 4.73082 7.23901 4.84072C6.19073 5.28032 6.00693 4.59894 5.79686 5.63031H5.79484ZM0 11.9961C0.183803 13.0714 0.890738 12.5236 1.36337 12.2818C2.01981 11.9741 2.43791 12.2378 2.80552 11.6224C2.17534 10.1954 0.838223 11.6004 0.811965 11.6224C0.549389 11.7763 0.391844 11.7323 0 11.9961H0Z" fill="white"/>
</svg>
