<svg width="164" height="52" viewBox="0 0 164 52" fill="none" xmlns="http://www.w3.org/2000/svg">
<path fill-rule="evenodd" clip-rule="evenodd" d="M83.8363 48.3646C83.8654 47.9331 83.9819 47.8423 84.5642 47.7514C85.234 47.6833 85.5229 47.7514 85.5229 48.2057C85.1153 48.5918 84.4186 48.7962 83.8363 48.3646ZM89.5078 48.2511C89.3331 48.1148 89.3913 48.1148 89.2749 47.8877L89.7408 47.9558L89.5078 48.2511ZM87.6173 48.1602C87.0058 48.1375 86.6295 47.6152 86.4839 47.1627C87.0663 47.2762 87.5591 47.6396 87.6173 48.1602ZM95.325 46.4132C95.7035 46.1634 96.2546 46.1634 96.6914 46.2315C96.4293 46.9129 95.7618 46.822 95.325 46.4132ZM83.3726 46.0498C83.5182 46.2088 83.5182 46.0271 83.5473 46.3224C83.5764 46.5722 83.4308 46.5041 83.3726 46.5949C82.6737 46.3905 82.9067 46.0044 83.3726 46.0498ZM91.6604 45.959C91.5731 46.3905 91.3983 46.4813 90.8451 46.5949C90.6121 46.3905 90.583 46.3905 90.4374 46.118C90.8451 45.7092 91.1071 45.6183 91.6582 45.959H91.6604ZM69.8209 44.9387C70.0247 44.5526 70.896 44.5299 70.7213 45.0977C70.5175 45.6882 69.9642 45.1431 69.8209 44.9387ZM66.4766 43.5324C66.7969 42.851 67.1172 43.1236 67.9886 42.9419C69.0055 42.7375 69.122 42.7602 69.5005 43.3734C69.2676 43.8276 69.2093 43.8276 68.571 43.9866C67.9886 44.1456 68.0177 44.2364 67.4375 44.3727L66.4788 43.5341L66.4766 43.5324ZM73.2234 43.0554C73.3981 42.5558 73.9804 42.4195 74.3859 42.5331C74.182 42.8964 73.8617 43.2808 73.2234 43.0554ZM66.2145 40.6061C66.564 39.9474 66.8843 40.22 67.8138 40.1519C68.4836 40.0837 68.6001 39.8112 69.3841 39.8566C69.8791 39.902 70.634 40.1064 71.1581 39.9247C71.5949 39.7658 71.5949 39.4705 72.2333 39.2451C72.6701 39.2224 73.0486 39.9474 74.3568 40.6288C75.0265 40.9695 74.7644 40.6288 75.1139 41.1512C73.8057 41.9216 75.2595 40.7196 72.2938 41.3101C71.5658 41.4691 71.6823 41.4691 70.8109 41.5372C69.4737 41.6735 70.2868 42.5348 67.9326 41.1739C66.8283 40.5379 66.6827 41.242 66.2168 40.6061H66.2145ZM84.0423 36.4324C84.1297 35.8192 84.0714 35.662 84.7412 35.6166C84.9742 36.1162 84.6538 36.3416 84.0423 36.4324ZM62.9576 35.0261C64.2366 34.8444 63.6856 34.5264 64.6152 34.8671C64.4114 35.4349 64.557 35.2305 63.7999 35.3213C63.0427 35.4122 62.2296 35.8664 62.2588 35.1396L62.9576 35.0261ZM130.02 48.7036C130.864 48.6809 130.573 48.4992 131.503 48.7717C132.636 49.1124 132.811 49.1805 133.946 49.0215C134.063 48.9988 134.791 49.2714 135.225 49.3168C135.953 49.4076 135.779 49.3168 136.417 49.067C136.883 49.1124 137.376 49.2486 137.929 49.2941C139.703 49.4758 139.645 49.6347 140.807 49.8164L145.372 50.2707C145.926 50.3388 146.389 50.3842 146.913 50.4296C147.671 50.4978 147.671 50.6113 148.222 50.7022C148.804 50.7703 149.384 50.6795 149.966 50.7249C152.498 50.9066 152.236 50.5886 154.126 50.5659C155.143 50.5432 155.696 51.5407 158.431 49.1368C157.849 48.0484 158.257 48.887 158.286 47.8667L157.327 47.6169C157.298 47.0491 157.356 47.1627 157.647 46.7329C157.531 46.3014 157.356 46.1651 157.473 45.7581C157.88 44.488 159.945 45.3266 160.904 44.7605C160.7 43.7175 158.026 43.7857 157.968 42.8772C157.938 42.2867 158.666 42.582 159.13 42.582C159.594 42.582 159.8 42.3776 160.264 42.3776C160.875 42.3549 160.671 42.6501 161.513 42.2867C162.271 41.9461 162.414 41.4027 162.967 40.8577C164.421 39.4967 162.239 40.1326 162.038 39.2469C161.979 38.8381 162.329 38.9744 161.979 38.4992C161.688 38.0676 161.659 38.4764 161.63 37.7287C162.125 37.1836 162.416 37.4335 162.822 36.7085C162.938 35.8245 161.31 35.8699 163.025 34.916C164.858 33.9184 163.753 33.714 162.589 32.9191C160.174 31.2857 163.433 29.5177 161.659 28.8818C160.089 28.314 161.31 28.0886 161.339 27.5435C161.135 27.0666 160.785 27.0439 160.844 26.546C160.902 25.8873 161.861 25.5711 160.523 25.0942C158.837 24.5037 160.261 23.8922 160.261 23.0973C160.232 22.4841 159.912 22.7112 160.378 22.0544C160.785 21.4639 160.407 21.4866 160.669 21.0114C161.018 20.2864 162.064 20.6934 162.792 20.1274C162.53 18.9254 159.565 19.764 158.257 19.5142C157.587 19.3779 157.441 18.8119 157.181 18.3349C155.786 15.8629 156.774 16.7242 157.735 15.5676C157.589 15.1361 157.473 15.2724 157.502 14.7745C157.56 13.6407 158.055 13.8678 158.548 13.1864C158.897 12.6641 158.519 12.5732 158.519 12.1662C158.519 11.6211 158.926 11.8709 158.81 11.0323C158.752 10.5327 158.81 10.4873 158.781 9.96665C158.169 9.55784 158.257 9.71682 157.676 9.467C156.978 9.17175 157.414 9.01277 157.094 8.51487C156.686 7.85623 155.553 8.71927 154.65 7.63087C154.446 6.26993 155.174 5.92926 156.745 5.83841C157.791 5.77028 159.798 5.83841 159.652 4.61374C158.635 4.34121 157.412 4.47748 156.366 4.59103C156.162 4.61374 152.964 4.38663 151.772 4.47748C150.551 4.56832 148.544 4.70459 147.207 4.7273C143.95 4.79544 144.617 4.40934 142.846 4.20494C142.292 4.1368 141.596 4.18223 141.101 4.06867C140.2 3.86427 140.577 3.84156 139.531 3.79613C136.681 3.61444 138.484 3.18293 134.412 3.11479C133.772 3.09208 133.337 2.9331 132.609 2.9331C131.765 2.95581 132.143 3.18293 131.184 2.86497C130.835 2.75141 130.427 2.54701 130.08 2.45616C129.643 2.31989 129.294 2.31989 128.743 2.36532C127.898 2.43345 128.248 2.29718 127.377 2.25176L123.333 1.88838C123.13 1.88838 122.316 1.75211 121.967 1.75211C120.717 1.77482 120.077 1.88838 118.768 1.77482C118.157 1.70669 117.81 1.75211 117.227 1.7294C115.337 1.68397 114.087 1.36601 112.167 1.61584C112.08 1.63855 111.497 1.43415 111.179 1.43415C110.539 1.45686 110.539 1.70668 109.871 1.7294C109.434 1.75211 108.709 1.57042 108.388 1.59313L106.265 1.79753C105.566 1.82024 104.986 1.54771 104.316 1.54771C103.792 1.54771 103.792 1.63855 103.357 1.63855C101.583 1.59313 97.9189 1.25246 96.6107 1.32059C96.1157 1.3433 96.1157 1.52499 94.8076 1.52499C93.5868 1.52499 92.3055 1.7294 91.0847 1.66126C90.5315 1.61584 89.8931 1.47957 89.2525 1.50228L87.857 1.59313C87.6531 1.57042 87.1581 1.41144 86.9856 1.43415C85.4445 1.61584 79.2779 1.82024 77.8242 1.54771C76.8364 1.38873 75.5843 1.50228 74.5673 1.52499C73.2009 1.54771 71.6598 1.11619 70.2912 1.02534C69.8253 1.00263 69.4468 1.07077 69.0122 1.00263C68.0244 0.866363 67.1799 0.730094 66.3377 0.321289C65.4081 -0.132939 60.8117 -0.0875162 59.5327 0.344001C57.7296 0.934497 57.6713 0.571115 56.4797 0.684672C56.1885 0.707383 55.7226 0.866363 55.4045 0.866363H42.6367C40.8045 0.97992 31.2376 1.25246 30.7717 1.43415C29.9564 1.95651 30.5679 2.52255 29.6674 2.8178C28.3302 3.24931 26.4105 2.86322 25.015 3.2266C23.6486 3.56727 24.9277 3.99704 22.6295 3.92891C22.9207 4.54212 23.3283 4.61025 23.9376 5.01731C24.0541 6.46909 22.018 6.26469 22.0762 7.42122C22.7168 7.71647 22.8333 7.48936 23.2096 8.12353C22.7728 9.05295 22.1053 8.71403 21.1153 8.69132C20.1857 8.6686 18.5841 9.14554 18.3534 9.12283C16.5211 8.96385 9.48316 9.21368 8.64094 10.3248C8.17503 10.938 9.28157 11.6403 7.44929 11.8901C5.55876 12.14 4.27975 11.9356 3.28969 13.1829C2.21451 14.612 2.33099 13.6372 2.33099 15.337C2.33099 15.5187 1.92331 16.6071 1.22669 16.9705C-0.285283 16.5163 -0.43088 16.8342 0.964612 17.6064C1.60524 17.9471 1.25581 18.1061 2.12715 18.4677C3.90119 19.2154 3.63912 19.488 4.42534 20.1239C4.86213 20.4873 5.38405 20.3283 5.64612 20.9397C6.08291 22.0281 5.58788 22.8685 7.24545 23.1166C7.74048 23.2074 8.23327 23.4118 8.67006 23.6389C8.69918 23.7298 8.99037 25.1588 8.99037 25.1588C9.01949 25.5903 8.49534 26.0883 7.97343 26.1791C7.27457 26.1337 7.30369 25.9293 6.6653 26.0655C5.87908 26.2472 5.76484 26.1337 5.03685 26.2472C4.39623 26.3381 4.27975 26.6333 3.96167 26.815C3.49576 27.133 3.23369 26.9286 2.71178 26.9967C2.39146 28.5393 1.7822 28.017 3.17769 29.3325C3.09033 29.9911 2.18987 30.3073 3.14857 30.9205C3.90567 31.3975 4.48582 31.2385 4.71878 32.0317C4.07815 32.4859 3.99079 32.2815 3.6436 32.8929C3.93479 33.4607 4.05127 33.2336 4.28423 33.8905C4.57542 34.6836 4.48806 34.2993 5.12869 34.6382C6.14563 35.1833 4.77926 35.4541 5.79844 36.5669C6.61378 37.4282 5.85668 37.8143 7.33953 38.314C8.23999 38.6092 8.64766 39.0844 9.31741 39.5159C9.43389 40.5135 9.463 41.0586 9.98715 41.8971C10.1036 42.1243 10.8585 42.5558 11.5282 43.3716C12.1689 44.2102 13.1567 44.9597 13.4479 45.9799L14.9599 48.77C15.6878 49.3377 15.9477 49.3604 16.6465 50.1309C16.996 50.4943 17.1998 50.4716 17.7508 50.676C18.3332 50.8804 18.2459 51.0393 18.7095 51.1756C19.8721 51.5617 19.9594 50.8804 21.1533 51.9006L26.6211 51.9233C28.0457 51.9233 27.9001 52.0596 30.0527 51.9688C30.6351 51.9234 31.0987 51.7644 31.5355 51.7644C32.3218 51.7189 34.0376 51.9006 34.7924 51.8779L49.1595 51.2874C50.1182 51.2647 51.3412 51.4691 52.1252 51.1512C52.6785 50.924 52.5329 50.8559 53.2877 50.6742C54.5959 50.3336 57.127 50.9013 58.0275 49.9929C58.8428 50.0837 60.7311 50.3108 61.6338 50.061C62.0706 49.9247 61.8668 49.7658 62.4783 49.7658C63.6117 49.7658 64.0485 50.0837 64.8347 50.0837C65.8225 50.0837 65.388 49.9702 66.0264 49.8112C66.6088 49.6749 66.7544 49.8339 67.1598 49.8339C67.8586 49.8566 68.235 49.3115 69.458 49.5841C70.5914 49.8339 70.0695 49.902 71.3194 49.4251C72.5693 48.9482 72.6566 49.198 73.5593 48.9709C74.9548 48.5621 74.3164 48.9709 75.4499 49.2661L76.1487 48.8573C77.1365 49.1298 78.1848 49.6732 79.1727 48.5621L78.9397 47.8597C79.755 47.9279 79.2309 48.473 80.3061 48.88C80.6555 48.6983 80.539 48.7665 80.8011 48.5393C80.6555 48.3122 79.6677 47.3601 81.0632 47.5418C81.5873 47.6099 82.4004 48.1777 82.5752 48.3804C82.1966 49.0617 81.9345 48.6075 82.051 49.2189C82.8663 49.1962 82.6043 48.9237 83.4465 48.742C86.0359 49.8758 84.4926 49.7623 86.5578 48.9918C87.7203 49.4006 86.7325 49.6505 88.0698 49.6505C88.9411 49.6505 88.7104 50.1955 89.6982 50.1728C90.0185 50.1728 90.2515 49.923 90.6569 49.9003C91.414 49.8322 91.0355 50.082 91.7612 49.9911C92.198 49.9457 92.3145 49.764 92.7782 49.7413C93.2732 49.7186 93.1858 49.8322 93.6786 49.7867C93.8533 49.1508 93.2127 49.3325 93.533 48.6983C93.6786 48.4031 95.6856 47.3601 95.7439 47.3374C96.3554 47.2011 96.5301 47.4509 97.1394 47.5418C97.7217 47.2465 97.78 46.9286 98.2728 46.7486C99.9012 47.9052 98.6804 47.9279 103.362 47.8597C104.466 47.837 104.148 47.7462 104.874 47.5872C105.398 47.4737 105.949 47.5872 106.415 47.4737C106.59 47.4282 107.752 46.7259 109.381 47.0649C109.148 47.9943 108.74 47.133 108.769 47.9716C109.641 48.1987 110.514 47.6309 111.997 47.7444C112.841 47.7899 112.956 47.5855 113.655 47.6536C115.37 47.8126 113.858 48.2668 117.494 47.6763L122.874 48.0851C125.665 48.3349 126.044 48.2441 128.546 48.3577C129.303 48.3804 128.866 48.6983 130.029 48.6983L130.02 48.7036Z" fill="black"/>
</svg>
