<svg width="106" height="61" viewBox="0 0 106 61" fill="none" xmlns="http://www.w3.org/2000/svg">
<path fill-rule="evenodd" clip-rule="evenodd" d="M13.8216 6.53429C13.8727 6.19987 13.8523 6.25561 13.9852 6.11626L14.067 6.42282C13.9954 6.98019 14.0772 6.64577 13.9136 6.78511L13.8216 6.53429ZM96.0842 22.4837C96.2171 22.0657 96.1762 22.4837 96.1864 22.4837C96.2171 22.9017 96.1864 22.7624 96.074 22.7345C96.074 22.623 95.9615 22.9296 96.0842 22.4837ZM7.43915 16.2476C7.21421 16.0246 7.06163 15.6623 6.81624 15.5787C6.52995 15.4394 6.36715 15.4951 6.32625 14.7169C6.55119 14.2432 6.53074 14.6055 6.82646 14.8563C7.14264 14.6612 7.04118 14.5497 7.40847 14.5776C7.63341 14.5776 7.76555 14.494 7.98026 14.4661C8.5316 14.3268 8.74631 14.5776 8.99092 15.3279C9.50135 15.4115 10.0629 15.4115 10.5128 15.6066C10.9312 15.8017 11.595 15.2443 11.7075 16.3033C11.5541 16.7492 11.6257 16.5541 11.3811 16.6656C9.85921 17.4995 10.9013 16.7492 9.60439 16.9443C9.22687 17 9.17574 16.7492 8.92013 16.6377C8.53238 16.4705 8.19498 17 7.43915 16.2476ZM89.1197 26.5739C89.0788 27.4357 88.6911 27.6029 88.6502 26.6854C88.7933 26.3789 88.916 26.3231 89.1197 26.5739ZM84.8309 33.8669C84.9229 33.644 84.9741 33.3932 85.1172 33.8948C85.0968 34.0899 84.9638 34.3686 84.8309 33.8669ZM11.7484 39.1555C11.8915 38.7654 11.912 38.8768 12.004 39.3785C11.7995 39.3785 11.9018 39.5457 11.7484 39.1555ZM46.4158 49.1475C46.5181 49.6491 46.3851 49.5655 46.3851 49.5655C46.3851 49.5655 46.334 50.0393 46.0383 49.4819C46.0792 48.5365 46.3647 48.8967 46.4158 49.1475ZM28.3113 58.194C28.1989 59.3903 27.4328 60.7815 28.5874 60.1427L30.4152 59.7525C31.0688 59.8362 32.4987 58.9722 32.9478 59.5853C33.1114 59.2788 33.0193 59.3066 33.234 59.2788C33.2749 59.6689 33.234 59.9755 33.3567 60.1406C33.551 60.3914 33.4385 59.9176 33.724 60.0848C33.857 60.1684 33.8774 60.3914 34.0607 60.3635C34.4382 60.3356 34.8574 60.0848 35.1736 59.7783C35.4795 59.4717 35.7147 59.8061 36.0112 59.6111L38.3495 58.7214C38.6153 58.6099 38.8701 58.6935 38.9519 58.0526C38.727 58.0247 38.5948 58.1083 38.421 57.8018C38.4926 57.328 38.3188 57.7181 38.5642 57.3837C39.0542 56.687 39.2791 56.9936 39.6464 56.8263C40.2898 56.5477 41.0047 56.91 41.5969 56.1018C41.9131 55.6559 42.363 56.4919 42.6894 55.405C42.8836 54.7919 42.6076 54.3482 42.3323 54.3203C42.1176 54.2925 41.0967 54.9056 41.5458 53.4864C41.6583 53.1241 41.7196 52.6503 41.8116 52.4574C41.9241 52.2066 42.0468 52.2902 42.2403 51.9558C42.945 50.676 43.1086 52.2066 43.792 51.8164C43.9761 51.705 44.1491 51.6214 44.282 51.482C44.4456 51.2591 44.5274 50.9246 44.7414 51.064C45.4052 51.4541 46.0485 50.8132 46.5896 50.3115C46.7737 50.1443 46.8043 50.3951 46.9876 50.5066C47.1512 50.2837 47.2023 50.0328 47.3549 49.9771C47.6207 49.8935 47.5492 50.2558 47.804 50.005C47.9983 49.782 47.9676 49.5312 48.1815 49.6427C48.5284 49.8378 48.2633 49.6984 48.559 49.7542C48.8351 49.782 48.6408 50.0886 48.9468 49.9771C49.0388 49.9492 49.1513 49.7542 49.2433 49.6706C49.4887 49.5033 49.4682 50.1165 49.8355 50.0607L49.9582 49.2525C49.6924 49.1689 48.8146 49.0574 48.6306 48.8345C48.6408 47.9448 48.7124 47.917 49.0593 47.8334C49.8764 47.6383 49.6106 47.3039 50.2437 48.2793C50.6621 47.9448 51.1529 47.3618 51.6122 47.9727V48.4743C51.204 49.1989 50.5709 47.8612 50.4687 49.3361C50.6629 49.6148 51.8985 49.0853 52.2454 49.1132C52.3885 49.141 52.3783 49.2525 52.5214 49.2804C52.8785 49.3083 53.3386 48.8902 53.7366 48.946C54.0229 48.9738 54.0425 48.8624 54.2879 49.2525C54.5231 49.6427 55.0949 49.3361 55.6769 49.6427C55.8098 49.7263 55.912 49.2804 56.1464 49.364C56.3305 49.4197 56.3202 49.7263 56.5444 49.7542C57.1059 49.8099 57.0139 49.4755 57.3616 49.4197C57.6675 49.3361 57.4638 49.4755 57.6479 49.5591C57.791 49.6148 57.791 49.4755 57.9239 49.5591C58.3935 49.782 58.5877 49.5591 58.782 49.6427C60.0585 50.1165 61.1816 49.7542 62.3967 50.2001C62.7129 50.3115 63.0503 50.0886 63.3665 50.1722C64.2552 50.423 63.6426 50.2558 64.2246 50.1722L66.6446 50.3394C66.9309 50.3951 66.9813 51.0082 67.3084 50.3673C67.6962 49.5869 68.1052 49.4776 68.6258 49.0317L70.0659 48.9481C70.342 49.0317 70.3113 48.7252 70.5252 48.4743C70.7502 48.5858 70.8721 48.9202 71.0766 48.4743C71.2504 48.0842 71.1788 47.8891 71.495 47.7219C71.8419 47.5268 72.3224 47.6662 72.7204 47.6383C72.9044 47.6383 73.0979 47.4989 73.3433 47.4711C73.5682 47.4153 73.7412 47.4711 73.9866 47.4432C74.3642 47.4153 74.2116 47.0809 74.3948 46.7186C74.6913 46.1613 74.7417 47.4711 75.3748 46.4957C75.6406 46.1055 75.6713 46.3842 75.8852 46.0498C76.0182 45.8547 75.8955 45.9104 76.1 45.7154C76.5695 45.2973 76.3351 44.935 76.7229 44.8257C77.7847 44.4913 77.846 44.7978 78.5609 44.6585C78.6734 44.6306 78.9589 44.4913 79.0816 44.5192C79.1327 44.5192 79.2452 44.7421 79.3577 44.7421C79.6337 44.7421 79.9806 44.3798 80.2362 44.4077C80.4407 44.4355 80.8795 44.8814 80.8898 44.3241C80.7568 44.1011 80.4509 43.9618 80.0726 43.906C79.6439 43.8782 79.4292 43.5438 79.0415 43.5438C78.2039 43.5995 78.5208 43.3765 77.7241 43.07C77.4276 42.9585 77.0092 42.9585 76.7441 42.6798C76.7134 40.9541 78.3061 42.2061 78.6333 41.7344C78.531 40.8984 77.3875 42.0689 77.2648 40.7891C77.5511 40.1202 78.8165 40.371 79.2664 40.5382C79.6848 40.7054 79.6951 40.4546 79.9609 40.4825C80.1654 40.5104 80.1552 40.7612 80.41 40.7054C80.5531 40.7054 80.5531 40.5661 80.7568 40.5661C81.1037 40.6218 81.2877 41.2071 81.574 40.5382C81.4922 40.0087 81.6149 40.2596 81.39 40.0645L80.1442 39.4514C79.8579 39.3678 79.8382 39.4514 79.828 38.7825C80.0734 38.4202 80.2873 38.8383 80.6452 38.5874C81.2374 38.1973 82.0239 38.894 82.2276 38.0858C82.156 37.2776 82.1049 37.4448 81.8296 37.5563C81.5032 37.6956 81.5032 37.2497 81.2681 37.2219C80.8292 37.1661 80.5429 38.0022 80.3188 36.9153C80.5437 35.9699 81.2476 36.6366 81.6055 36.5252C81.8304 36.4416 81.9421 35.8563 82.1773 35.8006C82.392 35.7448 82.4431 36.3301 82.7184 36.553C82.9842 36.3022 83.1163 35.6913 83.5356 35.717L85.5474 35.8284C86.2215 35.9121 85.9658 35.4104 86.3032 34.9109C86.4975 34.6322 86.5589 34.8831 86.7626 34.688C87.2935 34.1027 86.3544 32.9344 88.0595 33.1852C88.3757 33.241 88.3961 33.3524 88.4677 32.7115C88.3552 32.5442 88.3961 32.6 88.2428 32.5442L88.0178 32.3492C88.1712 31.9311 88.6203 32.0705 88.8759 31.7361C88.8145 31.3459 88.9372 31.4574 88.7327 31.3738C88.651 31.3738 88.7021 31.4852 88.5487 31.4574L87.6199 30.6213C87.1094 29.8689 87.5278 30.0361 86.7924 29.9525L86.2616 29.7017C86.1082 29.618 85.965 29.6459 85.8125 29.618C85.7 29.5623 85.5466 29.423 85.4247 29.3115C85.2305 29.1443 85.3225 29.2836 85.1998 28.9213C85.4043 27.6415 85.6284 28.2246 86.0067 28.2246C86.1396 28.1967 86.201 28.0853 86.3638 28.0574L86.6399 28.5033C86.875 28.364 86.9458 27.9738 87.2423 28.2804C87.4468 28.4754 87.5892 28.6705 87.7834 28.8935C88.1916 28.5033 88.0799 28.0038 88.662 28.0574C89.2235 28.1131 89.3155 27.4164 89.6419 27.4722C90.1728 27.5279 89.9786 27.5279 90.3773 26.9148C90.8162 26.2459 90.9082 27.6951 90.9287 25.8022C91.3982 25.3563 91.082 24.7732 91.9802 25.2727C92.1847 25.3842 92.2665 24.8268 92.552 24.8547C93.1647 24.9383 92.9704 25.1891 93.5933 25.0776C93.9606 24.994 95.0845 25.635 95.2678 24.4366C95.1758 23.9629 95.1451 23.9907 94.9312 23.9629L92.8579 23.6006C92.6432 23.5727 92.4907 23.6563 92.3475 23.6563C92.2044 23.6284 92.0817 23.517 91.8882 23.4891C91.572 23.4334 91.2653 23.7121 91.0608 23.1547C91.1733 22.8481 91.2551 22.8203 91.4997 22.8481C92.5103 22.9875 92.7966 23.1826 93.8482 23.1268C94.3995 23.0989 94.9406 23.3219 95.5124 23.3219C95.768 23.3219 95.9513 23.2662 96.258 23.294L96.8911 23.3776C96.9832 23.3776 97.4834 23.3498 97.2073 22.9039C97.0437 22.6252 96.4924 23.294 96.7991 22.1235C97.0547 22.1514 97.0138 22.3186 97.1869 22.3465L98.1668 22.2629C98.4327 22.3186 98.31 22.6252 98.6568 22.4301C99.1161 22.1793 100.138 22.3465 100.638 22.4022C100.935 22.4301 100.873 22.5137 101.016 22.0957C100.954 21.8727 100.975 21.8449 100.862 21.6776L100.647 21.3154C100.77 21.1203 101.465 21.1481 101.638 21.2039L102.496 21.3154C102.721 21.3154 102.822 21.5383 103.006 21.594C103.466 21.7891 103.966 21.7055 104.436 21.7891C104.762 21.817 105.876 22.7345 105.876 21.6219C105.631 21.3711 105.61 21.5662 105.386 21.2039C104.855 20.2864 104.886 20.5629 104.579 20.4793C104.436 20.4236 104.334 20.117 104.12 20.0891C103.936 20.0613 103.967 20.2006 103.783 20.117C103.722 20.0613 103.681 19.9777 103.548 19.9219C103.303 19.8105 103.222 19.9219 102.976 19.699C102.67 19.4482 102.802 19.8105 102.548 19.7268C102.364 19.699 102.201 19.5039 102.007 19.476C101.782 19.4482 101.833 19.9498 101.517 19.476C100.781 18.3634 101.078 19.0301 100.516 19.5318C100.301 19.2252 100.342 19.058 100.149 18.8351C99.8122 18.417 99.8122 18.8351 99.5464 18.7236L98.1165 18.4449C97.8507 18.4449 97.2993 18.1105 97.0343 18.0547C96.3603 17.9433 96.575 18.1941 96.1864 17.1651L95.8396 17.1929C95.7067 16.8307 95.6658 16.6077 95.503 16.3569C94.8494 16.7192 95.1962 16.1618 94.6449 15.7717C93.4195 14.9377 93.1136 15.688 92.8988 15.493C92.6739 15.3258 92.6841 14.9913 92.368 14.9077C91.3778 14.7126 91.8882 14.1831 91.4187 13.5164C91.0718 13.4607 89.8362 13.1542 89.5908 12.7919C89.6931 11.512 90.6628 11.9579 91.0309 11.6793C91.2661 11.5399 91.2865 11.735 91.5005 11.7629C91.797 11.7907 91.9291 11.9858 92.1438 11.3727C92.0416 9.61913 91.0923 10.1765 90.7446 9.92568C90.3262 9.61913 88.6612 9.39618 88.1507 9.34044C87.2722 9.25684 87.0378 8.7552 86.7822 8.72733L86.1491 8.7552C85.4648 8.6716 85.3626 7.61474 84.9033 7.559C84.6988 7.53113 84.5258 7.69834 84.3315 7.58687C84.0051 7.44752 83.8619 7.6426 83.545 7.19671L82.6264 6.16771C82.4628 5.88903 82.5343 5.74968 82.2897 5.471L78.8181 4.99723C78.6954 5.0251 78.6954 5.16444 78.5122 5.13658L76.3878 4.77428C75.9592 4.71855 75.1011 4.9415 74.8156 4.32839C74.877 3.32726 74.9588 3.99396 74.9485 3.24366L73.9992 3.07644C73.8663 3.07644 73.8356 3.16005 73.7129 3.13218C73.5289 3.10431 73.4369 2.8535 73.2536 2.74202C73.09 2.68628 72.8659 2.63055 72.7023 2.4912C72.5182 2.32399 72.5182 2.12891 72.2941 1.9617C72.0589 2.29612 72.1305 2.43547 71.8654 2.63055C71.4572 1.57369 71.6507 2.26826 71.2834 1.98957C71.038 1.79449 71.1505 1.68302 70.7525 1.62728C69.7726 1.5158 70.1603 1.32072 69.0372 1.4322C68.7611 1.4322 68.4654 1.15351 68.22 1.32072C68.0666 1.40433 67.9644 1.57154 67.7709 1.46007C67.4547 1.23712 67.3525 0.486811 66.964 0.846959C66.5353 1.20925 66.4535 1.06991 66.0146 1.12564C65.2281 1.26499 64.9529 0.568273 64.6155 1.85023C64.1459 1.73875 63.7676 0.626154 63.4412 0.70976C63.3288 1.8781 63.3696 1.65515 62.8797 1.62728C62.4203 1.62728 62.624 1.85023 62.1954 1.20925C61.9398 1.29286 61.9807 1.40433 61.6645 1.34859L61.3987 0.679747C61.0109 0.958433 61.2351 1.09778 60.9905 1.54153C60.7042 1.653 60.4085 1.09563 60.0718 1.06776C59.8776 1.0399 59.6125 1.1235 59.3262 1.09563L58.6522 1.20711C57.7029 1.06776 57.3859 1.5694 57.3144 1.5694L56.0686 1.34645C55.7524 1.45792 55.4047 1.68087 55.0681 1.653C54.7519 1.62514 54.5986 1.59727 54.3123 1.68087C54.0669 1.76448 53.8121 1.62514 53.5769 1.59727L52.1982 1.68087C52.0448 1.68087 51.9732 1.43006 51.8104 1.45792C51.79 1.45792 51.4534 1.62514 51.4227 1.653C50.9327 1.93169 49.7176 0.401062 49.1867 1.79235C48.9924 1.68087 48.972 1.54153 48.8194 1.5694C48.6149 1.59727 48.8398 1.82022 48.5032 1.54153L47.3494 0.289587C47.2369 0.289587 46.8492 0.42893 46.6754 0.484667C46.2263 0.62401 46.3592 0.902696 46.1036 1.04204C45.9604 1.09778 45.5829 1.04204 45.4193 1.09778C42.9277 1.71088 43.5506 0.512536 43.0811 0.261719C42.7948 0.289587 42.9175 0.373193 42.7342 0.679747C42.3465 1.34859 41.4986 1.09778 41.0597 1.06991C40.7436 1.01417 40.4879 1.48794 40.3346 1.40433C38.9967 0.62401 39.6708 1.29286 38.874 1.40433C38.2 1.46007 38.6184 1.62728 37.7816 1.34859C37.7509 1.32072 37.2712 1.20925 37.2712 1.18138L36.9243 1.26499C36.5263 1.37646 35.4536 1.09778 35.0351 1.04204L34.1063 1.18138C33.7901 1.18138 33.7492 0.958433 33.5038 1.37646C33.2482 1.82236 33.2789 1.54367 32.9934 1.85023C32.8196 2.04531 32.7991 2.32399 32.5954 2.63055C32.1872 2.4912 31.2678 2.68628 30.8903 2.96497C30.7062 3.10431 30.7165 3.04858 30.523 3.16005C30.3492 3.24366 30.3287 3.41087 30.1659 3.41087C29.5532 3.43874 30.1557 2.68628 28.5732 3.27152C27.8379 3.52234 26.817 3.18792 26.102 3.43874C25.7859 3.55021 25.9998 3.383 25.745 3.32726C25.5098 3.27152 25.6427 3.49447 25.3777 3.41087C24.6116 3.10431 23.8259 3.27152 23.0496 3.18792C22.8145 3.16005 22.5392 2.90923 22.304 2.8535C21.7731 2.71415 21.1809 2.76989 20.6602 2.4076C20.5273 2.32399 18.1891 1.71088 18.1073 1.93383C17.8107 2.76775 18.8938 2.65842 18.9756 2.71415C19.18 2.76989 19.3633 3.10431 19.5473 3.10431L20.4463 3.13218C20.5281 3.16005 20.6508 3.32726 20.7523 3.32726C21.9776 3.57808 21.3445 3.66168 21.947 4.16332C22.2128 4.38627 22.3858 4.16332 22.3756 4.99723C22.1916 5.30379 22.0893 5.13658 21.8754 5.10871C21.2014 5.05297 21.1298 4.83002 20.8954 4.80215C20.7011 4.77428 20.2827 4.85789 20.0987 4.83002H20.0373C19.9862 4.83002 19.5269 4.60707 19.4451 4.55134C19.0471 4.21691 19.2202 4.60707 18.9551 4.55134C18.6893 4.4956 19.0267 4.30052 18.3833 4.24478C18.1891 4.21691 17.9445 3.99396 17.8115 3.9661L16.0144 3.82675C15.8508 3.68741 15.9428 3.63167 15.688 3.6038C15.2082 3.54807 15.1878 3.68741 15.0446 4.10544C14.6671 5.19017 13.8397 4.69068 13.319 4.60707C13.0941 4.5792 13.0225 4.32839 12.8188 4.35626C12.1857 4.52347 11.6752 4.10544 11.4708 4.96936C11.573 5.94262 12.0016 5.41526 12.2879 5.80328L12.3186 6.36065C12.063 6.69507 11.8695 6.27704 11.6241 6.33278C11.4299 6.36065 11.3583 6.6672 10.991 6.69507L9.72472 6.6672C9.41799 6.63934 9.35743 6.97376 9.09159 6.94589C8.08093 6.83441 7.90712 7.53113 7.41713 7.44752C7.02938 7.41965 6.84534 7.69834 6.56928 7.559C6.33411 7.44752 6.44658 7.44752 6.19176 7.559C5.72221 7.75408 5.12998 7.08523 4.70055 7.78195L4.71077 8.5344C4.94594 9.0639 5.05762 8.50653 5.44615 8.42292C5.75289 8.36719 6.00771 8.19998 6.26333 8.36719C6.47804 8.50653 6.51894 8.67374 6.65107 8.75735C6.82489 8.84095 6.88624 8.67374 7.02859 8.72948C8.02902 9.11964 8.22329 8.50653 8.71328 8.81308C8.87687 8.92456 8.92799 9.14751 9.08058 9.28685L9.80573 10.0393C9.96932 10.2901 9.93865 10.2065 10.1022 10.5131C10.409 11.0704 10.5922 10.7081 10.8478 11.154C10.7149 12.0158 10.2352 11.5163 9.93865 11.4049L8.78485 11.2934C7.19219 11.4606 7.70263 11.154 7.35499 11.0983C7.2323 11.0983 7.17095 11.2655 7.04904 11.2655C6.78321 11.3213 6.43636 11.0704 6.1603 10.9032C5.793 10.6524 5.91491 10.7639 5.57828 10.8196C4.80201 10.9311 4.89403 9.65129 4.67931 9.51194C4.34269 9.56768 4.51572 10.0136 4.0973 10.1808C3.61754 10.348 3.78113 10.2087 3.46417 10.766C3.49484 12.5196 3.229 11.795 3.21878 12.6032C3.20855 13.1884 3.30058 13.0491 3.37215 13.7158C3.21878 14.7169 2.97418 14.4125 2.67767 14.9956C2.49362 15.3858 2.59587 15.5251 2.38115 15.7759C2.23801 15.9153 2.11532 15.8595 1.98318 16.0268C1.80937 16.2776 1.47275 17 1.22736 17.0836C0.951294 17.1951 0.553325 16.9443 0.532876 18.0847V18.2241C0.522651 18.7257 0.635121 18.9208 0.737366 19.1416L1.31938 19.0859C1.61589 18.3055 2.02408 18.4449 2.35048 17.7782C2.59587 17.2766 2.59587 17.4159 2.95294 17.3044C3.14721 17.2487 3.46338 17.0257 3.58608 17.0257C3.69854 17.0536 3.9227 17.2487 4.09652 17.2766L5.16852 17.1651C5.93457 16.9421 5.92434 17.4438 6.20984 17.4159C6.47568 17.4159 7.53746 16.8864 7.70105 17.8339C7.33376 18.6142 6.50636 17.4995 6.48591 19.3646C6.7313 19.5875 7.42499 19.7268 7.73173 19.7547C8.01801 19.8105 8.06835 19.9219 8.33419 19.8941C8.92642 19.7547 11.061 20.0891 11.3976 20.4236C11.2545 21.1481 11.1624 20.6186 10.5907 20.7022C10.3964 20.7301 10.254 20.8416 10.07 20.8695C9.68225 20.8973 9.23237 20.8973 9.28349 22.0099C9.45731 22.0935 9.43686 21.9821 9.65079 21.8984C9.93708 22.3165 9.87573 22.5673 10.2635 22.5116C11.315 22.3443 11.3866 22.4837 12.3469 22.5673L12.9698 22.7345C13.3269 22.846 13.7359 22.5394 14.0316 23.0411C14.3478 23.5706 14.8181 23.4591 15.1445 23.4034C15.614 23.3476 16.5335 23.7378 16.9826 23.905C19.0149 24.7132 18.9433 23.9329 19.556 24.0722C19.8423 24.1279 20.0971 24.7689 20.4038 24.7968C21.1085 24.8804 21.037 23.7121 21.6292 25.77C22.017 25.8258 22.2828 25.1012 22.7012 25.2963L22.8035 25.7143C22.5887 26.799 22.4259 26.2159 22.0067 26.4946C21.7511 26.634 21.4861 27.1077 21.1896 26.9405C20.7711 26.6618 20.72 26.9963 20.311 26.9405C20.0861 26.8848 20.0656 26.7176 19.9028 26.6618C19.6575 26.5504 19.7086 26.8569 19.5151 26.829C19.2186 26.8012 18.5453 25.6328 18.2182 25.6607C17.8406 25.6607 17.9216 25.9394 17.5032 25.8001C17.2067 25.7164 17.1053 26.1902 16.819 26.1623C16.5028 26.1066 16.6145 25.7722 16.3392 25.8279C16.023 25.8837 15.2774 25.382 14.767 25.3263C14.3792 25.2705 13.96 25.2427 13.6132 25.2427C13.3269 25.2427 13.3167 25.2427 13.0516 25.4099C12.8165 25.5214 12.8983 25.2148 12.6434 25.1869C12.5719 25.1869 12.531 25.3263 12.317 25.2148L11.3268 24.9083C10.9493 24.8804 10.398 25.382 10.0606 25.2984C9.35585 25.1033 9.34563 24.2973 9.10103 24.0743C8.90676 24.0465 8.45767 24.576 8.39632 24.7711C8.21228 25.3284 8.39632 26.1066 8.72272 26.1345C8.94766 26.1623 9.14114 26.023 9.35585 26.1623C9.43765 26.2181 9.52967 26.3853 9.60124 26.441C10.1321 26.7476 11.2859 26.1345 12.1644 26.5525C12.2974 26.6082 12.3792 26.4968 12.5113 26.4968C12.6135 26.5246 12.6647 26.6082 12.7976 26.6361C13.1547 26.664 13.4103 26.4132 14.0332 26.6082C15.0234 26.8869 15.0745 26.6918 16.0246 27.3328C16.2291 27.4722 16.4123 27.3328 16.5964 27.3886C17.2295 27.6394 17.6684 26.9705 17.74 28.1131C17.5764 28.4197 17.1477 28.6705 16.9535 28.6148C16.6066 28.559 16.8103 27.8902 16.2897 28.1131C16.0852 28.2246 15.6361 28.3082 15.4316 28.2246C14.9825 28.0295 15.0132 28.4197 14.6042 28.364C14.2267 28.3361 14.3179 27.6951 13.5833 27.7787C12.8888 27.8623 12.8172 28.6962 12.807 30.1454C12.9604 30.2847 13.1334 30.3126 13.2766 30.6192C13.5015 31.1208 13.3993 31.0651 13.7666 31.0929C13.7154 31.7618 13.8075 31.2044 13.6541 31.5946C13.5518 31.8454 13.5825 31.6503 13.5109 32.0683C13.8271 32.7929 14.0623 32.57 14.5114 32.9301C14.6341 33.6826 14.3785 34.0984 14.7568 34.7394C14.8181 34.8509 15.4921 35.3247 15.533 35.3247C15.8193 35.3525 16.023 34.7394 16.1559 35.6034C15.7886 36.911 14.1236 34.3793 13.603 35.7984C13.2561 35.687 13.1539 35.464 12.7653 35.464L11.2844 36.0214C11.0185 36.2165 10.8966 36.2165 10.8148 36.8296C10.9273 37.3312 11.1208 37.3312 11.2128 37.7471C11.7846 40.5575 10.7944 39.5285 10.3343 39.3335C10.1195 39.222 9.92607 39.5843 9.7318 39.7236C9.22136 40.0859 8.97597 40.1138 8.73137 41.2821C8.77227 41.6165 8.81317 42.4783 8.91541 42.7291C9.28271 43.5095 9.75304 43.0078 9.88517 43.0357C9.90562 43.0357 10.151 43.3701 10.3343 43.4537C10.5183 43.5373 10.6001 43.4537 10.7527 43.7324C10.6504 45.0401 10.1604 44.1226 9.85371 44.5127C9.94573 45.0144 9.81281 44.9029 10.1502 44.9586C10.457 44.9865 10.4467 44.7914 10.7936 45.0701C11.4165 45.5717 11.886 45.3488 11.886 46.3499C11.7122 46.6565 10.8038 46.7679 10.5789 46.7679C10.2824 46.7958 10.2218 46.9909 9.96618 47.1581L9.31259 47.2974C9.13878 47.5204 9.1899 47.3253 9.09788 47.9105C8.99563 49.3297 9.69011 49.2182 10.0165 49.1904C11.1908 49.1625 10.3233 49.3018 10.9359 49.7199C11.3135 49.9707 11.4566 48.9953 11.7838 49.9428C11.702 51.6685 11.12 51.1669 10.5891 51.5013L10.5686 52.1423C10.6095 52.6161 10.9155 52.8669 11.0893 52.8111C11.5486 52.6718 12.6104 51.7264 12.9683 51.7821C13.2136 51.81 13.2443 52.0051 13.4173 52.033C13.5196 52.0608 13.6525 51.9493 13.8255 51.9772C14.2031 52.0887 14.0403 52.5067 14.6325 52.4231C14.9998 53.3406 14.6018 53.5078 14.8677 54.0931C15.1838 54.7898 15.817 54.8455 16.2055 55.1778C16.5421 55.4565 16.7875 55.6795 17.0533 55.4844C17.4718 55.1778 17.4206 55.9581 17.8398 56.0139C18.5855 56.0975 18.2787 55.5958 18.7081 54.3439C18.882 54.3718 19.055 54.4832 19.1879 54.4832C19.3311 54.4554 19.3617 54.3439 19.5348 54.316C20.4133 54.2324 20.2292 54.3718 20.9033 54.5947C21.1691 54.7062 21.3217 54.4832 21.5978 54.4275C22.0775 54.3718 23.3438 53.9259 23.671 54.121C23.855 54.3996 23.855 54.4832 24.028 54.8177C25.0489 56.7106 25.2636 55.7909 26.2845 55.9303C26.7234 56.0139 26.6518 56.4319 26.887 56.9593C26.9994 57.2101 27.071 57.2379 27.2031 57.5166C27.5909 58.3248 27.7647 58.1297 28.316 58.1855L28.3113 58.194Z" fill="black"/>
</svg>
