<svg width="32" height="32" viewBox="0 0 32 32" fill="none" xmlns="http://www.w3.org/2000/svg">
<g clip-path="url(#clip0_63_2)">
<path d="M16 0C12.8355 0 9.74207 0.938384 7.11088 2.69649C4.4797 4.45459 2.42894 6.95345 1.21793 9.87707C0.00693262 12.8007 -0.309921 16.0177 0.307443 19.1214C0.924806 22.2251 2.44866 25.0761 4.6863 27.3137C6.92394 29.5513 9.77487 31.0752 12.8786 31.6926C15.9823 32.3099 19.1993 31.9931 22.1229 30.7821C25.0466 29.5711 27.5454 27.5203 29.3035 24.8891C31.0616 22.2579 32 19.1645 32 16C32 11.7565 30.3143 7.68687 27.3137 4.68629C24.3131 1.68571 20.2435 0 16 0Z" fill="black"/>
<path d="M22.9419 9.33997C21.6279 8.70497 20.2407 8.25448 18.8158 8C18.6208 8.36793 18.4443 8.74649 18.2872 9.13408C16.7694 8.89266 15.2258 8.89266 13.708 9.13408C13.5508 8.74653 13.3744 8.36798 13.1795 8C11.7536 8.25662 10.3655 8.70819 9.05016 9.3433C6.43887 13.4213 5.73099 17.3981 6.08493 21.3184C7.61417 22.511 9.32582 23.418 11.1455 24C11.5552 23.4183 11.9178 22.8012 12.2293 22.1553C11.6376 21.922 11.0665 21.6342 10.5225 21.2951C10.6657 21.1856 10.8057 21.0726 10.941 20.9631C12.5236 21.7487 14.251 22.156 16 22.156C17.7489 22.156 19.4763 21.7487 21.0589 20.9631C21.1958 21.0809 21.3358 21.1939 21.4774 21.2951C20.9324 21.6347 20.3602 21.9231 19.7675 22.1569C20.0786 22.8026 20.4412 23.4192 20.8513 24C22.6725 23.4204 24.3855 22.5138 25.915 21.32C26.3303 16.7738 25.2055 12.8335 22.9419 9.33997ZM12.6776 18.9074C11.6913 18.9074 10.8765 17.9626 10.8765 16.8003C10.8765 15.638 11.663 14.6849 12.6745 14.6849C13.686 14.6849 14.4945 15.638 14.4772 16.8003C14.4599 17.9626 13.6828 18.9074 12.6776 18.9074ZM19.3223 18.9074C18.3344 18.9074 17.5227 17.9626 17.5227 16.8003C17.5227 15.638 18.3092 14.6849 19.3223 14.6849C20.3353 14.6849 21.1376 15.638 21.1203 16.8003C21.103 17.9626 20.3275 18.9074 19.3223 18.9074Z" fill="white"/>
</g>
<defs>
<clipPath id="clip0_63_2">
<rect width="32" height="32" fill="white"/>
</clipPath>
</defs>
</svg>
