<svg width="32" height="32" viewBox="0 0 32 32" fill="none" xmlns="http://www.w3.org/2000/svg">
<path fill-rule="evenodd" clip-rule="evenodd" d="M16 0C24.8366 0 32 7.16337 32 16C32 24.8366 24.8366 32 16 32C7.16337 32 0 24.8368 0 16C0 7.16319 7.16356 0 16 0ZM6.15625 21.6361C6.15625 21.6431 6.15706 21.6497 6.15719 21.6566L12.8815 16.4178L6.15625 10.4593V21.6361ZM19.1187 16.4178L25.8429 21.6566C25.8429 21.6497 25.844 21.6431 25.844 21.6361V10.4593L19.1187 16.4178ZM13.9523 17.3664L7.47819 22.4101H24.5222L18.048 17.3664L16.4663 18.7677C16.3377 18.8816 16.1719 18.9445 16.0001 18.9445C15.8283 18.9445 15.6624 18.8816 15.5338 18.7677L13.9521 17.3664H13.9523ZM16 17.3019L24.7046 9.58988H7.29544L16 17.3019Z" fill="black"/>
</svg>
