<svg width="32" height="32" viewBox="0 0 32 32" fill="none" xmlns="http://www.w3.org/2000/svg">
<g clip-path="url(#clip0_57_2)">
<path fill-rule="evenodd" clip-rule="evenodd" d="M16 0C24.8366 0 32 7.16337 32 16C32 24.8366 24.8366 32 16 32C7.16337 32 0 24.8368 0 16C0 7.16319 7.16356 0 16 0Z" fill="black"/>
<path d="M19.7261 25H16.6869V24.7615C17.0087 24.4937 17.1782 24.0168 17.1957 23.3305C17.1087 22.0837 16.8956 20.6402 16.5565 19L16.1782 16.9414C16.1522 17.0168 16.1348 17.0921 16.1261 17.1674C15.6217 19.6025 15.2956 21.6276 15.1478 23.2427C15.1565 23.9791 15.3304 24.4854 15.6696 24.7615V25H12.6565V24.7615C12.9782 24.4937 13.1391 24.0628 13.1391 23.4686V23.4058C12.8782 21.5816 12.5217 19.5523 12.0695 17.318C11.6174 15.0753 11.2565 13.4728 10.9869 12.5105C10.7261 11.5398 10.4565 10.8536 10.1783 10.4519C9.90869 10.0502 9.63912 9.84937 9.36956 9.84937C9.25651 9.84937 9.15652 9.87029 9.06956 9.91213C8.9913 9.95397 8.90434 10.0335 8.80869 10.1506C8.72174 10.2678 8.64347 10.431 8.57391 10.6402C8.50434 10.841 8.46956 11.0879 8.46956 11.3808C8.46956 11.6234 8.51739 11.7908 8.61304 11.8828C8.71739 11.9749 8.81304 12.0209 8.9 12.0209L8.97825 12.0084C8.97825 12.3849 8.86956 12.6737 8.65217 12.8745C8.44348 13.067 8.2 13.1632 7.92174 13.1632C7.69565 13.1632 7.47391 13.1004 7.25652 12.9749C7.03913 12.841 6.85652 12.6444 6.7087 12.3849C6.56957 12.1172 6.5 11.7824 6.5 11.3808C6.5 10.7531 6.61739 10.1799 6.85217 9.66109C7.09565 9.14226 7.43044 8.72803 7.85652 8.41841C8.2913 8.10879 8.79565 7.95398 9.36956 7.95398C9.87391 7.95398 10.3304 8.08368 10.7391 8.3431C11.1478 8.60251 11.4826 8.9205 11.7435 9.29707C12.2043 9.96653 12.6044 10.9372 12.9435 12.2092C13.2826 13.4812 13.6652 15.1966 14.0913 17.3557C14.1174 17.1715 14.1522 16.9916 14.1956 16.8159C14.4565 15.5104 14.6869 14.2427 14.8869 13.0126C15.087 11.7824 15.187 10.728 15.187 9.84937H17.1565C17.1565 10.728 17.2565 11.7824 17.4565 13.0126C17.6565 14.2427 17.8869 15.5104 18.1478 16.8159L18.4087 18.1464C19.3478 14.4895 19.9826 12.1088 20.313 11.0042C20.6522 9.74058 21.0652 8.75732 21.5522 8.0544C22.0478 7.35146 22.5913 7 23.1826 7C23.4695 7 23.6999 7.05021 23.8739 7.15063C24.0478 7.25105 24.1826 7.3682 24.2782 7.50209C24.3826 7.62762 24.4565 7.74477 24.5 7.85356C24.0478 7.98745 23.6174 8.41423 23.2086 9.13389C22.8087 9.85356 22.4609 10.6987 22.1652 11.6695C21.8348 12.7071 21.2913 14.7406 20.5348 17.7699C19.9608 19.9791 19.5304 21.8619 19.2434 23.4184V23.4812C19.2434 24.0335 19.4043 24.4603 19.7261 24.7615V25Z" fill="white"/>
</g>
<defs>
<clipPath id="clip0_57_2">
<rect width="32" height="32" fill="white"/>
</clipPath>
</defs>
</svg>
