<svg width="261" height="68" viewBox="0 0 261 68" fill="none" xmlns="http://www.w3.org/2000/svg">
<g clip-path="url(#clip0_4_1436)">
<path d="M89.5271 61.184V61.04C89.5991 61.04 89.7431 61.112 89.8151 61.112L89.5271 61.184ZM93.9191 64.856V64.712C94.0631 64.784 94.1351 64.784 94.2071 64.856H93.9191ZM86.5751 54.488V54.416L85.5671 53.912C85.9991 54.128 86.4311 54.272 86.8631 54.488H86.5751ZM86.5751 54.488C86.7911 54.704 87.0071 54.848 87.2231 55.064L86.5751 54.488ZM87.5831 55.496C87.4391 55.424 87.2951 55.28 87.2951 55.136C87.4391 55.28 87.5111 55.352 87.5831 55.496ZM92.4791 59.96V59.816C92.5511 59.816 92.6951 59.888 92.7671 59.888L92.4791 59.96ZM89.0231 56V55.856L88.8791 55.784C89.0231 55.856 89.1671 55.928 89.3111 56H89.0231ZM88.8071 55.784V55.64C88.8791 55.64 88.9511 55.712 89.0951 55.712L88.8071 55.784ZM99.3911 64.712C99.2471 64.496 98.8871 64.208 98.8871 63.992C98.9591 64.136 99.1031 64.208 99.1751 64.352L98.9591 64.208L99.3911 64.712ZM88.8071 54.056V53.912C88.8791 53.912 88.9511 53.984 89.0951 53.984L88.8071 54.056ZM88.8071 53.048C88.5911 53.12 88.5191 53.048 88.5191 52.904C88.5191 52.544 88.5191 52.256 88.5191 51.968C88.6631 51.968 88.7351 51.968 88.8071 52.04H88.5191V52.688C88.6631 52.688 88.8791 52.832 88.9511 52.904L88.8071 53.048ZM85.1351 48.656C85.1351 48.872 84.9911 48.944 84.8471 48.944V48.224C84.9911 48.368 85.1351 48.512 85.1351 48.656ZM100.111 63.632V63.488C100.183 63.56 100.327 63.56 100.399 63.632H100.111ZM88.0151 50.816V50.672C88.1591 50.744 88.2311 50.744 88.3031 50.816H88.0151ZM100.399 62.984L100.327 62.768C100.471 62.912 100.543 62.984 100.615 63.128L100.399 62.984ZM88.3031 47.792C88.3031 48.008 88.2311 48.152 88.1591 48.368C87.9431 48.296 87.7991 48.224 87.7991 48.008C87.7991 47.936 87.7991 47.792 87.7991 47.72L88.1591 47.576C88.2311 47.648 88.3031 47.72 88.3031 47.792ZM87.0791 44.912V44.768C87.2231 44.84 87.3671 44.84 87.5111 44.912H87.0791ZM99.3911 56.864V56.648C99.4631 56.648 99.4631 56.792 99.4631 56.864H99.3911ZM83.2631 40.16C83.3351 40.16 83.4071 40.16 83.4791 40.088L83.2631 40.16ZM84.1271 40.448V40.376L83.6231 40.232V40.16C83.6951 40.16 83.7671 40.16 83.9111 40.232H83.6231C83.8391 40.304 84.1271 40.304 84.4151 40.448H84.1271ZM102.343 56.504V56.36L100.615 55.352C101.263 55.784 101.911 56.072 102.631 56.432L102.343 56.504ZM86.5751 40.016V39.872C86.6471 39.872 86.7911 39.944 86.8631 39.944L86.5751 40.016ZM84.3431 36.776V36.632C84.4151 36.704 84.5591 36.704 84.6311 36.776H84.3431ZM102.343 54.272C102.199 54.2 102.055 54.056 102.055 53.912C102.199 53.984 102.271 54.128 102.343 54.272ZM87.1511 37.352L87.0791 37.136C87.1511 37.28 87.2231 37.352 87.2951 37.424V37.496L87.1511 37.352ZM84.6311 34.328V34.184C84.7031 34.256 84.7751 34.256 84.8471 34.328H84.6311ZM83.8391 33.608C83.6951 33.68 83.6231 33.608 83.6231 33.392C83.6231 33.248 83.6231 33.032 83.6951 32.816L83.6231 33.248C83.7671 33.248 83.9111 33.32 84.0551 33.464L83.8391 33.608ZM85.8551 34.832V34.688C85.9991 34.688 86.1431 34.76 86.2871 34.76L85.8551 34.832ZM86.5751 35.336V35.192C86.6471 35.192 86.7911 35.264 86.8631 35.264L86.5751 35.336ZM85.3511 32.096V31.952C85.4231 32.024 85.4951 32.024 85.6391 32.096H85.3511ZM108.463 52.328V52.184C108.607 52.184 108.679 52.256 108.751 52.256L108.463 52.328ZM87.8711 30.944C87.7991 30.872 87.7991 30.872 87.7991 30.728C87.8711 30.872 87.9431 30.944 88.0151 31.088L87.8711 30.944ZM88.3031 31.232C88.2311 31.232 88.1591 31.16 88.0871 31.088H88.0151L88.3031 31.232ZM88.3031 31.376V31.232C88.3751 31.304 88.4471 31.304 88.5911 31.376H88.3031ZM108.463 51.104V50.96C108.607 50.96 108.679 51.032 108.751 51.032L108.463 51.104ZM88.3031 30.152V30.008C88.3751 30.008 88.4471 30.08 88.5911 30.152H88.3031ZM85.7831 26.192C85.6391 26.264 85.2791 26.192 85.0631 26.192V26.84C85.2071 26.84 85.2791 26.84 85.3511 26.912H85.0631C85.0631 26.552 85.0631 26.192 84.9911 25.76L85.0631 26.048C85.3511 26.12 85.5671 26.12 85.7831 26.192ZM84.9911 25.76C84.9911 25.688 84.9911 25.616 84.9911 25.616V25.76ZM106.015 46.424V46.28C106.087 46.28 106.231 46.352 106.303 46.352L106.015 46.424ZM85.8551 25.616C85.7111 25.616 85.4951 25.544 85.3511 25.472V25.328C85.4951 25.4 85.7111 25.544 85.8551 25.616ZM109.471 47.36C109.327 47.36 109.255 47.144 109.255 47L108.463 45.92V45.776C108.679 45.776 108.823 45.848 108.967 45.848L108.463 45.92C108.823 46.424 109.183 46.856 109.471 47.36ZM86.0711 23.024V22.88C86.1431 22.88 86.2871 22.952 86.3591 22.952L86.0711 23.024ZM87.5831 24.464V24.32C87.6551 24.392 87.7271 24.392 87.7991 24.464H87.5831ZM107.023 43.688V43.544C107.095 43.616 107.167 43.616 107.311 43.688H107.023ZM86.7911 23.024V22.88L85.9991 22.664C86.3591 22.736 86.7191 22.808 87.0791 22.952L86.7911 23.024ZM108.967 45.416V45.272C109.039 45.344 109.183 45.344 109.255 45.416H108.967ZM90.5351 24.248V24.104C90.6071 24.104 90.6791 24.176 90.7511 24.176L90.5351 24.248ZM87.3671 20.576L87.2951 20.432C87.3671 20.504 87.5111 20.648 87.5831 20.792L87.3671 20.576ZM90.0311 23.24V23.096C90.1751 23.168 90.3191 23.168 90.4631 23.24H90.0311ZM88.0871 20.288C88.0151 20.288 87.8711 20.288 87.7991 20.288V20.144C87.8711 20.216 88.0151 20.216 88.0871 20.288ZM87.5831 18.92C87.5831 19.136 87.5111 19.28 87.3671 19.424L87.2951 18.92H87.5831ZM87.5831 18.92V18.704C87.6551 18.776 87.6551 18.848 87.6551 18.92H87.5831ZM88.3031 18.56C88.1591 18.488 88.0871 18.344 88.0151 18.2C88.1591 18.272 88.2311 18.416 88.3031 18.56ZM92.9831 17.552V17.48C93.0551 17.48 93.1271 17.48 93.2711 17.552H92.9831ZM92.7671 16.112C92.6231 16.04 92.4791 15.896 92.4791 15.752L91.7591 14.888V14.744C91.8311 14.744 91.9031 14.816 92.0471 14.816L91.7591 14.888C92.0471 15.248 92.4791 15.608 92.7671 16.112ZM91.7591 12.44V12.296C91.8311 12.296 91.9031 12.368 92.0471 12.368L91.7591 12.44ZM93.7031 11.432V11.288L93.5591 11.216C93.7031 11.288 93.8471 11.36 93.9911 11.432H93.7031ZM93.4871 11.144V11.072C93.5591 11.072 93.6311 11.144 93.7031 11.144H93.4871ZM111.415 25.976V25.832C111.559 25.832 111.631 25.904 111.703 25.904L111.415 25.976ZM98.3831 9.48799V9.34399L97.8071 9.12799C98.1671 9.27199 98.5271 9.34399 98.8871 9.41599L98.3831 9.48799ZM107.959 18.056V17.984C108.103 17.984 108.175 17.984 108.247 18.056H107.959ZM105.511 14.384V14.24C105.655 14.312 105.727 14.312 105.799 14.384H105.511ZM110.191 16.616V16.544C110.191 16.328 110.263 16.112 110.263 15.968L110.191 15.752C110.335 15.824 110.407 15.968 110.479 16.112L110.263 15.968L110.191 16.472C110.335 16.472 110.407 16.544 110.479 16.544L110.191 16.616ZM110.191 14.312C110.047 14.312 109.903 14.24 109.759 14.168L109.687 14.024C109.903 14.096 110.047 14.168 110.191 14.312ZM110.767 12.224L110.695 12.008H110.911V12.296L110.767 12.224ZM110.263 10.352C110.263 10.496 110.047 10.568 109.975 10.568V10.352V10.064C110.119 10.136 110.191 10.28 110.263 10.352ZM107.023 1.85599V1.71199C107.095 1.71199 107.167 1.78399 107.311 1.78399L107.023 1.85599ZM110.191 4.30399V4.15999C110.335 4.15999 110.407 4.23199 110.479 4.23199L110.191 4.30399ZM97.6631 65.216V65.36H97.7351C97.8071 65.36 97.8791 65.36 97.9511 65.36L97.6631 65.216ZM90.7511 56.648V56.72H90.8231C90.8951 56.72 90.9671 56.72 91.0391 56.72L90.7511 56.648ZM90.0311 55.352V55.496H90.1031C90.1751 55.496 90.2471 55.496 90.3191 55.496L90.0311 55.352ZM83.8391 47.504V47.648H83.9111C83.9831 47.648 84.0551 47.576 84.1271 47.576L83.8391 47.504ZM88.8071 50.672V50.816H88.8791C88.9511 50.816 89.0231 50.816 89.0951 50.816L88.8071 50.672ZM88.5191 34.976V35.048H88.5911C88.6631 35.048 88.7351 35.048 88.8071 35.048L88.5191 34.976ZM88.3031 33.68V33.824H88.3751C88.4471 33.824 88.5191 33.824 88.5911 33.824L88.3031 33.68ZM84.1271 28.568V28.64H84.1991C84.2711 28.64 84.3431 28.64 84.4151 28.64L84.1271 28.568ZM109.471 51.968V52.04H109.543C109.615 52.04 109.687 52.04 109.759 52.04L109.471 51.968ZM110.191 48.944V49.088H110.263C110.335 49.088 110.407 49.088 110.479 49.088L110.191 48.944ZM112.063 26.552C112.063 26.192 111.991 25.904 111.847 25.616H111.703C111.703 25.328 111.775 25.112 111.775 24.896C111.775 24.032 111.199 23.744 111.199 23.6C111.055 23.528 110.911 23.384 110.911 23.24C110.911 23.024 110.983 22.88 111.055 22.808V22.664C111.055 21.8 110.839 20.936 110.839 20.072C110.839 19.712 110.911 19.352 110.911 18.92C110.839 18.848 110.551 18.704 110.551 18.56C110.551 18.416 111.055 18.2 111.127 18.056L110.911 17.984C110.983 17.624 110.911 17.336 110.479 17.336C110.479 17.336 110.407 17.336 110.335 17.336C110.479 17.192 110.623 16.904 110.695 16.688C110.623 16.616 110.623 16.472 110.623 16.328C110.623 16.04 110.695 15.824 110.839 15.536L110.911 15.464C110.983 15.248 111.055 14.96 111.055 14.744C111.055 14.456 110.911 13.736 110.695 13.52C110.767 13.304 110.911 12.728 110.911 12.512V12.296H111.055V12.224L110.911 12.008C110.911 11.792 111.055 11.576 111.055 11.36C110.983 11.072 110.983 10.784 110.983 10.568C110.983 10.208 111.055 9.84799 111.199 9.55999H111.343C111.127 9.34399 111.055 9.05599 111.055 8.76799C111.055 8.47999 111.127 8.11999 111.199 7.83199C111.055 7.68799 110.839 7.61599 110.839 7.39999C110.839 6.96799 110.839 6.53599 110.839 6.17599C110.767 5.52799 110.695 4.80799 110.695 4.15999C110.695 4.15999 110.623 4.15999 110.551 4.15999C110.479 3.72799 110.407 3.29599 110.191 2.93599C109.831 2.71999 108.751 1.49599 108.607 1.49599C108.391 1.49599 108.319 1.78399 108.247 1.92799C108.031 1.78399 107.815 1.63999 107.599 1.56799C107.311 1.27999 106.951 0.919983 106.519 0.919983C106.087 0.919983 106.087 1.49599 106.087 1.78399C106.087 3.43999 106.375 5.02399 106.375 6.60799C106.375 6.96799 106.231 7.39999 106.231 7.75999C106.231 8.26399 106.375 8.76799 106.735 9.05599L106.591 9.12799C106.375 9.41599 106.159 9.77599 106.159 10.136C106.159 10.496 106.303 10.784 106.519 11.072C106.231 11.144 105.943 11.288 105.943 11.576C105.943 11.792 106.015 12.008 106.159 12.152C106.159 12.296 106.231 12.512 106.231 12.656C106.231 13.016 106.159 13.448 106.015 13.736C104.935 13.592 101.551 10.64 100.615 9.84799C100.399 9.84799 99.6791 9.99199 99.6791 9.70399C99.6791 9.55999 99.7511 9.41599 99.8951 9.34399C99.3911 9.27199 99.0311 8.91199 98.4551 8.91199C98.1671 8.91199 97.8791 8.98399 97.6631 9.05599C97.6631 8.98399 97.8071 8.62399 97.5191 8.62399C97.4471 8.62399 97.3751 8.69599 97.3031 8.69599C97.1591 8.62399 97.0151 8.47999 96.8711 8.47999L96.6551 8.62399H96.5111C96.2231 8.98398 95.7911 9.05599 95.4311 9.05599V9.19999C95.0711 9.34399 94.8551 9.55999 94.7111 9.84799V9.70399C94.3511 9.70399 94.0631 9.70399 93.7031 9.84799C93.7031 9.99199 93.2711 10.424 93.1991 11.072C93.0551 11.072 92.9831 11 92.8391 10.928C92.6231 11.36 92.3351 11.72 91.9751 12.008L91.7591 12.08C91.4711 12.152 91.1831 12.296 90.9671 12.512H90.8951C91.0391 12.728 91.1831 12.944 91.1831 13.16C91.1831 13.376 90.9671 13.52 90.7511 13.52C90.6071 13.376 90.4631 13.304 90.3911 13.304C90.0311 13.304 90.0311 13.736 89.9591 13.952C89.8151 14.24 89.3831 14.024 89.3831 14.384C89.3831 14.456 89.3831 14.528 89.3831 14.6C88.8071 15.392 88.2311 16.256 87.5831 16.976C87.7271 17.336 87.8711 17.696 87.9431 18.056C87.8711 18.056 87.8711 18.056 87.7991 18.056C87.5831 18.056 87.5111 18.2 87.5111 18.344C87.5111 18.488 87.5111 18.56 87.5831 18.704H87.2951V18.92L87.1511 18.992C87.0071 19.28 86.9351 19.64 86.9351 19.928C86.9351 20.288 87.0071 20.576 87.0791 20.864C86.7911 21.152 86.5031 21.44 86.5031 21.8C86.5031 21.872 86.5751 22.016 86.5751 22.16C86.5751 22.376 86.3591 22.376 86.1431 22.376C86.0711 22.376 85.9271 22.376 85.8551 22.376V22.664C85.7111 23.168 85.4951 23.744 85.0631 24.104H85.2071C85.1351 24.248 85.1351 24.464 85.1351 24.68C85.1351 24.896 85.2071 25.112 85.3511 25.328C85.2071 25.4 84.9911 25.4 84.9911 25.616C84.9911 26.192 84.8471 26.912 84.3431 27.344H84.4871C84.4151 27.56 84.3431 27.776 84.3431 27.992C84.3431 28.352 84.4151 28.712 84.6311 29C84.1991 29 83.9831 29.288 83.9831 29.648C83.9831 29.864 84.0551 30.08 84.1271 30.296C83.8391 30.224 83.6951 30.224 83.6231 30.512C83.8391 30.584 83.9831 30.8 83.9831 31.016C83.9831 31.448 83.8391 31.88 83.7671 32.24C83.7671 32.384 83.7671 32.456 83.6951 32.528C83.6231 32.96 83.4071 33.392 83.1191 33.68C83.4791 33.968 83.6231 34.4 83.6231 34.832C83.6231 35.12 83.4791 35.408 83.4791 35.696V35.984C83.4791 36.2 83.4791 36.416 83.4791 36.632C83.4791 37.64 83.6951 37.928 84.1271 38.72C83.9831 38.72 83.8391 38.504 83.8391 38.36L83.6231 37.928C83.3351 38.072 83.1911 38.36 83.1911 38.72C83.1911 39.008 83.3351 39.296 83.3351 39.656C83.2631 39.8 83.2631 39.944 83.2631 40.16V40.232C83.2631 40.52 83.4071 40.736 83.6231 40.88C83.4791 41.168 83.4071 41.456 83.4071 41.744C83.4071 42.032 83.4791 42.32 83.6951 42.536L83.8391 42.608C83.6951 42.896 83.6231 43.256 83.6231 43.616C83.6231 44.264 83.6951 44.48 84.1271 45.056C83.9111 45.344 83.7671 45.704 83.7671 45.992C83.7671 46.136 83.7671 46.208 83.8391 46.352L83.9831 46.136C84.1271 46.208 84.1991 46.28 84.3431 46.28C84.1271 46.352 83.8391 46.568 83.8391 46.856C83.8391 47.072 84.2711 47.36 84.2711 47.792C84.2711 47.936 84.1991 48.08 84.1271 48.224C84.2711 48.584 84.4151 48.872 84.4871 49.232C84.7031 49.88 84.8471 50.816 85.2071 51.32C85.2071 51.68 85.2071 52.04 85.4231 52.328C85.4231 52.4 85.3511 52.544 85.3511 52.688C85.5671 52.76 85.8551 52.904 85.8551 53.192C85.8551 53.48 85.5671 53.624 85.5671 53.912C86.1431 54.992 86.5031 56.144 86.9351 57.296L87.0791 57.44C87.1511 57.44 87.2231 57.44 87.2951 57.368C87.5111 57.656 87.7271 58.016 87.7271 58.376C87.7271 58.448 87.7271 58.592 87.7271 58.664C87.7991 58.808 88.0871 58.736 88.0871 59.024C88.0871 59.168 88.0151 59.312 87.9431 59.384C88.0151 59.96 89.2391 60.608 89.3111 60.824L89.2391 61.112C89.2391 61.256 89.2391 61.76 89.4551 61.76L89.6711 61.688L89.7431 62.048C89.9591 62.12 90.1751 62.264 90.2471 62.48L90.1031 62.624C90.6791 62.984 90.8231 62.696 91.1111 63.488C91.1111 63.56 91.1831 63.632 91.2551 63.704C91.9031 64.28 92.5511 64.712 93.1991 65.216C93.2711 65.072 93.4151 65 93.5591 64.856L93.6311 65C93.8471 65.504 94.4231 65.216 94.6391 65.504C94.7111 65.576 94.7831 65.648 94.8551 65.72C95.0711 65.72 95.1431 65.432 95.2151 65.288L95.4311 65.216C95.6471 65.36 95.8631 65.576 96.1511 65.576C96.3671 65.576 96.6551 65.072 97.5191 65.072C98.1671 65.072 98.7431 64.856 99.3911 64.712C99.5351 64.64 99.9671 64.568 99.9671 64.352L99.8951 64.28C100.039 63.92 100.471 63.776 100.831 63.776C100.831 63.56 100.831 62.408 101.119 62.408L101.335 62.552C101.407 62.696 101.623 62.912 101.767 62.912C102.199 62.912 102.127 62.192 102.487 62.048C102.631 62.048 102.703 62.192 102.847 62.264C102.703 61.472 103.063 60.968 103.567 60.32C104.719 59.816 104.719 59.096 105.511 58.592C105.439 58.448 105.439 58.304 105.439 58.16C105.439 57.44 106.303 57.512 106.231 56.648C107.311 56.216 107.743 55.28 107.887 54.2L107.959 54.128L108.103 54.272C108.319 54.272 108.391 53.696 108.391 53.552C108.463 53.48 108.823 53.408 108.823 53.264C108.823 53.192 108.679 53.12 108.607 53.048L108.751 52.976C109.183 52.832 109.255 52.4 109.255 51.968C109.255 51.824 109.255 51.608 109.255 51.464C109.615 51.392 110.047 51.104 110.047 50.672C110.047 50.456 110.047 50.312 110.047 50.096C110.047 49.808 110.191 49.52 110.191 49.232C109.975 49.304 109.471 49.376 109.471 48.944C109.471 48.872 109.543 48.728 109.615 48.584C109.687 48.656 109.831 48.728 109.975 48.728C109.975 47.648 109.687 46.568 109.615 45.488C109.615 45.056 109.543 44.624 109.255 44.264C108.895 44.336 108.247 44.408 108.247 43.904H107.959V43.832L108.247 43.904C108.247 43.76 108.319 43.616 108.391 43.544V43.472L108.535 43.256C108.535 43.112 108.103 43.04 107.959 43.04C107.959 43.184 107.815 43.184 107.743 43.184C107.527 43.184 107.311 43.112 107.167 42.968C106.879 42.968 106.807 43.616 106.735 43.832C106.807 43.904 106.879 44.048 106.879 44.192C106.879 44.768 106.159 45.2 105.799 45.56V46.496V46.784C105.223 47.432 104.071 49.376 104.071 50.24C103.495 50.528 103.279 51.104 103.279 51.68C103.207 51.608 103.135 51.536 102.991 51.536C102.703 51.536 102.559 51.896 102.487 52.184H102.343C102.415 52.832 102.271 53.624 101.695 54.056L101.983 53.912C101.623 54.056 101.263 54.272 100.831 54.416C100.831 54.776 100.615 55.064 100.615 55.352C100.399 55.568 99.3911 56.36 99.3911 56.648H99.1031L99.1751 56.792L99.3911 56.864C97.7351 58.088 96.2231 59.528 94.2071 60.032V59.96C93.4871 59.96 92.9111 59.816 92.2631 59.6L92.1191 59.528C91.6871 58.736 91.2551 59.024 91.2551 57.872C91.1111 57.872 90.9671 57.872 90.8951 57.944C90.8951 57.584 90.7511 57.152 90.5351 56.864L90.1751 57.008C89.8871 57.008 89.8871 56.432 89.8871 56.288V56.144C89.8871 55.64 90.0311 55.208 90.0311 54.704V54.128H89.8871C89.8151 53.768 89.6711 53.48 89.3111 53.408V53.192C89.4551 52.976 89.5271 52.76 89.5271 52.544C89.5271 52.328 89.4551 52.112 89.3111 51.968C89.2391 51.752 88.5911 51.392 88.5911 50.6C88.5911 50.312 88.6631 50.024 88.8071 49.736C88.8071 49.52 88.3751 49.232 88.3751 48.512C88.3751 48.152 88.4471 47.864 88.5191 47.504H88.4471V47.432C88.4471 47 88.3031 46.568 87.7991 46.496C87.7991 46.28 87.8711 46.136 88.0151 45.992C87.9431 45.632 88.0871 45.344 88.3031 45.056L88.1591 44.984C87.8711 44.12 87.6551 43.256 87.5831 42.32C87.8711 42.032 87.9431 41.528 87.9431 41.096C87.9431 40.808 87.7991 39.8 87.9431 39.584C88.0151 39.224 88.0871 38.936 88.3031 38.648C88.0871 38.576 87.7991 38.432 87.7991 38.216C87.7991 38.072 87.9431 38 88.0151 37.928L88.1591 38.072L88.3031 38.144C88.3031 37.856 88.3751 37.64 88.3751 37.352C88.3751 37.064 88.2311 36.848 88.2311 36.56C88.2311 36.2 88.3031 35.984 87.8711 35.984L87.9431 35.696C88.0871 35.696 88.4471 35.48 88.4471 35.264C88.4471 35.048 88.0151 34.904 87.8711 34.904L87.7991 34.976C87.9431 34.4 88.0871 33.824 88.1591 33.248H88.3031C88.3751 32.6 88.8071 32.096 88.8071 31.52C88.6631 31.376 88.6631 31.232 88.6631 31.016C88.6631 30.8 88.7351 30.584 88.8791 30.44V30.368C89.0951 30.152 89.1671 29.864 89.1671 29.504C89.1671 29 89.0951 28.496 89.0951 27.92C89.0951 27.704 89.0951 27.488 89.1671 27.344L89.3111 27.56L89.5991 27.704C89.8871 27.704 89.8871 26.984 89.8871 26.84V26.552C89.8871 26.264 89.8871 25.904 89.7431 25.616C90.3191 25.544 90.6791 25.184 90.7511 24.68L90.8951 24.464C91.0391 24.32 91.0391 24.104 91.0391 23.888C91.0391 23.744 90.9671 23.6 90.8231 23.6H90.7511L90.6791 23.384C90.6791 22.88 91.6151 22.808 91.6151 21.944V21.656H91.4711C91.9031 20.864 92.4071 20.072 93.0551 19.496L93.1991 19.424C93.0551 18.776 93.1991 18.272 93.9191 18.2L93.9911 17.984C94.0631 17.624 94.4231 17.48 94.7111 17.48C95.1431 17.12 95.4311 16.688 95.6471 16.256C96.0071 16.184 96.2951 16.04 96.6551 15.968C96.9431 15.104 97.6631 14.6 98.5991 14.6H99.1031V14.744L99.3191 14.888C99.4631 14.888 99.5351 14.816 99.6071 14.744C100.111 15.248 101.119 14.672 101.191 15.608C101.623 15.608 102.127 16.112 102.559 16.256C102.559 16.4 102.631 16.904 102.919 16.904C102.991 16.832 103.135 16.76 103.279 16.688C103.423 17.552 104.215 17.12 104.215 17.696C104.215 17.84 104.143 18.056 104.071 18.2C105.655 19.064 105.367 21.656 106.231 23.096C106.159 23.312 106.087 23.6 106.087 23.816C106.087 23.888 106.087 24.032 106.159 24.104H106.015C106.447 25.4 106.159 28.712 108.247 28.784C108.175 28.928 108.103 29.144 108.103 29.288C108.103 29.792 109.111 30.296 109.543 30.296C110.191 30.296 110.551 29.72 111.343 29.648C111.271 29.432 111.199 29.216 111.199 29C111.487 28.856 111.775 28.568 112.063 28.424C112.063 27.992 111.919 27.632 111.703 27.344C111.919 27.128 112.063 26.84 112.063 26.552ZM86.0711 21.656V21.8H86.1431C86.2151 21.8 86.2871 21.728 86.3591 21.728L86.0711 21.656ZM109.255 44.048V44.192H109.327C109.327 44.192 109.399 44.192 109.471 44.12L109.255 44.048ZM86.5031 20.648L86.4311 20.504C86.2871 20.576 86.1431 20.792 86.0711 20.936C86.1431 21.008 86.2151 21.152 86.3591 21.152C86.4311 21.152 86.5031 20.936 86.5031 20.864V20.72V20.648ZM109.399 43.688C109.399 43.328 109.183 42.68 108.823 42.68C108.679 42.68 108.607 42.752 108.463 42.824C108.607 42.968 109.183 43.76 109.327 43.76L109.399 43.688ZM89.5271 13.736V13.88H89.5991C89.6711 13.88 89.7431 13.88 89.8151 13.88L89.5271 13.736ZM92.9831 10.064C92.9831 10.208 93.1271 10.352 93.2711 10.424L92.9831 10.064ZM111.199 23.384V23.528L111.271 23.456C111.343 23.456 111.415 23.456 111.487 23.456L111.199 23.384ZM118.949 36.416V36.56H119.021C119.093 36.56 119.093 36.56 119.165 36.488L118.949 36.416ZM125.285 65.648V65.504C125.429 65.504 125.501 65.576 125.573 65.576L125.285 65.648ZM126.941 66.584C126.941 66.512 126.941 66.512 126.941 66.44C127.085 66.44 127.157 66.512 127.229 66.512L126.941 66.584ZM118.949 58.088V57.944C119.021 57.944 119.093 58.016 119.165 58.016L118.949 58.088ZM116.069 50.96V50.816C116.213 50.888 116.285 50.888 116.357 50.96H116.069ZM114.701 43.976V43.76L114.773 43.976H114.701ZM114.989 43.472L114.917 43.256C114.989 43.4 115.061 43.472 115.133 43.616L114.989 43.472ZM114.701 41.96V41.888C114.773 41.888 114.845 41.888 114.917 41.96H114.701ZM116.141 40.52C116.069 40.52 115.925 40.592 115.709 40.592H115.853V40.448C115.925 40.448 116.069 40.52 116.141 40.52ZM114.917 38V37.856C115.061 37.856 115.205 37.928 115.349 37.928L114.917 38ZM114.413 36.344V36.272V36.2C114.557 36.2 114.629 36.272 114.701 36.272L114.413 36.344ZM115.853 35.624V35.48L114.845 35.264C115.277 35.336 115.709 35.336 116.141 35.552L115.853 35.624ZM118.445 38.216V38.072C118.517 38.072 118.661 38.144 118.733 38.144L118.445 38.216ZM115.637 34.904V34.76C115.709 34.832 115.781 34.832 115.853 34.904H115.637ZM115.709 34.256L115.637 34.04L115.709 34.184C115.781 34.256 115.853 34.328 115.853 34.4L115.709 34.256ZM116.069 32.672C115.997 32.744 115.781 32.816 115.709 32.816C115.637 32.816 115.565 32.744 115.565 32.672C115.565 32.6 115.637 32.456 115.637 32.384C115.781 32.456 115.925 32.528 116.069 32.672ZM116.861 33.104L116.789 32.888C116.861 32.96 117.005 33.104 117.077 33.248L116.861 33.104ZM118.661 34.904V34.76C118.805 34.832 118.877 34.832 118.949 34.904H118.661ZM114.917 30.872V30.728C114.989 30.8 115.061 30.8 115.205 30.872H114.917ZM133.565 39.296C133.277 39.44 132.917 39.8 132.917 40.16C132.917 40.304 132.917 40.376 132.989 40.52V40.664C132.989 41.312 133.061 41.96 132.989 42.608C132.989 43.184 133.277 43.688 133.277 44.336C133.277 44.624 133.133 44.984 132.845 45.2C132.989 45.344 133.061 45.488 133.061 45.632C133.061 45.92 132.917 46.136 132.773 46.28L132.629 46.352C132.701 46.64 132.701 47 132.701 47.288C132.701 47.864 132.485 48.368 132.485 48.872C132.485 49.016 132.485 49.16 132.485 49.232C132.485 49.52 132.557 49.952 132.197 49.88C132.197 50.528 132.197 51.176 131.837 51.752L131.693 51.824C131.621 52.112 131.621 52.472 131.621 52.832C131.621 53.12 131.693 53.408 131.693 53.696C131.189 53.912 130.829 54.344 130.685 54.848C130.541 55.352 129.821 56.432 129.821 56.864C129.821 57.008 129.965 57.152 130.037 57.224C129.101 57.8 128.093 58.952 127.877 60.104C127.805 59.96 127.661 59.888 127.517 59.888C127.373 59.888 127.229 60.104 127.229 60.248C127.085 60.464 126.725 60.968 126.437 60.968C126.293 60.968 126.149 60.896 126.005 60.752C125.933 61.112 125.717 61.4 125.357 61.4C124.997 61.4 124.781 61.256 124.565 61.04H124.349C123.989 60.68 123.629 60.32 123.341 59.888L123.197 59.816C122.621 58.808 122.117 57.656 121.613 56.576L121.253 56.72C121.253 56 121.109 55.28 120.677 54.632H120.821V54.488C120.821 54.344 120.821 54.056 120.605 54.056C120.533 54.056 120.389 54.128 120.317 54.128C120.317 53.48 120.245 52.832 119.669 52.472C119.813 52.4 120.029 52.256 120.029 52.04C119.669 51.392 119.237 48.656 119.237 47.864C119.237 47.072 119.309 46.496 118.661 45.92C118.877 45.416 118.949 44.912 118.949 44.48C118.949 43.832 118.733 43.184 118.733 42.536C118.733 41.6 118.877 40.664 118.877 39.728C118.877 39.44 118.661 39.152 118.661 38.864C118.661 38.72 118.733 38.648 118.877 38.576C118.877 38.504 118.949 38.432 118.949 38.288C119.021 38.072 119.021 37.784 119.021 37.568C119.021 37.136 118.949 36.704 118.733 36.416L118.661 36.2C118.949 36.2 119.237 36.056 119.237 35.696C119.237 35.48 119.021 35.264 119.093 35.048V34.976L119.309 32.456C119.309 32.168 119.453 31.88 119.453 31.592C119.453 31.52 119.381 31.376 119.309 31.376C119.453 30.368 119.597 29.288 120.101 28.424C120.173 26.912 120.533 25.544 121.181 24.176C121.325 23.816 121.685 22.88 121.685 22.52C121.685 22.304 121.685 22.16 121.541 22.016C122.045 22.016 122.333 21.728 122.333 21.224C122.333 21.008 122.261 20.792 122.261 20.576C122.549 20.648 122.837 20.648 122.837 20.216V20.144H122.909C123.197 19.064 123.773 18.2 124.277 17.264V17.048H124.349C124.565 17.12 124.781 17.192 124.997 17.192C125.213 17.192 125.429 17.048 125.429 16.832H125.573C125.789 17.048 126.149 17.12 126.509 17.192V17.048C127.661 18.272 128.309 17.84 129.317 19.64C129.245 19.856 129.173 20 129.173 20.216C129.173 20.864 129.821 21.152 129.821 21.512C129.821 21.728 129.893 21.8 130.037 21.8C130.109 21.8 130.181 21.8 130.253 21.8C130.613 22.592 130.397 23.456 130.757 24.32L130.973 24.392C130.901 24.536 130.829 24.752 130.829 24.896C130.829 25.616 131.621 25.256 131.621 26.192C131.621 26.336 131.621 26.552 131.477 26.768V26.84C131.477 27.2 131.549 27.56 131.909 27.776C131.981 27.992 131.981 28.136 131.981 28.352C131.981 28.568 131.909 28.784 131.765 28.928L131.693 29.072C131.981 29.144 132.053 29.36 132.053 29.648V29.792H132.197C131.981 30.296 131.981 30.728 131.909 31.232C132.413 31.448 132.557 32.096 132.557 32.6C132.557 32.744 132.557 32.888 132.485 33.032C132.413 33.104 132.341 33.248 132.341 33.464C132.341 33.896 132.917 34.544 132.917 35.408C132.917 35.912 132.701 36.488 132.701 37.064C132.701 37.496 132.989 37.928 132.989 38.432C132.989 38.648 132.989 38.936 133.061 39.152C133.205 39.296 133.421 39.296 133.565 39.296ZM116.357 27.416C116.357 27.56 116.141 27.632 116.069 27.704C115.997 27.272 115.781 27.2 115.493 26.984C115.709 27.128 116.357 27.344 116.357 27.416ZM115.637 26.048V25.76L115.709 26.048H115.637ZM115.925 26.192L115.853 26.048C115.925 26.12 115.997 26.264 116.069 26.336L115.925 26.192ZM133.133 40.808V40.664C133.205 40.664 133.277 40.736 133.349 40.808H133.133ZM117.509 21.872V21.8L116.717 21.512C117.077 21.656 117.437 21.728 117.797 21.872H117.509ZM117.653 19.64C117.797 19.64 118.013 19.64 118.157 19.64H117.653ZM118.229 19.784V19.64C118.301 19.64 118.373 19.712 118.517 19.712L118.229 19.784ZM118.229 17.768C118.301 17.768 118.301 17.768 118.373 17.768H118.229ZM118.445 17.84V17.768C118.517 17.768 118.661 17.768 118.733 17.84H118.445ZM118.949 17.624V17.552C119.021 17.552 119.093 17.552 119.165 17.624H118.949ZM132.269 30.44L132.197 30.296C132.269 30.368 132.341 30.512 132.413 30.656L132.269 30.44ZM136.733 32.816L136.661 32.672H136.877V32.888L136.733 32.816ZM136.229 31.664L136.157 31.448C136.301 31.592 136.373 31.664 136.445 31.808L136.229 31.664ZM120.317 15.752V15.608C120.389 15.68 120.461 15.68 120.533 15.68V15.752H120.317ZM120.605 15.968V15.896C120.677 15.896 120.749 15.896 120.821 15.968H120.605ZM120.389 14.384L120.461 14.528C120.389 14.384 120.389 14.24 120.317 14.24C120.461 14.312 120.533 14.456 120.605 14.528L120.389 14.384ZM120.821 13.592V13.52C120.893 13.52 120.965 13.52 121.109 13.592H120.821ZM120.677 13.232L120.605 13.016C120.677 13.16 120.749 13.232 120.821 13.376L120.677 13.232ZM125.861 16.544L125.789 16.328C125.861 16.472 125.933 16.544 126.005 16.688L125.861 16.544ZM121.973 11.72V11.576C122.117 11.648 122.189 11.648 122.261 11.72H121.973ZM133.853 22.16V22.016L133.637 21.944L133.565 21.872V21.8C133.637 21.8 133.781 21.8 133.853 21.872H133.565L133.637 21.944C133.781 22.016 133.925 22.016 134.069 22.088L133.853 22.16ZM129.533 13.232C129.533 13.304 129.533 13.448 129.461 13.52V13.592C129.317 13.664 129.245 13.808 129.245 13.952C129.245 14.024 129.317 14.096 129.317 14.24C129.029 13.736 128.741 13.16 128.237 12.872C128.237 12.728 128.237 12.512 128.165 12.296C128.669 12.368 129.533 12.512 129.533 13.232ZM127.445 11.936V11.864C127.517 11.864 127.589 11.864 127.733 11.936H127.445ZM124.565 8.76799H124.349L124.637 8.69599L124.565 8.76799ZM132.197 16.184V16.112C132.269 16.112 132.341 16.184 132.413 16.184H132.197ZM124.853 8.62399V8.55199C124.997 8.55199 125.141 8.55199 125.285 8.62399H124.853ZM128.237 11.576L128.165 11.36C128.237 11.504 128.309 11.576 128.381 11.72L128.237 11.576ZM125.285 8.40799C125.285 8.40799 125.285 8.33599 125.285 8.26399C125.429 8.33599 125.501 8.33599 125.573 8.40799H125.285ZM125.573 8.19199V8.04799C125.645 8.11999 125.717 8.11999 125.789 8.19199H125.573ZM125.285 7.97599V7.83199C125.429 7.83199 125.501 7.90399 125.573 7.90399L125.285 7.97599ZM132.413 14.096H132.197V13.952C132.269 14.024 132.341 14.024 132.413 14.096ZM126.581 6.60799L126.509 6.39199C126.581 6.53599 126.653 6.60799 126.725 6.75199L126.581 6.60799ZM124.133 65.72V65.864H124.349H124.565L124.133 65.72ZM114.413 34.544V34.688H114.485C114.557 34.688 114.629 34.616 114.701 34.616L114.413 34.544ZM114.197 31.952V32.024H114.269C114.341 32.024 114.413 32.024 114.485 32.024L114.197 31.952ZM137.597 45.632C137.597 45.416 137.525 45.344 137.525 45.128C137.525 42.968 137.669 40.664 137.309 38.504C137.165 37.856 137.165 36.92 137.165 36.272C137.165 35.912 137.237 35.552 137.381 35.264C136.733 34.904 136.733 34.04 136.733 33.464C136.733 33.248 136.805 33.032 136.877 32.888H137.021V32.816L136.877 32.672C136.661 32.384 136.805 31.736 136.445 31.232C136.301 29.936 136.229 28.28 135.437 27.2C135.437 26.12 135.437 25.04 134.789 24.104C134.789 23.528 134.861 22.88 134.285 22.448H134.141L134.213 22.376C134.357 22.448 134.429 22.52 134.573 22.52C134.717 22.52 134.789 22.304 134.789 22.16C134.789 21.152 133.709 21.008 133.349 20.72L133.565 20.576C133.493 20.504 133.421 20.288 133.421 20.144C133.421 19.64 133.349 19.208 133.349 18.776C133.349 18.56 133.349 18.416 133.349 18.2H133.205C133.061 17.624 132.845 17.12 132.629 16.544H132.773C132.917 16.328 132.989 16.04 132.989 15.824C132.989 15.536 132.845 15.32 132.629 15.176L132.773 15.104C132.917 14.816 132.989 14.456 132.989 14.096C132.989 13.736 132.917 13.376 132.845 13.016H132.773V12.944C132.773 12.512 132.629 12.152 132.197 12.08C132.197 11.792 132.341 11.432 132.413 11.144C131.837 9.99199 131.045 8.83999 130.757 7.61599L130.541 7.54399C130.109 7.18399 129.677 6.82399 129.317 6.39199C128.885 6.31999 128.525 6.03199 128.165 5.95999V5.45599C127.949 5.52799 127.733 5.59999 127.517 5.59999C127.301 5.59999 127.157 5.52799 126.941 5.45599L126.797 5.52799C126.077 5.81599 125.285 6.75199 125.285 7.61599H125.141C124.781 7.83199 124.637 8.19199 124.637 8.62399C124.133 8.83999 123.629 9.12799 123.413 9.48799C123.485 10.28 122.765 10.928 121.973 11.144C121.973 11.216 121.973 11.288 121.973 11.36C121.829 11.72 121.613 12.224 121.181 12.368C121.109 12.512 120.893 12.584 120.677 12.584C120.605 12.584 120.461 12.584 120.317 12.584L120.389 12.728C120.461 12.728 120.533 12.872 120.533 12.944C120.533 13.088 120.461 13.16 120.317 13.232H120.461C119.957 13.376 119.741 13.592 119.669 14.24L119.525 14.312C119.597 14.384 119.669 14.456 119.669 14.528C119.669 14.672 119.597 14.816 119.597 14.888C119.381 15.464 118.949 16.688 118.949 17.264L118.733 17.336L118.229 17.768C118.229 18.128 117.653 18.776 117.653 19.568V19.64C117.725 20 117.725 20.432 117.509 20.792C117.005 20.864 116.861 21.08 116.717 21.512C116.501 22.376 116.285 23.24 116.069 24.104C116.213 24.248 116.645 24.32 116.645 24.536C116.645 24.752 116.213 24.752 116.069 24.752H115.997L116.069 24.968C116.069 25.184 115.781 25.256 115.637 25.328V25.544V25.76H115.349L115.421 25.976L115.637 26.048C115.709 26.336 115.781 26.768 115.421 26.984L115.277 27.2C115.349 27.344 115.349 27.56 115.349 27.704C115.349 28.496 114.845 29.216 114.845 29.432C114.845 29.72 115.133 29.792 115.349 29.792C114.845 30.224 114.629 30.8 114.557 31.448L114.629 31.376C114.557 31.448 114.557 31.448 114.557 31.52C114.557 31.664 114.845 32.312 114.917 32.672C114.845 32.6 114.557 32.528 114.557 32.672C114.557 32.816 114.701 33.032 114.701 33.248C114.701 33.464 114.557 33.68 114.413 33.824C114.413 33.896 114.413 34.04 114.413 34.112C114.413 34.328 114.485 34.4 114.701 34.472C114.845 34.688 114.773 35.048 114.845 35.264C114.845 35.552 114.701 35.768 114.413 35.768C114.341 35.768 114.269 35.696 114.197 35.696C114.197 35.84 114.125 36.056 114.125 36.2C114.125 36.416 114.197 36.632 114.341 36.776V36.704C114.341 36.776 114.341 36.848 114.341 36.92C114.341 37.352 114.413 37.712 114.701 38.072C114.773 38.144 114.845 38.288 114.845 38.36C114.845 38.72 114.485 38.936 114.341 39.224L114.197 39.296C114.413 39.584 114.413 39.944 114.413 40.304C114.413 40.592 114.413 40.88 114.341 41.168V41.24V41.312C114.413 41.456 114.485 41.672 114.485 41.888C114.485 42.176 114.341 42.464 114.341 42.752C114.341 43.112 114.485 43.544 114.701 43.76H114.413L114.485 43.976H114.701C114.629 44.192 114.629 44.336 114.629 44.48C114.629 44.768 114.701 45.056 114.845 45.2L114.917 45.416C114.773 45.416 114.701 45.488 114.701 45.632C114.701 45.704 114.773 45.848 114.773 45.92H114.701C114.845 46.208 114.917 46.568 114.917 47C114.917 47.216 114.845 47.504 114.773 47.792H114.917C115.205 47.936 115.349 48.224 115.349 48.584C115.349 48.944 115.277 49.304 115.277 49.664C115.277 49.88 115.349 50.024 115.421 50.24L115.349 50.168C115.709 50.528 115.853 51.032 115.853 51.536C115.853 51.752 115.781 51.968 115.781 52.256C115.781 52.904 116.069 53.84 116.573 54.416C116.717 54.992 117.077 55.28 117.077 55.928C117.077 56.144 117.077 56.36 117.005 56.504L117.221 56.72C117.365 56.648 117.365 56.216 117.365 56.072H117.509C117.437 57.584 118.301 57.368 118.445 58.592L118.661 58.664C118.805 58.664 118.877 58.736 118.949 58.736L118.661 58.88C118.805 59.888 119.237 59.672 119.525 60.248L119.669 60.32C119.669 60.68 119.813 61.112 120.173 61.328C120.317 61.328 120.461 61.256 120.605 61.256C120.749 62.768 121.181 62.336 121.613 63.344H121.757C121.901 63.344 121.973 63.272 122.117 63.272C122.909 63.272 122.765 64.784 123.341 65C123.485 65 123.557 64.856 123.629 64.784C124.061 65.216 124.781 65.576 125.285 65.72C125.213 65.864 125.213 66.008 125.213 66.152C125.213 66.584 125.645 66.872 126.005 67.016V67.16C126.077 67.016 126.293 66.8 126.437 66.8C126.581 66.8 126.653 66.944 126.725 67.088H126.797L127.085 67.016C127.085 67.232 127.229 67.376 127.373 67.376C127.589 67.376 127.733 67.232 127.877 67.16C128.021 67.16 128.165 67.088 128.165 66.872C128.165 66.872 128.165 66.728 128.165 66.656C128.381 66.728 128.885 66.728 129.101 66.944C129.677 66.44 130.325 66.008 130.901 65.648C131.189 64.712 132.341 64.28 132.629 63.344C132.701 63.128 132.701 62.912 132.917 62.768C133.061 62.696 133.205 62.624 133.277 62.552L133.349 62.408C133.565 62.192 133.565 61.832 133.565 61.472C133.925 61.544 134.213 61.544 134.213 61.112L134.141 61.04H134.285C134.501 59.384 135.797 58.376 135.797 56.504H135.725C136.013 55.928 136.229 55.28 136.301 54.632H136.157C137.381 52.256 136.661 49.88 137.453 48.152V48.008C137.453 47.36 137.453 46.712 137.093 46.136C137.309 45.992 137.597 45.848 137.597 45.632ZM147.426 66.08H147.354H147.282V65.936C147.354 65.936 147.426 66.008 147.498 66.008L147.426 66.08ZM147.498 66.296V66.152C147.57 66.152 147.642 66.224 147.714 66.224L147.498 66.296ZM148.794 66.08V65.936C148.866 65.936 149.01 66.008 149.082 66.008L148.794 66.08ZM145.482 62.696V62.552C145.554 62.624 145.626 62.624 145.698 62.696H145.482ZM145.482 62.264V62.12C145.554 62.192 145.626 62.192 145.698 62.192L145.482 62.264ZM145.266 61.112V61.04C145.338 61.04 145.41 61.04 145.482 61.112H145.266ZM145.482 58.88V58.808C145.554 58.808 145.626 58.808 145.698 58.88H145.482ZM149.514 60.536V60.32H149.73V60.536H149.514ZM149.226 60.248V60.104C149.37 60.176 149.442 60.176 149.514 60.248H149.226ZM145.626 49.16H145.482V48.944H145.698L145.626 49.16ZM145.698 48.944V48.728L145.77 48.944H145.698ZM162.69 65.144V65.072C162.762 65.072 162.834 65.072 162.906 65.144H162.69ZM162.186 63.92C162.114 64.064 162.042 64.208 161.97 64.352H161.754V63.704C161.898 63.704 162.114 63.776 162.186 63.92ZM162.042 64.208L162.186 63.92V63.992L162.042 64.208ZM162.69 64.208C162.618 64.208 162.546 64.28 162.474 64.28V64.136C162.546 64.136 162.618 64.208 162.69 64.208ZM163.554 64.928C163.41 64.928 163.266 64.928 163.122 64.928V64.784C163.266 64.856 163.41 64.856 163.554 64.928ZM162.258 63.848V63.704C162.33 63.704 162.402 63.776 162.474 63.776L162.258 63.848ZM145.698 46.928V46.712C145.77 46.784 145.842 46.928 145.914 47.072L145.698 46.928ZM161.322 61.544V61.472C161.394 61.472 161.538 61.544 161.61 61.544H161.322ZM145.842 45.416C145.842 45.56 145.554 45.56 145.482 45.632V45.128C145.626 45.2 145.77 45.272 145.842 45.416ZM161.106 60.896V60.824C161.178 60.824 161.25 60.824 161.394 60.896H161.106ZM160.242 59.672C160.242 59.672 160.314 59.672 160.386 59.672H160.242ZM160.458 59.816V59.672C160.53 59.672 160.602 59.744 160.674 59.744L160.458 59.816ZM145.482 44.336V44.264C145.554 44.264 145.626 44.336 145.698 44.336H145.482ZM149.73 48.368V48.296C149.802 48.296 149.874 48.296 149.946 48.368H149.73ZM146.13 44.12C146.058 44.12 145.986 44.12 145.914 44.12V44.048C145.986 44.048 146.058 44.048 146.13 44.12ZM161.106 57.8V57.656C161.178 57.656 161.25 57.728 161.394 57.728L161.106 57.8ZM149.73 46.136V46.064C149.802 46.064 149.874 46.064 149.946 46.136H149.73ZM163.77 59.312V59.24C163.842 59.24 163.986 59.312 164.058 59.312H163.77ZM144.33 38.792V38.648C144.402 38.72 144.546 38.72 144.618 38.792H144.33ZM164.922 58.88C164.85 58.88 164.706 58.88 164.562 58.952L164.706 58.88V58.808C164.778 58.808 164.85 58.808 164.922 58.88ZM160.89 54.2C160.89 54.2 160.89 54.128 160.89 54.056C161.034 54.056 161.178 54.056 161.322 53.984L160.89 54.2ZM164.274 57.152L164.202 57.008C164.274 57.08 164.346 57.08 164.346 57.152C164.418 57.224 164.418 57.296 164.49 57.296L164.274 57.152ZM145.986 38.864L145.914 38.648C145.986 38.792 146.058 38.864 146.13 39.008L145.986 38.864ZM149.946 42.104V42.032C150.09 41.96 150.234 41.96 150.378 41.96L149.946 42.104ZM160.89 51.824V51.608L160.962 51.824H160.89ZM163.986 54.632V54.56C164.13 54.56 164.202 54.56 164.274 54.632H163.986ZM160.458 50.312C160.458 50.312 160.53 50.312 160.602 50.312H160.458ZM160.674 50.384V50.312C160.746 50.312 160.818 50.312 160.89 50.384H160.674ZM144.33 33.104H144.546V33.176L144.33 33.104ZM160.962 47.576L160.89 47.36L160.962 47.504C161.034 47.576 161.106 47.648 161.106 47.72L160.962 47.576ZM161.106 47.288V47.144C161.178 47.216 161.25 47.216 161.394 47.216L161.106 47.288ZM160.89 46.28C161.106 46.28 161.322 46.208 161.538 46.28H160.89ZM161.538 46.352V46.28C161.61 46.28 161.754 46.28 161.826 46.352H161.538ZM153.978 38.216V38L154.122 38.072L154.194 38.216H153.978ZM146.778 30.728V30.656H146.922C146.922 30.656 146.994 30.656 147.066 30.728H146.778ZM161.106 44.624V44.48C161.178 44.48 161.25 44.552 161.394 44.552L161.106 44.624ZM154.194 37.64V37.568L153.762 37.208V37.136C153.834 37.208 153.978 37.352 154.05 37.424L153.762 37.208L154.194 37.568C154.266 37.568 154.338 37.568 154.41 37.64H154.194ZM146.994 30.512V30.368C147.138 30.44 147.21 30.44 147.282 30.512H146.994ZM164.202 46.856V46.712C164.346 46.712 164.418 46.784 164.49 46.784L164.202 46.856ZM147.498 29.576C147.498 29.648 147.354 29.72 147.282 29.72V29.288C147.354 29.36 147.426 29.432 147.498 29.576ZM161.25 41.168C161.322 41.168 161.322 41.168 161.394 41.168H161.25ZM161.538 41.24V41.168C161.61 41.168 161.754 41.168 161.826 41.24H161.538ZM154.626 32.6C154.698 32.672 154.77 32.672 154.842 32.744H154.626V32.6L154.986 32.24C154.914 32.312 154.77 32.312 154.77 32.24C154.77 32.168 154.842 32.024 154.842 31.952C154.986 31.952 155.13 31.952 155.202 32.024L154.626 32.6ZM157.074 34.328V34.184C157.146 34.256 157.29 34.256 157.362 34.256L157.074 34.328ZM161.97 36.992V36.848C162.114 36.92 162.186 36.92 162.258 36.992H161.97ZM164.922 39.44V39.368C164.994 39.368 165.066 39.368 165.138 39.44H164.922ZM147.714 20.648V20.576L146.922 20.504C147.282 20.504 147.642 20.504 147.93 20.648H147.714ZM164.922 37.208V37.136C164.994 37.136 165.066 37.136 165.138 37.208H164.922ZM159.522 31.376V31.304C159.594 31.304 159.738 31.376 159.81 31.376H159.522ZM151.53 21.368V21.224C151.602 21.224 151.674 21.296 151.746 21.296L151.53 21.368ZM147.282 16.832C147.282 16.904 147.138 16.976 146.994 16.976V16.76V16.544C147.138 16.616 147.21 16.688 147.282 16.832ZM161.322 30.944V30.872C161.394 30.872 161.538 30.872 161.61 30.944H161.322ZM161.682 30.728C161.61 30.728 161.538 30.8 161.466 30.8L161.682 30.728ZM161.898 30.296C161.898 30.512 161.826 30.656 161.754 30.8L161.682 30.728C161.61 30.656 161.538 30.512 161.538 30.368L161.826 30.224L161.898 30.296ZM147.498 16.4V16.328C147.57 16.328 147.642 16.4 147.714 16.4H147.498ZM166.938 35.696C166.938 35.624 166.938 35.552 166.938 35.552C167.01 35.624 167.082 35.768 167.154 35.84L166.938 35.696ZM162.258 30.728V30.656C162.33 30.656 162.402 30.656 162.474 30.728H162.258ZM151.026 19.136V18.992C151.17 18.992 151.242 19.064 151.314 19.064L151.026 19.136ZM164.922 30.728V30.656C164.994 30.656 165.066 30.656 165.138 30.728H164.922ZM171.186 36.632V36.416L171.33 36.488L171.402 36.632H171.186ZM170.466 35.84V35.768C170.61 35.768 170.682 35.84 170.754 35.84H170.466ZM165.57 30.296C165.426 30.224 165.282 30.152 165.21 30.152L165.138 29.936H165.354V30.152H165.57V30.296ZM171.402 35.84V35.768C171.474 35.768 171.546 35.84 171.618 35.84H171.402ZM162.258 26.696V26.624C162.33 26.624 162.402 26.624 162.474 26.696H162.258ZM168.234 31.592V31.52H168.306C168.378 31.52 168.45 31.592 168.522 31.592H168.234ZM146.994 10.28C147.066 10.28 147.138 10.28 147.21 10.28H146.994ZM147.282 10.424V10.28C147.354 10.28 147.426 10.352 147.498 10.352L147.282 10.424ZM168.45 30.944V30.872C168.594 30.872 168.666 30.872 168.738 30.944H168.45ZM171.186 32.528V32.384C171.258 32.456 171.33 32.456 171.402 32.528H171.186ZM147.282 8.47999L147.21 8.11999L147.282 8.26399C147.354 8.33599 147.426 8.47999 147.498 8.62399L147.282 8.47999ZM171.402 32.312V32.168C171.474 32.24 171.546 32.24 171.618 32.24L171.402 32.312ZM161.97 22.448V22.376C162.114 22.376 162.186 22.376 162.258 22.448H161.97ZM161.754 21.944C161.826 21.872 161.898 21.728 161.97 21.656C161.97 21.728 161.97 21.728 161.97 21.728L161.754 21.944ZM161.97 21.656H161.898L161.97 21.584V21.656ZM161.97 21.584V21.44C162.114 21.512 162.258 21.512 162.402 21.512L161.97 21.584ZM162.906 21.296C162.834 21.296 162.762 21.368 162.69 21.368V21.224C162.762 21.224 162.834 21.296 162.906 21.296ZM150.162 8.83999V8.69599C150.234 8.76799 150.306 8.76799 150.378 8.83999H150.162ZM149.73 7.75999V7.61599C149.802 7.68799 149.874 7.83199 149.946 7.90399L149.73 7.75999ZM162.258 19.568V19.424C162.33 19.496 162.402 19.496 162.474 19.568H162.258ZM165.21 21.224L165.138 21.008H165.354V21.224H165.21ZM165.138 19.784V19.64C165.21 19.712 165.282 19.712 165.354 19.784H165.138ZM165.21 19.208H165.138C165.138 19.136 165.138 19.064 165.138 18.992C165.21 19.064 165.282 19.208 165.354 19.352L165.21 19.208ZM162.258 15.968V15.896C162.33 15.896 162.402 15.896 162.474 15.968H162.258ZM161.97 14.888V14.744L161.61 14.672C161.826 14.744 162.042 14.744 162.258 14.816L161.97 14.888ZM161.97 12.728V12.512L162.114 12.728H161.97ZM164.922 14.672V14.528C164.994 14.528 165.066 14.6 165.138 14.6L164.922 14.672ZM162.474 7.03999V6.89599C162.546 6.96799 162.618 6.96799 162.69 7.03999H162.474ZM145.266 63.488V63.56C145.338 63.56 145.41 63.56 145.482 63.56L145.266 63.488ZM149.946 66.368V66.512C150.018 66.512 150.09 66.512 150.162 66.44L149.946 66.368ZM145.05 50.096V50.168C145.122 50.168 145.194 50.168 145.266 50.168L145.05 50.096ZM145.05 49.16V49.376L145.266 49.52L145.05 49.16ZM161.754 64.784V64.928C161.826 64.928 161.97 64.928 162.042 64.928L161.754 64.784ZM165.138 65.288V65.36C165.21 65.36 165.282 65.36 165.354 65.36L165.138 65.288ZM160.458 56.792V56.864C160.53 56.864 160.602 56.864 160.674 56.864L160.458 56.792ZM143.61 39.368H143.466L143.394 39.584L143.466 39.656C143.61 39.656 143.754 39.512 143.826 39.44L143.61 39.368ZM144.114 39.368V39.44C144.186 39.44 144.258 39.44 144.402 39.44L144.114 39.368ZM150.594 44.048V44.12C150.666 44.12 150.738 44.12 150.882 44.12L150.594 44.048ZM160.242 53.192V53.336C160.314 53.336 160.386 53.264 160.458 53.264L160.242 53.192ZM160.242 52.76V52.832C160.386 52.832 160.458 52.832 160.602 52.832L160.242 52.76ZM142.746 33.104V33.176C142.89 33.176 142.962 33.176 143.034 33.176L142.746 33.104ZM159.954 48.944V49.088C160.098 49.088 160.242 49.016 160.386 49.016L159.954 48.944ZM144.762 32.888V32.96C144.906 32.96 144.978 32.96 145.05 32.96L144.762 32.888ZM160.242 47.576V47.72C160.314 47.72 160.386 47.72 160.458 47.72L160.242 47.576ZM160.242 46.064V46.136C160.314 46.136 160.386 46.136 160.458 46.136L160.242 46.064ZM164.706 50.312V50.456L164.922 50.6L164.706 50.312ZM152.898 38C152.682 38 152.538 38.144 152.394 38.216V38.36C152.466 38.36 152.538 38.432 152.61 38.432C152.682 38.432 152.898 38.216 152.898 38.072V38ZM155.274 38V38.144C155.346 38.144 155.49 38.072 155.562 38.072L155.274 38ZM172.482 35.336C172.482 34.544 172.194 33.752 171.618 33.32L171.69 33.176C171.834 33.032 171.978 32.888 171.978 32.744C171.978 32.6 171.906 32.528 171.834 32.384V32.168H171.69C170.898 32.168 170.754 31.16 170.322 31.16C170.106 31.16 169.962 31.376 169.818 31.52C169.746 30.944 169.314 30.656 168.738 30.656C168.45 30.656 168.162 30.8 168.018 31.088C168.018 31.16 167.946 31.304 167.874 31.376C167.73 31.304 167.442 30.8 167.298 30.728C167.154 30.728 167.154 31.016 167.154 31.088V31.304C166.794 31.232 166.362 31.016 166.146 30.728C165.93 30.656 165.714 30.368 165.57 30.152L165.498 30.008L165.354 29.936L165.282 29.792C165.066 29.72 164.922 29.504 164.922 29.288C165.786 28.856 165.57 27.416 165.57 26.624L165.354 26.48V26.408C165.642 26.192 165.93 25.904 165.93 25.544C165.93 25.4 165.93 25.328 165.93 25.256H166.002C165.786 25.112 165.57 24.968 165.498 24.752C165.426 24.464 165.57 24.104 165.354 23.888C165.786 23.744 166.074 23.528 166.074 23.096C166.074 22.808 165.57 21.44 165.354 21.224H165.498C165.498 21.152 165.426 21.08 165.354 21.008L165.426 20.792C165.714 20.288 165.858 19.64 165.858 18.992C165.858 18.776 165.858 18.56 165.786 18.344C165.642 18.344 165.498 18.416 165.426 18.488L165.498 18.416C165.498 18.056 165.57 17.696 165.786 17.408C165.642 17.408 165.282 17.336 165.282 17.12C165.282 16.976 165.642 16.688 165.714 16.472C165.714 16.328 165.426 16.328 165.354 16.328C165.354 15.896 165.714 16.04 165.714 15.464V15.248C165.714 15.032 165.714 14.816 165.714 14.6C165.714 13.448 165.354 12.368 165.354 11.216V10.712C165.138 10.424 164.49 9.84799 164.49 9.48799C164.49 9.41599 164.562 9.27199 164.706 9.19999L164.634 9.05599L164.49 8.91199C164.418 8.62399 164.346 8.26399 163.986 8.26399H163.77C163.914 8.11999 163.986 7.97599 163.986 7.83199C163.986 7.61599 163.626 7.54399 163.482 7.47199L163.266 7.61599C163.122 7.61599 163.122 7.25599 163.122 7.18399L163.194 7.03999C163.194 6.82399 162.618 6.82399 162.474 6.82399H162.33L162.186 6.75199C161.898 6.75199 161.61 7.39999 161.61 7.68799C161.61 8.19199 161.682 8.76799 161.322 9.19999C161.466 9.27199 161.754 9.41599 161.754 9.55999L161.61 9.84799C161.682 9.99199 161.754 10.208 161.754 10.424C161.754 10.568 161.682 10.784 161.682 11C161.682 11.216 161.682 11.432 161.97 11.432C162.042 11.432 162.186 11.432 162.258 11.432C162.042 11.648 161.898 11.864 161.754 12.08C161.898 12.224 161.97 12.368 161.97 12.512H161.754L161.826 12.728H161.97C161.898 12.872 161.826 13.52 161.826 13.736C161.826 13.88 161.826 14.024 161.97 14.096C161.754 14.312 161.754 14.312 161.61 14.672C161.61 14.744 161.538 14.888 161.538 14.96C161.538 15.248 161.826 15.392 161.97 15.392V15.536L161.754 15.68C161.754 15.968 161.97 16.328 162.258 16.544V16.616L162.114 16.688C161.754 16.976 161.682 17.48 161.682 17.912C161.682 18.344 161.754 18.776 161.754 19.208C161.754 19.496 161.754 19.856 161.538 20.144L161.61 20.216L161.754 20.36C161.754 20.72 161.682 21.08 161.538 21.44C161.682 21.512 161.898 21.584 161.898 21.656L161.754 21.944L161.682 22.016C161.754 22.088 161.97 22.16 161.97 22.304C161.97 22.52 161.682 22.664 161.538 22.808L161.61 23.024C161.754 23.096 161.898 23.168 161.97 23.312C161.97 23.456 161.61 23.528 161.61 23.816C161.61 24.032 161.682 24.176 161.754 24.392C161.682 24.392 161.538 24.392 161.466 24.464C161.682 24.608 161.754 24.896 161.754 25.112V25.256L161.61 25.328C161.538 25.544 161.466 25.76 161.466 25.976C161.466 26.336 161.61 26.696 161.754 27.056H161.682C161.682 27.272 161.61 27.632 161.322 27.704V27.92C161.538 28.208 161.754 28.424 161.97 28.64C161.25 28.928 161.466 30.152 161.322 30.872C161.178 30.872 161.034 30.872 160.89 30.944C160.602 30.872 160.314 30.8 160.026 30.8C159.882 30.8 159.738 30.8 159.522 30.872V30.944C159.09 31.088 158.73 31.304 158.442 31.52C158.154 31.448 157.938 31.376 157.65 31.376C157.29 31.376 157.002 31.592 156.858 31.952C156.642 31.808 156.354 31.592 156.066 31.592C155.778 31.592 155.562 31.736 155.274 31.736C155.13 31.736 154.914 31.664 154.842 31.52L154.698 31.592C154.554 31.664 154.41 31.88 154.194 31.88C154.122 31.88 153.978 31.808 153.978 31.736C153.618 31.88 153.258 32.096 152.826 32.096C152.682 32.096 152.466 32.096 152.25 32.096C152.25 31.952 152.178 31.808 152.034 31.808C151.818 31.808 151.602 32.024 151.53 32.168C151.386 32.024 151.386 31.736 151.386 31.52C151.386 31.16 151.458 30.512 151.242 30.152C151.386 30.008 151.458 29.72 151.458 29.504C151.458 29.288 151.386 29.072 151.386 28.856C151.53 28.496 151.314 27.92 151.314 27.488C151.314 27.056 151.386 26.624 151.746 26.408C151.674 26.12 151.458 25.904 151.458 25.616L151.53 25.256H151.602L151.458 24.968C151.458 24.896 151.602 24.824 151.746 24.824C151.746 24.68 151.746 24.536 151.746 24.392C151.746 24.248 151.746 24.104 151.602 24.032C151.602 23.6 151.674 23.168 151.53 22.808H151.602C151.602 22.52 151.602 22.16 151.962 22.16L151.818 21.944C151.818 21.584 151.818 21.152 151.818 20.792C151.818 20.432 151.89 20.072 151.962 19.64H151.818V19.496C151.818 19.28 151.89 18.992 151.962 18.776C151.962 18.704 151.962 18.632 151.962 18.56C151.962 18.416 151.89 18.272 151.746 18.272C151.674 18.2 151.602 18.056 151.602 17.984C151.602 17.264 152.106 16.904 152.106 16.688C152.106 16.472 151.89 16.4 151.746 16.328C151.818 16.112 151.818 15.824 151.818 15.608C151.818 14.96 151.746 14.24 151.746 13.592C151.746 13.16 151.818 12.8 151.818 12.368C151.818 11.72 151.674 11 151.242 10.496H151.17C151.386 9.84799 150.954 9.41599 150.522 9.12799L150.594 9.19999H150.738C150.522 8.62399 150.378 8.11999 150.162 7.61599L150.018 7.54399C149.946 7.39999 149.73 7.32799 149.586 7.32799C149.514 7.32799 149.37 7.32799 149.226 7.39999C149.298 7.25599 149.37 7.11199 149.442 6.96799C149.442 6.75199 149.226 6.60799 149.01 6.46399C149.082 6.67999 149.082 6.89599 148.866 6.89599C148.722 6.89599 148.578 6.89599 148.506 6.82399C148.578 6.75199 148.722 6.60799 148.722 6.46399C148.722 6.17599 148.002 5.95999 147.786 5.81599C147.57 5.81599 147.57 6.31999 147.57 6.53599C147.426 6.96799 147.21 7.39999 146.778 7.61599C146.922 7.61599 147.426 7.54399 147.426 7.83199C147.426 7.90399 147.282 8.04799 147.21 8.11999C147.066 8.55199 146.85 8.98399 146.562 9.41599C146.85 9.34399 147.138 9.34399 147.138 9.70399C147.138 9.91999 147.066 10.064 146.994 10.28L146.922 10.424C146.994 10.568 147.066 10.64 147.066 10.784C147.066 11 146.922 11.072 146.778 11.144C146.922 11.288 147.066 11.36 147.066 11.576C146.922 12.08 147.282 12.224 147.714 12.296L147.642 12.44C147.21 12.584 146.85 12.8 146.562 13.16L146.922 13.376C147.066 13.376 147.138 13.16 147.138 13.088C147.282 13.232 147.426 13.376 147.426 13.592C147.426 13.808 146.922 14.096 146.922 14.6C146.922 14.888 147.066 15.104 147.066 15.392C147.066 15.824 147.066 15.896 147.498 16.112V16.184C147.426 16.184 147.282 16.112 147.21 16.112C146.922 16.112 146.85 16.544 146.778 16.76C146.778 17.696 147.138 17.552 147.138 17.912C147.138 18.056 147.066 18.2 147.066 18.344C147.066 18.92 147.498 19.424 147.498 19.784C147.498 20.144 147.066 20.144 146.778 20.144C146.778 20.216 146.85 20.36 146.922 20.504C147.066 20.504 147.138 20.648 147.138 20.72C147.138 20.936 146.922 21.08 146.778 21.224C147.066 21.368 147.138 21.656 147.138 21.872V22.448L146.994 22.664C146.994 22.88 147.282 22.952 147.498 23.024L147.426 23.168L147.282 23.24C147.21 23.888 146.922 24.536 146.922 25.184C147.066 25.472 147.138 25.976 147.138 26.264C147.138 26.84 146.922 27.416 146.922 27.992C146.922 28.208 146.994 28.496 147.282 28.64C147.21 28.784 147.138 28.928 147.138 29.072C147.138 29.576 146.994 30.08 146.562 30.368H146.706L146.634 30.656C146.562 30.728 146.562 30.872 146.562 30.944C146.562 31.016 146.562 31.16 146.706 31.16V31.232C146.778 31.448 146.778 31.592 146.778 31.808C146.778 31.952 146.706 32.744 146.418 32.744C146.274 32.672 146.13 32.6 145.986 32.6C145.41 32.6 145.41 33.464 144.978 33.464C144.762 33.464 144.69 33.248 144.546 33.104L144.474 32.888H144.33V33.104H144.114C144.042 33.176 143.898 33.248 143.826 33.248C143.682 33.248 143.538 33.176 143.466 33.104H143.322C143.25 33.32 143.178 33.752 142.89 33.752C142.458 33.752 142.53 33.104 142.17 33.104C141.954 33.104 141.81 33.32 141.666 33.392H141.522C141.306 33.608 141.018 33.68 140.802 33.752L140.658 33.896C140.658 33.752 140.586 33.608 140.514 33.536C140.226 34.04 140.01 34.544 139.65 35.12C139.866 36.2 140.226 37.28 141.09 38.144L141.018 38.216V38.432C141.234 38.432 141.45 38.36 141.666 38.216C141.738 38.36 141.738 38.576 141.882 38.648C142.242 38.648 142.674 38.576 143.034 38.792V38.648C143.322 38.72 143.61 38.792 143.754 39.008C143.898 39.008 144.042 39.008 144.114 39.08C144.258 39.08 144.402 39.08 144.546 39.08C144.69 38.936 144.834 38.72 145.122 38.72C145.41 38.72 145.554 39.296 145.554 39.512L145.698 39.584C145.842 39.656 145.914 39.728 145.914 39.944C145.914 40.088 145.842 40.232 145.77 40.304C145.914 40.376 146.058 40.448 146.13 40.52L145.914 40.664C145.77 41.168 145.698 41.672 145.698 42.176C145.698 42.536 145.842 42.896 145.842 43.256C145.842 43.328 145.77 43.472 145.698 43.616C145.482 43.904 145.338 44.192 145.338 44.552C145.338 44.768 145.41 44.984 145.482 45.128H145.266V45.272C145.266 45.344 145.266 45.488 145.338 45.56L145.482 45.632L145.41 45.776L145.266 45.848C145.482 46.208 145.554 46.712 145.554 47.144V47.288C145.41 47.288 145.338 47.36 145.266 47.504C145.266 47.648 145.554 47.792 145.698 47.864C145.698 47.936 145.77 48.08 145.77 48.152C145.77 48.296 145.698 48.512 145.698 48.728L145.554 48.656L145.338 48.512C145.194 48.512 145.122 48.656 145.05 48.728C145.122 48.872 145.194 49.016 145.266 49.16H145.482C145.482 49.52 145.554 49.952 145.698 50.312C145.338 50.384 145.194 50.744 145.194 51.032C145.194 51.32 145.338 51.536 145.338 51.824C145.338 53.552 145.05 55.208 145.05 56.936C145.05 57.296 145.05 58.016 145.266 58.304C145.194 58.664 145.122 58.952 145.122 59.24C145.05 59.672 144.978 60.176 144.762 60.536C144.834 61.04 144.978 61.472 145.338 61.76L145.266 61.904C145.122 62.048 145.122 62.192 145.122 62.408C145.122 62.624 145.194 62.84 145.266 63.056C145.554 63.128 145.914 63.272 145.914 63.632C145.914 63.848 145.77 63.992 145.698 64.136V64.352C146.058 64.928 146.49 65.504 146.922 66.008C147.282 66.44 147.93 67.016 148.506 67.016C148.722 67.016 148.866 66.944 148.938 66.8C149.082 66.584 149.37 66.584 149.514 66.584H149.73C149.874 66.224 150.018 66.08 150.018 65.576C150.018 64.712 149.802 63.848 149.802 62.984C149.802 62.192 149.802 61.4 149.73 60.536H149.802C149.802 60.464 149.73 60.392 149.73 60.32C149.658 59.96 149.586 59.6 149.586 59.24C149.586 59.096 149.658 58.952 149.658 58.736C149.37 58.736 149.226 58.52 149.226 58.232C149.226 58.088 149.226 58.016 149.226 57.872C149.298 58.016 149.442 58.16 149.586 58.232C149.658 58.232 149.73 58.088 149.802 58.016C149.658 57.872 149.586 57.728 149.514 57.584C149.514 57.44 149.73 57.44 149.802 57.44H149.946C149.874 57.224 149.802 56.936 149.802 56.72C149.802 56.288 149.946 55.928 150.018 55.568C149.946 55.496 149.802 55.352 149.802 55.208C149.802 55.064 149.946 54.92 150.018 54.848C150.018 54.776 150.09 54.632 150.162 54.56C150.018 54.2 149.874 53.84 149.874 53.48C149.874 52.76 150.09 51.968 150.09 51.176C150.09 51.104 150.09 50.96 150.018 50.96L149.802 51.104L149.73 50.96C149.946 50.816 150.162 50.528 150.162 50.24C150.162 49.952 149.946 49.736 149.73 49.52V49.376C149.946 49.304 150.09 49.088 150.09 48.8C150.09 48.728 150.09 48.584 150.018 48.512C150.018 48.296 150.09 48.08 150.09 47.864C150.09 47.72 150.09 47.504 149.946 47.36C150.234 47.36 150.306 47.072 150.234 46.784V46.712H150.378C150.45 46.496 150.45 46.28 150.45 45.992C150.45 45.704 150.378 45.416 150.234 45.128C150.378 44.768 150.594 44.624 150.594 44.264C150.45 44.192 149.946 44.12 149.946 43.976C149.946 43.832 150.378 43.688 150.522 43.688C150.378 43.544 150.162 43.4 150.018 43.256C150.018 43.04 150.666 43.112 150.666 42.68C150.666 42.608 150.594 42.536 150.594 42.464C150.594 42.104 150.594 41.744 150.522 41.384H150.378C150.594 41.168 150.81 40.88 150.81 40.52C150.81 40.232 150.666 40.016 150.666 39.728C150.666 39.44 150.882 39.008 151.026 38.792C151.17 38.648 151.314 38.648 151.53 38.648C151.53 38.432 151.818 38.432 152.034 38.432H152.178C152.394 37.856 152.61 37.568 153.258 37.568C153.33 37.856 153.474 38.072 153.618 38.36C153.69 38.288 153.834 38.216 153.978 38.216L154.122 38.36H154.194V38.216C154.266 38.072 154.41 37.856 154.554 37.856C154.698 37.928 154.842 38.072 154.986 38.144C155.202 38.144 155.202 37.712 155.202 37.64V37.424C155.274 37.568 155.346 37.712 155.49 37.784C155.634 37.784 155.706 37.64 155.778 37.568C156.138 37.568 156.57 37.568 156.57 37.064L156.498 36.776C156.714 37.064 156.93 37.28 157.074 37.568C157.146 37.424 157.218 36.992 157.434 36.992C157.578 36.992 157.65 37.28 157.938 37.28L158.082 37.208L158.226 37.352C158.37 37.136 158.586 36.92 158.874 36.92C159.018 36.92 159.162 37.064 159.234 37.208L159.522 36.848C159.738 36.992 160.242 37.208 160.458 37.208C160.602 37.208 161.178 36.992 161.178 37.352C161.178 37.424 161.106 37.496 161.106 37.568C161.034 37.712 160.962 37.928 160.962 38.072C160.962 38.36 161.106 38.576 161.25 38.72L161.322 38.864C161.25 39.08 161.178 39.296 161.178 39.512C161.178 39.584 161.178 39.728 161.25 39.8H161.106C161.178 40.088 161.25 40.376 161.25 40.736C161.25 40.88 161.25 41.024 161.25 41.168C161.25 41.456 161.106 41.672 160.89 41.816C160.818 41.888 160.818 42.032 160.818 42.176C160.818 42.392 160.962 42.536 161.25 42.608C161.034 42.824 160.818 43.04 160.818 43.328C160.818 43.4 160.89 43.472 160.89 43.616H160.674C160.746 43.76 160.89 43.976 160.89 44.264C160.89 44.336 160.818 44.48 160.746 44.552L160.89 44.624L161.106 44.696C160.818 44.84 160.602 45.056 160.602 45.344C160.602 45.416 160.674 45.488 160.674 45.632L160.53 45.704C160.674 45.92 160.818 46.064 160.89 46.28C160.962 46.352 161.106 46.496 161.106 46.64C161.106 46.784 160.89 46.856 160.674 46.928C160.674 47 160.674 47.072 160.674 47.144V47.36C160.602 47.72 160.602 48.008 160.602 48.296C160.602 48.8 160.746 49.304 160.746 49.808C160.746 50.024 160.602 50.168 160.458 50.312C160.818 50.6 160.89 51.176 160.89 51.608H160.674V51.824H160.89C160.962 52.4 160.962 52.976 160.674 53.408C160.458 53.768 160.386 54.2 160.386 54.56C160.386 54.776 160.386 54.992 160.458 55.208C160.602 55.28 160.962 55.424 160.962 55.64C160.962 56 160.818 56.36 160.818 56.72C160.818 57.008 160.818 57.368 160.89 57.656C160.962 57.656 161.034 57.656 161.034 57.656C160.89 57.656 160.674 57.656 160.53 57.584C160.53 57.8 160.458 57.944 160.242 57.944C160.17 57.944 160.026 57.872 159.954 57.872C160.17 58.448 160.242 59.096 160.242 59.672C160.53 59.96 160.674 60.392 160.746 60.752C160.818 60.752 160.818 60.824 160.89 60.824C160.818 61.4 160.746 61.904 160.746 62.552C160.746 62.768 160.746 63.272 160.962 63.488C161.034 63.272 161.25 62.984 161.394 62.912L161.466 63.128C161.466 63.56 161.322 63.92 161.322 64.352C161.322 64.424 161.394 64.568 161.466 64.568C161.61 64.568 161.682 64.424 161.754 64.352L161.97 64.496V64.352C162.402 64.424 162.474 64.784 162.474 65.072V65.288C162.474 65.504 162.618 65.576 162.762 65.576C163.194 65.576 163.842 65.504 163.986 65.936C164.13 65.792 164.274 65.576 164.418 65.576H164.562C164.634 65.504 164.85 65.36 164.85 65.216L164.706 65.072C164.778 64.856 164.922 64.784 165.066 64.784C165.138 64.784 165.282 64.784 165.354 64.784V64.568V64.352C165.21 64.064 165.138 63.776 165.138 63.488C165.138 62.984 165.498 61.976 164.706 61.904C165.138 61.544 165.21 60.968 165.21 60.464C165.21 59.888 165.138 59.312 165.138 58.664V58.304C164.922 58.232 164.706 58.016 164.706 57.728C164.706 57.584 164.778 57.44 164.778 57.296V57.224C164.634 56.864 164.562 56.504 164.562 56.072C164.562 55.712 164.634 55.352 164.634 54.92C164.634 54.776 164.634 54.632 164.562 54.488C164.562 53.768 164.706 53.12 164.706 52.4C164.706 51.68 164.49 50.96 164.49 50.24C164.49 50.096 164.562 50.024 164.706 50.024C164.778 50.024 164.85 50.024 164.922 50.096V49.88C164.922 49.448 164.85 49.016 164.562 48.656L164.706 48.584L164.922 48.728C164.85 48.008 164.922 47.576 164.49 46.928C164.778 46.856 164.85 46.568 164.85 46.28C164.85 46.064 164.778 45.848 164.778 45.704C164.778 45.488 164.922 45.416 165.138 45.344C164.922 45.128 164.706 44.84 164.706 44.48C164.706 43.976 165.138 43.472 165.138 43.256C165.138 43.04 164.778 43.04 164.706 42.896C164.922 42.608 165.21 42.392 165.354 42.032C165.282 41.672 165.138 41.384 164.922 41.096V40.88C164.994 40.736 165.066 40.592 165.066 40.448C165.21 39.944 165.282 39.44 165.282 38.936C165.282 38.504 165.066 37.568 165.354 37.136C165.426 36.992 165.498 36.92 165.57 36.848V37.136V37.352C165.714 37.352 165.858 37.352 166.002 37.352C166.218 37.352 166.506 37.352 166.506 37.064C166.506 36.992 166.506 36.92 166.506 36.848L167.01 36.56L167.154 36.632C167.082 36.92 167.154 37.064 167.442 37.064C167.586 37.064 167.73 36.992 167.946 36.992L168.162 36.56L168.234 36.632C168.234 36.848 168.306 37.064 168.522 37.064C168.738 37.064 168.882 36.92 169.026 36.776C169.314 36.992 169.53 37.136 169.818 37.352C169.89 36.92 170.106 36.632 170.538 36.632C170.682 36.632 170.754 36.704 170.826 36.776C170.898 36.704 171.042 36.632 171.186 36.632L171.33 36.776H171.402V36.632H171.474C171.546 36.56 171.618 36.416 171.69 36.416C172.05 36.2 172.482 35.768 172.482 35.336ZM157.506 37.352V37.424C157.65 37.424 157.722 37.424 157.794 37.424L157.506 37.352ZM159.306 37.352V37.424C159.45 37.424 159.594 37.424 159.738 37.424L159.306 37.352ZM160.89 38.648V38.792C160.962 38.792 161.034 38.792 161.106 38.792L160.89 38.648ZM160.674 38.432V38.576C160.746 38.576 160.818 38.576 160.89 38.504L160.674 38.432ZM160.674 37.352V37.496L160.89 37.64L160.674 37.352ZM146.778 21.872V22.016C146.85 22.016 146.994 22.016 147.066 22.016L146.778 21.872ZM151.746 23.024V23.168C151.818 23.168 151.89 23.096 151.962 23.096L151.746 23.024ZM170.034 37.136V37.208C170.106 37.208 170.25 37.208 170.322 37.208L170.034 37.136ZM146.562 12.08V12.152C146.634 12.152 146.778 12.152 146.85 12.152L146.562 12.08ZM171.618 36.848V36.992C171.69 36.992 171.762 36.992 171.834 36.992L171.618 36.848ZM165.57 29.288V29.36C165.642 29.36 165.714 29.36 165.858 29.36L165.57 29.288ZM146.562 10.064V10.136C146.634 10.208 146.778 10.136 146.85 10.136L146.562 10.064ZM172.482 35.984V36.128C172.554 36.128 172.698 36.056 172.77 36.056L172.482 35.984ZM172.05 33.104L172.122 33.248L172.266 33.392L172.05 33.104ZM146.778 7.83199V7.90399C146.85 7.90399 146.994 7.90399 147.066 7.90399L146.778 7.83199ZM161.322 22.376V22.448C161.394 22.448 161.466 22.448 161.61 22.448L161.322 22.376ZM169.602 30.368V30.512C169.674 30.512 169.746 30.512 169.818 30.512L169.602 30.368ZM165.786 26.12V26.264C165.858 26.264 166.002 26.264 166.074 26.264L165.786 26.12ZM161.322 21.44V21.584C161.394 21.584 161.466 21.584 161.61 21.512L161.322 21.44ZM148.794 6.03199V6.17599C148.866 6.17599 149.01 6.10399 149.082 6.10399L148.794 6.03199ZM165.57 12.512V12.656C165.642 12.656 165.714 12.656 165.858 12.584L165.57 12.512ZM180.635 64.136L180.563 64.064H180.707L180.635 64.136ZM183.875 63.992H183.803L183.731 64.136L183.659 63.992H183.587C183.659 63.848 183.803 63.776 183.947 63.776L184.019 63.848L183.875 63.992ZM176.243 47.36C176.243 47.432 176.243 47.432 176.171 47.504V47.216L176.243 47.36ZM175.739 45.632H175.523V45.344C175.595 45.344 175.739 45.344 175.739 45.416V45.632ZM175.451 39.728H175.523V39.8L175.451 39.728ZM175.523 39.728V39.656C175.595 39.656 175.667 39.656 175.667 39.728H175.523ZM176.603 34.688C176.531 34.832 176.243 34.832 176.099 34.832V34.472H176.243V34.328C176.315 34.328 176.387 34.4 176.459 34.472H176.315V34.544H176.459L176.603 34.688ZM176.099 34.256V34.112H176.243V34.256H176.099ZM178.547 20.288C178.547 20.432 178.475 20.504 178.403 20.576L178.259 20.432C178.259 20.36 178.331 20.288 178.403 20.216V20.144L178.475 20.072L178.547 20.216L178.403 20.144V20.216L178.547 20.288ZM179.267 17.624L179.195 17.48L179.339 17.552L179.267 17.624ZM180.275 15.32L180.131 15.392C180.059 15.392 179.987 15.392 179.915 15.32C179.915 15.248 179.843 15.176 179.843 15.176C179.915 15.176 179.987 15.176 180.059 15.176C180.131 15.176 180.203 15.176 180.275 15.248V15.32ZM180.851 10.784C180.851 10.928 180.779 11.072 180.635 11.144H180.491L180.563 11.072L180.419 11.144V10.64C180.563 10.64 180.851 10.64 180.851 10.784ZM180.419 10.64H180.347L180.419 10.568V10.64ZM175.667 40.232C175.523 40.232 175.451 40.304 175.307 40.376V40.448C175.307 40.592 175.379 40.808 175.451 40.952C175.595 40.952 175.739 40.448 175.739 40.376L175.667 40.232ZM193.955 62.336C193.955 61.544 193.307 61.184 193.307 60.392H193.235C193.163 60.32 193.019 60.248 192.947 60.176C192.947 59.528 192.947 58.88 192.587 58.304L192.443 58.232L192.371 58.16C192.299 57.872 192.227 57.584 192.227 57.224L192.299 57.296C192.083 57.08 192.011 56.936 192.011 56.648C191.651 56.432 191.219 56.216 191.075 55.856H190.859C190.643 55.64 190.355 55.64 190.067 55.64H189.851V55.856C189.419 56.576 189.059 57.296 188.915 58.088H188.699C189.059 58.664 189.131 59.384 189.131 60.032H188.915C188.915 60.032 188.771 60.104 188.699 60.104C188.339 60.104 187.691 60.032 187.475 59.816L187.115 60.032C186.971 59.888 186.683 59.744 186.467 59.744C186.179 59.744 185.747 59.816 185.531 60.032C185.315 60.032 185.027 60.032 184.811 60.176C184.667 59.96 184.379 59.672 184.091 59.816V59.6H183.875C183.443 59.96 180.131 59.744 179.195 59.96C179.195 59.672 179.339 59.456 179.339 59.096C179.339 58.808 179.267 58.52 178.979 58.376C179.051 58.304 179.123 58.232 179.195 58.16C179.195 57.8 178.979 57.584 178.619 57.728V57.584C178.907 57.44 178.979 57.152 178.979 56.792C178.979 56.792 178.907 56.504 178.835 56.432C178.763 56.648 178.763 56.792 178.691 57.008L178.619 57.08V57.008L178.547 56.792L178.619 56.648V56.288C178.619 56.216 178.619 56.072 178.619 55.928C178.691 56 178.763 56.144 178.835 56.144L178.619 55.928C178.619 55.784 178.691 55.64 178.763 55.496L178.907 55.28C178.907 55.136 178.835 54.992 178.763 54.92V52.832C178.691 52.76 178.619 52.616 178.619 52.472C178.619 52.328 178.691 52.256 178.763 52.112H178.835V52.04H178.763V51.536L178.403 51.104C178.403 50.672 178.691 50.6 179.123 50.6L178.547 50.456C178.547 50.312 178.691 50.096 178.835 49.952H178.619L178.691 49.808C178.691 49.664 178.691 49.52 178.619 49.448C178.763 49.304 178.979 49.16 178.979 48.944C178.979 48.656 178.619 48.656 178.403 48.656C178.403 48.152 178.547 47.648 178.835 47.144L178.619 47C178.763 46.856 179.051 46.712 179.051 46.424C179.051 46.352 178.907 46.208 178.763 46.208V46.064L178.907 45.776C178.907 45.56 178.619 45.488 178.475 45.416C178.619 45.128 178.835 44.84 178.979 44.48H178.763C178.763 44.408 178.691 44.336 178.619 44.264C178.763 44.048 178.763 43.832 178.763 43.544H178.619C178.763 43.328 178.763 43.112 178.763 42.896C178.763 42.608 178.691 42.32 178.619 42.032H178.475C178.619 41.888 178.763 41.744 178.763 41.6C178.763 41.456 178.691 41.384 178.619 41.312L178.763 41.096C178.763 40.952 178.547 40.88 178.475 40.88C178.763 40.304 178.763 39.656 178.763 39.008C178.763 38.864 178.763 38.648 178.619 38.648L178.547 38.504C178.547 38.36 178.691 38.36 178.763 38.288C178.763 38.144 178.907 38.144 178.979 38.144V37.136C179.051 36.992 179.123 36.776 179.123 36.56C179.123 36.2 179.051 35.912 178.835 35.696L179.051 35.768C179.411 35.768 179.339 35.264 179.339 35.048V34.688L179.195 34.328C179.627 34.184 179.627 33.032 179.627 32.672C179.627 32.24 179.555 31.88 179.555 31.448V31.304C179.771 31.088 180.059 30.872 180.059 30.584C180.059 30.44 179.987 30.296 179.915 30.152L180.131 29.72C180.059 29.648 180.059 29.576 180.059 29.432C180.059 29.216 180.131 29.072 180.347 29L179.987 28.424C180.059 28.424 180.347 28.352 180.347 28.136C180.347 27.992 180.059 27.776 179.915 27.704C179.915 27.488 180.131 27.416 180.131 27.128C180.995 26.624 180.275 24.32 181.067 23.888C181.067 23.312 181.139 22.808 181.139 22.304C181.139 22.088 181.139 21.944 181.067 21.8C181.427 21.368 181.643 20.864 181.787 20.36V20.288H181.859C181.859 19.928 181.859 19.64 182.003 19.352V19.064C182.003 18.92 182.003 18.776 181.859 18.704C182.147 18.128 182.507 17.552 182.579 16.904C182.579 16.76 182.507 16.328 182.795 16.328V15.176C183.227 14.6 183.659 13.52 183.731 12.728C184.091 12.584 184.235 12.44 184.307 12.008C184.379 11.936 184.523 11.792 184.595 11.72C184.595 11.576 184.235 11.576 184.163 11.576C184.307 11.36 184.523 11.216 184.523 10.928C184.523 10.712 184.379 10.568 184.307 10.424C184.379 10.352 184.523 10.28 184.523 10.136C184.523 9.84799 184.307 9.55999 184.307 9.27199V8.11999C184.091 8.04799 183.947 7.90399 183.947 7.75999C183.947 7.54399 184.019 7.32799 184.091 7.18399H183.875L183.299 6.60799C183.155 6.60799 183.083 6.53599 182.939 6.53599C182.723 6.53599 182.507 6.67999 182.363 6.82399H182.219C182.147 6.67999 182.075 6.60799 181.931 6.60799L181.715 6.75199L181.787 6.89599L181.859 6.96799C181.643 7.03999 181.283 7.47199 181.139 7.61599C181.355 7.61599 181.571 7.68799 181.571 7.90399H181.427H181.211C181.211 8.33599 181.211 9.05599 180.779 9.27199V9.84799C180.707 9.99199 180.563 9.99199 180.419 9.99199L180.635 10.28C180.635 10.424 180.491 10.496 180.419 10.568H180.275C180.275 10.784 180.419 10.928 180.419 11.144V11.216C180.059 11.576 179.771 12.152 179.699 12.656L179.627 12.728H179.699C179.843 12.8 179.987 12.872 180.059 13.016H179.915L179.843 12.944V13.088C179.843 13.16 179.843 13.232 179.843 13.304C179.843 13.592 179.771 13.808 179.699 14.024C179.483 14.168 179.267 14.24 179.051 14.456C179.483 14.456 179.483 14.816 179.483 15.104V15.176C179.699 15.608 179.843 16.04 179.843 16.472H179.483H179.411C179.555 16.328 179.555 16.112 179.555 15.896H179.123H178.907L178.691 16.112V17.048L178.907 17.264C178.835 17.336 178.763 17.408 178.691 17.408C178.763 17.48 178.763 17.624 178.763 17.696C178.763 17.912 178.619 18.2 178.547 18.416H178.763C178.763 18.488 178.835 18.632 178.835 18.704L178.691 18.92C178.691 19.424 178.619 19.712 178.187 19.856V20.072C178.043 20.216 177.971 20.432 177.971 20.648C177.971 21.008 178.043 21.296 178.187 21.584C178.043 21.728 177.971 21.872 177.971 22.016V21.944C177.827 22.232 177.755 22.592 177.755 22.88C177.539 23.096 177.467 23.384 177.611 23.672H177.395C177.395 24.464 177.395 24.608 176.819 25.256H177.035V25.544C177.107 25.4 177.251 25.04 177.395 25.04C177.539 25.112 177.611 25.184 177.683 25.256L177.611 25.4C177.251 25.472 177.035 25.76 177.035 26.192C177.035 26.408 177.107 26.696 177.251 26.912H177.395V27.056C177.251 27.056 177.107 27.2 177.035 27.272V28.136H176.963L176.747 27.92C176.819 27.992 176.891 28.064 176.963 28.136H177.035V28.424L176.891 28.568H176.819V28.64C176.819 28.712 176.819 28.784 176.819 28.784C176.819 29.144 176.675 29.36 176.387 29.576H176.603C176.603 29.72 176.603 29.864 176.603 29.936C176.603 30.296 176.675 30.584 176.819 30.872C176.891 31.016 176.963 31.16 176.963 31.232L176.891 31.376C176.675 31.376 176.603 31.232 176.459 31.16C176.459 31.304 176.459 31.448 176.459 31.592C176.459 31.88 176.315 32.096 176.027 32.168C176.243 32.384 176.459 32.672 176.459 32.96L176.315 33.104H176.243V33.176C176.243 33.248 176.243 33.32 176.171 33.464V33.536C176.171 33.68 176.171 33.752 176.243 33.896L176.099 34.112H175.883L176.099 34.256V34.472H175.883C175.955 34.544 176.099 34.688 176.099 34.832H176.027L176.243 35.048L175.595 35.696C175.739 35.696 175.811 35.624 175.955 35.624C176.099 35.624 176.099 35.696 176.099 35.84L176.243 36.056C176.171 36.128 175.955 36.128 175.883 36.128V36.344L175.523 37.136H176.099L176.171 37.352C176.171 37.496 175.811 37.496 175.667 37.496C175.739 37.568 175.739 37.64 175.739 37.712C175.739 38 175.451 38.072 175.235 38.072C175.379 38.144 175.595 38.216 175.739 38.36L175.523 38.432C175.523 38.504 175.451 38.648 175.451 38.72V38.864C175.379 39.008 175.451 39.08 175.523 39.224V39.584H175.307L175.451 39.728C175.739 40.016 175.955 40.304 175.955 40.736C175.955 40.952 175.811 41.24 175.739 41.456V41.888C175.739 42.32 175.523 42.464 175.091 42.608C175.667 42.968 175.667 43.688 175.739 44.336C175.523 44.552 175.523 44.84 175.523 45.056V45.272H175.163C175.307 45.272 175.307 45.488 175.307 45.632H175.163V46.064V46.208H174.947L175.163 46.424V46.28C175.235 46.28 175.307 46.28 175.307 46.352H175.163V46.424C175.379 46.424 175.523 46.568 175.523 46.784C175.523 46.856 175.307 47.144 175.307 47.792H175.379H175.523C175.667 47.792 175.739 47.792 175.811 47.864L175.739 48.08C175.667 48.224 175.739 48.296 175.739 48.44C175.739 48.512 175.595 48.512 175.595 48.512C175.451 48.512 175.307 48.512 175.235 48.44L175.163 48.224V48.656C175.091 49.016 175.235 49.304 175.235 49.664C175.235 49.952 175.163 50.168 175.163 50.384C175.163 50.672 175.235 50.96 175.523 50.96C175.739 51.176 175.955 51.176 176.243 51.176L176.099 51.32C175.811 51.32 175.451 51.536 175.163 51.68H175.091L175.163 51.752C175.163 52.112 175.307 52.472 175.523 52.832V54.128C175.379 54.272 175.235 54.416 175.235 54.56C175.235 54.704 175.307 54.848 175.307 54.992C175.451 54.992 175.523 54.992 175.523 55.064H175.307V54.92H175.163L175.307 55.136V55.28H175.163C175.163 55.64 175.307 56.072 175.307 56.432H175.379C175.451 56.504 175.451 56.648 175.451 56.72C175.451 56.936 175.379 57.152 175.307 57.368H175.019C175.235 57.44 175.667 57.656 175.667 57.872C175.667 57.944 175.523 58.088 175.523 58.16V58.376V59.456V59.528V59.6H175.307C175.307 59.888 175.451 60.032 175.739 60.104V60.392C175.739 60.752 175.595 61.112 175.595 61.472C175.595 61.544 175.667 61.688 175.739 61.76C175.739 62.12 175.883 62.264 176.099 62.552C176.099 62.84 176.099 63.056 175.811 63.272H176.099C176.171 63.272 176.315 63.272 176.387 63.344L176.243 63.416C176.315 63.632 176.387 63.848 176.387 63.992C176.387 64.208 176.315 64.424 176.243 64.64H176.459C176.603 64.712 176.747 64.784 176.891 64.856C177.323 65.144 177.611 65.648 178.043 65.936C178.187 65.864 178.187 65.648 178.259 65.576C178.403 65.576 178.619 65.576 178.835 65.576C178.979 65.576 179.267 65.576 179.339 65.432C179.483 65.576 179.627 65.648 179.843 65.648C180.275 65.648 180.707 65.504 181.067 65.216C181.211 65.216 181.355 65.144 181.499 65.144C181.715 65.144 181.715 65.216 181.715 65.36C182.003 65.288 182.219 65.072 182.291 64.784L182.579 64.928C182.795 65 182.723 64.568 182.867 64.424C183.011 64.424 183.227 64.784 183.299 64.928V64.784C183.515 64.64 183.731 64.496 184.019 64.496C184.235 64.496 184.451 64.64 184.595 64.784V64.856C184.955 64.496 186.035 64.784 186.179 64.496C186.323 64.64 186.611 64.64 186.827 64.64V64.784C187.115 64.784 187.403 64.856 187.619 64.64C187.619 64.784 187.691 64.928 187.835 64.928C187.979 64.928 188.123 64.856 188.195 64.784H188.411L188.699 65C188.771 65.072 188.843 65.216 188.987 65.216C189.131 65.216 189.347 65.144 189.491 65C189.419 65.288 189.635 65.36 189.923 65.36C190.139 65.288 190.355 65.216 190.571 65.216C190.931 65.216 191.219 65.36 191.363 65.576C191.651 65.576 191.939 65.432 192.155 65.216V65.36C192.299 65.36 192.515 65.36 192.587 65.216C193.451 65.216 192.947 64.64 193.307 64.208H193.523L193.739 64.064C193.883 63.488 193.955 62.912 193.955 62.336Z" fill="black"/>
<mask id="mask0_4_1436" style="mask-type:luminance" maskUnits="userSpaceOnUse" x="0" y="26" width="73" height="23">
<path d="M73 49V26L0 26V49H73Z" fill="white"/>
</mask>
<g mask="url(#mask0_4_1436)">
<path d="M152.273 27.4762H21.6218L21.6045 27.5127L25.7792 31.6862L19.2388 34.8574L24.6659 38.1561L20.4216 41.4002L24.8399 45.4826L21.6045 47.4873H21.5697L21.6218 47.5602H152.273V27.4762Z" fill="white"/>
<path d="M152.151 27.622C146.758 27.859 141.349 27.9683 135.956 28.1323L119.623 28.4422C108.734 28.588 97.8451 28.6609 86.9561 28.6973L70.6225 28.5697L54.289 28.2417C43.3999 27.9865 32.5109 27.8772 21.6218 27.9136L21.9697 27.7132V27.7496L21.8828 27.2029L26.0749 31.3582C26.2488 31.5404 26.2662 31.832 26.0923 32.0325C26.0575 32.0689 26.0053 32.1054 25.9531 32.1418L19.4127 35.3677L19.4475 34.4382L24.9268 37.6458C25.2051 37.8098 25.3095 38.1926 25.153 38.4842C25.1182 38.5571 25.066 38.63 24.9964 38.6664L20.8043 41.9651L20.8565 40.8534L25.3443 44.8629C25.6748 45.1545 25.7096 45.6648 25.4313 45.9929C25.3791 46.0658 25.3095 46.1205 25.2573 46.1569H25.2225L22.0045 48.2346C21.8132 48.3621 21.5871 48.3804 21.3783 48.3439H21.3435H21.3261L22.2481 46.977L22.3002 47.0499L21.6044 46.6854C32.4935 46.485 43.3825 46.3574 54.2716 46.2845C65.1606 46.2298 76.0496 46.0658 86.9387 46.1569C97.8277 46.1934 108.716 46.1569 119.605 46.3574L135.939 46.5579L152.273 46.8859L151.629 47.5602L152.151 27.622ZM152.412 27.4762L152.934 47.5602C152.934 47.9247 152.673 48.2346 152.325 48.2346H152.29L135.956 48.5626L119.623 48.7631C108.734 48.9453 97.8451 48.9271 86.9561 48.9636C76.067 49.0365 65.178 48.8907 54.289 48.836C43.3999 48.7631 32.5109 48.6355 21.6218 48.435H21.587C21.3087 48.435 21.0652 48.2892 20.9261 48.0523L20.8739 47.9794V47.9612C20.5956 47.5602 20.6825 47.0135 21.0826 46.7401C21.2913 46.5943 21.5697 46.5579 21.7958 46.6125L21.1696 46.7037L24.4572 44.7536L24.3354 46.0658L19.9867 41.8922C19.691 41.6371 19.6736 41.1815 19.9346 40.8899C19.9694 40.8534 20.0041 40.817 20.0389 40.7987L24.318 37.6276L24.3702 38.6846L18.9953 35.2948C18.7517 35.149 18.6648 34.8209 18.8213 34.584C18.8735 34.4929 18.9605 34.42 19.0474 34.3835L25.6226 31.267L25.5008 32.0325L21.3435 27.8225C21.187 27.6767 21.1696 27.4398 21.2739 27.2758V27.2393C21.3609 27.1117 21.5001 27.0388 21.6392 27.0388C32.5283 27.0753 43.4173 26.9659 54.3063 26.7108L70.6399 26.3827L86.9735 26.2552C97.8625 26.2916 108.751 26.3645 119.64 26.5103L135.974 26.8201C141.418 27.0024 146.863 27.0935 152.307 27.3304C152.377 27.3304 152.429 27.4033 152.447 27.4762H152.412Z" fill="#1F140F"/>
<path d="M151.768 34.3106C140.879 35.2219 129.99 35.5317 119.101 35.313C113.656 35.1125 108.212 34.7116 102.767 34.6204C97.323 34.5111 91.8785 34.6933 86.434 34.9303C80.9894 35.1854 75.5449 35.3859 70.1004 35.4588C64.6559 35.5499 59.2114 35.6593 53.7668 35.6228C42.8778 35.477 31.9888 35.1672 21.0997 34.3106C21.0301 34.3106 20.978 34.2377 20.978 34.1648C20.978 34.0919 21.0301 34.0372 21.0997 34.0372C31.9888 33.1624 42.8778 32.8526 53.7668 32.725C59.2114 32.6886 64.6559 32.7979 70.1004 32.8891C75.5449 32.962 80.9894 33.1624 86.434 33.4176C91.8785 33.6545 97.323 33.8185 102.767 33.7274C108.212 33.6181 113.656 33.2353 119.101 33.0349C129.99 32.8162 140.879 33.126 151.768 34.0372C151.837 34.0372 151.89 34.1101 151.89 34.183C151.89 34.2559 151.837 34.3106 151.768 34.3106Z" fill="#1F140F"/>
<path d="M151.768 40.9992C146.358 41.4913 140.966 41.7647 135.556 41.9287C130.146 42.0745 124.754 42.1656 119.344 42.0016C113.952 41.8011 108.542 41.4002 103.133 41.309C97.7228 41.1997 92.3304 41.3819 86.9207 41.6189C81.511 41.874 76.1186 42.0745 70.7089 42.1474C65.3166 42.2385 59.9068 42.3479 54.4971 42.3114C43.695 42.1656 32.893 41.8558 22.0909 40.9992C22.0213 40.9992 21.9692 40.9263 21.9692 40.8534C21.9692 40.7805 22.0213 40.7258 22.0909 40.7258C32.893 39.851 43.695 39.5412 54.4971 39.4136C59.9068 39.3772 65.2992 39.4865 70.7089 39.5776C76.1186 39.6505 81.511 39.851 86.9207 40.1062C92.3304 40.3431 97.7228 40.5071 103.133 40.416C108.525 40.3067 113.935 39.9239 119.344 39.7235C124.754 39.5594 130.146 39.6506 135.556 39.7964C140.966 39.9422 146.358 40.2338 151.768 40.7258C151.837 40.7258 151.89 40.7987 151.89 40.8716C151.89 40.9445 151.837 40.9992 151.768 40.9992Z" fill="#1F140F"/>
<path d="M0.122314 37.5L21.6047 27.4944L25.7794 31.6862L19.239 34.8574L24.6661 38.1561L20.4218 41.4002L24.8401 45.4826L21.6047 47.4873L0.122314 37.5Z" fill="white"/>
<path d="M0.0698392 37.3724C1.72233 36.2243 3.427 35.1672 5.14907 34.183C6.87114 33.1989 8.62799 32.2694 10.4022 31.3946C12.1591 30.5016 13.9681 29.6815 15.812 28.9889L21.3956 26.9842H21.4478C21.6218 26.893 21.8305 26.9477 21.9523 27.0935C23.3264 28.5151 24.6832 29.9548 26.0748 31.3582C26.2313 31.5222 26.2487 31.7956 26.0922 31.9596C26.0574 31.996 26.0052 32.0325 25.953 32.0507C23.7613 33.0713 21.587 34.1648 19.4127 35.2401L19.4474 34.4564C21.2739 35.5135 23.1525 36.4976 25.0137 37.5C25.3442 37.6823 25.4834 38.1197 25.3094 38.4659C25.2572 38.5571 25.2051 38.63 25.1355 38.7029L25.0833 38.7575L20.9956 42.2021L21.0651 40.6529L25.6399 44.5713C26.127 44.9905 26.1966 45.756 25.7965 46.2663C25.7095 46.3756 25.6225 46.4485 25.5182 46.5214L25.4486 46.5761L22.248 48.672C21.9001 48.8907 21.5 48.9271 21.1521 48.7813L21.0651 48.7449C19.2387 47.9794 17.4297 47.1957 15.6554 46.3574C13.8812 45.5008 12.1069 44.626 10.35 43.6965C8.5932 42.7853 6.85374 41.8193 5.14907 40.7987C3.427 39.8146 1.72233 38.7758 0.0524409 37.6458C-0.0171376 37.6094 -0.0345397 37.5182 0.0176442 37.4453L0.0524409 37.4089L0.0698392 37.3724ZM0.556887 37.5C2.33114 38.0103 4.08799 38.5935 5.81006 39.2132C7.67129 39.8693 9.51512 40.58 11.3415 41.3273C13.168 42.0563 14.977 42.8582 16.7861 43.6601C18.5777 44.4802 20.352 45.3732 22.1088 46.2663L20.9434 46.3392L24.2484 44.4255L24.057 46.4303L19.7953 42.1474L19.7432 42.0927C19.3779 41.7282 19.3605 41.1268 19.7084 40.7441C19.7605 40.6894 19.8127 40.6529 19.8649 40.6165L24.231 37.5729L24.3005 38.8304C22.5437 37.6276 20.8042 36.4065 19.0126 35.2583C18.8038 35.1308 18.7343 34.8574 18.856 34.6569C18.9082 34.584 18.9604 34.5111 19.0474 34.4746C21.2391 33.4358 23.4308 32.397 25.6051 31.3217L25.5008 32.0325C24.1092 30.6474 22.6655 29.2805 21.2391 27.9319L21.7957 28.0412L16.6295 31.0301C14.9074 32.0143 13.1158 32.8526 11.3068 33.6363C9.49773 34.4382 7.67129 35.1672 5.82746 35.8598C4.10539 36.4976 2.34853 37.0626 0.556887 37.5547V37.5Z" fill="#1F140F"/>
<path d="M9.94929 32.4334L9.77535 32.5063L0.121338 37.5L9.77534 42.4937L9.94929 42.5666V32.4334Z" fill="#1F140F"/>
</g>
<mask id="mask1_4_1436" style="mask-type:luminance" maskUnits="userSpaceOnUse" x="193" y="26" width="68" height="23">
<path d="M261 49V26L193 26V49H261Z" fill="white"/>
</mask>
<g mask="url(#mask1_4_1436)">
<path d="M231.273 27.4762H100.622L100.604 27.5127L104.779 31.6862L98.2383 34.8574L103.666 38.1561L99.4211 41.4002L103.84 45.4826L100.604 47.4873H100.569L100.622 47.5602H231.273V27.4762Z" fill="white"/>
<path d="M231.151 27.622C225.758 27.859 220.349 27.9683 214.956 28.1323L198.623 28.4422C187.734 28.588 176.845 28.6609 165.956 28.6973L149.622 28.5697L133.289 28.2417C122.4 27.9865 111.511 27.8772 100.622 27.9136L100.969 27.7132V27.7496L100.882 27.2029L105.075 31.3582C105.249 31.5404 105.266 31.832 105.092 32.0325C105.057 32.0689 105.005 32.1054 104.953 32.1418L98.4122 35.3677L98.447 34.4382L103.927 37.6458C104.205 37.8098 104.309 38.1926 104.153 38.4842C104.118 38.5571 104.066 38.63 103.996 38.6664L99.8038 41.9651L99.856 40.8534L104.344 44.8629C104.674 45.1545 104.709 45.6648 104.431 45.9929C104.379 46.0658 104.309 46.1205 104.257 46.1569H104.222L101.004 48.2346C100.813 48.3621 100.587 48.3804 100.378 48.3439H100.343H100.326L101.248 46.977L101.3 47.0499L100.604 46.6854C111.493 46.485 122.382 46.3574 133.271 46.2845C144.16 46.2298 155.049 46.0658 165.938 46.1569C176.827 46.1934 187.716 46.1569 198.605 46.3574L214.939 46.5579L231.273 46.8859L230.629 47.5602L231.151 27.622ZM231.412 27.4762L231.934 47.5602C231.934 47.9247 231.673 48.2346 231.325 48.2346H231.29L214.956 48.5626L198.623 48.7631C187.734 48.9453 176.845 48.9271 165.956 48.9636C155.067 49.0365 144.178 48.8907 133.289 48.836C122.4 48.7631 111.511 48.6355 100.622 48.435H100.587C100.308 48.435 100.065 48.2892 99.9256 48.0523L99.8734 47.9794V47.9612C99.5951 47.5602 99.682 47.0135 100.082 46.7401C100.291 46.5943 100.569 46.5579 100.795 46.6125L100.169 46.7037L103.457 44.7536L103.335 46.0658L98.9862 41.8922C98.6905 41.6371 98.6731 41.1815 98.9341 40.8899C98.9689 40.8534 99.0036 40.817 99.0384 40.7987L103.318 37.6276L103.37 38.6846L97.9948 35.2948C97.7512 35.149 97.6643 34.8209 97.8208 34.584C97.873 34.4929 97.96 34.42 98.0469 34.3835L104.622 31.267L104.501 32.0325L100.343 27.8225C100.187 27.6767 100.169 27.4398 100.274 27.2758V27.2393C100.361 27.1117 100.5 27.0388 100.639 27.0388C111.528 27.0753 122.417 26.9659 133.306 26.7108L149.64 26.3827L165.973 26.2552C176.862 26.2916 187.751 26.3645 198.64 26.5103L214.974 26.8201C220.418 27.0024 225.863 27.0935 231.307 27.3304C231.377 27.3304 231.429 27.4033 231.447 27.4762H231.412Z" fill="#1F140F"/>
<path d="M245.396 47.5602V27.4762H231.272V47.5602H245.396Z" fill="white"/>
<path d="M245.24 47.4144C244.701 44.1157 244.457 40.817 244.318 37.5365C244.266 35.8597 244.196 34.183 244.231 32.5063C244.231 30.8296 244.37 29.1529 244.527 27.4945L245.397 28.4057C243.048 28.187 240.683 27.8954 238.334 27.9136C235.986 27.8772 233.62 28.0412 231.272 28.2417L231.985 27.4945C232.124 29.1712 232.264 30.8479 232.368 32.5063L232.542 37.5365C232.577 39.2132 232.681 40.8899 232.664 42.5483C232.681 44.225 232.664 45.9017 232.594 47.5602L231.272 46.1751C233.62 46.248 235.986 46.3938 238.334 46.5943C240.63 46.813 242.944 47.0317 245.24 47.4144ZM245.397 47.706C243.048 48.107 240.683 48.3257 238.334 48.5444C235.986 48.7449 233.62 48.8724 231.272 48.9636C230.559 48.9818 229.968 48.3986 229.95 47.6696V47.5785C229.898 45.9017 229.863 44.225 229.881 42.5666C229.881 40.8899 229.968 39.2132 230.002 37.5547L230.176 32.5246C230.263 30.8479 230.42 29.1712 230.559 27.5127V27.3851C230.594 27.0024 230.907 26.729 231.272 26.7655C233.62 26.9659 235.986 27.13 238.334 27.0935C240.683 27.0935 243.048 26.8019 245.397 26.6014C245.831 26.565 246.214 26.893 246.249 27.3487V27.5127C246.405 29.1894 246.562 30.8661 246.562 32.5246C246.579 34.2013 246.527 35.878 246.475 37.5547C246.336 40.9081 246.092 44.2433 245.536 47.5967C245.536 47.6696 245.466 47.7243 245.397 47.7425V47.706Z" fill="#1F140F"/>
<path d="M242.788 46.8677V28.187H239.326V46.8677H242.788Z" fill="white"/>
<path d="M239.483 46.6854C240.579 46.3756 241.675 46.1751 242.77 46.0111L241.953 46.8677C241.762 45.3185 241.657 43.7512 241.622 42.2021C241.535 40.6529 241.675 39.0856 241.918 37.5364C242.162 35.9873 242.388 34.42 242.388 32.8708C242.388 31.3217 242.283 29.7544 242.075 28.2052L242.788 28.9525C241.64 29.1165 240.492 29.2805 239.326 29.3716L240.44 28.2052C240.631 31.3217 240.84 34.4382 240.648 37.5364C240.474 40.5983 240.179 43.6418 239.483 46.7036V46.6854ZM239.187 46.8494C238.474 43.733 238.178 40.6165 237.987 37.5182C237.796 34.4017 238.004 31.2853 238.196 28.187V28.0412C238.248 27.4398 238.735 26.9841 239.309 27.0206C240.474 27.1117 241.622 27.2757 242.77 27.4398H242.962C243.292 27.5127 243.536 27.8407 243.484 28.187C243.275 29.7361 243.153 31.3035 243.17 32.8526C243.17 34.4017 243.397 35.9691 243.64 37.5182C243.866 39.0674 244.005 40.6347 243.936 42.1838C243.901 43.733 243.779 45.3003 243.605 46.8494L243.571 47.0681C243.518 47.4691 243.17 47.7425 242.788 47.706C241.622 47.5238 240.474 47.3415 239.326 46.9952C239.257 46.9952 239.222 46.9223 239.187 46.8494Z" fill="#1F140F"/>
<path d="M236.803 46.8677V28.187H233.881V46.8677H236.803Z" fill="white"/>
<path d="M236.647 28.351C235.725 28.6244 234.804 28.8249 233.882 28.9707L234.63 28.187C234.838 29.7361 234.995 31.3035 235.03 32.8526C235.117 34.4017 235.03 35.9691 234.786 37.5182C234.543 39.0673 234.299 40.6347 234.282 42.1838C234.282 43.733 234.386 45.3003 234.595 46.8494L233.882 46.1022C234.856 45.9746 235.83 45.8106 236.804 45.7195L235.725 46.8494C235.517 43.733 235.308 40.6165 235.465 37.5182C235.639 34.4564 235.934 31.4128 236.647 28.351ZM236.943 28.187C237.674 31.3035 237.969 34.42 238.143 37.5182C238.3 40.6347 238.091 43.7512 237.882 46.8494V47.0317C237.83 47.5967 237.361 48.0341 236.821 47.9794C235.812 47.8883 234.838 47.7242 233.864 47.5967H233.673C233.342 47.5238 233.099 47.1957 233.151 46.8494C233.36 45.3003 233.482 43.733 233.464 42.1838C233.464 40.6347 233.203 39.0673 232.96 37.5182C232.716 35.9691 232.629 34.4017 232.716 32.8526C232.751 31.3035 232.89 29.7361 233.116 28.187L233.151 27.9683C233.203 27.6038 233.516 27.3486 233.864 27.4033C234.838 27.5491 235.812 27.7496 236.787 28.0412C236.856 28.0412 236.908 28.1141 236.926 28.187H236.943Z" fill="#1F140F"/>
<path d="M230.768 34.3106C219.879 35.2219 208.99 35.5317 198.101 35.313C192.656 35.1125 187.212 34.7116 181.767 34.6204C176.323 34.5111 170.878 34.6933 165.434 34.9303C159.989 35.1854 154.545 35.3859 149.1 35.4588C143.656 35.5499 138.211 35.6593 132.767 35.6228C121.877 35.477 110.988 35.1672 100.099 34.3106C100.03 34.3106 99.9775 34.2377 99.9775 34.1648C99.9775 34.0919 100.03 34.0372 100.099 34.0372C110.988 33.1624 121.877 32.8526 132.767 32.725C138.211 32.6886 143.656 32.7979 149.1 32.8891C154.545 32.962 159.989 33.1624 165.434 33.4176C170.878 33.6545 176.323 33.8185 181.767 33.7274C187.212 33.6181 192.656 33.2353 198.101 33.0349C208.99 32.8162 219.879 33.126 230.768 34.0372C230.837 34.0372 230.89 34.1101 230.89 34.183C230.89 34.2559 230.837 34.3106 230.768 34.3106Z" fill="#1F140F"/>
<path d="M230.768 40.9992C225.358 41.4913 219.966 41.7647 214.556 41.9287C209.146 42.0745 203.754 42.1656 198.344 42.0016C192.952 41.8011 187.542 41.4002 182.133 41.309C176.723 41.1997 171.33 41.3819 165.921 41.6189C160.511 41.874 155.119 42.0745 149.709 42.1474C144.317 42.2385 138.907 42.3479 133.497 42.3114C122.695 42.1656 111.893 41.8558 101.091 40.9992C101.021 40.9992 100.969 40.9263 100.969 40.8534C100.969 40.7805 101.021 40.7258 101.091 40.7258C111.893 39.851 122.695 39.5412 133.497 39.4136C138.907 39.3772 144.299 39.4865 149.709 39.5776C155.119 39.6505 160.511 39.851 165.921 40.1062C171.33 40.3431 176.723 40.5071 182.133 40.416C187.525 40.3067 192.935 39.9239 198.344 39.7235C203.754 39.5594 209.146 39.6506 214.556 39.7964C219.966 39.9422 225.358 40.2338 230.768 40.7258C230.837 40.7258 230.89 40.7987 230.89 40.8716C230.89 40.9445 230.837 40.9992 230.768 40.9992Z" fill="#1F140F"/>
<path d="M245.397 47.5785H256.965C258.6 47.5785 259.922 46.1934 259.922 44.462V30.5563C259.922 28.8431 258.6 27.4398 256.965 27.4398H245.397V47.5602V47.5785Z" fill="white"/>
<path d="M245.536 47.4144C249.293 46.7219 253.051 46.485 256.808 46.3756C257.521 46.3756 257.973 46.084 258.373 45.6102C258.547 45.3732 258.704 45.0998 258.773 44.79C258.843 44.5531 258.843 43.9699 258.895 43.496L259.417 37.5182C259.556 35.5317 259.539 33.5269 259.469 31.5404C259.469 30.4651 259.365 29.6815 258.808 29.0983C258.286 28.4968 257.573 28.2599 256.825 28.3875C253.016 28.7702 249.206 28.7702 245.397 28.9342L246.789 27.4762C246.841 30.8296 246.719 34.183 246.528 37.5365C246.319 40.8352 246.023 44.1339 245.536 47.4327V47.4144ZM245.258 47.5785C244.771 44.225 244.458 40.8716 244.266 37.5182C244.092 34.1648 243.953 30.8114 244.005 27.458V27.3851C244.005 26.6197 244.632 26 245.362 26H245.397C249.206 26.1458 253.016 26.164 256.825 26.5468C257.991 26.565 259.208 27.2575 259.817 28.2781C260.13 28.7884 260.339 29.3534 260.391 29.9548C260.426 30.5563 260.374 31.0301 260.356 31.5404C260.287 33.5269 260.269 35.5317 260.409 37.5182L260.93 43.496C260.965 44.0063 261.052 44.4255 260.965 45.191C260.878 45.8653 260.635 46.5396 260.235 47.0864C259.835 47.6514 259.313 48.0888 258.704 48.3986C258.391 48.5444 258.078 48.6355 257.747 48.7084C257.591 48.7266 257.312 48.7813 257.243 48.7631H256.825C253.016 48.6537 249.206 48.4168 245.397 47.706C245.327 47.706 245.275 47.6331 245.258 47.5602V47.5785Z" fill="#1F140F"/>
</g>
</g>
<defs>
<clipPath id="clip0_4_1436">
<rect width="261" height="68" fill="white"/>
</clipPath>
</defs>
</svg>
