<svg width="53" height="49" viewBox="0 0 53 49" fill="none" xmlns="http://www.w3.org/2000/svg">
<path d="M0.0421371 26.6298C1.6663 26.4668 3.37167 26.7929 4.95523 27.323C6.53879 27.853 8.04114 28.6277 9.46228 29.5654C12.264 31.4817 14.5784 34.0096 16.4462 36.7821C17.3801 38.1683 18.2734 39.6769 19.0448 40.9816C19.8975 42.2455 20.872 43.4687 21.9683 44.3249C22.2526 44.5695 22.5368 44.6918 22.821 44.8957C23.1052 45.018 23.3895 45.2219 23.7143 45.3034C24.3234 45.548 24.9324 45.6296 25.5415 45.5888C26.1505 45.548 26.7596 45.3442 27.2875 45.0588C27.5717 44.8957 27.8153 44.7326 28.0589 44.5287C28.1401 44.4472 28.262 44.3249 28.3432 44.2433C28.4244 44.121 28.5056 44.0395 28.5868 43.9172C29.1552 43.061 29.1146 41.7563 28.5868 40.4923C28.0589 39.1876 27.1656 37.9645 26.1505 36.8636C24.1203 34.6212 21.4405 32.868 18.6388 31.4002C12.9948 28.5461 6.57939 27.1599 0.0827427 26.6298H0.0421371ZM0.0421371 26.6298C6.53879 25.9775 13.3197 26.7522 19.5321 29.4023C22.618 30.707 25.5821 32.5418 28.0589 34.9881C29.2771 36.252 30.3734 37.6791 31.1042 39.4323C31.4697 40.2885 31.7133 41.267 31.7539 42.3271C31.7539 43.3464 31.5103 44.488 30.9418 45.4665L30.4546 46.1189C30.4546 46.1189 30.0891 46.4858 29.8861 46.6897C29.4801 47.0158 29.074 47.3012 28.6274 47.5459C27.7341 48.0351 26.7596 48.3205 25.7445 48.4021C24.7294 48.4836 23.6737 48.3205 22.7804 47.9536C22.2932 47.7905 21.8871 47.5459 21.4811 47.3012C21.075 47.0158 20.669 46.7712 20.3442 46.4858C18.923 45.2626 17.8673 43.8356 16.974 42.3678C16.1213 40.8185 15.4311 39.473 14.619 38.0868C12.9948 35.3551 11.0458 32.8272 8.6502 30.7886C7.47268 29.7693 6.13275 28.8315 4.71161 28.1384C3.29046 27.4453 1.74751 26.8745 0.123348 26.7522L0.0421371 26.6298Z" fill="white"/>
<path d="M0.0413933 25.9368C1.62495 25.4883 3.04609 24.6728 4.34542 23.7351C5.64475 22.7973 6.78167 21.6557 7.75616 20.4325C9.78637 17.9862 11.2481 15.1322 12.385 12.1966C12.9129 10.688 13.3595 9.22025 13.928 7.5486C14.537 5.95849 15.3491 4.32761 16.5266 2.90059C16.8109 2.53364 17.1763 2.20746 17.5011 1.88129C17.9072 1.59588 18.232 1.26971 18.6787 1.02508C19.5313 0.495039 20.5058 0.128092 21.5209 0.0465488C22.536 -0.0757675 23.5511 0.0465488 24.5256 0.372725C25.0129 0.535812 25.4595 0.73967 25.9062 0.984303C26.1498 1.14739 26.3528 1.26971 26.5558 1.4328L27.1649 2.0036C27.9364 2.81904 28.383 3.91989 28.5454 4.93919C28.7079 5.95849 28.6266 6.97779 28.4236 7.87477C28.0176 9.70951 27.1649 11.3404 26.1904 12.7674C24.1602 15.6215 21.6021 17.9455 18.7599 19.7802C13.1159 23.4904 6.53804 25.4067 0.0413933 25.9368ZM0.0413933 25.9368C6.37563 24.2651 12.4256 21.778 17.5011 17.9862C19.978 16.0699 22.333 13.8683 23.9572 11.2996C24.7693 10.0357 25.4189 8.64944 25.7032 7.30396C25.9874 5.95849 25.825 4.65378 25.0941 3.91989C25.0129 3.83834 24.8911 3.7568 24.8099 3.63449C24.688 3.55294 24.5662 3.4714 24.485 3.38985C24.2414 3.22676 23.9166 3.10445 23.6323 2.98213C23.0233 2.77827 22.4142 2.69673 21.8052 2.7375C21.1961 2.77827 20.6276 2.98213 20.0592 3.30831C19.775 3.43063 19.5313 3.67525 19.2471 3.87911C19.0035 4.12375 18.7193 4.32761 18.5162 4.61301C17.5823 5.67308 16.8109 7.01856 16.2018 8.40481C15.674 9.79106 15.0649 11.4627 14.3746 12.9713C12.9941 16.0292 11.1263 18.924 8.73066 21.3295C7.51254 22.5119 6.17261 23.572 4.71086 24.3467C3.24911 25.1621 1.66555 25.7329 0.000789642 25.8552L0.0413933 25.9368Z" fill="white"/>
<path d="M39.8338 16.8446C47.2237 6.40701 34.7177 1.51437 34.7177 1.51437C34.5147 16.8854 10.6395 25.6922 10.6395 25.6922C26.0284 24.7544 39.7526 43.5095 39.7526 43.5095C47.3861 34.3358 40.1586 27.4046 40.1586 27.4046C40.1586 27.4046 48.32 30.8702 51.4466 25.1214C54.7761 19.0871 47.9546 10.158 39.8338 16.8039V16.8446Z" fill="white"/>
</svg>
