<svg width="40" height="40" viewBox="0 0 40 40" fill="none" xmlns="http://www.w3.org/2000/svg">
<path d="M36.0786 10.5302C37.3413 7.6739 37.2714 4.35214 35.869 1.54735C35.51 0.817427 34.4457 0.817693 34.0867 1.54729C29.6606 10.3984 21.0231 11.6686 17.71 11.6686H9.29964C0.896899 12.0174 0.903342 23.9875 9.29964 24.3333H10.6774C10.5465 23.6842 10.5475 22.9851 10.6773 22.3406H10.3669C7.43115 22.2171 7.45208 18.041 10.3669 17.9301H17.71C18.8 17.9301 29.0409 17.9989 34.0738 28.0251C34.4267 28.7883 35.523 28.7906 35.8796 28.0296C37.2718 25.2292 37.3382 21.917 36.0786 19.0678C37.2751 16.3612 37.2751 13.2368 36.0786 10.5302Z" fill="white"/>
<path d="M18.8334 23.3368C18.8334 21.6105 17.429 20.2061 15.7027 20.2061C13.6033 20.1677 12.0354 22.3629 12.7347 24.3331H18.6705C18.776 24.02 18.8334 23.685 18.8334 23.3368Z" fill="white"/>
<path d="M29.5763 28.3186C30.8982 28.266 30.8972 26.3781 29.5763 26.3259H8.2323C6.91035 26.3786 6.91134 28.2665 8.2323 28.3186H9.3704V31.9454H8.2323C6.91035 31.9981 6.91134 33.886 8.2323 33.9381H9.3704V34.0089C9.42307 35.3309 11.311 35.3299 11.3631 34.0089V33.9381H26.4456V34.0089C26.4982 35.3309 28.3861 35.3299 28.4383 34.0089V33.9381H29.5763C30.8982 33.8854 30.8972 31.9975 29.5763 31.9454H28.4383V28.3186H29.5763Z" fill="white"/>
<path d="M4.9873 3L34.9873 37.5" stroke="white" stroke-width="3"/>
</svg>
