<svg width="149" height="101" viewBox="0 0 149 101" fill="none" xmlns="http://www.w3.org/2000/svg">
<g clip-path="url(#clip0_1311_1034)">
<path d="M8.41542 47.9847C21.5164 60.287 36.7771 69.3098 52.9718 75.5517C56.7038 76.9588 57.4989 73.1463 54.7368 71.3261C47.2931 66.3616 40.2892 60.9852 33.5767 55.2799C74.4222 66.8076 113.306 61.7416 145.44 47.3443C149.304 45.5548 146.419 40.0523 142.696 41.1786C112.154 50.1824 76.8542 51.3044 40.7238 41.9322C46.6282 39.6025 52.8691 36.8901 54.9063 31.1665C55.8009 28.6538 54.1921 25.5575 51.3031 24.9695C44.3144 23.5027 38.6916 27.1273 32.3581 29.3731C24.5408 32.0893 16.718 35.0583 8.63806 37.4448C4.93816 38.4799 4.40523 44.2083 8.41499 47.986L8.41542 47.9847Z" fill="black"/>
<path d="M106.644 63.166C94.986 65.0247 93.7516 65.4028 83.55 65.8465C72.8126 66.3129 76.5111 66.5726 71.4 65.8692C70.5405 65.7504 70.1884 65.0512 70.2984 64.8365C70.8995 63.6737 80.3212 63.7381 104.392 61.9332C105.956 61.8163 107.233 62.0995 106.643 63.1656L106.644 63.166Z" fill="black"/>
<path d="M32.9956 26.931C27.772 29.3564 27.2423 29.6983 22.5158 31.2677C17.5402 32.9192 19.3102 32.546 16.8191 32.8992C16.4 32.9583 16.1428 32.6784 16.1656 32.5635C16.2946 31.9388 20.7223 30.712 31.7766 26.6564C32.4945 26.393 33.1319 26.3553 32.9952 26.9323L32.9956 26.931Z" fill="black"/>
</g>
<defs>
<clipPath id="clip0_1311_1034">
<rect width="136" height="61" fill="white" transform="translate(18.8235 0.350952) rotate(17.9737)"/>
</clipPath>
</defs>
</svg>
