<svg width="135" height="84" viewBox="0 0 135 84" fill="none" xmlns="http://www.w3.org/2000/svg">
<g clip-path="url(#clip0_1311_1030)">
<path d="M127.665 39.3517C114.783 29.0195 100.154 21.8418 84.8702 17.2775C81.3501 16.2539 80.894 19.8001 83.5548 21.2705C90.73 25.2872 97.5316 29.7121 104.09 34.4587C65.8394 26.8001 30.5727 34.1931 2.15886 49.6506C-1.2524 51.5628 1.78225 56.3948 5.11375 55.0999C32.4548 44.6937 64.7195 41.1649 98.4945 47.1832C93.2509 49.7341 87.7263 52.6592 86.2685 58.0426C85.6283 60.4061 87.3236 63.1263 90.0127 63.4597C96.5211 64.3071 101.414 60.5908 107.057 58.0863C114.026 55.046 120.982 51.7738 128.215 49.0167C131.531 47.807 131.61 42.5258 127.666 39.352L127.665 39.3517Z" fill="black"/>
<path d="M21.8922 51.8884C32.4417 49.3608 33.5457 48.9272 42.8615 47.7981C52.6667 46.6102 49.2592 46.6346 53.9926 46.9162C54.7887 46.964 55.1613 47.5791 55.0758 47.7834C54.6081 48.8903 45.9706 49.4991 24.044 52.8572C22.6193 53.0751 21.4291 52.9063 21.8934 51.8887L21.8922 51.8884Z" fill="black"/>
<path d="M106.646 60.3662C111.259 57.776 111.72 57.4255 115.939 55.654C120.38 53.7896 118.785 54.2566 121.042 53.7568C121.422 53.673 121.677 53.911 121.665 54.0177C121.591 54.5987 117.622 56.0355 107.783 60.5313C107.144 60.8232 106.562 60.9029 106.646 60.365L106.646 60.3662Z" fill="black"/>
</g>
<defs>
<clipPath id="clip0_1311_1030">
<rect width="125" height="56" fill="white" transform="translate(13.1023) rotate(13.5309)"/>
</clipPath>
</defs>
</svg>
