<svg width="64" height="64" viewBox="0 0 64 64" fill="none" xmlns="http://www.w3.org/2000/svg">
<path d="M62.2944 10.3775L53.5672 1.6502C51.3683 -0.548659 47.5444 -0.552886 45.3342 1.65443L37.9593 9.09619L24.5246 22.6515C24.1496 23.0323 24.0104 23.589 24.1666 24.1004C24.3229 24.6118 24.7491 24.9967 25.2746 25.1019L28.6439 25.7766L26.2546 32.9399C26.107 33.3831 26.1807 33.8717 26.4563 34.251C26.7291 34.6303 27.1665 34.8547 27.6353 34.8547H38.2234L39.3882 38.3519C39.5474 38.8292 39.9423 39.19 40.4309 39.3064C40.5445 39.3334 40.6553 39.3463 40.7689 39.3463C41.1468 39.3463 41.516 39.1986 41.7916 38.9243L54.8456 25.9855L62.2944 18.6048C63.3939 17.5053 63.999 16.0451 63.999 14.4911C63.999 12.9371 63.3939 11.4768 62.2944 10.3775ZM60.2434 16.5436L53.8284 22.901L41.0461 10.1163L47.3969 3.70684C48.4991 2.60734 50.4082 2.60734 51.5105 3.70684L60.2378 12.4341C60.7861 12.9838 61.0901 13.7139 61.0901 14.4909C61.0901 15.2679 60.786 15.9981 60.2434 16.5436Z" fill="black"/>
<path d="M42.9943 50.4816L49.4176 47.27C49.7841 47.0867 50.0569 46.7558 50.1676 46.3608C50.2784 45.9646 50.2159 45.5413 49.9971 45.1932L47.5966 41.3821C47.3296 40.9602 46.8665 40.7031 46.3665 40.7031L20.3637 40.7273C20.3394 40.7273 20.3183 40.7465 20.2938 40.7477C20.0787 40.7559 19.8639 40.799 19.662 40.9077L0.764181 51.0824C0.292636 51.3367 0 51.8282 0 52.3637C0 52.8992 0.292636 53.3907 0.764181 53.645L19.6733 63.8268C19.892 63.9448 20.1307 64.0001 20.3637 64.0001C20.4807 64.0001 20.5839 63.9374 20.6966 63.9097C20.8059 63.9358 20.9019 64.0001 21.017 64.0001H46.6505C47.2017 64.0001 47.7044 63.6891 47.9517 63.1961L50.0682 58.9618C50.3466 58.4021 50.2386 57.7259 49.7954 57.2827L42.9943 50.4816ZM20.4026 60.9134L14.5455 57.76V46.9679L20.0835 43.9866L22.4063 46.3424L20.4461 51.878C20.3325 52.2032 20.3352 52.5584 20.4574 52.8808L22.4432 58.0938L20.4026 60.9134Z" fill="black"/>
</svg>
