<svg width="60" height="63" viewBox="0 0 60 63" fill="none" xmlns="http://www.w3.org/2000/svg">
<path d="M18.0975 12.4851L18.5174 12.905C18.4879 13.9951 19.2318 15.2988 20.7492 16.8162L24.3731 20.4401L24.3952 20.418L45.4316 41.4986C46.2124 42.2794 46.8827 42.8171 47.4424 43.1117C48.0022 43.4358 48.5841 43.5905 49.1881 43.5757L49.608 43.9956L45.6084 49.9839L45.2106 49.5861C45.2401 48.5255 44.4814 47.2217 42.9346 45.6749L39.3107 42.051L39.2886 42.0731C38.832 41.587 31.8198 34.5601 18.2522 20.9925C17.4862 20.2265 16.8233 19.6814 16.2635 19.3573C15.6889 19.048 15.107 18.8933 14.5178 18.8933L14.0979 18.4734L18.0975 12.4851Z" fill="white"/>
<path d="M12.7859 44.6012L13.2058 44.1814C14.2959 44.2108 15.5996 43.4669 17.1169 41.9496L20.7409 38.3256L20.7188 38.3035L41.7994 17.2671C42.5801 16.4864 43.1178 15.8161 43.4125 15.2563C43.7366 14.6965 43.8912 14.1146 43.8765 13.5106L44.2964 13.0908L50.2847 17.0903L49.8869 17.4881C48.8263 17.4586 47.5225 18.2173 45.9757 19.7641L42.3518 23.388L42.3739 23.4101C41.8878 23.8668 34.8609 30.8789 21.2933 44.4465C20.5273 45.2126 19.9822 45.8755 19.6581 46.4353C19.3487 47.0098 19.1941 47.5917 19.1941 48.1809L18.7742 48.6008L12.7859 44.6012Z" fill="white"/>
</svg>
