<svg width="40" height="31" viewBox="0 0 40 31" fill="none" xmlns="http://www.w3.org/2000/svg">
<path d="M33.4241 2.55804C30.8699 1.36302 28.1389 0.494526 25.2837 0C24.9331 0.633965 24.5234 1.48666 24.241 2.16498C21.2058 1.70853 18.1986 1.70853 15.2193 2.16498C14.9369 1.48666 14.5179 0.633965 14.1641 0C11.3058 0.494526 8.5717 1.36621 6.01756 2.56436C0.865829 10.3493 -0.530719 17.9409 0.167557 25.4246C3.58445 27.9763 6.89584 29.5263 10.1513 30.5407C10.9551 29.4344 11.672 28.2584 12.2896 27.019C11.1134 26.5721 9.98686 26.0206 8.9224 25.3803C9.2048 25.1711 9.48102 24.9523 9.7479 24.7273C16.2403 27.7639 23.2944 27.7639 29.7093 24.7273C29.9793 24.9523 30.2555 25.1711 30.5348 25.3803C29.4672 26.0237 28.3375 26.5753 27.1614 27.0222C27.7789 28.2584 28.4927 29.4376 29.2996 30.5438C32.5582 29.5295 35.8727 27.9795 39.2896 25.4246C40.1089 16.749 37.89 9.22719 33.4241 2.55804ZM13.1741 20.8222C11.2251 20.8222 9.62685 19.0027 9.62685 16.7871C9.62685 14.5714 11.191 12.7488 13.1741 12.7488C15.1572 12.7488 16.7555 14.5682 16.7213 16.7871C16.7244 19.0027 15.1572 20.8222 13.1741 20.8222ZM26.2831 20.8222C24.3341 20.8222 22.7358 19.0027 22.7358 16.7871C22.7358 14.5714 24.2999 12.7488 26.2831 12.7488C28.2662 12.7488 29.8645 14.5682 29.8303 16.7871C29.8303 19.0027 28.2662 20.8222 26.2831 20.8222Z" fill="white"/>
</svg>
