<svg width="496" height="5" viewBox="0 0 496 5" fill="none" xmlns="http://www.w3.org/2000/svg">
<path d="M0.660217 4.05563L0.660217 1.0045L3.93893 1.0045C6.23987 1.19349 9.11581 1.32402 12.5676 1.39602C16.0186 1.47701 20.7354 1.51751 26.7178 1.51751L469.654 1.33722C475.751 1.33722 480.468 1.29673 483.805 1.21574C487.256 1.14374 490.132 1.01321 492.433 0.824219L495.712 0.824219L495.712 3.87534L492.433 3.87534C490.132 3.69534 487.256 3.56481 483.805 3.48382C480.468 3.41182 475.751 3.37582 469.654 3.37582L26.7178 3.5561C20.7354 3.5561 16.0186 3.5921 12.5676 3.66411C9.11581 3.7451 6.23987 3.87562 3.93893 4.05563L0.660217 4.05563Z" fill="black"/>
</svg>
