<svg width="53" height="49" viewBox="0 0 53 49" fill="none" xmlns="http://www.w3.org/2000/svg">
<path d="M52.2674 26.63C50.6433 26.4669 48.9379 26.7931 47.3543 27.3231C45.7708 27.8532 44.2684 28.6279 42.8473 29.5656C40.0456 31.4819 37.7312 34.0098 35.8634 36.7823C34.9295 38.1685 34.0362 39.6771 33.2647 40.9818C32.412 42.2457 31.4376 43.4689 30.3412 44.3251C30.057 44.5697 29.7728 44.692 29.4886 44.8959C29.2043 45.0182 28.9201 45.2221 28.5953 45.3036C27.9862 45.5482 27.3771 45.6298 26.7681 45.589C26.159 45.5482 25.55 45.3444 25.0221 45.059C24.7379 44.8959 24.4943 44.7328 24.2506 44.5289C24.1694 44.4474 24.0476 44.3251 23.9664 44.2435C23.8852 44.1212 23.804 44.0397 23.7228 43.9174C23.1543 43.0611 23.1949 41.7564 23.7228 40.4925C24.2506 39.1878 25.1439 37.9646 26.159 36.8638C28.1892 34.6213 30.8691 32.8681 33.6708 31.4003C39.3147 28.5463 45.7302 27.1601 52.2268 26.63H52.2674ZM52.2674 26.63C45.7708 25.9777 38.9899 26.7523 32.7775 29.4025C29.6916 30.7072 26.7275 32.542 24.2506 34.9883C23.0325 36.2522 21.9362 37.6792 21.2053 39.4324C20.8399 40.2886 20.5963 41.2672 20.5557 42.3272C20.5557 43.3465 20.7993 44.4882 21.3677 45.4667L21.855 46.119C21.855 46.119 22.2204 46.486 22.4235 46.6898C22.8295 47.016 23.2355 47.3014 23.6822 47.5461C24.5755 48.0353 25.55 48.3207 26.5651 48.4023C27.5802 48.4838 28.6359 48.3207 29.5292 47.9538C30.0164 47.7907 30.4224 47.5461 30.8285 47.3014C31.2345 47.016 31.6406 46.7714 31.9654 46.486C33.3865 45.2628 34.4423 43.8358 35.3355 42.368C36.1882 40.8187 36.8785 39.4732 37.6906 38.087C39.3147 35.3552 41.2637 32.8274 43.6594 30.7888C44.8369 29.7695 46.1768 28.8317 47.598 28.1386C49.0191 27.4455 50.5621 26.8747 52.1862 26.7523L52.2674 26.63Z" fill="black"/>
<path d="M52.2687 25.9365C50.6851 25.488 49.264 24.6726 47.9646 23.7348C46.6653 22.7971 45.5284 21.6555 44.5539 20.4323C42.5237 17.986 41.0619 15.1319 39.925 12.1964C39.3972 10.6878 38.9505 9.22001 38.3821 7.54835C37.773 5.95824 36.9609 4.32736 35.7834 2.90034C35.4992 2.5334 35.1338 2.20722 34.8089 1.88104C34.4029 1.59564 34.0781 1.26946 33.6314 1.02483C32.7787 0.494795 31.8042 0.127848 30.7891 0.0463047C29.774 -0.0760117 28.7589 0.0463047 27.7844 0.37248C27.2972 0.535568 26.8505 0.739426 26.4039 0.984058C26.1603 1.14715 25.9572 1.26946 25.7542 1.43255L25.1452 2.00336C24.3737 2.8188 23.927 3.91964 23.7646 4.93894C23.6022 5.95824 23.6834 6.97754 23.8864 7.87453C24.2925 9.70927 25.1452 11.3401 26.1197 12.7672C28.1499 15.6212 30.7079 17.9452 33.5502 19.78C39.1942 23.4902 45.772 25.4065 52.2687 25.9365ZM52.2687 25.9365C45.9344 24.2649 39.8844 21.7778 34.8089 17.986C32.3321 16.0697 29.977 13.868 28.3529 11.2994C27.5408 10.0354 26.8911 8.64919 26.6069 7.30372C26.3227 5.95824 26.4851 4.65354 27.216 3.91964C27.2972 3.8381 27.419 3.75656 27.5002 3.63424C27.622 3.5527 27.7438 3.47115 27.825 3.38961C28.0687 3.22652 28.3935 3.1042 28.6777 2.98189C29.2868 2.77802 29.8958 2.69648 30.5049 2.73726C31.114 2.77803 31.6824 2.98189 32.2509 3.30807C32.5351 3.43038 32.7787 3.67501 33.0629 3.87887C33.3066 4.1235 33.5908 4.32736 33.7938 4.61277C34.7277 5.67284 35.4992 7.01832 36.1083 8.40457C36.6361 9.79081 37.2452 11.4625 37.9354 12.971C39.316 16.0289 41.1838 18.9237 43.5794 21.3293C44.7975 22.5117 46.1375 23.5717 47.5992 24.3464C49.0609 25.1619 50.6445 25.7327 52.3093 25.855L52.2687 25.9365Z" fill="black"/>
<path d="M12.4758 16.8449C5.08584 6.40725 17.5919 1.51461 17.5919 1.51461C17.7949 16.8857 41.6701 25.6924 41.6701 25.6924C26.2812 24.7546 12.557 43.5098 12.557 43.5098C4.92342 34.3361 12.1509 27.4048 12.1509 27.4048C12.1509 27.4048 3.98953 30.8704 0.863019 25.1216C-2.46651 19.0873 4.35497 10.1583 12.4758 16.8041V16.8449Z" fill="black"/>
</svg>
