<svg width="74" height="24" viewBox="0 0 74 24" fill="none" xmlns="http://www.w3.org/2000/svg">
<path d="M16.625 1.03125L17.2187 1.03125C17.9687 1.82291 19.4167 2.21875 21.5625 2.21875L26.6875 2.21875L26.6875 2.1875L56.4687 2.21875C57.5729 2.21875 58.4271 2.125 59.0312 1.9375C59.6562 1.77083 60.1771 1.46875 60.5937 1.03125L61.1875 1.03125L62.5937 8.09375L62.0312 8.09375C61.3021 7.32292 59.8437 6.9375 57.6562 6.9375L52.5312 6.9375L52.5312 6.96875C51.8646 6.94792 41.9375 6.9375 22.75 6.9375C21.6667 6.9375 20.8125 7.02083 20.1875 7.1875C19.5625 7.375 19.0417 7.67708 18.625 8.09375L18.0312 8.09375L16.625 1.03125Z" fill="white"/>
<path d="M16.625 15.0312L17.2187 15.0312C17.9687 15.8229 19.4167 16.2187 21.5625 16.2187L26.6875 16.2187L26.6875 16.1875L56.4687 16.2187C57.5729 16.2187 58.4271 16.125 59.0312 15.9375C59.6562 15.7708 60.1771 15.4687 60.5937 15.0312L61.1875 15.0312L62.5937 22.0937L62.0312 22.0937C61.3021 21.3229 59.8437 20.9375 57.6562 20.9375L52.5312 20.9375L52.5312 20.9687C51.8646 20.9479 41.9375 20.9375 22.75 20.9375C21.6667 20.9375 20.8125 21.0208 20.1875 21.1875C19.5625 21.375 19.0417 21.6771 18.625 22.0937L18.0312 22.0937L16.625 15.0312Z" fill="white"/>
</svg>
