<svg width="64" height="64" viewBox="0 0 64 64" fill="none" xmlns="http://www.w3.org/2000/svg">
<path fill-rule="evenodd" clip-rule="evenodd" d="M63.1936 2.1585C62.3166 0.294994 60.1243 -0.472332 58.2608 0.294994L23.0734 14.2165C22.0868 13.2299 20.5521 12.9011 19.3463 13.5588L18.7983 13.778C17.3732 14.3261 16.7155 15.7511 16.9347 17.1762C12.9885 17.2858 8.49416 17.8339 5.096 20.0262C3.23249 21.232 1.69784 22.8763 0.820893 25.2879C-0.0560513 27.5899 -0.275288 30.44 0.382421 34.0574C0.492039 34.4958 0.820893 34.8247 1.25937 34.9343C1.58822 35.0439 2.02669 34.9343 2.24593 34.7151C9.04225 34.8247 18.9079 35.4824 27.1292 36.9074C31.2947 37.6748 35.0217 38.6613 37.6526 39.8671C38.968 40.4152 39.8449 41.0729 40.5026 41.7306C41.0507 42.3883 41.27 42.9364 41.27 43.4845C41.1603 45.2384 40.0642 46.4442 38.091 47.2115C36.0083 48.0885 33.2678 48.5269 30.1985 48.7462C29.3216 48.8558 28.335 48.9654 27.4581 48.9654C25.2657 49.1847 23.0734 49.4039 21.1002 49.6231C19.6752 49.8424 18.3598 50.1712 17.154 50.6097C15.9482 51.0482 14.9616 51.7059 14.1943 52.4732C13.5366 53.2405 13.2077 54.1175 13.427 55.104C13.6462 55.981 14.3039 56.6387 15.0712 57.1868C16.6059 58.283 19.0175 59.3791 21.7579 60.1465C27.2388 61.9003 34.4736 63.3254 39.4065 63.9831C39.9545 64.0927 40.6123 63.6542 40.6123 63.1061C40.7219 62.5581 40.2834 61.9003 39.7353 61.9003C34.8025 61.133 27.7869 59.8176 22.4157 58.0637C19.6752 57.1868 17.5925 56.3098 16.3867 55.4329C15.7289 54.9944 15.5097 54.6656 15.5097 54.4463C15.5097 54.3367 15.4001 54.2271 15.7289 53.8982C16.1674 53.3501 16.9347 52.9117 17.9213 52.5828C18.9079 52.254 20.1137 51.9251 21.4291 51.7059C23.2926 51.377 25.3753 51.2674 27.5677 51.0482C28.5543 50.9385 29.4312 50.8289 30.4178 50.8289C33.4871 50.5001 36.5564 50.0616 38.968 49.075C41.3796 48.0885 43.2431 46.3346 43.4623 43.3749C43.5719 42.0595 43.0238 40.9633 42.1469 39.9767C41.27 39.0998 40.0642 38.3325 38.6391 37.6748C35.7891 36.3593 31.8428 35.3728 27.5677 34.6054C20.3329 33.29 12.0019 32.7419 5.42485 32.5227C5.64409 32.4131 5.86332 32.3035 6.08256 32.3035C7.94607 31.6458 10.1384 31.3169 12.2212 31.6458C14.9616 32.1939 17.3732 31.3169 19.1271 30.0015C20.3329 29.1245 21.2099 28.138 21.9772 27.1514C22.8541 28.4668 24.7176 29.0149 26.1427 28.3572L26.6908 28.138C28.335 27.3707 29.1024 25.5072 28.2254 23.8629L28.1158 23.6436L61.6589 7.09131C63.4128 6.10475 64.1801 4.02201 63.1936 2.1585ZM25.485 26.1649L24.9369 26.3841C24.3888 26.6033 23.7311 26.3841 23.4022 25.836L19.1271 17.0666C18.9079 16.5185 19.1271 15.8608 19.6752 15.6415L20.2233 15.4223C20.5521 15.3127 20.9906 15.3127 21.3195 15.5319C21.3195 15.7511 21.3195 15.8608 21.4291 16.08L25.2657 23.7533C25.3753 23.9725 25.5946 24.1917 25.8138 24.3014L26.033 24.7398C26.3619 25.2879 26.033 25.9456 25.485 26.1649Z" fill="black"/>
</svg>
