<svg width="62" height="64" viewBox="0 0 62 64" fill="none" xmlns="http://www.w3.org/2000/svg">
<path d="M11.9815 12.4495C3.03699 17.3232 -0.0560812 24.3535 0.031868 29.3163C-0.0596299 32.8931 1.90747 36.2056 5.0918 37.8371C6.93976 38.7401 8.84215 39.527 10.7879 40.1935C12.4209 40.6787 13.9734 41.4018 15.3956 42.3397L37.7381 18.2998C37.5999 15.94 37.8991 10.7236 42.5821 8.02005C36.3126 6.93953 23.11 6.38556 11.9815 12.4495ZM8.00783 30.864C6.11538 30.864 4.58124 29.3299 4.58124 27.4374C4.58124 25.5449 6.11538 24.0108 8.00783 24.0108C9.90029 24.0108 11.4344 25.5449 11.4344 27.4374C11.4344 29.3299 9.90029 30.864 8.00783 30.864ZM17.1454 21.7264C15.253 21.7264 13.7188 20.1923 13.7188 18.2998C13.7188 16.4074 15.253 14.8732 17.1454 14.8732C19.0379 14.8732 20.572 16.4074 20.572 18.2998C20.572 20.1923 19.0379 21.7264 17.1454 21.7264ZM28.5674 17.1576C26.6749 17.1576 25.1408 15.6235 25.1408 13.731C25.1408 11.8386 26.6749 10.3044 28.5674 10.3044C30.4598 10.3044 31.994 11.8386 31.994 13.731C31.994 15.6235 30.4598 17.1576 28.5674 17.1576Z" fill="black"/>
<path d="M45.4035 23.381C45.7324 22.7333 45.3178 21.2211 44.05 19.9544C42.7821 18.6877 41.2664 18.2696 40.5948 18.6134C40.4475 18.6922 0.511701 61.7165 0.33466 61.9027C-0.12414 62.3952 -0.109432 63.1629 0.367896 63.6374C0.845224 64.112 1.61298 64.1222 2.10278 63.6606C25.158 42.2489 45.327 23.5215 45.4035 23.381Z" fill="black"/>
<path d="M56.9547 23.6104C54.885 25.1535 51.6401 27.0518 48.1746 27.0518C47.342 27.0551 46.5132 26.9397 45.7132 26.7091C45.5887 26.6726 45.4779 26.6258 45.3614 26.5812L17.124 52.8198C16.3701 56.7523 17.4564 59.9539 20.1839 61.9185C23.9075 64.6015 31.5134 65.3954 41.7075 59.5701C56.5858 51.0642 61.9587 38.3378 56.9547 23.6104ZM27.4255 59.4194C25.533 59.4194 23.9989 57.8852 23.9989 55.9928C23.9989 54.1003 25.533 52.5662 27.4255 52.5662C29.3179 52.5662 30.8521 54.1003 30.8521 55.9928C30.8521 57.8852 29.3179 59.4194 27.4255 59.4194ZM38.8474 54.8506C37.4615 54.8506 36.2121 54.0157 35.6817 52.7353C35.1513 51.4549 35.4445 49.981 36.4245 49.001C37.4045 48.021 38.8783 47.7279 40.1587 48.2582C41.4392 48.7886 42.274 50.0381 42.274 51.424C42.274 53.3165 40.7399 54.8506 38.8474 54.8506ZM47.985 45.713C46.0926 45.713 44.5584 44.1789 44.5584 42.2864C44.5584 40.394 46.0926 38.8598 47.985 38.8598C49.8775 38.8598 51.4116 40.394 51.4116 42.2864C51.4116 44.1789 49.8775 45.713 47.985 45.713Z" fill="black"/>
<path d="M58.5856 2.57109C58.5445 2.49113 58.4086 2.21586 58.243 1.87092C57.9711 1.32266 57.408 0.183894 57.2984 0C56.7273 2.43631 55.4035 7.88116 47.9757 8.69897C47.5176 8.74819 47.0623 8.82177 46.612 8.91942C42.8649 9.43821 40.0627 12.6227 40.0249 16.4054C42.1171 15.984 44.2741 16.7221 45.6696 18.3368C47.5703 20.2375 48.2967 22.7491 47.4298 24.4442C47.3795 24.5378 47.3155 24.6144 47.2642 24.7C51.2618 25.2369 55.488 21.9496 56.7444 20.8611L56.8209 20.7994C59.8706 18.1301 61.5188 14.7766 61.3623 11.5705C61.091 8.40661 60.1441 5.33778 58.5856 2.57109Z" fill="black"/>
</svg>
