<svg width="112" height="29" viewBox="0 0 112 29" fill="none" xmlns="http://www.w3.org/2000/svg">
<path d="M5.12109 28.2617V27.8906C5.61589 27.4349 5.86328 26.5234 5.86328 25.1562V21.4062H5.84375C5.85677 21.0938 5.86328 16.4974 5.86328 7.61719C5.86328 6.92708 5.80469 6.39323 5.6875 6.01562C5.58333 5.625 5.39453 5.29948 5.12109 5.03906V4.66797L9.55469 3.78906V4.16016C9.0599 4.61589 8.8125 5.52083 8.8125 6.875V13.8281C9.51562 12.7734 10.1406 11.7969 10.6875 10.8984C11.2474 10 11.6901 9.17318 12.0156 8.41797C12.3411 7.64974 12.5039 6.9401 12.5039 6.28906C12.5039 5.36458 12.1068 4.59635 11.3125 3.98438C10.5182 3.35938 9.40495 3.04688 7.97266 3.04688C7.00911 3.04688 6.16927 3.2487 5.45312 3.65234C4.75 4.05599 4.20312 4.57031 3.8125 5.19531C3.42188 5.82031 3.22656 6.47135 3.22656 7.14844C3.22656 7.79948 3.3112 8.35286 3.48047 8.80859C3.64974 9.2513 3.86458 9.63542 4.125 9.96094C4.38542 10.2734 4.65234 10.5599 4.92578 10.8203C4.27474 11.4323 3.66276 11.7383 3.08984 11.7383C2.28255 11.7383 1.61198 11.276 1.07812 10.3516C0.544271 9.41406 0.277344 8.34635 0.277344 7.14844C0.277344 5.88542 0.615885 4.72005 1.29297 3.65234C1.98307 2.58464 2.90755 1.72526 4.06641 1.07422C5.22526 0.423177 6.52734 0.0976562 7.97266 0.0976562C10.1211 0.0976562 11.9049 0.677083 13.3242 1.83594C14.7435 2.99479 15.4531 4.47917 15.4531 6.28906C15.4531 7.22656 15.2969 8.125 14.9844 8.98438C14.6719 9.84375 14.2812 10.6771 13.8125 11.4844C13.4609 12.0703 12.8555 13.0273 11.9961 14.3555C12.8034 15.1758 13.4349 16.1263 13.8906 17.207C14.3464 18.2747 14.7305 19.3294 15.043 20.3711C15.3555 21.3997 15.6549 22.2852 15.9414 23.0273C16.2148 23.7044 16.4948 24.2318 16.7812 24.6094C17.0807 24.974 17.4323 25.1562 17.8359 25.1562C18.0964 25.1562 18.3372 25.0781 18.5586 24.9219L18.8125 24.6875C19.151 24.8958 19.3984 25.1432 19.5547 25.4297C19.724 25.7292 19.8086 26.0286 19.8086 26.3281C19.8086 26.7839 19.6393 27.194 19.3008 27.5586C18.9622 27.9232 18.474 28.1055 17.8359 28.1055C15.3229 28.1055 13.487 25.9245 12.3281 21.5625C12.0417 20.651 11.7357 19.7786 11.4102 18.9453C11.0846 18.099 10.7396 17.4349 10.375 16.9531C9.48958 18.4505 8.96875 19.8177 8.8125 21.0547V24.4336C8.8125 25.1107 8.86458 25.6445 8.96875 26.0352C9.08594 26.4258 9.28125 26.7513 9.55469 27.0117V27.3828L5.12109 28.2617ZM29.8086 24.9609H25.2188V24.5898C25.5443 24.2904 25.707 23.8607 25.707 23.3008C25.707 22.9492 25.6549 22.526 25.5508 22.0312C25.4596 21.5365 25.3685 21.0417 25.2773 20.5469H21.8398C21.7487 21.0417 21.651 21.5365 21.5469 22.0312C21.4427 22.526 21.3906 22.9492 21.3906 23.3008C21.3906 23.8607 21.5534 24.2904 21.8789 24.5898V24.9609H17.2891V24.5898C17.9401 23.9909 18.3958 23.1315 18.6562 22.0117L21.4688 8.71094C21.5859 8.20312 21.6445 7.76693 21.6445 7.40234C21.6445 6.86849 21.4883 6.45833 21.1758 6.17188V5.80078H25.0234L28.4609 22.0117C28.6042 22.6628 28.793 23.1901 29.0273 23.5938C29.2747 23.9974 29.5352 24.3294 29.8086 24.5898V24.9609ZM24.6914 17.5977L23.5586 11.7578L22.4062 17.5977H24.6914ZM36.4492 24.9609H31.4297V24.5898C31.7943 24.2773 31.9766 23.7891 31.9766 23.125C31.9766 22.8255 31.9375 22.474 31.8594 22.0703L29.0469 8.75C28.7865 7.63021 28.3307 6.77083 27.6797 6.17188V5.80078H32.4844V6.17188C32.0938 6.4974 31.8984 7.01172 31.8984 7.71484C31.8984 7.98828 31.931 8.30729 31.9961 8.67188L33.9492 19.0039L35.8828 8.75C35.9609 8.35938 36 8.01432 36 7.71484C36 6.9987 35.7982 6.48438 35.3945 6.17188V5.80078H40.1992V6.17188C39.5352 6.79688 39.0859 7.65625 38.8516 8.75L36.0391 22.0117C35.9479 22.4414 35.9023 22.819 35.9023 23.1445C35.9023 23.7956 36.0846 24.2773 36.4492 24.5898V24.9609ZM51.3516 24.9609H41.1758V24.5898C41.4362 24.3294 41.625 24.0039 41.7422 23.6133C41.8594 23.2227 41.918 22.6888 41.918 22.0117V8.75C41.918 8.0599 41.8594 7.52604 41.7422 7.14844C41.625 6.75781 41.4362 6.43229 41.1758 6.17188V5.80078H51.3516L50.6094 9.49219H50.2383C49.9779 9.21875 49.6523 9.02995 49.2617 8.92578C48.8711 8.80859 48.3372 8.75 47.6602 8.75H44.8672V13.1641H46.332C47.0091 13.1641 47.543 13.112 47.9336 13.0078C48.3242 12.8906 48.6497 12.7018 48.9102 12.4414H49.2812L50.1602 16.8555H49.7891C49.5286 16.582 49.2031 16.3932 48.8125 16.2891C48.4349 16.1719 47.901 16.1133 47.2109 16.1133H44.8672V22.0117H47.6602C48.3372 22.0117 48.8711 21.9596 49.2617 21.8555C49.6523 21.7383 49.9779 21.543 50.2383 21.2695H50.6094L51.3516 24.9609ZM64.1055 24.9609H60.4141C60.4141 24.2318 60.2057 23.3138 59.7891 22.207C59.3724 21.1003 58.8451 19.8958 58.207 18.5938C57.6992 17.5781 56.9635 16.1328 56 14.2578V22.0117C56 22.6888 56.0521 23.2227 56.1562 23.6133C56.2734 24.0039 56.4622 24.3294 56.7227 24.5898V24.9609H52.3086V24.5898C52.569 24.3294 52.7578 24.0039 52.875 23.6133C52.9922 23.2227 53.0508 22.6888 53.0508 22.0117V8.75C53.0508 8.0599 52.9922 7.52604 52.875 7.14844C52.7578 6.75781 52.569 6.43229 52.3086 6.17188V5.80078H56C56 6.49089 56.2083 7.3763 56.625 8.45703C57.0417 9.53776 57.569 10.7292 58.207 12.0312C58.9102 13.4375 59.6458 14.8763 60.4141 16.3477V8.75C60.4141 8.0599 60.3555 7.52604 60.2383 7.14844C60.1341 6.75781 59.9453 6.43229 59.6719 6.17188V5.80078H64.1055V6.17188C63.832 6.43229 63.6367 6.75781 63.5195 7.14844C63.4154 7.52604 63.3633 8.0599 63.3633 8.75V22.0117C63.3633 22.6888 63.4154 23.2227 63.5195 23.6133C63.6367 24.0039 63.832 24.3294 64.1055 24.5898V24.9609ZM70.4141 24.9609H65.2383V24.5898C65.5117 24.3294 65.7005 24.0039 65.8047 23.6133C65.9219 23.2227 65.9805 22.6888 65.9805 22.0117V8.75C65.9805 8.0599 65.9219 7.52604 65.8047 7.14844C65.7005 6.75781 65.5117 6.43229 65.2383 6.17188V5.80078H70.4141C71.7943 5.80078 73.0052 6.21745 74.0469 7.05078C75.1016 7.88411 75.9219 9.02344 76.5078 10.4688C77.1068 11.9141 77.4062 13.5547 77.4062 15.3906C77.4062 17.2005 77.1133 18.8281 76.5273 20.2734C75.9414 21.7188 75.1211 22.8646 74.0664 23.7109C73.0247 24.5443 71.8073 24.9609 70.4141 24.9609ZM70.4141 22.0117C71.1432 22.0117 71.8203 21.7643 72.4453 21.2695C73.0703 20.7747 73.5716 20.0326 73.9492 19.043C74.3398 18.0534 74.5352 16.8359 74.5352 15.3906C74.5352 13.9323 74.3398 12.7148 73.9492 11.7383C73.5716 10.7487 73.0703 10.0065 72.4453 9.51172C71.8203 9.00391 71.1432 8.75 70.4141 8.75H68.9297V22.0117H70.4141ZM89.418 24.9609H84.8281V24.5898C85.1536 24.2904 85.3164 23.8607 85.3164 23.3008C85.3164 22.9492 85.2643 22.526 85.1602 22.0312C85.069 21.5365 84.9779 21.0417 84.8867 20.5469H81.4492C81.3581 21.0417 81.2604 21.5365 81.1562 22.0312C81.0521 22.526 81 22.9492 81 23.3008C81 23.8607 81.1628 24.2904 81.4883 24.5898V24.9609H76.8984V24.5898C77.5495 23.9909 78.0052 23.1315 78.2656 22.0117L81.0781 8.71094C81.1953 8.20312 81.2539 7.76693 81.2539 7.40234C81.2539 6.86849 81.0977 6.45833 80.7852 6.17188V5.80078H84.6328L88.0703 22.0117C88.2135 22.6628 88.4023 23.1901 88.6367 23.5938C88.8841 23.9974 89.1445 24.3294 89.418 24.5898V24.9609ZM84.3008 17.5977L83.168 11.7578L82.0156 17.5977H84.3008ZM100.57 24.9609H90.3945V24.5898C90.668 24.3294 90.8568 24.0039 90.9609 23.6133C91.0781 23.2227 91.1367 22.6888 91.1367 22.0117V8.75C91.1367 8.0599 91.0781 7.52604 90.9609 7.14844C90.8568 6.75781 90.668 6.43229 90.3945 6.17188V5.80078H94.8086V6.17188C94.5482 6.43229 94.3594 6.75781 94.2422 7.14844C94.138 7.52604 94.0859 8.0599 94.0859 8.75V22.0117H96.8789C97.556 22.0117 98.0898 21.9596 98.4805 21.8555C98.8711 21.7383 99.1966 21.543 99.457 21.2695H99.8281L100.57 24.9609ZM111.703 24.9609H101.527V24.5898C101.788 24.3294 101.977 24.0039 102.094 23.6133C102.211 23.2227 102.27 22.6888 102.27 22.0117V8.75C102.27 8.0599 102.211 7.52604 102.094 7.14844C101.977 6.75781 101.788 6.43229 101.527 6.17188V5.80078H111.703L110.961 9.49219H110.59C110.329 9.21875 110.004 9.02995 109.613 8.92578C109.223 8.80859 108.689 8.75 108.012 8.75H105.219V13.1641H106.684C107.361 13.1641 107.895 13.112 108.285 13.0078C108.676 12.8906 109.001 12.7018 109.262 12.4414H109.633L110.512 16.8555H110.141C109.88 16.582 109.555 16.3932 109.164 16.2891C108.786 16.1719 108.253 16.1133 107.562 16.1133H105.219V22.0117H108.012C108.689 22.0117 109.223 21.9596 109.613 21.8555C110.004 21.7383 110.329 21.543 110.59 21.2695H110.961L111.703 24.9609Z" fill="white"/>
</svg>
