<svg width="35" height="37" viewBox="0 0 35 37" fill="none" xmlns="http://www.w3.org/2000/svg">
<path d="M34.0913 9.53023C35.354 6.6739 35.2841 3.35214 33.8817 0.547352C33.5227 -0.182573 32.4584 -0.182307 32.0994 0.547286C27.6733 9.39845 19.0358 10.6686 15.7227 10.6686H7.31233C-1.09041 11.0174 -1.08396 22.9875 7.31233 23.3333H8.69008C8.55923 22.6842 8.56023 21.9851 8.68995 21.3406H8.37956C5.44385 21.2171 5.46477 17.041 8.37956 16.9301H15.7227C16.8127 16.9301 27.0536 16.9989 32.0865 27.0251C32.4394 27.7883 33.5357 27.7906 33.8923 27.0296C35.2845 24.2292 35.3508 20.917 34.0913 18.0678C35.2878 15.3612 35.2878 12.2368 34.0913 9.53023Z" fill="black"/>
<path d="M16.8461 22.3373C16.8461 20.611 15.4417 19.2066 13.7154 19.2066C11.6159 19.1682 10.0481 21.3634 10.7474 23.3336H16.6832C16.7887 23.0205 16.8461 22.6855 16.8461 22.3373Z" fill="black"/>
<path d="M27.589 27.3189C28.9109 27.2662 28.9099 25.3783 27.589 25.3262H6.245C4.92304 25.3788 4.92404 27.2667 6.245 27.3189H7.38309V30.9456H6.245C4.92304 30.9983 4.92404 32.8862 6.245 32.9383H7.38309V33.0091C7.43577 34.3311 9.32365 34.3301 9.37579 33.0091V32.9383H24.4583V33.0091C24.5109 34.3311 26.3988 34.3301 26.451 33.0091V32.9383H27.589C28.9109 32.8857 28.9099 30.9978 27.589 30.9456H26.451V27.3189H27.589Z" fill="black"/>
</svg>
