<svg width="30" height="26" viewBox="0 0 30 26" fill="none" xmlns="http://www.w3.org/2000/svg">
<path d="M29.3202 3.55385C28.8489 3.76288 28.3643 3.9393 27.8692 4.08253C28.4554 3.41963 28.9023 2.63962 29.1751 1.78608C29.2363 1.59475 29.1729 1.38533 29.0156 1.26021C28.8586 1.13498 28.6403 1.11998 28.4674 1.22246C27.416 1.84608 26.2816 2.29424 25.0921 2.5563C23.894 1.38553 22.2666 0.719238 20.5843 0.719238C17.0331 0.719238 14.1441 3.60824 14.1441 7.15927C14.1441 7.43895 14.1618 7.71708 14.1968 7.99133C9.79018 7.60443 5.69344 5.43853 2.88021 1.98766C2.77996 1.86466 2.6255 1.79837 2.46738 1.81104C2.30915 1.82343 2.16699 1.91266 2.08705 2.04979C1.51647 3.02885 1.21483 4.14862 1.21483 5.28795C1.21483 6.83972 1.76886 8.31204 2.74754 9.4625C2.44996 9.35943 2.16118 9.23063 1.88557 9.07762C1.7376 8.99527 1.55702 8.99653 1.41002 9.08082C1.26292 9.16511 1.1707 9.32014 1.16683 9.48959C1.16615 9.51814 1.16615 9.54669 1.16615 9.57562C1.16615 11.8919 2.41279 13.9773 4.31876 15.1139C4.15502 15.0976 3.99138 15.0738 3.82879 15.0428C3.66118 15.0108 3.48883 15.0695 3.37579 15.1973C3.26257 15.3251 3.22512 15.5031 3.27728 15.6657C3.98276 17.8683 5.79912 19.4884 7.99492 19.9823C6.17373 21.123 4.09105 21.7205 1.90473 21.7205C1.44854 21.7205 0.98973 21.6937 0.540698 21.6406C0.317633 21.614 0.104343 21.7458 0.0283754 21.9579C-0.0475924 22.1701 0.0329238 22.4067 0.222698 22.5284C3.03138 24.3292 6.27902 25.2811 9.61434 25.2811C16.1712 25.2811 20.273 22.1892 22.5592 19.5953C25.4102 16.361 27.0453 12.08 27.0453 7.85014C27.0453 7.67343 27.0426 7.49498 27.0372 7.31711C28.162 6.46966 29.1304 5.44404 29.9184 4.26524C30.0381 4.08621 30.0252 3.84959 29.8865 3.68479C29.748 3.51988 29.5172 3.46656 29.3202 3.55385Z" fill="white"/>
</svg>
