<svg width="16" height="16" viewBox="0 0 16 16" fill="none" xmlns="http://www.w3.org/2000/svg">
<path d="M14.2269 7.59092C14.0148 7.37878 13.7573 7.27279 13.4541 7.27279H13.0907V5.09085C13.0907 3.69693 12.5908 2.50007 11.5908 1.50007C10.5908 0.500022 9.39407 0 7.99996 0C6.60588 0 5.4089 0.500022 4.40901 1.50003C3.40897 2.50007 2.90911 3.69689 2.90911 5.09085V7.27279H2.54552C2.2426 7.27279 1.98496 7.37878 1.77282 7.59092C1.56068 7.8029 1.45465 8.06054 1.45465 8.36374V14.9091C1.45465 15.2121 1.56072 15.4698 1.77282 15.6819C1.98496 15.8939 2.2426 16 2.54552 16H13.4544C13.7576 16 14.015 15.894 14.2272 15.6819C14.4392 15.4698 14.5454 15.2121 14.5454 14.9091V8.36362C14.5455 8.06066 14.4392 7.80306 14.2269 7.59092ZM10.909 7.27279H5.09093V5.09085C5.09093 4.28786 5.37507 3.60221 5.94323 3.03412C6.51147 2.46596 7.19701 2.18194 8.00008 2.18194C8.80323 2.18194 9.4886 2.46592 10.0569 3.03412C10.6249 3.60217 10.909 4.28786 10.909 5.09085V7.27279Z" fill="#FEB113"/>
</svg>
