<svg width="87" height="87" viewBox="0 0 87 87" fill="none" xmlns="http://www.w3.org/2000/svg">
<path d="M87 39.3574H56.4127L82.9516 24.0337L79.9133 18.7668L52.1639 34.792L68.1851 7.03856L62.7739 4.00028L46.6084 31.7497V0H40.3916V31.7497L24.5829 4.00028L19.4242 7.03856L35.4974 34.792L7.77609 18.7668L4.74582 24.0337L31.3008 39.3574H0V46.6084H31.6936L4.76185 62.1566L7.80014 67.4235L35.5495 51.4024L19.5284 79.1518L24.5829 82.19L40.3916 54.4406V87H46.6084V54.4406L62.7739 82.19L68.1129 79.1518L52.1278 51.4024L79.8933 67.4235L82.9436 62.1566L56.0199 46.6084H87V39.3574Z" fill="white"/>
</svg>
