<svg width="327" height="80" viewBox="0 0 327 80" fill="none" xmlns="http://www.w3.org/2000/svg">
<path d="M12.252 73.7892L15.2502 76.7874H25.8045L22.7457 73.7285L12.252 73.7892Z" fill="#00F0FF"/>
<path d="M27.0605 73.7892L30.0588 76.7874H40.6131L37.5586 73.7285L27.0605 73.7892Z" fill="#00F0FF"/>
<path d="M41.874 73.7892L44.8722 76.7874H55.4266L52.3678 73.7285L41.874 73.7892Z" fill="#00F0FF"/>
<path d="M56.6826 73.7892L59.6808 76.7874H70.2352L67.1807 73.7285L56.6826 73.7892Z" fill="#00F0FF"/>
<path d="M144.829 3.62808L147.827 0.629883H158.382L155.327 3.68441L144.829 3.62808Z" fill="#00F0FF"/>
<path d="M159.642 3.62808L162.64 0.629883H173.194L170.135 3.68441L159.642 3.62808Z" fill="#00F0FF"/>
<path d="M174.451 3.62808L177.449 0.629883H188.004L184.949 3.68441L174.451 3.62808Z" fill="#00F0FF"/>
<path d="M189.265 3.62808L192.263 0.629883H202.813L199.758 3.68441L189.265 3.62808Z" fill="#00F0FF"/>
<path d="M276.755 79.2853L279.753 76.2871H290.303L287.249 79.3416L276.755 79.2853Z" fill="#00F0FF"/>
<path d="M291.563 79.2853L294.562 76.2871H305.116L302.062 79.3416L291.563 79.2853Z" fill="#00F0FF"/>
<path d="M2 15.2457V60.7297L13.0006 71.7303H68.2637L74.4984 77.965H274.442L278.524 73.8836H312.929L325 61.8085V11.3637L317.058 3.42188H203.651L201.043 6.02581H103.727L101.664 3.96346H13.4555L2 15.2457Z" fill="url(#paint0_linear_2191_350)"/>
<path d="M2 15.5201L2 60.7295L13.0006 71.7301H68.2637L74.4984 77.9648H274.442L278.524 73.8834H312.929L325 61.8083V11.6381L317.058 3.69629H203.651L201.043 6.30022H103.727L101.664 4.23787H13.4555L2 15.5201Z" stroke="#00F0FF" stroke-width="3.04" stroke-miterlimit="10"/>
<defs>
<linearGradient id="paint0_linear_2191_350" x1="63.207" y1="33.5985" x2="468.038" y2="45.9064" gradientUnits="userSpaceOnUse">
<stop stop-color="#00F0FF"/>
<stop offset="1" stop-color="#00F0FF" stop-opacity="0"/>
</linearGradient>
</defs>
</svg>
