<svg width="701" height="468" viewBox="0 0 701 468" fill="none" xmlns="http://www.w3.org/2000/svg">
<g clip-path="url(#clip0_1012_2)">
<path d="M47.813 212.185H0V255.672H8.35372V242.697H47.813C54.5701 242.697 60.0727 237.194 60.0727 230.407V224.476C60.0727 217.689 54.5701 212.185 47.813 212.185ZM51.7475 230.407C51.7475 232.603 49.9798 234.342 47.813 234.342H8.35372V220.512H47.813C49.9798 220.512 51.7475 222.28 51.7475 224.447V230.379V230.407Z" fill="white"/>
<path d="M628.896 230.407V224.476C628.896 217.689 623.393 212.185 616.608 212.185H568.823V255.672H577.177V242.697H613.471L619.487 255.872H628.668L622.025 241.414C626.102 239.418 628.896 235.255 628.896 230.436V230.407ZM620.542 230.407C620.542 232.603 618.775 234.342 616.608 234.342H577.177V220.512H616.608C618.775 220.512 620.542 222.28 620.542 224.447V230.379V230.407Z" fill="white"/>
<path d="M108.285 220.484H111.193V255.672H119.518V212.128H108.256C102.868 212.128 97.7642 214.182 93.8012 218.031L57.3071 255.672H68.9111L99.703 223.934C102.012 221.71 105.035 220.455 108.256 220.455L108.285 220.484Z" fill="white"/>
<path d="M191.708 243.353V242.469C191.708 235.882 186.348 230.55 179.791 230.55H144.522C142.527 230.55 140.902 228.924 140.902 226.928V224.134C140.902 223.164 141.272 222.252 141.956 221.567C142.641 220.883 143.553 220.512 144.522 220.512H188.971V212.214H144.522V212.185C141.329 212.185 138.336 213.44 136.055 215.693C133.802 217.946 132.548 220.968 132.548 224.162V226.957C132.548 233.544 137.908 238.933 144.522 238.933H179.791C181.758 238.933 183.383 240.559 183.383 242.526V243.41C183.383 245.72 181.501 247.573 179.22 247.573H135.142V255.758H180.589C186.833 255.073 191.737 249.826 191.737 243.382L191.708 243.353Z" fill="white"/>
<path d="M689.083 230.521H653.786C651.819 230.521 650.194 228.896 650.194 226.928V224.077C650.194 223.107 650.564 222.223 651.248 221.539C651.933 220.854 652.817 220.484 653.786 220.484H698.377V212.157H653.786C650.593 212.157 647.599 213.383 645.347 215.636C643.094 217.889 641.84 220.883 641.84 224.077V226.928C641.84 233.515 647.2 238.848 653.757 238.848H689.054C691.021 238.848 692.646 240.473 692.646 242.441V243.923C692.646 245.891 691.021 247.516 689.054 247.516H644.406V255.843H689.054C695.64 255.843 700.972 250.482 700.972 243.923V242.441C700.972 235.854 695.612 230.521 689.054 230.521H689.083Z" fill="white"/>
<path d="M262.814 243.895V242.498C262.814 235.911 257.454 230.521 250.84 230.521H215.6C213.604 230.521 211.979 228.896 211.979 226.9V224.105C211.979 223.136 212.35 222.223 213.034 221.539C213.718 220.854 214.631 220.484 215.6 220.484H260.134V212.157H215.6C212.407 212.157 209.413 213.412 207.132 215.664C204.88 217.917 203.625 220.94 203.625 224.134V226.928C203.625 233.515 208.986 238.905 215.6 238.905H250.84C252.835 238.905 254.461 240.53 254.461 242.526V243.923C254.461 245.92 252.835 247.545 250.84 247.545H206.22V255.758H252.009C258.053 255.187 262.814 250.14 262.814 243.923V243.895Z" fill="white"/>
<path d="M290.384 220.484H336.145V212.157H290.384C282.344 212.157 275.844 218.687 275.844 226.7V241.3C275.844 248.771 281.489 254.902 288.702 255.758H336.145V247.516H290.384C286.963 247.516 284.169 244.722 284.169 241.3V238.505H329.673V230.179H284.169V226.7C284.169 223.278 286.963 220.484 290.384 220.484V220.484Z" fill="white"/>
<path d="M510.033 220.484H555.793V212.157H510.033C501.993 212.157 495.493 218.687 495.493 226.7V241.3C495.493 249.056 501.594 255.387 509.263 255.815H555.822V247.516H510.062C506.64 247.516 503.846 244.722 503.846 241.3V237.536H550.776V229.209H503.846V226.7C503.846 223.278 506.64 220.484 510.062 220.484H510.033Z" fill="white"/>
<path d="M401.178 212.157V247.516H394.792C393.138 247.516 391.57 246.689 390.629 245.321L372.211 218.06C369.731 214.381 365.597 212.185 361.149 212.185H348.661V255.615H356.986V220.512H361.12C362.774 220.512 364.342 221.339 365.283 222.708L383.701 249.969C385.954 253.305 389.574 255.415 393.566 255.786H409.504V212.157H401.178V212.157Z" fill="white"/>
<path d="M473.91 234.741V247.516H435.049C432.597 247.516 430.63 245.52 430.63 243.097V224.961C430.63 222.508 432.626 220.541 435.049 220.541H482.663V212.214H435.049C428.007 212.214 422.276 217.946 422.276 224.989V243.125C422.276 249.94 427.665 255.501 434.422 255.815H482.235V234.77H473.91V234.741Z" fill="white"/>
<path d="M576.065 266.08C560.384 379.972 462.42 468 344.299 468C226.178 468 128.214 379.972 112.533 266.08H121.029C136.625 375.352 230.796 459.616 344.299 459.616C457.801 459.616 551.973 375.352 567.568 266.08H576.065V266.08Z" fill="white"/>
<path d="M576.065 201.92H567.568C551.973 92.6476 457.801 8.38362 344.299 8.38362C230.796 8.38362 136.625 92.6476 121.029 201.92H112.533C128.214 88.028 226.178 0 344.299 0C462.42 0 560.384 88.028 576.065 201.92Z" fill="white"/>
</g>
<defs>
<clipPath id="clip0_1012_2">
<rect width="701" height="468" fill="white"/>
</clipPath>
</defs>
</svg>
