<svg width="259" height="64" viewBox="0 0 259 64" fill="none" xmlns="http://www.w3.org/2000/svg">
<path d="M258.227 57.9999L258.227 62.9999L257.782 62.9999C257.469 62.6902 257.079 62.4763 256.61 62.3583C256.141 62.2256 255.5 62.1593 254.687 62.1593L3.54027 62.4547C2.71186 62.4547 2.07102 62.5211 1.61773 62.6538C1.14883 62.7718 0.758069 62.9857 0.445462 63.2954L0 63.2954L-2.18557e-07 58.2954L0.445462 58.2954C0.758068 58.5904 1.14883 58.8043 1.61773 58.937C2.07102 59.055 2.71186 59.114 3.54027 59.114L254.687 58.8185C255.5 58.8185 256.141 58.7595 256.61 58.6415C257.079 58.5088 257.469 58.2949 257.782 57.9999L258.227 57.9999Z" fill="white"/>
<path d="M10 62H5.27899V61.6026C5.57141 61.3237 5.77338 60.9752 5.88479 60.5568C6.0101 60.1386 6.07276 59.5669 6.07276 58.8418L5.79377 5.15822C5.79377 4.41922 5.73112 3.84753 5.6058 3.44316C5.49439 3.02486 5.29243 2.67626 5 2.39739V2H9.72102V2.39739C9.44249 2.67626 9.24053 3.02486 9.11522 3.44316C9.00381 3.84753 8.9481 4.41922 8.9481 5.15822L9.22709 58.8418C9.22709 59.5669 9.28279 60.1386 9.3942 60.5568C9.51951 60.9752 9.72148 61.3237 10 61.6026V62Z" fill="white"/>
<path d="M254 61H249.279V60.6092C249.571 60.335 249.773 59.9923 249.885 59.5809C250.01 59.1696 250.073 58.6074 250.073 57.8945L249.794 5.10559C249.794 4.3789 249.731 3.81673 249.606 3.4191C249.494 3.00778 249.292 2.66499 249 2.39077V2H253.721V2.39077C253.442 2.66499 253.241 3.00778 253.115 3.4191C253.004 3.81673 252.948 4.3789 252.948 5.10559L253.227 57.8945C253.227 58.6074 253.283 59.1696 253.394 59.5809C253.52 59.9923 253.721 60.335 254 60.6092V61Z" fill="white"/>
<path d="M258.227 -6.46932e-05L258.227 4.99994L257.782 4.99994C257.469 4.69023 257.079 4.47633 256.61 4.35833C256.141 4.22561 255.5 4.15925 254.687 4.15925L3.54027 4.45473C2.71186 4.45473 2.07102 4.52109 1.61773 4.65381C1.14883 4.7718 0.758069 4.9857 0.445462 5.29541L0 5.29541L-2.18557e-07 0.295409L0.445462 0.295409C0.758068 0.590393 1.14883 0.804289 1.61773 0.937008C2.07102 1.055 2.71186 1.114 3.54027 1.114L254.687 0.818526C255.5 0.818526 256.141 0.759528 256.61 0.641535C257.079 0.508816 257.469 0.294919 257.782 -6.46738e-05L258.227 -6.46932e-05Z" fill="white"/>
</svg>
